/* XPM */
static char *door[] = {
/* columns rows colors chars-per-pixel */
"128 128 3 1 ",
"  c #663931",
". c #AC3232",
"X c None",
/* pixels */
"XXXXXXXXXXXXXXXXXXXXXXXXXXXXXXXXXXXXXXXXXX                               XXXXXXXXXXXXXXXXXXXXXXXXXXXXXXXXXXXXXXXXXXXXXXXXXXXXXXX",
"XXXXXXXXXXXXXXXXXXXXXXXXXXXXXXXXXXXXXXXXX                                     XXXXXXXXXXXXXXXXXXXXXXXXXXXXXXXXXXXXXXXXXXXXXXXXXX",
"XXXXXXXXXXXXXXXXXXXXXXXXXXXXXXXXXXXXXXXX                                        XXXXXXXXXXXXXXXXXXXXXXXXXXXXXXXXXXXXXXXXXXXXXXXX",
"XXXXXXXXXXXXXXXXXXXXXXXXXXXXXXXXXXXXXXX                                            XXXXXXXXXXXXXXXXXXXXXXXXXXXXXXXXXXXXXXXXXXXXX",
"XXXXXXXXXXXXXXXXXXXXXXXXXXXXXXXXXXXXXX                                              XXXXXXXXXXXXXXXXXXXXXXXXXXXXXXXXXXXXXXXXXXXX",
"XXXXXXXXXXXXXXXXXXXXXXXXXXXXXXXXXXXXX                                                 XXXXXXXXXXXXXXXXXXXXXXXXXXXXXXXXXXXXXXXXXX",
"XXXXXXXXXXXXXXXXXXXXXXXXXXXXXXXXXXXXX                                                  XXXXXXXXXXXXXXXXXXXXXXXXXXXXXXXXXXXXXXXXX",
"XXXXXXXXXXXXXXXXXXXXXXXXXXXXXXXXXXXX                                                    XXXXXXXXXXXXXXXXXXXXXXXXXXXXXXXXXXXXXXXX",
"XXXXXXXXXXXXXXXXXXXXXXXXXXXXXXXXXXX              XXXXXXX                                 XXXXXXXXXXXXXXXXXXXXXXXXXXXXXXXXXXXXXXX",
"XXXXXXXXXXXXXXXXXXXXXXXXXXXXXXXXXX             XXXXXXXXX                                  XXXXXXXXXXXXXXXXXXXXXXXXXXXXXXXXXXXXXX",
"XXXXXXXXXXXXXXXXXXXXXXXXXXXXXXXXX             XXXXXXXXXX          XXX                      XXXXXXXXXXXXXXXXXXXXXXXXXXXXXXXXXXXXX",
"XXXXXXXXXXXXXXXXXXXXXXXXXXXXXXXXX             XXXXXXXXXX          XXXXXXXXX                 XXXXXXXXXXXXXXXXXXXXXXXXXXXXXXXXXXXX",
"XXXXXXXXXXXXXXXXXXXXXXXXXXXXXXXX             XXXXXXXXXXX          XXXXXXXXXXX                XXXXXXXXXXXXXXXXXXXXXXXXXXXXXXXXXXX",
"XXXXXXXXXXXXXXXXXXXXXXXXXXXXXXX             XXXXXXXXXXXX          XXXXXXXXXXXXXX              XXXXXXXXXXXXXXXXXXXXXXXXXXXXXXXXXX",
"XXXXXXXXXXXXXXXXXXXXXXXXXXXXXX             XXXXXXXXXXXXX          XXXXXXXXXXXXXXX              XXXXXXXXXXXXXXXXXXXXXXXXXXXXXXXXX",
"XXXXXXXXXXXXXXXXXXXXXXXXXXXXXX            XXXXXXXXXXXXXX          XXXXXXXXXXXXXXXX              XXXXXXXXXXXXXXXXXXXXXXXXXXXXXXXX",
"XXXXXXXXXXXXXXXXXXXXXXXXXXXXX             XXXXXXXXXXXXXX          XXXXXXXXXXXXXXXXX              XXXXXXXXXXXXXXXXXXXXXXXXXXXXXXX",
"XXXXXXXXXXXXXXXXXXXXXXXXXXXXX              XXXXXXXXXXXXX          XXXXXXXXXXXXXXXXX               XXXXXXXXXXXXXXXXXXXXXXXXXXXXXX",
"XXXXXXXXXXXXXXXXXXXXXXXXXXXX                XXXXXXXXXXXX          XXXXXXXXXXXXXXXXX               XXXXXXXXXXXXXXXXXXXXXXXXXXXXXX",
"XXXXXXXXXXXXXXXXXXXXXXXXXXX                  XXXXXXXXXXX          XXXXXXXXXXXXXXXXX                XXXXXXXXXXXXXXXXXXXXXXXXXXXXX",
"XXXXXXXXXXXXXXXXXXXXXXXXXXX                   XXXXXXXXXX           XXXXXXXXXXXXXXXX                 XXXXXXXXXXXXXXXXXXXXXXXXXXXX",
"XXXXXXXXXXXXXXXXXXXXXXXXXXX                   XXXXXXXXXX           XXXXXXXXXXXXXXXX                  XXXXXXXXXXXXXXXXXXXXXXXXXXX",
"XXXXXXXXXXXXXXXXXXXXXXXXXX                    XXXXXXXXXX           XXXXXXXXXXXXXXXXX                  XXXXXXXXXXXXXXXXXXXXXXXXXX",
"XXXXXXXXXXXXXXXXXXXXXXXXX                     XXXXXXXXXXX          XXXXXXXXXXXXXXXXX                   XXXXXXXXXXXXXXXXXXXXXXXXX",
"XXXXXXXXXXXXXXXXXXXXXXXXX                     XXXXXXXXXXX          XXXXXXXXXXXXXXXXXX                  XXXXXXXXXXXXXXXXXXXXXXXXX",
"XXXXXXXXXXXXXXXXXXXXXXXX                      XXXXXXXXXXX          XXXXXXXXXXXXXXXXXX                   XXXXXXXXXXXXXXXXXXXXXXXX",
"XXXXXXXXXXXXXXXXXXXXXXX                       XXXXXXXXXXX          XXXXXXXXXXXXXXXXXX                    XXXXXXXXXXXXXXXXXXXXXXX",
"XXXXXXXXXXXXXXXXXXXXXX             X          XXXXXXXXXXX           XXXXXXXXXXXXXXXXX                     XXXXXXXXXXXXXXXXXXXXXX",
"XXXXXXXXXXXXXXXXXXXXXX             X          XXXXXXXXXXX           XXXXXXXXXXXXXXXXX                     XXXXXXXXXXXXXXXXXXXXXX",
"XXXXXXXXXXXXXXXXXXXXXX            XX          XXXXXXXXXXX           XXXXXXXXXXXXXXXXX                      XXXXXXXXXXXXXXXXXXXXX",
"XXXXXXXXXXXXXXXXXXXXXX           XXX          XXXXXXXXXXXX           XXXXXXXXXXXXXXXXX                      XXXXXXXXXXXXXXXXXXXX",
"XXXXXXXXXXXXXXXXXXXXX           XXXX          XXXXXXXXXXXX           XXXXXXXXXXXXXXXXX                       XXXXXXXXXXXXXXXXXXX",
"XXXXXXXXXXXXXXXXXXXX            XXXX          XXXXXXXXXXXX           XXXXXXXXXXXXXXXXX          X             XXXXXXXXXXXXXXXXXX",
"XXXXXXXXXXXXXXXXXXX             XXXX          XXXXXXXXXXXXX          XXXXXXXXXXXXXXXXX          XX            XXXXXXXXXXXXXXXXXX",
"XXXXXXXXXXXXXXXXXXX            XXXXX          XXXXXXXXXXXXX          XXXXXXXXXXXXXXXXX          XX            XXXXXXXXXXXXXXXXXX",
"XXXXXXXXXXXXXXXXXXX            XXXXX          XXXXXXXXXXXXX          XXXXXXXXXXXXXXXXX          XXX            XXXXXXXXXXXXXXXXX",
"XXXXXXXXXXXXXXXXXX            XXXXXX          XXXXXXXXXXXXX          XXXXXXXXXXXXXXXXX          XXXX           XXXXXXXXXXXXXXXXX",
"XXXXXXXXXXXXXXXXX            XXXXXXX          XXXXXXXXXXXXX          XXXXXXXXXXXXXXXXX          XXXX           XXXXXXXXXXXXXXXXX",
"XXXXXXXXXXXXXXXXX            XXXXXXX          XXXXXXXXXXXXX          XXXXXXXXXXXXXXXXX          XXXXX           XXXXXXXXXXXXXXXX",
"XXXXXXXXXXXXXXXXX           XXXXXXXX          XXXXXXXXXXXXX          XXXXXXXXXXXXXXXXX           XXXX            XXXXXXXXXXXXXXX",
"XXXXXXXXXXXXXXXXX          XXXXXXXXX          XXXXXXXXXXXXX          XXXXXXXXXXXXXXXXX           XXXX            XXXXXXXXXXXXXXX",
"XXXXXXXXXXXXXXXX           XXXXXXXXX          XXXXXXXXXXXXX          XXXXXXXXXXXXXXXXX           XXXXX           XXXXXXXXXXXXXXX",
"XXXXXXXXXXXXXXXX           XXXXXXXXX          XXXXXXXXXXXXX           XXXXXXXXXXXXXXXXX          XXXXXX          XXXXXXXXXXXXXXX",
"XXXXXXXXXXXXXXXX           XXXXXXXXX          XXXXXXXXXXXXX           XXXXXXXXXXXXXXXXX          XXXXXX          XXXXXXXXXXXXXXX",
"XXXXXXXXXXXXXXXX          XXXXXXXXXX          XXXXXXXXXXXXX           XXXXXXXXXXXXXXXXX          XXXXXX          XXXXXXXXXXXXXXX",
"XXXXXXXXXXXXXXXX          XXXXXXXXXX          XXXXXXXXXXXXXX          XXXXXXXXXXXXXXXXX           XXXXX           XXXXXXXXXXXXXX",
"XXXXXXXXXXXXXXXX          XXXXXXXXXX          XXXXXXXXXXXXXX           XXXXXXXXXXXXXXXX           XXXXX           XXXXXXXXXXXXXX",
"XXXXXXXXXXXXXXXX          XXXXXXXXXX          XXXXXXXXXXXXXX           XXXXXXXXXXXXXXXX           XXXXX            XXXXXXXXXXXXX",
"XXXXXXXXXXXXXXXX          XXXXXXXXXX          XXXXXXXXXXXXXX           XXXXXXXXXXXXXXXXX          XXXXXX            XXXXXXXXXXXX",
"XXXXXXXXXXXXXXXX          XXXXXXXXXX          XXXXXXXXXXXXXXX          XXXXXXXXXXXXXXXXX          XXXXXX            XXXXXXXXXXXX",
"XXXXXXXXXXXXXXXX          XXXXXXXXXX          XXXXXXXXXXXXXXX          XXXXXXXXXXXXXXXXX          XXXXXX            XXXXXXXXXXXX",
"XXXXXXXXXXXXXXX           XXXXXXXXXX          XXXXXXXXXXXXXXX           XXXXXXXXXXXXXXXX          XXXXXXX           XXXXXXXXXXXX",
"XXXXXXXXXXXXXXX           XXXXXXXXXX          XXXXXXXXXXXXXXX           XXXXXXXXXXXXXXXX           XXXXXXX          XXXXXXXXXXXX",
"XXXXXXXXXXXXXXX           XXXXXXXXXX          XXXXXXXXXXXXXXX           XXXXXXXXXXXXXXXX           XXXXXXX          XXXXXXXXXXXX",
"XXXXXXXXXXXXXXX          XXXXXXXXXXX          XXXXXXXXXXXXXXXX          XXXXXXXXXXXXXXXX           XXXXXXX           XXXXXXXXXXX",
"XXXXXXXXXXXXXX           XXXXXXXXXXX          XXXXXXXXXXXXXXXX          XXXXXXXXXXXXXXXXX          XXXXXXX           XXXXXXXXXXX",
"XXXXXXXXXXXXXX           XXXXXXXXXXX          XXXXXXXXXXXXXXXX           XXXXXXXXXXXXXXXX          XXXXXXX           XXXXXXXXXXX",
"XXXXXXXXXXXXXX           XXXXXXXXXXX          XXXXXXXXXXXXXXXX           XXXXXXXXXXXXXXXX          XXXXXXXX          XXXXXXXXXXX",
"XXXXXXXXXXXXX           XXXXXXXXXXXX          XXXXXXXXXXXXXXXX           XXXXXXXXXXXXXXXX          XXXXXXXX          XXXXXXXXXXX",
"XXXXXXXXXXXXX           XXXXXXXXXXXX          XXXXXXXXXXXXXXXXX          XXXXXXXXXXXXXXXX           XXXXXXX          XXXXXXXXXXX",
"XXXXXXXXXXXX            XXXXXXXXXXXX          XXXXXXXXXXXXXXXXX          XXXXXXXXXXXXXXXX           XXXXXXX           XXXXXXXXXX",
"XXXXXXXXXXXX           XXXXXXXXXXXXX          XXXXXXXXXXXXXXXXX          XXXXXXXXXXXXXXXX           XXXXXXX           XXXXXXXXXX",
"XXXXXXXXXXXX           XXXXXXXXXXXXX          XXXXXXXXXXXXXXXXX           XXXXXXXXXXXXXXXX          XXXXXXX           XXXXXXXXXX",
"XXXXXXXXXXXX          XXXXXXXXXXXXXX          XXXXXXXXXXXXXXXXX           XXXXXXXXXXXXXXXX          XXXXXXXX           XXXXXXXXX",
"XXXXXXXXXXXX          XXXXXXXXXXXXXX          XXXXXXXXXXXXXXXXX           XXXXXXXXXXXXXXXX          XXXXXXXX           XXXXXXXXX",
"XXXXXXXXXXXX          XXXXXXXXXXXXXX          XXXXXXXXXXXXXXXXXX          XXXXXXXXXXXXXXXX          XXXXXXXX           XXXXXXXXX",
"XXXXXXXXXXXX          XXXXXXXXXXXXXX          XXXXXXXXXXXXXXXXXX          XXXXXXXXXXXXXXXX           XXXXXXXX          XXXXXXXXX",
"XXXXXXXXXXXX          XXXXXXXXXXXXXX          XXXXXXXXXXXXXXXXXX          XXXXXXXXXXXXXXXX           XXXXXXXX          XXXXXXXXX",
"XXXXXXXXXXXX          XXXXXXXXXXXXXX          XXXXXXXXXXXXXXXXXX           XXXXXXXXX.....X           XXXXXXXX          XXXXXXXXX",
"XXXXXXXXXXXX          XXXXXXXXXXXXXX          XXXXXXXXXXXXXXXXXX           XXXXXXXX........          XXXXXXXX          XXXXXXXXX",
"XXXXXXXXXXXX          XXXXXXXXXXXXXX          XXXXXXXXXXXXXXXXXX           XXXXXXX.............      XXXXXXXX          XXXXXXXXX",
"XXXXXXXXXXXX          XXXXXXXXXXXXXX          XXXXXXXXXXXXXXXXXXX           XXXXX.....................XXXXXXX          XXXXXXXXX",
"XXXXXXXXXXXX          XXXXXXXXXXXXXX          XXXXXXXXXXXXXXXXXXX           XXXXX......................XXXXXX          XXXXXXXXX",
"XXXXXXXXXXXX          XXXXXXXXXXXXXX          XXXXXXXXXXXXXXXXXXX           XXXXX.......................XXXXX          XXXXXXXXX",
"XXXXXXXXXXXX          XXXXXXXXXXXXXX          XXXXXXXXXXXXXXXXXXXX          XXXXX..........................XX          XXXXXXXXX",
"XXXXXXXXXXXX          XXXXXXXXXXXXXX          XXXXXXXXXXXXXXXXXXXX          XXXXX...........................X          XXXXXXXXX",
"XXXXXXXXXXXX          XXXXXXXXXXXXXX           XXXXXXXXXXXXXXXXXXX          XXXXX............................          XXXXXXXXX",
"XXXXXXXXXXXX          XXXXXXXXXXXXXX           XXXXXXXXXXXXXXXXXXX          XXXXX.............................         XXXXXXXXX",
"XXXXXXXXXXXX          XXXXXXXXXXXXXX           XXXXXXXXXXXXXXXXXXX          XXXX..............................         XXXXXXXXX",
"XXXXXXXXXXXX          XXXXXXXXXXXXXXX          XXXXXXXXXXXXXXXXXXX          XXXX..............................         XXXXXXXXX",
"XXXXXXXXXXXX          XXXXXXXXXXXXXXX          XXXXXXXXXXXXXXXXXXX          XXXX..............................         XXXXXXXXX",
"XXXXXXXXXXXX          XXXXXXXXXXXXXXX          XXXXXXXXXXXXXXXXXXX          XXXX.............................          XXXXXXXXX",
"XXXXXXXXXXXX          XXXXXXXXXXXXXXX          XXXXXXXXXXXXXXXXXXX          XXXX............................X          XXXXXXXXX",
"XXXXXXXXXXXX          XXXXXXXXXXXXXXX          XXXXXXXXXXXXXXXXXXX          XXXX...........................XX          XXXXXXXXX",
"XXXXXXXXXXXX          XXXXXXXXXXXXXXX          XXXXXXXXXXXXXXXXXXX          XXXXX..........          XXXXXXXX          XXXXXXXXX",
"XXXXXXXXXXXX          XXXXXXXXXXXXXXX          XXXXXXXXXXXXXXXXXXX          XXXXX..........          XXXXXXXX          XXXXXXXXX",
"XXXXXXXXXXXX          XXXXXXXXXXXXXXX          XXXXXXXXXXXXXXXXXXX          XXXXX..........          XXXXXXXX          XXXXXXXXX",
"XXXXXXXXXXXX          XXXXXXXXXXXXXXX          XXXXXXXXXXXXXXXXXXX          XXXXX..........          XXXXXXXX          XXXXXXXXX",
"XXXXXXXXXXXX          XXXXXXXXXXXXXXX          XXXXXXXXXXXXXXXXXXX          XXXXX...........         XXXXXXXX          XXXXXXXXX",
"XXXXXXXXXXXX          XXXXXXXXXXXXXXX          XXXXXXXXXXXXXXXXXXX          XXXXX...........         XXXXXXXX          XXXXXXXXX",
"XXXXXXXXXXXX          XXXXXXXXXXXXXXX          XXXXXXXXXXXXXXXXXXX          XXXXX...........         XXXXXXXX          XXXXXXXXX",
"XXXXXXXXXXXX          XXXXXXXXXXXXXXX           XXXXXXXXXXXXXXXXXX          XXXXX...........         XXXXXXXX          XXXXXXXXX",
"XXXXXXXXXXXX          XXXXXXXXXXXXXXX           XXXXXXXXXXXXXXXXXX          XXXXX...........         XXXXXXXX          XXXXXXXXX",
"XXXXXXXXXXXX          XXXXXXXXXXXXXXX           XXXXXXXXXXXXXXXXXX          XXXXX............        XXXXXXXX          XXXXXXXXX",
"XXXXXXXXXXXX          XXXXXXXXXXXXXXXX          XXXXXXXXXXXXXXXXXX          XXXXX............        XXXXXXXX          XXXXXXXXX",
"XXXXXXXXXXXX           XXXXXXXXXXXXXXX          XXXXXXXXXXXXXXXXXX          XXXXX............        XXXXXXXX          XXXXXXXXX",
"XXXXXXXXXXXX           XXXXXXXXXXXXXXX          XXXXXXXXXXXXXXXXXX          XXXXX............        XXXXXXXX          XXXXXXXXX",
"XXXXXXXXXXXX           XXXXXXXXXXXXXXX          XXXXXXXXXXXXXXXXXX          XXXXX...........         XXXXXXXX          XXXXXXXXX",
"XXXXXXXXXXXX           XXXXXXXXXXXXXXX          XXXXXXXXXXXXXXXXXX          XXXXXX.........          XXXXXXXX          XXXXXXXXX",
"XXXXXXXXXXXXX          XXXXXXXXXXXXXXX          XXXXXXXXXXXXXXXXXX          XXXXXXX.......X          XXXXXXXX          XXXXXXXXX",
"XXXXXXXXXXXXX          XXXXXXXXXXXXXXX          XXXXXXXXXXXXXXXXXX          XXXXXXXX.....XX           XXXXXXX          XXXXXXXXX",
"XXXXXXXXXXXXX          XXXXXXXXXXXXXXX          XXXXXXXXXXXXXXXXXX          XXXXXXXXXXXXXXX           XXXXXXX          XXXXXXXXX",
"XXXXXXXXXXXXX          XXXXXXXXXXXXXXX          XXXXXXXXXXXXXXXXXX          XXXXXXXXXXXXXXX           XXXXXXX          XXXXXXXXX",
"XXXXXXXXXXXXX           XXXXXXXXXXXXXX          XXXXXXXXXXXXXXXXXX          XXXXXXXXXXXXXXXX          XXXXXXX          XXXXXXXXX",
"XXXXXXXXXXXXX           XXXXXXXXXXXXXX          XXXXXXXXXXXXXXXXXX          XXXXXXXXXXXXXXXX          XXXXXXX          XXXXXXXXX",
"XXXXXXXXXXXXX           XXXXXXXXXXXXXX          XXXXXXXXXXXXXXXXXX          XXXXXXXXXXXXXXXX          XXXXXXX          XXXXXXXXX",
"XXXXXXXXXXXXXX          XXXXXXXXXXXXXX          XXXXXXXXXXXXXXXXXX          XXXXXXXXXXXXXXXX          XXXXXXX          XXXXXXXXX",
"XXXXXXXXXXXXXX          XXXXXXXXXXXXXX          XXXXXXXXXXXXXXXXXX          XXXXXXXXXXXXXXXX          XXXXXXX          XXXXXXXXX",
"XXXXXXXXXXXXXX          XXXXXXXXXXXXXX          XXXXXXXXXXXXXXXXXX          XXXXXXXXXXXXXXXX          XXXXXX           XXXXXXXXX",
"XXXXXXXXXXXXXX          XXXXXXXXXXXXXX          XXXXXXXXXXXXXXXXXX          XXXXXXXXXXXXXXXX          XXXXXX           XXXXXXXXX",
"XXXXXXXXXXXXXX           XXXXXXXXXXXXX          XXXXXXXXXXXXXXXXXX          XXXXXXXXXXXXXXXX          XXXXXX           XXXXXXXXX",
"XXXXXXXXXXXXXX           XXXXXXXXXXXXX          XXXXXXXXXXXXXXXXXX          XXXXXXXXXXXXXXXX          XXXXXX          XXXXXXXXXX",
"XXXXXXXXXXXXXX           XXXXXXXXXXXXX          XXXXXXXXXXXXXXXXXX          XXXXXXXXXXXXXXXX          XXXXXX          XXXXXXXXXX",
"XXXXXXXXXXXXXXX          XXXXXXXXXXXXX          XXXXXXXXXXXXXXXXXX          XXXXXXXXXXXXXXXX          XXXXXX          XXXXXXXXXX",
"XXXXXXXXXXXXXXX          XXXXXXXXXXXXX          XXXXXXXXXXXXXXXXXX          XXXXXXXXXXXXXXXX          XXXXXX          XXXXXXXXXX",
"XXXXXXXXXXXXXXX          XXXXXXXXXXXXX          XXXXXXXXXXXXXXXXXX          XXXXXXXXXXXXXXXX          XXXXXX          XXXXXXXXXX",
"XXXXXXXXXXXXXXX          XXXXXXXXXXXXX          XXXXXXXXXXXXXXXXXX          XXXXXXXXXXXXXXXX          XXXXXX          XXXXXXXXXX",
"XXXXXXXXXXXXXXX          XXXXXXXXXXXXX          XXXXXXXXXXXXXXXXXX          XXXXXXXXXXXXXXXX          XXXXXX          XXXXXXXXXX",
"XXXXXXXXXXXXXXX          XXXXXXXXXXXXX          XXXXXXXXXXXXXXXXX           XXXXXXXXXXXXXXXX          XXXXXX          XXXXXXXXXX",
"XXXXXXXXXXXXXXX           XXXXXXXXXXXX          XXXXXXXXXXXXXXXXX           XXXXXXXXXXXXXXXX          XXXXXX          XXXXXXXXXX",
"XXXXXXXXXXXXXXX           XXXXXXXXXXXX          XXXXXXXXXXXXXXXXX           XXXXXXXXXXXXXXXX           XXXXX          XXXXXXXXXX",
"XXXXXXXXXXXXXXX           XXXXXXXXXXXX          XXXXXXXXXXXXXXXXX          XXXXXXXXXXXXXXXXX           XXXXX          XXXXXXXXXX",
"XXXXXXXXXXXXXXXX          XXXXXXXXXXXX          XXXXXXXXXXXXXXXXX          XXXXXXXXXXXXXXXXX           XXXXX          XXXXXXXXXX",
"XXXXXXXXXXXXXXXX          XXXXXXXXXXXX          XXXXXXXXXXXXXXXXX          XXXXXXXXXXXXXXXXX           XXXXX          XXXXXXXXXX",
"XXXXXXXXXXXXXXXX           XXXXXXXXXXX          XXXXXXXXXXXXXXXXX          XXXXXXXXXXXXXXXXX          XXXXXX          XXXXXXXXXX",
"XXXXXXXXXXXXXXXX           XXXXXXXXXXX          XXXXXXXXXXXXXXXXX          XXXXXXXXXXXXXXXXXX        XXXXXXX          XXXXXXXXXX",
"XXXXXXXXXXXXXXXX           XXXXXXXXXXX          XXXXXXXXXXXXXXXXX          XXXXXXXXXXXXXXXXXXX      XXXXXXXX          XXXXXXXXXX",
"XXXXXXXXXXXXXXXXX          XXXXXXXXXXX          XXXXXXXXXXXXXXXXX          XXXXXXXXXXXXXXXXXXXX    XXXXXXXXX          XXXXXXXXXX"
};
