/* XPM */
static char *door2[] = {
/* columns rows colors chars-per-pixel */
"128 128 12 1 ",
"  c black",
". c #3F3F74",
"X c #595652",
"o c #AC3232",
"O c #DF7126",
"+ c #FBF236",
"@ c #5B6EE1",
"# c #847E87",
"$ c #639BFF",
"% c #5FCDE4",
"& c #9BADB7",
"* c white",
/* pixels */
"XXXXXXXXXXXXXXXXXXXXXXXXXXXXXXXXXXXXXXXXXXXXXXXXXXXXXXXXXXXXXXXXXXXXXXXXXXXXXXXXXXXXXXXXXXXXXXXXXXXXXXXXXXXXXXXXXXXXXXXXXXXXXXXX",
"XXXXXXXXXXXXXXXXXXXXXXXXXXXXXXXooXXXXXXXXXXXXXXXXXXXXXXXXXXXXXXXXXXXXXXXXXXXXXooXXXXXXXXXXXXXXXXXXXooXXXXXXXXXXXXXXXXXXXXooXXXXX",
"XXXXXXXXooXXXXXXXXXXXXXXXXXXXXooooXXXXXXXXXXXXXXXXXXXXXooXXXXXXXXXXXXXXXXXXXXooooXXXXXXXXXXXXXXXXXooooXXXXXXXXXXXXXXXXXXooooXXXX",
"XXXXXXXooooXXXXXXXXXXXXXXXXXXooooooXXXXXXXXXXXXXXXXXXXooooXXXXXXXXXXXXXXXXXXooooooXXXXXXXXXXXXXXXooooooXXXXXXXXXXXXXXXXooooooXXX",
"XXXXXXooooooXXXXXXXXXXXXXXXXXooooooXXXXXXXXXXXXXXXXXXooooooXXXXXXXXXXXXXXXXXooooooXXXXXXXXXXXXXXXooooooXXXXXXXXXXXXXXXXooooooXXX",
"XXXXXXooooooXXXXXXXXXXXXXXXXXXooooXXXXXXXXXXXXXXXXXXXooooooXXXXXXXXXXXXXXXXXXooooXXXXXXXXXXXXXXXXXooooXXXXXXXXXXXXXXXXXXooooXXXX",
"XXXXXXXooooXXXXXXXXXXXXXXXXXXXXooXXXXXXXXXXXXXXXXXXXXXooooXXXXXXXXXXXXXXXXXXXXooXXXXXXXXXXXXXXXXXXXooXXXXXXXXXXXXXXXXXXXXooXXXXX",
"XXXXXXXXooXXXXXXXXXXXXXXXXXXXXXXXXXXXXXXXXXXXXXXXXXXXXXooXXXXXXXXXXXXXXXXXXXXXXXXXXXXXXXXXXXXXXXXXXXXXXXXXXXXXXXXXXXXXXXXXXXXXXX",
"XXXXXXXXXXXXXXXXXXXXXXXXXXXXXXXXXXXXXXXXXXXXXXXXXXXXXXXXXXXXXXXXXXXXXXXXXXXXXXXXXXXXXXXXXXXXXXXXXXXXXXXXXXXXXXXXXXXXXXXXXXXXXXXX",
"XXXXXXXXXXXXXXXXXXXXXXXXXXXXXXXXXXXXXXXXXXXXXXXXXXXXXXXXXXXXXXXXXXXXXXXXXXXXXXXXXXXXXXXXXXXXXXXXXXXXXXXXXXXXXXXXXXXXXXXXXXXXXXXX",
"XXXXXXXXXXXXXXXXXXXXXXXXXXXXXXXXXXXXXXXXXXXXXXXXXXXXXXXXXXXXXXXXXXXXXXXXXXXXXXXXXXXXXXXXXXXXXXXXXXXXXXXXXXXXXXXXXXXXXXXXXXXXXXXX",
"XXXXXXXXXXXXXXXXXXXXXXXXXXXXXXXXXXXXXXXXXXXXXXXXXXXXXXXXXXXXXXXXXXXXXXXXXXXXXXXXXXXXXXXXXXXXXXXXXXXXXXXXXXXXXXXXXXXXXXXXXXXXXXXX",
"XXXXXXXXXXXXXXXXXXXXXXXXXXXXXXXXXXXXXXXXXXXXXXXXXXXXXXXXXXXXXXXXXXXXXXXXXXXXXXXXXXXXXXXXXXXXXXXXXXXXXXXXXXXXXXXXXXXXXXXXXXXXXXXX",
"XXXXXXXXXXXXXXXXXXXXXXXXXXXXXXXXXXXXXXXXXXXXXXXXXXX########################################################XXXXXXXXXXXXXXXXXXXXX",
"XXXXXXXXXXXXXXXXXXXXXXXXXXXXXXXXXXXXXXX######################################################################XXXXXXXXXXXXooXXXXX",
"XXXXXXXXXXXXXXXXXXXXXXXXX######################################################################################XXXXXXXXXooooXXXX",
"XXXXXXXXXXXXXXXXXXXXXX##########################################################################################XXXXXXXooooooXXX",
"XXXXXXXXXXXXXXXXXXXX#############################################################################################XXXXXXooooooXXX",
"XXXXXXXXXXXXXXXXXX###############################################################################################XXXXXXXooooXXXX",
"XXXXXooXXXXXXXXXX###############XX####XX#####XX######XX##########XX######XX########XX########XX###################XXXXXXXooXXXXX",
"XXXXooooXXXXXXXX#######XX######XXXX##XXXX###XXXX####XXXX########XXXX####XXXX######XXXX######XXXX######XX##########XXXXXXXXXXXXXX",
"XXXooooooXXXXXXX######XXXX#####XXXX##XXXX###XXXX####XXXX########XXXX####XXXX######XXXX######XXXX#####XXXX#########XXXXXXXXXXXXXX",
"XXXooooooXXXXXX#######XXXX######XX####XX#####XX######XX##########XX######XX########XX########XX######XXXX#########XXXXXXXXXXXXXX",
"XXXXooooXXXXXXX########XX#############################################################################XX##########XXXXXXXXXXXXXX",
"XXXXXooXXXXXXXX####XX#############################################################################################XXXXXXXXXXXXXX",
"XXXXXXXXXXXXXXX###XXXX############################################################################################XXXXXXXXXXXXXX",
"XXXXXXXXXXXXXXX###XXXX############################################################################################XXXXXXXXXXXXXX",
"XXXXXXXXXXXXXXX####XX####&&&######################################################################################XXXXXXXXXXXXXX",
"XXXXXXXXXXXXXXX#########&&OO&&&&&&&&&&&&&&&&&&&&&&&&&&&&&&###########################&&&OO#############XX#########XXXXXXXXXXXXXX",
"XXXXXXXXXXXXXXX####XX###&OOOO&&&&&&&&&&&&&&&&&&&&&&&&&&&&&&&&&&&&&&&&&&&&&&&&&&&&&&&&&&OOOO###########XXXX########XXXXXXXXXXXXXX",
"XXXXXXXXXXXXXXX###XXXX##&OOOO&&&&&&&&&&&&&&&&&&&&&&&&&&&&&&&&&&&&&&&&&&&&&&&&&&&&&&&&&&OOOO###########XXXX########XXXXXXXXXXXXXX",
"XXXXXXXXXXXXXXX###XXXX##&&OO&&&&&&&&&&&&&&&&&&&&&&&&&&&&&&&&&&&&&&&&&&&&&&&&&&&&&&&&&&&&OO&&###########XX#########XXXXXXXXXXXXXX",
"XXXXXXXXXXXXXXX####XX###&&&&&&&&&&&&&&&&&&&&&&&&&&&&&&&&&&&&&&&&&&&%%%%%%%%%%%%%***%%&&&&&&&######################XXXXXXXXXXXXXX",
"XXXXXXXXXXXXXXX#########&&&&&%%%%%%%%%%%%%%%%%%%%%%%%%%%%%%%%%%%%%%%%%%%%%%%%%%*******%&&&&&&######################XXXXXXXXXXXXX",
"XXXXXXXXXXXXXXX#########&&&&%%%%%%%%%%%%%%%%%%%%%%%%%%%%%%%%%%%%%%%%%%%%%%%%%%*********%&&&&&######################XXXXXXXXXXXXX",
"XXXXXXooXXXXXXX####XX###&&&&%%%%%%%%%%%%%%%%%%%%%%%%%%%%%%%%%%%%%%%%%%%%%%%%%%*********%%&&&&######################XXXXXXXooXXXX",
"XXXXXooooXXXXXX###XXXX##&&&&%%%%%%%%%%%%%%%%%%%%%%%%%%%%%%%%%%%%%%%%%%%%%%%%%%**********%&&&&######################XXXXXXooooXXX",
"XXXXooooooXXXXX###XXXX##&&&%%%%%%%%%%%%%%%%%%%%%%%%%%%%%%%%%%%%%%%%%%%%%%%%%%%**********%&&&&###########XX#########XXXXXooooooXX",
"XXXXooooooXXXXX####XX###&&&%%%%%%%%%%%%%%%%%%%%%%%%%%%%%%%%%%%%%%%%%%%%%%%%%%%**********%&&&&##########XXXX########XXXXXooooooXX",
"XXXXXooooXXXXXX#########&&&%%%%%%%%%%%%%%%%%%%%*%%*%%%%%%%%%%*%%*%%%%%%%%%%%%%%********%%%&&&##########XXXX########XXXXXXooooXXX",
"XXXXXXooXXXXXXX#########&&&%%%%%%%%%%%%%%%%%%%%%..%%%%%%%%%%%%..%%%%%%%%%%%%%%%%******%%%%&&&###########XX#########XXXXXXXooXXXX",
"XXXXXXXXXXXXXXX#########&&&%%%%%%%%%%%%%%%%%%%%%..%%%%%%%%%%%%..%%%%%%%%%%%%%%%%%%%%%%%%%%&&&&#####################XXXXXXXXXXXXX",
"XXXXXXXXXXXXXXX#########&&&%%%%%%%%%%%*%%*%%%%%%%%%%%%%%%%%%%%%%%%%%%%%%%%%%%%%%%%%%%%%%%%&&&&#####################XXXXXXXXXXXXX",
"XXXXXXXXXXXXXXX#########&&&%%%%%%%%%%%%..%%%%%%%%%%%%%%%%%%%%%%%%%%%%%%%%%%%%%%%%%%%%%%%%%&&&&#####################XXXXXXXXXXXXX",
"XXXXXXXXXXXXXXX###XX####&&&%%%%%%%%%%%%..%%%%%%%%%%%*%%*%%%%%%*%%*%%%%%%%%%%%%%%%%%%%%%%%%&&&&#####################XXXXXXXXXXXXX",
"XXXXXXXXXXXXXXX##XXXX###&&&%%%%%%%%%%%%%%%%%%%%%%%%%%..%%%%%%%%..%%%%%%%%%%%%%%%%%%%%%%%%%&&&&#####################XXXXXXXXXXXXX",
"XXXXXXXXXXXXXXX##XXXX###&&&&%%%%%%%%%%%%%%%%%%%%%%%%%..%%%%%%%%..%%%%%%%%%%%%%%%%%%%%%%%%%&&&&##########XX#########XXXXXXXXXXXXX",
"XXXXXXXXXXXXXXX###XX####&&&&&%%%%%%%%%%%%%%%%%%%%%%%%%%%%%%%%%%%%%%%%%%%%%%%%%%%%%%%%%%%%%&&&&#########XXXX########XXXXXXXXXXXXX",
"XXXXXXXXXXXXXXX#########&&&&&%%%%%%%%%%%%%%%%%%%%%%%%%%%%%%%%%%%%%%%%%%%%%%%%%%%%%%%%%%%%%&&&&#########XXXX########XXXXXXXXXXXXX",
"XXXXXXXXXXXXXXX#########&&&&&%%%%%%%%%%%%%%%%%%%%%%%%%%%%%%%%%%%%%%%%%%%%%%%%%%%%%%%%%%%%&&&&&##########XX##########XXXXXXXXXXXX",
"XXXXXXXXXXXXXXX#########&&&&&&%%%%%%%%%%%%%%%%%%%%%%%%%%%%%%%%%%%%%%%%%%%%%%%%%%%%%%%%%%&&&&&&######################XXXXXXXXXXXX",
"XXXXXXXXXXXXXXX##########&&&&&&%%%%%%%%%%%%%%%%%%%%%%%%%%%%%%%%%%%%%%%%%%%%%%%%%%%%%%%%&&&&&&&######################XXXXXXXXXXXX",
"XXXXXXXXXXXXXXX#########&&&OO&&&&%%%%%%%%%%%%%%%%%%%%%%%%%%%%%%%%%%%%%%%%%%%%%%%%%%%%&&&&OO&&&######################XXXXXXXXXXXX",
"XXXXXXXooXXXXXX#########&&OOOO&&&&&&&&&&&&&&&&&&&&&&&&&&&&&&&&&&&&&&&&&&&&&&&&&&&&&&&&&&OOOO&&######################XXXXXXXXXXXX",
"XXXXXXooooXXXXX####XX###&&OOOO&&&&&&&&&&&&&&&&&&&&&&##########&&&&&&&&&&&&&&&&&&&&&&&&&&OOOO&#######################XXXXXXXXXXXX",
"XXXXXooooooXXXX###XXXX###&&OO&&&&&&&&&&&&&&&&&&&&#####################&&&&&&&&&&&&&&&&&&&OO#########################XXXXXXXXXXXX",
"XXXXXooooooXXXX###XXXX##########################################################&&&&&&&&&&##########################XXXXXXXXXXXX",
"XXXXXXooooXXXXX####XX####################################################################################XX#########XXXXXXooXXXX",
"XXXXXXXooXXXXXX#########################################################################################XXXX########XXXXXooooXXX",
"XXXXXXXXXXXXXXX#########################################################################################XXXX########XXXXooooooXX",
"XXXXXXXXXXXXXXX###XX#####################################################################################XX#########XXXXooooooXX",
"XXXXXXXXXXXXXXX##XXXX###############################################################################################XXXXXooooXXX",
"XXXXXXXXXXXXXXX##XXXX###############################################################################################XXXXXXooXXXX",
"XXXXXXXXXXXXXXX###XX################################################################################################XXXXXXXXXXXX",
"XXXXXXXXXXXXXXX#####################################################################################################XXXXXXXXXXXX",
"XXXXXXXXXXXXXXX#####################################################################################################XXXXXXXXXXXX",
"XXXXXXXXXXXXXXX################@@@@@@@@@@@##########################################################################XXXXXXXXXXXX",
"XXXXXXXXXXXXXXX################@@$$$$$$$$@###############################################################XX#########XXXXXXXXXXXX",
"XXXXXXXXXXXXXXX################@@$$$$$$$$@############                      ############################XXXX########XXXXXXXXXXXX",
"XXXXXXXXXXXXXXX#####XX#########@@$$$$$$$$@###########                         ##########################XXXX########XXXXXXXXXXXX",
"XXXXXXXXXXXXXXX####XXXX########@@@@@@@@@@@##########            ##   #####     ##########################XX##########XXXXXXXXXXX",
"XXXXXXXXXXXXXXX####XXXX########@@++@++@++@#########        #######   #######    #####################################XXXXXXXXXXX",
"XXXXXooXXXXXXXX#####XX#########@@++@++@++@########       #########   ########    ####################################XXXXXXXXXXX",
"XXXXooooXXXXXXX################@@@@@@@@@@@#######      ###########   #########   ####################################XXXXXXXXXXX",
"XXXooooooXXXXXX################@@++@++@++@#######     ############   ##########   ###################################XXXXXXXXXXX",
"XXXooooooXXXXXX################@@++@++@++@######        ##########   ##########   ###################################XXXXXXXXXXX",
"XXXXooooXXXXXXX################@@@@@@@@@@@######          ########   #########     ##################################XXXXXXXXXXX",
"XXXXXooXXXXXXXX#################################   ###     #######   #######        #####################XX##########XXXXXXXXXXX",
"XXXXXXXXXXXXXXX####XX###########################  #####      #####   #####      #   ####################XXXX#########XXXXooXXXXX",
"XXXXXXXXXXXXXXX###XXXX##########################  #######      ###   ####      ###   ###################XXXX#########XXXooooXXXX",
"XXXXXXXXXXXXXXX###XXXX##########################  ########                   #####   ####################XX##########XXooooooXXX",
"XXXXXXXXXXXXXXX####XX###########################  ##########                #######   ################################XooooooXXX",
"XXXXXXXXXXXXXXX#################################   ###########             #########  ################################XXooooXXXX",
"XXXXXXXXXXXXXXX#################################   #############           #########  ################################XXXooXXXXX",
"XXXXXXXXXXXXXXX#################################   #############           #########  ################################XXXXXXXXXX",
"XXXXXXXXXXXXXXX#################################    ############             #######  ################################XXXXXXXXXX",
"XXXXXXXXXXXXXX#####XX############################   ###########                #####  ###############################XXXXXXXXXXX",
"XXXXXXXXXXXXXX####XXXX############################  #########            #      ####  ####################XX#########XXXXXXXXXXX",
"XXXXXXXXXXXXXX####XXXX############################   #######       #    ####       #  ###################XXXX#######XXXXXXXXXXXX",
"XXXXXXXXXXXXXX#####XX#############################    ####        ##    ######        ###################XXXX#######XXXXXXXXXXXX",
"XXXXXXXXXXXXXX#####################################   ###        ###    #######       ####################XX########XXXXXXXXXXXX",
"XXXXXXXXXXXXXX######################################   #       #####    #########     ##############################XXXXXXXXXXXX",
"XXXXXXXXXXXXXX######################################          ######    ###########   ##############################XXXXXXXXXXXX",
"XXXXXXXXXXXXXX#####XX################################        #######    ###########  ###############################XXXXXXXXXXXX",
"XXXXXooXXXXXXX####XXXX################################      ########    ###########  ######################XX#######XXXXXXXXXXXX",
"XXXXooooXXXXXX####XXXX#################################      #######    ##########   #####################XXXX######XXXXXXXXXXXX",
"XXXooooooXXXXX#####XX####################################       ####    #########   ######################XXXX######XXXXXXXXXXXX",
"XXXooooooXXXXX#############################################       ##    ########   ########################XX#######XXXXXXXXXXXX",
"XXXXooooXXXXXX################################################          ######     #################################XXXXXXXXXXXX",
"XXXXXooXXXXXXXX####XX############################################        ##      ###################################XXXXXXXXXXXX",
"XXXXXXXXXXXXXX####XXXX##############################################            ####################################XXXXXXooXXXX",
"XXXXXXXXXXXXXX####XXXX##################################################     #######################################XXXXXooooXXX",
"XXXXXXXXXXXXXX#####XX###############################################################################################XXXXooooooXX",
"XXXXXXXXXXXXXX###################################################################################XX#######XX########XXXXooooooXX",
"XXXXXXXXXXXXXX##########XX########XX#########XX#######XX####################XX##################XXXX#####XXXX#######XXXXXooooXXX",
"XXXXXXXXXXXXXX#########XXXX######XXXX#######XXXX#####XXXX######XX##########XXXX#####XX##########XXXX#####XXXX#######XXXXXXooXXXX",
"XXXXXXXXXXXXXX#########XXXX######XXXX#######XXXX#####XXXX#####XXXX#########XXXX####XXXX##########XX#######XX########XXXXXXXXXXXX",
"XXXXXXXXXXXXXX##########XX########XX#########XX#######XX######XXXX##########XX#####XXXX#############################XXXXXXXXXXXX",
"XXXXXXXXXXXXXXX################################################XX###################XX#############################XXXXXXXXXXXXX",
"XXXXXXXXXXXXXXX####################################################################################################XXXXXXXXXXXXX",
"XXXXXXXXXXXXXXXX##################################################################################################XXXXXXXXXXXXXX",
"XXXXXXXXXXXXXXXXX################################################################################################XXXXXXXXXXXXXXX",
"XXXXXXXXXXXXXXXXXX#############################################################################################XXXXXXXXXXXXXXXXX",
"XXXXXXXXXXXXXXXXXXXX##########################################################################################XXXXXXXXXXXXXXXXXX",
"XXXXXXXXXXXXXXXXXXXXXXXXXXXXXXXXX############################################################################XXXXXXXXXXXXXXXXXXX",
"XXXXXXXXXXXXXXXXXXXXXXXXXXXXXXXXXXXXXXXXXXXXXXXX###########################################################XXXXXXXXXXXXXXXXXXXXX",
"XXXXXXXXXXXXXXXXXXXXXXXXXXXXXXXXXXXXXXXXXXXXXXXXXXXXXXXXXXXXXXXXXXXXXXXXXXXXXXXXX##################XXXXXXXXXXXXXXXXXXXXXXXXXXXXX",
"XXXXXXXooXXXXXXXXXXXXXXXXXXXXXXXXXXXXXXXXXXXXXXXXXXXXXXXXXXXXXXXXXXXXXXXXXXXXXXXXXXXXXXXXXXXXXXXXXXXXXXXXXXXXXXXXXXXXXXXXXXXXXXX",
"XXXXXXooooXXXXXXXXXXXXXXXXXooXXXXXXXXXXXXXXXXXXXXXXXXXXXXXXXXXXXXXXXXXXXXXXXXXXXXXXXXXXXXXXXXXXXXXXXXXXXXXXXXXXXXXXXXXXXXXXXXXXX",
"XXXXXooooooXXXXXXXXXXXXXXXooooXXXXXXXXXXXXXXXXXXXXXXooXXXXXXXXXXXXXXXXXXXXXXXXXXXXXXXXXXXXXXXXXXXXXXXXXXXXXXXXXXXXXXXXXXooXXXXXX",
"XXXXXooooooXXXXXXXXXXXXXXooooooXXXXXXXXXXXXXXXXXXXXooooXXXXXXXXXXXXXXXXXXXXXXXXooXXXXXXXXXXXXXXXXXXXXXooXXXXXXXXXXXXXXXooooXXXXX",
"XXXXXXooooXXXXXXXXXXXXXXXooooooXXXXXXXXXXXXXXXXXXXooooooXXXXXXXXXXXXXXXXXXXXXXooooXXXXXXXXXXXXXXXXXXXooooXXXXXXXXXXXXXooooooXXXX",
"XXXXXXXooXXXXXXXXXXXXXXXXXooooXXXXXXXXXXXXXXXXXXXXooooooXXXXXXXXXXXXXXXXXXXXXooooooXXXXXXXXXXXXXXXXXooooooXXXXXXXXXXXXooooooXXXX",
"XXXXXXXXXXXXXXXXXXXXXXXXXXXooXXXXXXXXXXXXXXXXXXXXXXooooXXXXXXXXXXXXXXXXXXXXXXooooooXXXXXXXXXXXXXXXXXooooooXXXXXXXXXXXXXooooXXXXX",
"XXXXXXXXXXXXXXXXXXXXXXXXXXXXXXXXXXXXXXXXXXXXXXXXXXXXooXXXXXXXXXXXXXXXXXXXXXXXXooooXXXXXXXXXXXXXXXXXXXooooXXXXXXXXXXXXXXXooXXXXXX",
"XXXXXXXXXXXXXXXXXXXXXXXXXXXXXXXXXXXXXXXXXXXXXXXXXXXXXXXXXXXXXXXXXXXXXXXXXXXXXXXooXXXXXXXXXXXXXXXXXXXXXooXXXXXXXXXXXXXXXXXXXXXXXX",
"XXXXXXXXXXXXXXXXXXXXXXXXXXXXXXXXXXXXXXXXXXXXXXXXXXXXXXXXXXXXXXXXXXXXXXXXXXXXXXXXXXXXXXXXXXXXXXXXXXXXXXXXXXXXXXXXXXXXXXXXXXXXXXXX",
"XXXXXXXXXXXXXXXXXXXXXXXXXXXXXXXXXXXXXXXXXXXXXXXXXXXXXXXXXXXXXXXXXXXXXXXXXXXXXXXXXXXXXXXXXXXXXXXXXXXXXXXXXXXXXXXXXXXXXXXXXXXXXXXX"
};
