/* XPM */
static char *east3[] = {
/* columns rows colors chars-per-pixel */
"128 128 7 1 ",
"  c #595652",
". c #696A6A",
"X c #306082",
"o c #847E87",
"O c #9BADB7",
"+ c #CBDBFC",
"@ c white",
/* pixels */
"oooooooooo++++       XXXXXXXXXXXXXXOOOOOOOO            XXXXXXXXXXXXXXXXXXXXXXOOOOOOOOOOOOOooooooooooooooOOOO+++++@@@@@@@@@@@@@@@",
"ooooooooooo+++        XXXXXXXXXXXXXXOOOOOOO            XXXXXXXXXXXXXXXXXXXXXXOOOOOOOOOOOOO+oooooooooooooOOOO++++@@@@@@@@@@@@@@@@",
"ooooooooooo++@        XXXXXXXXXXXXXXOOOOOOO            XXXXXXXXXXXXXXXXXXXXXXOOOOOooooOOOOXXXXXXXXXXXXXXXXXXXXXXXXXXXXXXXXXXXXXX",
"oooooooooooo@@@        XXXXXXXXXXXXXXOOOOOO            OXXXXXXXXXXXXXXXXXXXXXXOOooooooooOOXXXXXXXXXXXXXXXXXXXXXXXXXXXXXXXXXXXXXX",
"oooooooooooo@@@         XXXXXXXXXXXXXXOOOOO            OOXXXXXXXXXXXXXXXXXXXXXOooooooooooOXXXXXXXXXXXXXXXXXXXXXXXXXXXXXXXXXXXXXX",
"ooooooooooooo@@         XXXXXXXXXXXXXXOOOOO            OOOOXXXXXXXXXXXXXXXXXXXOooooooooooOXXXXXXXXXXXXXXXXXXXXXXXXXXXXXXXXXXXXXX",
"ooooooooooooo@@          XXXXXXXXXXXXXXOOOO            OOOOOXXXXXXXXXXXXXXXXXXooooooooooooXXXXXXXXXXXXXXXXXXXXXXXXXXXXXXXXXXXXXX",
"oooooooooooooo@          XXXXXXXXXXXXXXXOOO            OOOOOOOXXXXXXXXXXXXXXXXooooooooooooXXXXXXXXXXXXXXXXXXXXXXXXXXXXXXXXXXXXXX",
"oooooooooooooo@@          XXXXXXXXXXXXXXXOO            OOOOOOOOXXXXXXXXXXXXXXXooooooooooooXXXXXXXXXXXXXXXXXXXXXXXXXXXXXXXXXXXXXX",
"oooooooooooooooX          XXXXXXXXXXXXXXXXX            OOOOOOOOOXXXXXXXXXXXXXXoooooooooooooXXXXXXXXXXXXXXXXXXXXXXXXXXXXXXXXXXXXX",
"oooooooooooooooX           XXXXXXXXXXXXXXXX            OOOOOOOOOOOXXXXXXXXXXXXoooooooooooooXXXXXXXXXXXXXXXXXXXXXXXXXXXXXXXXXXXXX",
"oooooooooooooooo            XXXXXXXXXXXXXXX            OOOOOOOOOOOOXXXXXXXXXXXoooooooooooooXXXXXXXXXXXXXXXXXXXXXXXXXXXXXXXXXXXXX",
"oooooooooooooooo            XXXXXXXXXXXXXXX            OOOOOOOOOOOOOOXXXXXXXXXOooooooooooooXXXXXXXXXXXXXXXXXXXXXXXXXXXXXXXXXXXXX",
"ooooooooooooooooo            XXXXXXXXXXXXXX            OOOOOOOOOOOOOOOXXXXXXXXOoooooooooooooXXXXXXXXXXXXXXXXXXXXXXXXXXXXXXXXXXXX",
"ooooooooooooooooo             XXXXXXXXXXXXX            OOOOOOOOOOOOOOOOXXXXXXXOoooooooooooooXXXXXXXXXXooooooo@@@@@@@@@@@@@@@@@@@",
"ooooooooooooooooo             XXXXXXXXXXXXX            OOOOOOOOOOOOOOOOOO@@@@@OooooooooooooooXXXXXXXXXXXoooooo@@@@@@@@@@@@@@@@@@",
"ooooooooooooooooo             XXXXXXXXXXXXX            OOOOOOOOOOOOOOOOOOO@@@@OOoooooooooooooXXXXXXXXXXXXooooo@@@@@@@@@@@@@@@@@@",
"oooooooooooooooooo            XXXXXXXXXXXXX             OOOOOOOOOOOOOOOOOOOO@@OOooooooooooooooXXXXXXXXXXXXXoooo@@@@@@@@@@@@@@@@@",
"oooooooooooooooooo            @XXXXXXXXXXXX             OOOOOOOOOOOOOOOOOOOOO@OOOoooooooooooooXXXXXXXXXXXXXXXooo@@@@@@@@@@@@@@@@",
"oooooooooooooooooo            @XXXXXXXXXXXXX            oOOOOOOOOOOOOOOOOOOOOOOOOooooooooooooooXXXXXXXXXXXXXXXoo@@@@@@@@@@@@@@@@",
"oooooooooooooooooo            @XXXXXXXXXXXXX             ooOOOOOOOOOOOOOOOOOOOOOOOooooooooooooooXXXXXXXXXXXXXXXXo@@@@@@@@@@@@@@@",
"oooooooooooooooooo            @XXXXXXXXXXXXX             oooOOOOOOOOOOOOOOOOOOOOOOoooooooooooooooXXXXXXXXXXXXXXXX@@@@@@@@@@@@@@@",
"oooooooooooooooooo            @@XXXXXXXXXXXX             oooooOOOOOOOOOOOOOOOOOOOOOooooooooooooooXXXXXXXXXXXXXXXXXX@@@@@@@@@@@@@",
"oooooooooooooooooo            ..XXXXXXXXXXXX.            ooooooOOOOOOOOOOOOOOOOOOOOoooooooooooooooXXXXXXXXXXXXXXXXXXX@@+++++++++",
"oooooooooooooooooo            ..XXXXXXXXXXXX.             ooooooOOOOOOOOOOOOOOOOOOOOooooooooooooooooXXXXXXXXXXXXXXXXXX++++++++++",
"oooooooooOOooooooo            ..XXXXXXXXXXXX.             ooooooooOOOOOOOOOOOOOOOOOOoooooooooooooooooXXXXXXXXXOOOOXXXXXX++++++++",
"OOOOOOOOOOOOOOOOOO            OOXXXXXXXXXXXXO             OOOOOOOOOOOOOOOOOOOOOOOOOOOooooooooooooooooooOOOOOOOOOOOOOXXXXX+++++++",
"OOOOOOOOOOOOOOOOOO            OOXXXXXXXXXXXXOO            OOOOOOOOOOOOOOOOOOOOOOOOOOOOoooooooooooooooooooOOOOOOOOOOOOXXXXXX+++++",
"OOOOOOOOOOOOOOOOOO            OOXXXXXXXXXXXXOO             OOOOOOOOOOOOOOOOOOOOOOOOOOOOoooooooooooooooooooOOOOOOOOOOOXXXXXXX++++",
"OOOOOOOOOOOOOOOOOO            OOXXXXXXXXXXXXOO             OOOOOOOOOOOOOOOOOOOOOOOOOOOOoooooooooooooooooooooOOOOOOOOOOXXXXXXXX++",
"OOOOOOOOOOOOOOOOOO            OOXXXXXXXXXXXXOO             OOOOOOOOOOOOOOOOOOOOOOOOOOOOOoooooooooooooooooooooOOOOOOOOOXXXXXXXXX+",
"OOOOOOOOOOOOOOOOO             OOXXXXXXXXXXXXOOO            OOOOOOOOOOOOOOOOOOOOOOOOOOOOOOooooooooooooooooooooooOOOOOOOXXXXXXXXXX",
"OOOOOOOOOOOOOOOOO             OOXXXXXXXXXXXXOOO             OOOOOOOOOOOOOOOOOOOOOOOOOOOOOOoooooooooooooooooooooooOOOOOoooooooooo",
"OOOOOOOOOOOOOOOOO             OOXXXXXXXXXXXXOOO             OOOOOOOOOOOOOOOOOOOOOOOOOOOOOOOoooooooooooooooooooooooOOOOoooooooooo",
"OOOOOOOOOOOOOOOOO            OOOXXXXXXXXXXXXOOO              OOOOOOOOOOOOOOOOOOOOOOOOOOOOOOOOoooooooooooooooooooooooOooooooooooo",
"OOOOOOOOOOOOOOOOO            OOOXXXXXXXXXXXXOOOO             OOOOOOOOOOOOOOOOOOOOOOOOOOOOOOOOOoooooooooooooooooooooooooooooooooo",
"OOOOOOOOOOOOOOOOO            OOOXXXXXXXXXXXXOOOO             OOOOOOOOOOOOOOOOOOOOOOOOOOOOOOOOOOOoooooooooooooooooooooooooooooooo",
"OOOOOOOOOOOOOOOOO            OOOXXXXXXXXXXXXOOOOO             OOOOOOOOOOOOOOOOOOOOOOOOOOOOOOOOOOOOoooooooooooooooooooooooooooooo",
"ooooooooooooooooo            oooXXXXXXXXXXXXooooo             ooooooooooooooOOOOOOOOOOOOOOOOOOOOOOOooooooooooooooooooooooooooooo",
"ooooooooooooooooo            ooXXXXXXXXXXXXXooooo              oooooooooooooOOOOOOOOOOOOOOOOOOOOOOOOOooooooooooooooooooooooooooo",
"oooooooooooooooo             ooXXXXXXXXXXXXXoooooo             oooooooooooooOOOOOOOOOOOOOOOOOOOOOOOOOOoooooooooooooooooooooooooo",
"oooooooooooooooo             ooXXXXXXXXXXXXXoooooo              ooooooooooooOOOOOOOOOOOOOOOOOOOOOOOOOOOOoooooooooooooooooooooooo",
"oooooooooooooooo             ooXXXXXXXXXXXXoooooooo             oooooooooooooOOOOOOOOOOOOOOOOOOOOOOOOOOOOOoooooooooooooooooooooo",
"oooooooooooooooo            oooXXXXXXXXXXXXoooooooo              ooooooooooooOOOOOOOOOOOOOOOOOOOOOOOOOOOOOOooooooooooooooooooooo",
"XXoooooooooooooo            oooXXXXXXXXXXXXooooooooo             ooooooooooo..OOOOOOOOOOOOOOOOOOOOOOOOOOOOOOOooooooooooooooooooo",
"XXXooooooooooooo            oooXXXXXXXXXXXX   oooooo              oooooooooo..OOOOOOOOOOOOOOOOOOOOOOOOOOOOOOOOOooooooooooooooooo",
"XXXXoooooo                  ooXXXXXXXXXXXXX      oooo             ooooooooo....OOOOOOOOOOOOOOOOOOOOOOOOOOOOOOOOOOooooooooooooooo",
"XXXXXXoo                    ooXXXXXXXXXXXXX         o              oooooooo.....OOOOOOOOOOOOOOOOOOOOOOOOOOOOOOOOOOoooooooooooooo",
"XXXXXXXo                    ooXXXXXXXXXXXXX                        ooooooo.......OOOOOOOOOOOOOOOOOOOOOOOOOOOOOOOOOOooooooooooooo",
"XXXXXXXX                   oooXXXXXXXXXXXX                          oooooo........OOOOOOOOOOOOOOOOO.OOOOOOOOOOOOOOOOoooooooooooo",
"XXXXXXXXX                  ooXXXXXXXXXXXXX                          oooooo.........OOOOOOOOOOOOOOO...OOOOOOOOOOOOOOOOooooooooooo",
"XXXXXXXXXXX                 oXXXXXXXXXXXXX                           ooooo...........OOOOOOOOOOO......OOOOOOOOOOOOOOOOOooooooooo",
"XXXXXXXXXXXX                oXXXXXXXXXXXXXo                          @@oo...............................OOOOOOOOOOOOOOOOoooooooo",
"XXXXXXXXXXXXX                XXXXXXXXXXXXooo                            @.............ooooo..............OOOOOOOOOOOOOOOOooooooo",
"XXXXXXXXXXXXXXX             XXXXXXXXXXXXXooo                             .............oooooooooooo........OOOOOOOOOOOOOOOOoooooo",
"XXXXXXXXXXXXXXXX         +++XXXXXXXXXXXXXoooo                            ............@++++ooooooooooo......OOOOOOOOOOOOOOOOooooo",
"XXXXXXXXXXXXXXXXX       +++XXXXXXXXXXXXXXoooo                            ............++++++++++oooooooooo....OOOOOOOOOOOOOOOoooo",
"XXXXXXXXXXXXXXXXXXX     ++XXXXXXXXXXXXXXoooooo                           ............++++++++++++++++ooooooo..OOOOOOOOOOOOOOOOoo",
"XXXXXXXXXXXXXXXXXXXX   +++XXXXXXXXXXXXXXooooooo                          ............++++++++++++++++++++++ooXXOOOOOOOOOOOOOOOOo",
"OXXXXXXXXXXXXXXXXXXXX  ++XXXXXXXXXXXXXXoooooooo                           ...........++++++++++++++++++++++XXXXXOOOOOOOOOOOOOOOO",
"  XXXXXXXXXXXXXXXXXXXXX++XXXXXXXXXXXXXXooooooooo                           ..........++++++++++++++++++++XXXXXXXXOOOOOOOOOOOOOOO",
"    XXXXXXXXXXXXXXXXXXXXXXXXXXXXXXXXXXooooooooooo      o                   ..........  ++++++++++++++++XXXXXXXXXXXOOOOOOOOOOOOOO",
"     XXXXXXXXXXXXXXXXXXXXXXXXXXXXXXXXXooooooooooo       oooo                .........    +++++++++++++XXXXXXXXXXXXXOOOOOOOOOOOOO",
"      XXXXXXXXXXXXXXXXXXXXXXXXXXXXXXXooooooooooooo       ooooo              .........      +++++++++XXXXXXXXXXXXXXXXOOOOOOOOOOOO",
"        XXXXXXXXXXXXXXXXXXXXXXXXXXXXooooooooooooooo       ooooo              .......         +++++XXXXXXXXXXXXXXXXXXXOOOOOOOOOOO",
"         XXXXXXXXXXXXXXXXXXXXXXXXXXXOoooooooooooooo        oooo               ......          ++XXXXXXXXXXXXXXXXXXXXXXOOOOOOOOOO",
"          XXXXXXXXXXXXXXXXXXXXXXXXXOOooooooooooooooo        oooo              ......          XXXXXXXXXXXXXXXXXXXXXXXXXXOOOOOOOO",
"            XXXXXXXXXXXXXXXXXXXXXXXO@@ooooooooooooooo        oooo              .....        XXXXXXXXXXXXXXXXXXXXXXXXXXXXXOOOOOOO",
"             XXXXXXXXXXXXXXXXXXXXX@@@@@oooooooooooooo         ooo               ....      XXXXXXXXXXXXXXXXXXXXXXXXXXXXXXXXOOOOOO",
"            OOXXXXXXXXXXXXXXXXXXXX@@@@@ooooooooooooooo         ooo               ...    XXXXXXXXXXXXXXXXXXXXXXXXXXXXXXXXXXXOOOOO",
"          OOOOOOXXXXXXXXXXXXXXXXXXX@@@@@ooooooooooooooo         oo                ..   XXXXXXXXXXXXXXXXXXXXXXXXXXXXXXXXXXXXXOOOO",
"        OOOOOOOOOXXXXXXXXXXXXXXXXXXXO@@@@ooooooooooooooo         oo               ..  XXXXXXXXXXXXXXXXXXXXXXXXXXXXXXXXXXXXXXXOOO",
"   o       OOOOOOOXXXXXXXXXXXXXXXXXXXO   ooooooooooooooo                           . XXXXXXXXXXXXXXXXXXXXXXXXXXXXXXXX+++++++XXOO",
"oooo         OOOOOOOXXXXXXXXXXXXXXXXXOOO  ooooooooooooooo                           XXXXXXXXXXXXXXXXXXXXXXXXXXXXXXX+++++++++++XO",
"oooo           OOOOOOXXXXXXXXXXXXXXXXXOOO  ooooooooooooooo                           XXXXXXXXXXXXXXXXXXXXXXXXXXXXX+++++++++++++o",
"ooooX            OOOOOXXXXXXXXXXXXXXXXXOOOOooooooooooooooo                            XXXXXXXXXXXXXXXXXXXXXXXXXXX++++++++++++++o",
"ooooXXX            OOOOOXXXXXXXXXXXXXXXXOOOOOoooooooooooooo                            XXXXXXXXXXXXXXXXXXXXXXXXX++++++++++++++++",
"oooXXXXXX             OOOXXXXXXXXXXXXXXXXOOOOOoooooooooooooo                           XXXXXXXXXXXXXXXXXXXXXXXX+++++++++++++++++",
"oooXXXXXXXX             OOXXXXXXXXXXXXXXXXOOOOOOoooooooooooo                            XXXXXXXXXXXXXXXXXXXXXX++++++++++++++++++",
"oooXXXXXXXXXX             OXXXXXXXXXXXXXXXXOOOOOOOooooooooooo           .                XXXXXXXXXXXXXXXXXXXX+++++++++++++++++++",
"ooooXXXXXXXXXXX            XXXXXXXXXXXXXXXXXOOOOOOOOoooooooooo          ..                 XXXXXXXXXXXXXXXXX++++++++++++++++++++",
"oooooXXXXXXXXXXXX           XXXXXXXXXXXXXXXXXOOOOOOOOOoooooooo          ...                  XXXXXXXXXXXXX++++++++++++++++++++++",
"ooooooXXXXXXXXXXXXX          XXXXXXXXXXXXXXXXOOOOOOOOOOOooooooo         ....                  XXXXXXXXXX++++++++++++++++++++++++",
"ooooooo.XXXXXXXXXXXXX         XXXXXXXXXXXXXXXXOOOOOOOOOOOooooooo        .....                  XXXXXXX++++++++++++++++++++++++++",
"oooooooo...XXXXXXXXXXXX        XXXXXXXXXXXXXXXXOOOOOOOOOOOoooooo        .....                    XXX++++++++++++++++++++++++++++",
"ooooooooo.....oXXXXXXXXXX       XXXXXXXXXXXXXXXXOOOOOOOOOOOoooooo       ......                    X+++++++++++++++++++++++++++++",
"oooooooooo.......ooooooooooooooooXXXXXXXXXXXXXXXXOOOOOOOOOOOOoooo       .......                    ++++++++++++++++++++@++++++++",
"ooooooooooo.........ooooooooooooooXXXXXXXXXXXXXXXXOOOOOOOOOOOOoooooooooo........                     +++++++++++++++++@@@+++++++",
"oooooooooooo...........ooooooooooooXXXXXXXXXXXXXXXXOOOOOOOOOOOOooooooooo.........                     +++++++++++++++  @@@++++++",
"ooooooooooooo.............oooooooooXXXXXXXXXXXXXXXXXOOOOOOOOOOOOoooooooo..........                     +++++++++++++oooooo++++++",
"oooooooooooooo...............oooooooXXXXXXXXXXXXXXXXXOOOOOOOOOOOOOoooooo............                    +++++++++++oooooooo+++++",
"oooooooooooooo..................oooooXXXXXXXXXXXXXXXXXOOOOOOOOOOOOOOoooo............oo                    +++++++oooooooooo+++++",
"ooooooooooooooo....................oooXXXXXXXXXXXXXXXXXOOOOOOOOOOOOOOooo............ooo                    ++++ooooooooooooo++++",
"oooooooooooooooo.....................ooXXXXXXXXXXXXXXXXXOOOOOOOOOOOOOOoo............oo++                    +ooooooooooooooo++++",
"ooooooooooooooooo.......................XXXXXXXXXXXXXXXXXOOOOOOOOOOOOOOo............o+++++                    oooooooooooooo++++",
"ooooooooooooooooo........................XXXXXXXXXXXXXXXXXOOOOOOOOOOOOOO............+++++++                    oooooooooooooo+++",
"ooXooooooooooooooo........................XXXXXXXXXXXXXXXXXOOOOOOOOOOOOOOO.........+++++++++                    ooooooooooooo+++",
"ooXXooooooooooooooo........................XXXXXXXXXXXXXXXXXOOOOOOOOOOOOOOO......+++++++++++++                    oooooooooooo++",
"ooXXoooooooooooooooo........................XXXXXXXXXXXXXXXXXOOOOOOOOOOOOOOO....+++++++++++++++                    ooooooooooo++",
"ooXXXooooooooooooooo.........................XXXXXXXXXXXXXXXXXOOOOOOOOOOOOOOO..+++++++++++++++++                     oooooooooo+",
"ooXXXXooooooooooooooo.........................XXXXXXXXXXXXXXXXXOOOOOOOOOOOOOOO+++++++++++++++++++                      oooooooo+",
"ooooooooooooooooooooooo........................XXXXXXXXXXXXXXXXXOOOOOOOOOOOOOOO++++++++++++++++++++                     ooooooo+",
"oooooooooooooooooooooooooo......................XXXXXXXXXXXXXXXXXOOOOOOOOOOOOOOO++++++++++++++++++++                      oooooo",
"ooooooooooooooooooooooooooooo....................XXXXXXXXXXXXXXXXOOOOOOOOOOOOOOOO++++++++++++oooooooo                       oooo",
"oooooooooooooooooooooooooooooooo..................XXXXXXXXXXXXXXXXOOOOOOOOOOOOOOOO++++++++++ooooooooooo                       oo",
"oooooooooooooooooooooooooooooooooo.................XXXXXXXXXXXXXXXXOOOOOOOOOOOOOOOO++++++++ooooooooooooo                        ",
"ooooooooooooooooooooooooooooooooooooo...............XXXXXXXXXXXXXXXXOOOOOOOOOOOOOOOO++++++ooooooooooooooo                       ",
"oooooooooooooooooooooooooooooooooooooooo.............XXXXXXXXXXXXXXXOOOOOOOOOOOOOOOOO+++ooooooooooooooooooo                     ",
"ooooooooooooooooooooooooooooooooooooooooooo...........XXXXXXXXXXXXXXXOOOOOOOOOOOOOOOOO+ooooooooooooooooooooo                    ",
"oooooooooooooooooooooooooooooooooooooooooooooo.........XXXXXXXXXXXXXXXOOOOOOOOOOOOOOOOOooooooooooooooooooooooo                  ",
"ooooooooooooooooooooooooooooooooooooooooooooooooo......XXXXXXXXXXXXXXXXOOOOOOOOOOOOOOOOO.ooooooooooooooooooooooo                ",
"oooooooooooooooooooooooooooooooooooooooooooooooooooo....XXXXXXXXXXXXXXX+OOOOOOOOOOOOOOOOO....oooooooooooooooooooo               ",
"ooooooooooooooooooooooooooooooooooooooooooooooooooooooo..XXXXXXXXXXXXXXX+OOOOOOOOOOOOOOOOO......ooooooooooooooooooo             ",
"@@@@@@@@@ooXXXooooooooooooooXXXXXXXXXXXXXXXXooooooooooooooXXXXXXXXXXXXXXX+OOOOOOOOOOOOOOOO.........ooooooooooooooooo            ",
"@@@@@@@@@ooXXXXoooooooooooooXXXXXXXXXXXXXXXXXXXXXXXXXXXXX+XXXXXXXXXXXXXXX++OOOOOOOOOOOOOOOO............o++++++++                ",
"+@@@@@@@@oooXXXooooooooooooooXXXXXXXXXXXXXXXXXXXXXXXXXXX+++XXXXXXXXXXXXXXX++OOOOOOOOOOOOOOOO...............++++++               ",
"++@@@@@@@@oooXXXoooooooooooooXXXXXXXXXXXXXXXXXXXXXXXXXX+++++XXXXXXXXXXXXXX+..OOOOOOOOOOOOOOOO.................+++               ",
"+++@@@@@@@oooXXXooooooooooooooXXXXXXXXXXXXXXXXXXXXXXX++++++++XXXXXXXXXXXXXX...OOOOOOOOOOOOOOOO....................              ",
"++++@@@@@@@oooXXXoooooooooooooXXXXXXXXXXXXXXXXXXXXXX+++++++++XXXXXXXXXXXXXXX...OOOOOOOOOOOOOOO.......................           ",
"+++++@@@@@@ooooXXoooooooooooooooXXXXXXXXXXXXXXXXXXX+++++++++++XXXXXXXXXXXXXX....OOOOOOOOOOOOOOO.........................        ",
"+++++++@@@@oooooXXoooooooooooooooooXXXXXXXXXXXXXX++++++++++++++XXXXXXXXXXXXXX...OOOOOOOOOOOOOOOO............................    ",
"++++++++@@@@ooooXXoooooooooooooooooo@@XXXXXXXXXX+++++++++++++++XXXXXXXXXXXXXX....OOOOOOOOOOOOOOOO...............................",
"+++++++++@@@oooooXXoooooooooooooooooo@@@@XXXXX++++++++++++++++++XXXXXXXXXXXXXX....OOOOOOOOOOOOOOO...............................",
"++++++++++@@@oooooXoooooooooooooooooo@@@@@@@++++++++++++++++++++XXXXXXXXXXXXXXX....OOOOOOOOOOOOOOO..............................",
"+++++++++++@@oooooXXoooooooooooooooooo@@@@++++++++++++++++++++++XXXXXXXXXXXXXXX.....OOOOOOOOOOOOOOO.............................",
"+++++++++++++@oooooXoooooooooooooooooo@@+++++++++++++++++++++++XXXXXXXXXXXXXXXXX....OOOOOOOOOOOOOOOO............................",
"++++++++++++++ooooooXoooooooooooooXooo++++++++++++++++++++++++XXXXXXXXXXXXXXXXXX....oOOOOOOOOOOOOOOOO...........................",
"+++++++++++++++oooooXooooooooooooooX++++++++++++++++++++++++XXXXXXXXXXXXXXXXXXXXX...ooOOOOOOOOOOOOOOOO  ........................"
};
