/* XPM */
static char *east2[] = {
/* columns rows colors chars-per-pixel */
"128 128 16 1 ",
"  c black",
". c #663931",
"X c #AC3232",
"o c #8F563B",
"O c #DF7126",
"+ c #D95763",
"@ c #6ABE30",
"# c #37946E",
"$ c #FBF236",
"% c #76428A",
"& c #5B6EE1",
"* c #E855BA",
"= c #D77BBA",
"- c #EEC39A",
"; c white",
": c None",
/* pixels */
";;;;;;;;;;;;;;;;;;;;;++++++++++++++++++++++++++++++++++++++++++++++++++++++++++++++++++++++++++++++++++++++++++OOOOOOOOOOOOOOO++",
";;;;;;;;;;;;;;;;;;;;;;++++++++++++++++++++++++++++++++++;;;;;+++++++++++++++++++++++++++++++++++++++++++++++++OOOOOOOOOOOOOOOOO+",
";;;;;;;;;;;;;;;;;;;;;;++++++++++++++++++++++++++++++++;;;;;;;;;++++++;;;;;+++++++++++++++++++++++++++++++++++OOOOOOOOOOOOOOOOOOO",
";;;;;;;;;;;;;;;;;;;;;;;++++++++++++++++++++++++++++++;;;;;;;;;;;+++;;;;;;;;;++++++++++++++++++++++++++++++++OOOOOOOOOOOOOOOOOOOO",
";;;;;;;;;;;;;;;;;;;;;;;+++++++++++++++++++++++++++++;;;;;;;;;;;;;+;;;;;;;;;;;+++++++++++++++++++++++++++++++OOOOOOOOOOOOOOOOOOOO",
";;;;;;;;;;;;;;;;;;;;;;;+++++++++++++++++++++++++++++;;;;;;;;;;;;;;;;;;;;;;;;;;+++++++++++++++++++++++++++++OOOOOOOOOOOOOOOOOOOOO",
";;;;;;;;;;;;;;;;;;;;;;;++++++++++++++++++++++++++++;;;;;;;;;;;;;;;;;;;;;;;;;;;+++++++++++++++++++++++++++++OOOOOOOOOOOOOOOOOOOOO",
";;;;;;;;;;;;;;;;;;;;;;;;;++++++++++++++++++++++++++;;;;;;;;;;;;;;;;;;;;;;;;;;;;+++++++++++++++++++++++++++OOOOOOOOOOOOOOOOOOOOOO",
";;;;;;;;;;;;;;;;;;;;;;;;;;++++++++++++++++++++;;;;;;;;;;;;;;;;;;;;;;;;;;;;;;;;;+++++++++++++++++++++++++++OOOOOOOOOOOOOOOOOOOOOO",
";;;;;;;;;;;;;;;;;;;;;;;;;;;+++++++++++++++++;;;;;;;;;;;;;;;;;;;;;;;;;;;;;;;;;;;+++++++++++++++++++++++++++OOOOOOOOOOOOOOOOOOOOOO",
";;;;;;;;;;;;;;;;;;;;;;;;;;;++++++++++++++++;;;;;;;;;;;;;;;;;;;;;;;;;;;;;;;;;;;;+++++++++++++++++++++++++++OOOOOOOOOOOOOOOOOOOOOO",
";;;;;;;;;;;;;;;;;;;;;;;;;;;;++++++++++++++;;;;;;;;;;;;;;;;;;;;;;;;;;;;;;;;;;;;;+++++++++++++++++++++++++++OOOOOOOOOOOOOOOOOOOOOO",
"++++;;;;;;;;;;;;;;;;;;;;;;;;++++++++++++++;;;;;;;;;;;;;;;;;;;;;;;;;;;;;;;;;;;;++++++++++++++++++++++++++++OOOOOOOOOOOOOOOOOOOOOO",
"++++;;;;;;;;;;;;;;;;;;;;;;;;+++++++++++++;;;;;;;;;;;;;;;;;;;;;;;;;;;;;;;;;;;;;++++++++++++++++++++++++++++OOOOOOOOOOOOOOOOOOOOOO",
"++++;;;;;;;;;;;;;;;;;;;;;;;;++++++++++++;;;;;;;;;;;;;;;;;;;;;;;;;;;;;;;;;;;;;;;++++++++++++++++++++++++++++OOOOOOOOOOOOOOOOOOOOO",
"++++;;;;;;;;;;;;;;;;;;;;;;;;+==========;;;;;;;;;;;;;;;;;;;;;;;;;;;;;;;;;;;;;;;;;+++++++++++++==============OOOOOOOOOOOOOOOOOOOOO",
"=====;;;;;;;;;;;;;;;;;;;;;;============;;;;;;;;;;;;;;;;;;;;;;;;;;;;;;;;;;;;;;;;;========  ==================OOOOOOOOOOOOOOOOOOOO",
"=====;;;;;;;;;;;;;;;;;;;;;;===========;;;;;;;;;;;;;;;;;;;;;;;;;;;;;;;;;;;;;;;;;;;========   =======   ======OOOOOOOOOOOOOOOOOOOO",
"======;;;;;;;;;;;;;;;;;;;;============;;;;;;;;;;;;;;;;;;;;;;;;;;;;;;;;;;;;;;;;;;;==========  =====  =========OOOOOOOOOOOOOOOOOOO",
"=======;;;;;;;;;;;;;;;;;;=============;;;;;;;;;;;;;;;;;;;;;;;;;;;;;;;;;;;;;;;;;;;===========  ===  ===========OOOOOOOOOOOOOOOOO=",
"=========;;;;;====;;;;;===============;;;;;;;;;;;;;;;;;;;;;;;;;;;;;;;;;;;;;;;;;;;============ =  ==============OOOOOOOOOOOOOOO==",
"======================================;;;;;;;;;;;;;;;;;;;;;;;;;;;;;;;;;;;;;;;;;;;============  ==================OOOOOOOOOOO====",
"=======================================;;;;;;;;;;;;;;;;;;;;;;;;;;;;;;;;;;;;;;;;;===================================OOOOOOO======",
"=======================================;;;;;;;;;;;;;;;;;;;;;;;;;;;=;;;;;;;;;;;;;================================================",
"========================================;;;;;;;;;;;;;;;;;;;;;;;;;;==;;;;;;;;;;;======== ========================================",
"=================  ======================;;;;;;;;;=;;;;;;;;;;;;;;;===;;;;;;;;;========= ========================================",
"================== ========================;;;;;====;;;;;;;;;;;;;======;;;;;============ =======================================",
"==================  =======  =======================;;;;;;;;;;;;;=======================  =======  =============================",
"=================== =====   =========================;;;;;;;;;;;=========================  ====   ==============================",
"===================  ===  ============================;;;;;;;;;===========================  ==  ================================",
"==================== ==  ===============================;;;;;==============================    =================================",
"==================== =  ===================================================================== ==================================",
"====================   =========================================================================================================",
"================================================================================================================================",
"================================================================================================================================",
"================================================================================================================================",
"================================================================================================================================",
"================================================================================================================================",
"================================================================================================================================",
"================================================================================================================================",
"-----------------------------------------------------------------------------------------------------------------------------===",
"-------------------------------------------------------------------------------------------------------------------------------:",
"--------------------------------------------------------------------------------------------------------------------------------",
"--------------------------------------------------------------------------------------------------------------------------------",
"--------------$-----------------------------------------------------------------------------------------------------------------",
"-------------$$$$--------------$------------------------------------------------------------------------------------------------",
"--------$$$---$$$$--$$$--$----$$$----------------------------------------------------                    -----------------------",
"---$$$-$$$$$--$$$$-$$$$$$$$$-$$$$$-------------------------------------------------                              ---------------",
"--$$$$$-$$$$$$$$$$$$$$$$$$$$$-$$$$$-----------------------------------------------      &&   &&  &&&                           -",
"--$$$$-$$$$$$-$#$$--$$$$$$$$$$$$$$$----------------------@@----------------------       &&   &&  &&&&  &&&  &&&&                ",
"---$$$$$$$$$-$$$$$-$$$$$$$$$$-$$$$$----------------@@---@@@---------------------    &  &&   &&   &&&   &&   &&&&  &     &&&     ",
"--$$$$$-$$$$$-$$$$--$$$$-$$$-$$$$$----------------@@@@-@@@@@--------------------   &   &   &&&  &&&&  &&&  &&&&&  &&&  &&&&  &  ",
"---$$$$$$$$$--$$$----$$$$$$$-$$$$$---------------@@;;@@@@;;@@-------------------  &&  &&   &&   &&&&  &&   &&&&   &&   &&&&  &  ",
"--$$$$$-#$##--#$#---$##$-$$$$-$$$$--------------@@;;;@@@;;;@@------------------   &   &&  &&&  &&&&&  &&  &&&&&  &&    &&&&  &  ",
"---$##---###--###--$$$##-$$$--#$$---------------@@;  @@@;  @@------------------   &  &&&  &&&  &&&&   &&  &&&&   &&    &&&&  && ",
"---###---###--###---$##--#$#--$$$---------------@@;  @@@;  @@------------------  &   &&&  &&   &&&&  &&&  &&&&   &     &&&   &&&",
"---###---###--###---###--###--#$#---------------@@@@@@@@@@@@@------------------  &   &&   &&  &&&&   &&   &&&   &&     &&&   &&&",
"---###---###--###---###--###--###---------------@@@@@@@@@@@@@------------------  &  &&&  &&   &&&&   &&   &&&  &&   &  &&&  &&& ",
"---###---###--####--###--###--###--------------@@XXXXXXXXX@@@@-----------------  &  &&&  &&  &&&&   &&&  &&&   &&   &  &&   &&& ",
"---###---###--####--###--###--###--------------@XXXXXXXXXXX@@@-----------------  &  &&   &&  &&&&   &&&  &&&  &&   &&  &&   &&& ",
"---###---###--###---####-###--###--------------@@XXXXXXXXX@@@@-----------------  &  &&   &&  &&&&  &&&   &&&  &&   &&  &&  &&&& ",
"---###---###--###----###-###--###--------------@@@@@@@@@@@@@-@-----------------  &  &   &&&  &&&   &&&  &&&&  &   &&&  &   &&&& ",
"---###---###--###----###-###--###-------------@@@@@@@@@@@@@--@-----------------  &  &   &&   &&&   &&&  &&&       &&&  &  &&&&& ",
"---###---####-####---###-###--###-----------@@@@-@@@@@@@@@---@-----------------     &  &&&  &&&&&  &&&  &&&      &&&&  &  &&&&& ",
"---###----##---###---###-###--###-----------@-@@--@@@@@@----@@-----------------     &  &&&  &&&&&  &&&  &&&  &  &&&&&  &  &&&&& ",
"----#-----------#-----#--###---#--------------@-@-@@---@---@@@@@---------------    &&  &&&  &&&&&  &&&  &&&  &  &&&&   &  &&&&& ",
"---%%%%%%%%%-------------###----------------------@@---@---@-@@----------------    &&  &&&  &&&&   &&&  &&   &  &&&&   &  &&&&  ",
"--%%%%%%%%%%%%%%%%%%%%%%%%#%%%%%%%%---------------@@---@---@-@@----------------    &&  &&&  &&&&   &&&  &&   &  &&&&  &&  &&&&  ",
"--%%%&&&&&&&&&&&&&&&&&&&&&&&&&&&%%%%-----------@@@@@@@@@------------------------X      &&&  &&&&  &&&&  &&  &&&&&&&&  &&  &&    ",
"--%%&&&&&&&&&&&&&&&&&&&&&&&&&&&&&%%%-----------@@@@@@@@@------------------------XX                 &&&&&&&  &&                  ",
"-%%%&&&&&&&&&&&&&&&&&&&&&&&&&&&&&%%%--------------------------------------------XXXX                                         XXX",
"-%%%&&&&&&&&&&&&&&&&&&&&&&&&&&&&&%%%-------------------------------------------XXXXXXXXXXXXXXXXXX              XXXXXXXXX  XXXXXX",
"-%%%&&&&&&&&&&&&&&&&&&&&&&&&&&&&&%%%-------------------------------------------XXXXXXXXXXXXXXXXXXXXXXXXXXXXXXXXXXXXXXXXX  XXXXXX",
"%%%&&&&&&&&&&&&&&&&&&&&&&&&&&&&&&&%%-------------------------------------------XXXXXXXXXXXXXXXXXXXXXXXXXXXXXXXXXXXXXXXXXXXXXXXXX",
"%%%&&&&&&&&&&&&&&&&&&&&&&&&&&&&&&&%%-------------------------------------------XXXXXXXXXXXXXXXXXXXXXXXXXXXXXXXXXXXXXXXXXXXXXXXXX",
"%%%&&&&&&&&&&&&&&&&&&&&&&&&&&&&&&&%%-------------------------------------------XXXXXXXXXXXXXXXXXXXXXXXXXXXXXXXXXXXXXXXXXXXXXXXXX",
"%%%&&&&&&&&&&&&&&&&&&&&&&&&&&&&&&&%%...........................................XXXXXXXXXXXXXXXXXXXXXXXXXXXXXXXXXXXXXXXXXXXXXXXXX",
"%%%&&&&&&&&&&&&&&&&&&&&&&&&&&&&&&&%.******.....................................XXXXXXXXXXXXXXXXXXXXXXXXXXXXXXXXXXXXXXXXXXXXXXXXX",
"%%%%&&&&&&&&&&&&&&&&&&&&&&&&&&&&&&%.******....................................XXXXXXXXXXXXXXX                          XXXXXXXXX",
".%%%%%%%%%%%%%%%%&&&&&&&&&&&&&&&&%%.****..******..............................XXXXXXXXX                                XXXXXXXXX",
"....%%%%%%%%%%%%%%%%%%%%%%%%%%%%%%**************..............................XXXXXXXXX                                 XXXXXXXX",
"..............**......%%%%%%%%%%%**;;;*;;;***..........ooooooo................XXXXXXXXX                                 XXXXXXXX",
"..............**................***  ;*  ;**..........ooooooooo...............XXXXXXXXX                                 XXXXXXXX",
"...........**.**.***............***  ;*  ;**.........oooooooooooo.............XXXXXXXXXX                                XXXXXXXX",
"...........*********...******...***********.........ooooooooooooooo...........XXXXXXXXXX                                 XXXXXXX",
"...........*******...****************=====*.........oooooooooooooooo..........XXXXXXXXXX                                 XXXXXXX",
".................*..****************== = =*.........ooooooooooooooooo.........XXXXXXXXXX                                 XXXXXXX",
".................*******************== = =..........oooooooooooooooooo........XXXXXXXXXX                                 XXXXXXX",
"...................******************=====..........oooooooooooooooooo........XXXXXXXXXX                                XXXXXXXX",
"...................********************..............ooooooooooooooooo........XXXXXXXXX   $$$$$$$$                       XXXXXXX",
"...................*******************................ooooooooooooooo.........XXXXXXXXX  $$$$$$$$$$                      XXXXXXX",
"...................*******************.................ooooooooooooo..........XXXXXXXXX $$$$$$$$$$$$                     XXXXXXX",
"...................*******************..................ooooooooooo...........XXXXXXXXX$$$$$$$$$$$$$$                    XXXXXXX",
"...................******************.........................................XXXXXXXXX$$$$$$$$$$$$$$                    XXXXXXX",
"....................******************........................................XXXXXXXXX$$$$$$$$$$$$$$                   XXXXXXXX",
".....................*****************........................................XXXXXXXXX $$$$$$$$$$$$                    XXXXXXXX",
".....................*****.*****.*****..........ooooo.........................XXXXXXXXX  $$$$$$$$$$                     XXXXXXXX",
".....................*****.*****.     ........oooooooo........................XXXXXXXXX   $$$$$$$$                      XXXXXXXX",
".....................*    .*    .     .......oooooooooo.......................XXXXXXXXX                                 XXXXXXXX",
".....................     ..   ..  .. ......oooooooooooo......................XXXXXXXXX  $$$$$$$$$$                     XXXXXXXX",
".....................oooo..................ooooooooooooo......................XXXXXXXXX $$$$$$$$$$$$                    XXXXXXXX",
"....................ooooooooooo...........ooooooooooooooo.....................XXXXXXXXX$$$$$$$$$$$$$$                   XXXXXXXX",
"...................ooooooooooooo..........ooooooooooooooo.....................XXXXXXXX$$$$$$$$$$$$$$$$                 XXXXXXXXX",
"..................ooooooooooooooo.........ooooooooooooooo.....................XXXXXXXX$$$$$$$$$$$$$$$$                 XXXXXXXXX",
"..................ooooooooooooooooo.......ooooooooooooooo.....................XXXXXXXX$$$$$$$$$$$$$$$$                XXXXXXXXXX",
"..................oooooooooooooooooo......ooooooooooooooo......................XXXXXXXX$$$$$$$$$$$$$$                 XXXXXXXXXX",
"..................ooooooooooooooooooo.....ooooooooooooooo.......................XXXXXXX $$$$$$$$$$$$                   XXXXXXXXX",
"..................oooooooooooooooooooo....oooooooooooooo...........................XX... $$$$$$$$$$                    .........",
"..................ooooooooooooooooooooo....oooooooooooo.........................................................................",
"..................oooooooooooooooooooooo....oooooooooo..........................................................................",
"...................oooooooooooooooooooooo....oooooooo...........................................................................",
"....................ooooooooooooooooooooo.......................................................................................",
".....................oooooooooooooooooooo.......................................................................................",
"............................ooooooooooooo.......................................................................................",
".............................ooooooooooo..................................................................----------------------",
"...............................oooooooo................................................................-------------------------",
".................................ooooo........................................--------------------------------------------------",
"................................................--------------------------------------------------------------------------------",
"--------------------------------------------------------------------------------------------------------------------------------",
"--------------------------------------------------------------------------------------------------------------------------------",
"--------------------------------------------------------------------------------------------------------------------------------",
"--------------------------------------------------------------------------------------------------------------------------------",
"--------------------------------------------------------------------------------------------------------------------------------",
"--------------------------------------------------------------------------------------------------------------------------------",
"--------------------------------------------------------------------------------------------------------------------------------",
"--------------------------------------------------------------------------------------------------------------------------------",
"--------------------------------------------------------------------------------------------------------------------------------",
"--------------------------------------------------------------------------------------------------------------------------------"
};
