/* XPM */
static char *east[] = {
/* columns rows colors chars-per-pixel */
"128 128 11 1 ",
"  c black",
". c #663931",
"X c #595652",
"o c #8F563B",
"O c #37946E",
"+ c #99E550",
"@ c #847E87",
"# c #5FCDE4",
"$ c #9BADB7",
"% c white",
"& c None",
/* pixels */
"##################%%%%%%%%%%%%%%%%%%%%%%%%%%%%%###############$%%%%%%%%%%$$#################################%%%%%%%%%%%%%%%%%%%%",
"##################%%%%%%%%%%%%%%%%%%%%%%%%%%%%%###############%%%%%%%%%%%%$################################%%%%%%%%%%%%%%%%%%%%%",
"##################%%%%%%%%%%%%%%%%%%%%%%%%%%%%###############%%%%%%%%%%%%%%%##############################%%%%%%%%%%%%%%%%%%%%%%",
"##################%%%%%%%%%%%%%%%%%%%%%%%%%%%###############%%%%%%%%%%%%%%%%%#############################%%%%%%%%%%%%%%%%%%%%%%",
"##################%%%%%%%%%%%%%%%%%%%%%%%%%%###############%%%%%%%%%%%%%%%%%%%%###########################%%%%%%%%%%%%%%%%%%%%%%",
"##################%%%%%%%%%%%%%%%%%%%%%%%%%###############%%%%%%%%%%%%%%%%%%%%%%%#########################%%%%%%%%%%%%%%%%%%%%%%",
"##################%%%%%%%%%%%%%%%%%%%%%%%%###############%%%%%%%%%%%%%%%%%%%%%%%%%########################%%%%%%%%%%%%%%%%%%%%%%",
"##################%%%%%%%%%%%%%%%%%%%%%%%################%%%%%%%%%%%%%%%%%%%%%%%%%%#######################%%%%%%%%%%%%%%%%%%%%%%",
"##################%%%%%%%%%%%%%%%%%%####################%%%%%%%%%%%%%%%%%%%%%%%%%%%%######################%%%%%%%%%%%%%%%%%%%%%%",
"###################%%%%%%%%%%%%%%%%####################%%%%%%%%%%%%%%%%%%%%%%%%%%%%%%######################%%%%%%%%%%%%%%%%%%%##",
"####################%%%%%%%%%%%%%%#####################%%%%%%%%%%%%%%%%%%%%%%%%%%%%%%%######################%%%%%%%%%%%#########",
"#####################%%%%%%%##########################%%%%%%%%%%%%%%%%%%%%%%%%%%%%%%%%%######################%%%%%%%%%##########",
"$#####################################################%%%%%%%%%%%%%%%%%%%%%%%%%%%%%%%%%%########################################",
"$$###################################################%%%%%%%%%%%%%%%%%%%%%%%%%%%%%%%%%%%%#######################################",
"%%%%%%###############################################%%%%%%%%%%%%%%%%%%%%%%%%%%%%%%%%%%%%%%%%%##################################",
"%%%%%%%#############################################%%%%%%%%%%%%%%%%%%%%%%%%%%%%%%%%%%%%%%%%%%%#################################",
"%%%%%%%%############################################%%%%%%%%%%%%%%%%%%%%%%%%%%%%%%%%%%%%%%%%%%%%################################",
"%%%%%%%%%###########################################%%%%%%%%%%%%%%%%%%%%%%%%%%%%%%%%%%%%%%%%%%%%%###############################",
"%%%%%%%%%$##########################################%%%%%%%%%%%%%%%%%%%%%%%%%%%%%%%%%%%%%%%%%%%%%###############################",
"%%%%%%%%%%%%########################################%%%%%%%%%%%%%%%%%%%%%%%%%%%%%%%%%%%%%%%%%%%%%###############################",
"%%%%%%%%%%%%%#######################################%%%%%%%%%%%%%%%%%%%%%%%%%%%%%%%%%%%%%%%%%%%%%###############################",
"%%%%%%%%%%%%%%######################################%%%%%%%%%%%%%%%%%%%%%%%%%%%%%%%%%%%%%%%%%%%%%###############################",
"%%%%%%%%%%%%%%%#####################################%%%%%%%%%%%%%%%%%%%%%%%%%%%%%%%%%%%%%%%%%%%%%###############################",
"%%%%%%%%%%%%%%%$$###################################%%%%%%%%%%%%%%%%%%%%%%%%%%%%%%%%%%%%%%%%%%%%################################",
"%%%%%%%%%%%%%%%$$$$$###############################%%%%%%%%%%%%%%%%%%%%%%%%%%%%%%%%%%%%%%%%%%%%$################################",
"%%%%%%%%%%%%%%%$$$$$$$#############################%%%%%%%%%%%%%%%%%%%%%%%%%%%%%%%%%%%%%%%%%%%$$$$##############################",
"%%%%%%%%%%%%%%$$$$$$$$$############################%%%%%%%%%%%%%%%%%%%%%%%%%%%%%%%%%%%%%%%%%%$$$$$$#############################",
"%%%%%%%%%%%%%$$$$$$$$$$$$##########################%%%%%%%%%%%%%%%%%%%%%%%%%%%%%%%%%%%%%%%%%$$$$$$$#############################",
"%%%%%%@@@@@@@@@@$$$$$$$$$$$########################%%%%%%%%%%%%%%%%%%%%%%%%%%%%%%%%%%%%%@@@@$$$$$$$$############################",
"%%%%%@@@@@@@@@@@@$XXX$$$$$$$$######################%%%%%%%%%%%%%%%%%%%%%%%%%%%%%%%%%%%@@@@@@@$$$$$$$#########################$$$",
"%%%&@@@@@@@@@@@@@XXXXX$$$$$$$$####################$$%%%@@@@@@%%%%%%%%%%%%%%%%%%%%%%%%@@@@@@@@@$$$$$$########################$$$$",
"%&&@@@@@@@@@@@@@@XXXXXX$$$$$$$$$$$################$$$%XXXX@@@@@%%%%%%%%%%%%%%%%%%%%%@@@@@@@@@@@$$$$$$######################$$$$$",
"&&@@@@@@@@@@@@@@@XXXXXXX$$$$$$$$$$$$##############@@XXXXXXX@@@@@@%%%%%%%%%%%%%%%%%%@@@@@@@@@@@@@$$$$$$####################$$$$$$",
"&@@@@@@@@@@@@@@@@XXXXXXXXX$$$$$$$$$$$$###########@XXXXXXXXX@@@@@@@%%%%%%%%%&%%%%%%@@@@@@@@@@@@@@$$$$$$$#################$$$$$$$$",
"@@@@@@@@@@@@@@@@@@XXXXXXXXXXX$$$$$$$$$$#########@XXXXXXXXXX@@@@@@@@@%%%%%%%&&&&&&&@@@@@@@@@@@@@@$$$$$$$$#############$$$$$$$$$$$",
"@@@@@@@@@@@@@@@@@@@@XXXXXXXXXX$$$$$$$$$$$$####XXXXXXXXXXXX@@@@@@@@@@@%%%%%%&&&&&&@@@@@@@@@@@@@@@@@@$$$$$$$$$$$$$$$$$$$$$$$$$$$$$",
"@@@@@@@@@@@@@@@@@@@@@XXXXXXXXXXX$$$$$$$$$$$$$XXXXXXXXXXXX@@@@@@@@@@@@@@%%%&&&&&&@@@@@@@@@@@@@@@@@@@@$$$$$$$$$$$$$$$$$$$$$$XXXX$$",
"@@@@@@@@@@@@@@@@@@@@@@XXXXXXXXXXXXX$$$$$$$$$XXXXXXXXXX@@@@@@@@@@@@@@@@@@%&&&&&&@@@@@@@@@@@@@@@@@@@@@@$$$$$$$$$$$$$$$$@@@@XXXXXX$",
"@@@@@@@@@@&@@@@@@@@@@@@@XXXXXXXXXXXXXXX$$$$XXXXXXXXXX@@@@@@@@@@@@@@@@@@@@@&&&&@@@@@@@@@@@@@@@@@@@@@@@@$$$$$$$$$$$$$$@@@@@XXXXXXX",
"@@@@@@@@@&&@@@@@@@@@@@@@@@XXXXXXXXXXXXXX$$$XXXXXXXXX@@@@@@@@@@@@@@@@@@@@@@@@@@@@@@@@@@@@@@@@@@@@@@@@@@$$$$$$$$$$$$@@@@@@XXXXXXXX",
"@@@@@@@@&&@@@@@@@@@@@@@@@@@XXXXXXXXXXXXX@@XXXXXXX@@@@@@@@@@@@@@@@@@@@@@@@@@@@@@@@@@@@@@@@@@@@@@@@@@@@@@@$$$$$$$$$@@@@@XXXXXXXXXX",
"@@@@@@@&&&@@@@@@@@@@@@@@@@@@@@XXXXXXXXXXXXXXXXXX@@@@@@@@@@@@@@@@@@@@@@@@@@@@@@@@@@@@@@@@@@@@@@@@@@@@@@@@@@$$$$$$@@@@@XXXXXXXXXXX",
"@@@@@XXXXX@@@@@@@@@@@@@@@@@@@@@@@XXXXXXXXXXXXXX@@@@@@@@@@@@@@@@@@@@@@@@@@@@@@@@@@@@@@@@@@@@@@@@@@@@@@@@@@@@$$$$@@@XXXXXXXXXXXXXX",
"@@@@XXXXXXX@@@@@@@@@@@@@@@@@@@@@@@@@@@XXXXXXXXX@@@@@@@@@@@@@@@@@@@@@@@@@@@@@@@@@@@@@@@@@@@@@@@@@@@@@@@@@@@@@@@@@@XXXXXXXXXXXXXXX",
"@@@@XXXXXXX@@@@@@@@@@@@@@@@@@@@@@@@@@XXXXXXXXX@@@@@@@@@@@@@@@@@@@@@@@@@@@@@@@@@@@@@@@@@@@@@@@@@@@@@@@@@@@@@@@@@@@XXXXXXXXX@XXXXX",
"@@@@XXXXXXX@@@@@@@@@@@@@@@@@@@@@@@@@@XXXXXXXX@@@@@@@@@@@@@@@@@@@@@@@@@@@@@@@@@@@@@@@@@@@@@@@@@@@@@@@@@@@@@@@@@@@@XXXXXXXX@@XXXXX",
"@@@@@XXXXXXX@@@@@@@@@@@@@@@@@@@@@@@@XXXXXXXX@@@@@@@@@@@@@@@@@@@@@@@@@@@@@@@@@@@@@@@@@@@@@@@@@@@@@@@@@@@@@@@@@@@@@@XXXXXX@@@XXXXX",
"@@@@@@XXXXXX@@@@@@@@@@@@@@@@@@@@@@@XXXXXXXX@@@@@@@@@@@@@@@@@@@@@@@@@@@XXXXX@@@@@@@@@@@@@@@@@@@@@@@@@@@@@@@@@@@@@@@@@@@@@@@@@XXXX",
"@@@@@@@XXXXX@@@@@@@@@@@@@@@@@@@@@@@XXXXXX@@@@@@@@@@@@@@@@@@@@@@@@@@@XXXXXXXXXX@@@@@@@@@@&&@@@@@@@@@@@@@@@@@@@@@@@@@@@@@@@@@@XXXX",
"@@@@@@@XXXXX@@@@@@@@@@@@@@@@@&&@@@XXXXXX@@@@@@@@@@@@@@@@@@@@@@@@@@@XXXXXXXXXXXX@@@@@@@@@@@@@@@@@@@@@@@@@@@@@@@@@@@@@@@@@@@@@@XXX",
"@@@@@@@XXXXX@@@@@@@@@@@@@@@@&&&$@XXXXXXX@@@@@@@@@@@@@@@@@@@&&@@@@@XXXXXXXXXXXXXX@@@@@@@@@@@@@@@@@@@@@@@@@@@@@@@@@@@@@@@@@@@@@XXX",
"@@@@@@@XXXXX@@@@@@@@@@@@@@@@&&$@XXXXXXX@@@@@@@@@@@@@@@@@@@@@@@@@@XXXXXXXXXXXXXXXXX@@@@@@@@@@@@@@@@@@@@@@@@@@@@@@@@@@@@@@@@@@@XXX",
"@@@@@@@XXXXX@@@@@@@@@@@@@@@&&$@XXXXXXXX@@@@@@@@@@@@@@@@@@@@@@@@@XXXXXXXX@XXXXXXXXXXX@@@@@@@@@@@@@@@@@@@@@@@@@@@@@@@@@@@@@@@@@XXX",
"@@@@@@@XXXXX@@@@@@@@@@@@@@@&$$@XXXXXXX@@@@@@@@@@@@@@@@@@@@@@@@@XXXXXXXX@@@@@XXXXXXXXX@@@@@@@@@@@@@@@@@@@@@@@@@@@@@@@@@@@@@@@@@XX",
"@@@@@@@XXXXX@@@@@@@@@@@@@@&$$@XXXXXXX@@@@@@@@@@XXX@@@@@@@@@@@@XXXXXXXX@@@@@@@XXXXXXXXX@@@@@@@@@@@@@@@@@@@@@@@@@@@@@@@@@@@@@@@@@X",
"@@@@@@@XXXXX@@@@@@@@@@@@@&$$$XXXXXXX@@@@@@@@@@XXXXXXXXXXXXXXXXXXXXXXX@@@@@@@@@XXXXXXXXX@@@@@@@@@@@@@@@@@@@@@@@@@@@@@@@@@@@@@@@@X",
"@@@@@@@XXXXX@@@@@@@@@@@@&$$$XXXXXXX@@@@@@@@@@@XXXXXXXXXXXXXXXXXXXXX@@@@@@@@@@@@XXXXXXXX@@@@@@@@@@@@@@@@@@@@@@@@@@@@@@@@@@@@@@@@@",
"@@@@@@@XXXXX@@@@@@@@@@@&$$$$XXXXXX@@@@@@@@@@@@XXXXXXXXXXXXXXXXXXXXX@@@@@@@@@@@@@@XXXXXX@@@@@@@@@@@@@@@@@@@@@@@@@@@@@@@@@@@@@@@@@",
"@@@@@@@XXXXX@@@@@@@@@@&&$$$XXXXXX@@@@@@@@@@@@@XXXXXXXXXXXXXXXXXXXX@@@@@@@@@@@@@@@@XXXX@@@@@@@@@@@@@@@@@@@@@@@XXXX@@@@@@@@@@@@@@@",
"@@@@@@@XXXXX@@@@@@@@@&&$$$@XXXXXX@@@@@@@@@@@@@@XXXXXXXXXXXXXXXXXX@@@@@@@@@@@@@@@@@@@@@@@@@@@@@@@@@@@@@@@@@@@XXXXXX@@@@@@@@@@@@@@",
"@@@@@@@XXXXX@@@@@@@@&&&$$XXXXXXX@@@@@@@@@@@@@@@@@@@@@@@@@@@@@@@@@@@@@@@@@@@@@@@@@@@@@@@@@@@@@@@@@@@@@@@@@@@@XXXXXXX@@@@@@@@@@@@@",
"@@@@@@@XXXXX@@@@@@@&&&$$XXXXXXXX@@@@@@@@@@@@@@@@@@@@@@@@@@@@@@@@@@@@@@@@@@$$@@@@@@@@@@@@@@@@@@@@@@@@@@@@@@@XXXXXXXXX@@@@@@@@@@@@",
"@@@@@@@@XXX@@@@@@@&&&$$XXXXXXXX@@@@@@@@@@@@@@@@@@@@@@@@@@@@@@@@@@@@@@@@@@@$$  @@@@@@@@@@@@@@@@@@@@@@@@@@@@XXXXXXXXXXX@@@@@@@@@@@",
"@@@@@@@@@@@@@@@@&&&&$$@XXXXXXX@@@@@@@@@@@@@@@@@@@@@@@@@@@@@@@@@@@@@@@@@@  $$   $@@@@@@@@@@@@@@@@@@@@@@@@@XXXXXXXXXXXXX@@@@@@@@@@",
"@@@@@@@@@@@@@@@&&&&$$@XXXXXXX@@@@@@@@@@@@@@@@@@@@@@@@@@@@@@@@@@@@@@@@@@$   $   $@@@@@@@@@@@@@@@@@@@@@@@@XXXXXXXXXXXXXX@@@@@@@@@@",
"@@@@@@@@@@@@@@&&&&$$@XXXXXXX@@@@@@@@@@@@@@@@@@@@@@@@@@@@@@@@@@@@@@@@@@@$   $   $$@@@@@@@@@@@@@@@@@@@@@@XXXXXXXX@@XXXXXX@@@@@@@@@",
"@@@@@@@@@@@@@&&&&&$@XXXXXXX@@@@.....@@@@@&@@@@@@@@@@@@@@@@@@@@@@@@@@@@$$       $$@@@@@@@@@@@@@@@@@@@@@@XXXXXXX@@@XXXXXXX@@@@@@@@",
"@@@@@@@@@@@@&&&&&$@XXXXXXXX@@@..ooo..@@@&@...@@@@@@@@@@@@@@@@@@@@@@@@ $$       $  @@@@@@@@@@@@@@@@@@@@XXXXXXX@@@@@XXXXXX@@@@@@@@",
"@@@@@@@@@@@&&&&&$@@XXXXXXX@@@@.oo..o.@@@@..o..@@@@@@@@@@@@@@@@@@@@@@@  $       $  @@@@@@@@@@@@@@@@@@@XXXXXXX@@@@@@@XXXXXX@@@@@@@",
"@@@@@@@@@&&&&&&$@@@XXXXXX@@@@@.oo..o...@@.ooo.@@@@@@@@@@@@@@@@@@@@@@   $  $       @@@@@@@@@@@@@@@@@@XXXXXXX@@@@@@@@XXXXXXX@@@@@@",
"@@@@@@@@&&&&&&$@@@XXXXXX@@@@@@.oo....oo.....o.@@@@@@@@@@@@@@@@@@@@@@      $     $ @@@@@@@@@@@@@@@@@XXXXXXXX@@@@@@@@@XXXXXXX@@@@@",
"@@@@@@@&&&&&&$@@@XXXXXXX@@@@@@..o..ooooo......@@@@@@@@@@@@@@@@@@@@@@     $$     $ @@@@@@@@@@@@@@@@@XXXXXXX@@@@@@@@@@@XXXXXXX@@@@",
"@@@@@&&&&&&&&@@@XXXXXXX@@@@@@@@.o.ooooooo.ooo.@@@@@@@@@@@@@@@@@@@@@@X    $ $    $ @@@@@@@@@@@@@@@@XXXXXXX@@@@@@@@@@@@@XXXXXXXXXX",
"@@@@&&&&&&&@@@@@XXXXXX@@@@@@@@@@..o ooo o.o...@@@@@@@@@@@@@@@@@@@@@XXXXXXXXX   $$XX@@@@@@@@@@@@@@@XXXXXX@@@@@@@@@@@@@@@XXXXXXXXX",
"@@@&&&&&&&@@@@@XXXXXX@@@@@@@@@@@@.oooooooo..@@@@@@@@@@@@@@@@@@@@@@@XXXXXXXXXXXXXXXXX@@@@@@@@@@@@@XXXXXXX@@@@@@@@@@@@@@@@XXXXXXXX",
"&&&&&&&&&@@@@@XXXXXXX@@@@@@@@@@@@.ooo oooo.@@@@@@@@@@@@@@@@@@@@@@@@@XXXXXXXXXXXXXXX@@@@@@@@@@@@@XXXXXXX@@@@@@@@@@@@@@@@@@XXXXXXX",
"&&&&&&&&@@@@XXXXXXXXX@@@@@@@@@@@@.oo   oo..@@@@@@@@@@@@@@@@@@@@@@@@@@@@@@@@@XXXXXX@@@@@@@@@@@@@XXXXXXX@@@@@@@@@@@@@@@@@@@@XXXXXX",
"&&&&&&&&@@@XXXXXXXXX@@@@@@@@@@@@@..o   oo.@@@@@@@@@@@@@@@@@@@@@@@@@@@@@@@@@@@@@@@@@@@@@@@@@@@@XXXXXXXX@@@@@@@@@@@@@@@@@@@@@@@@XX",
"&&&&@@@@@@@XXXXXXXX@@@@@@@@@@@@@@@...ooo..@@@@@@@@@@@@@XXXX@@@@@@@@@@@@@@@@@@@@@@@@@@@@@@@@@@XXXXXXXX@@@@@@@@@@@@@@@@@@@@@@@@@@X",
"&@@@@@@@@XXXXXXXX@@@@@@@@@@@@@@@@@.oo.....@@@@@@@@@@@@XXXXXXX@@@@@@@@@@@@@@@@@@@@@@@@@@@@@@@XXXXXXXX@@@@@@@@@@@@@@@@@@@@@@@@@@@@",
"@@@@@@@XXXXXXXXX@@@@@@@@@@@@@......ooooooo.......@@@@XXXXXXXXXXX@@@@@@@@@@@@@@@@@@@@@@@@@@@XXXXXXX@@@@@@@@@@@@@@@@@@@@@@@@@@@@@@",
"@@@@@@XXXXXXXXX@@@@@@@@@@@@@..oooo.oooooooo.oooo..@@@XXXXXXXXXXXX@@@@@@@@@@@@@@@@@@@@@@@@@XXXXXXXX@@@@@@@@@@@@@@@@@@@@@@@@@@@@@@",
"@@@@XXXXXXXXXX@@@@@@@@@@@@@@.ooooo..ooooooo.ooooo.@@@XXXXXXXXXXXXXXXX@@@@@@@@@@@@@@@@@@@@XXXXXXXX@@@@@@@@@@@@@@@@@@@@@@@@@@@@@@@",
"@@@XXXXXXXXXX@@@@@@@@@@@@@@@..ooo...oo...ooo.oooo.@@XXXXXXXXXXXXXXXXXX@@@@@@@@@@@@@@@@@@XXXXXXXX@@@@@@@@@@@@@@@@@@@@@@@@@@@@@@@@",
"@@XXXXXXXXX@@@@@@@@@@@@@@@@@@.....@.o.....oo......@XXXXXXXXXXXXXXXXXXXX@@@@@@@@@@@@@@@XXXXXXXX@@@@@@@@@@@@@@@@@@@@@@@@@@@@@@@@@@",
"@@XXXXXXXX@@@@@@@@@@@@@@@@@@@@@@@@@.o.....oo....@@XXXXXXX@@@@@XXXXXXXXXX@@@@@@@@@@@@@XXXXXXXX@@@@@@@@@@@@@@@@@@@@@@@@@@@@@@@@@@@",
"@XXXXXXXX@@@@@@@@@@@@@@@@@@@@@@@@@@.o.....oo.@@@@@XXXXXX@@@@@@@XXXXXXXXXX@@@@@@@@@@@XXXXXXXX@@@@@@@@@@@@@@@@@@@@@@@@@@@@@@@@@@@@",
"@XXXXXX@@@@@@@@@@@@@@@@@@@@@@@@@@@@.o.....oo.@@@@XXXXXX@@@@@@@@@@@@XXXXXXX@@@@@@@@@@XXXXXXX@@@@@@@@@@@@@@@@@@@@@@@@@@@@@@@@@@@@@",
"@XXXXXX@@@@@@@@@@@@@@@@@@@@@@@@@@@........o...@XXXXXXXX@@@@@@@@@@@@@XXXXXX@@@@@@@@@@XXXXXX@@@@@@@@@@@@@@@@@@@@@@@@@@@@@@@@@@@@@@",
"@XXXXX@@@@@@@@@@@@@@@@@@@@@@@@@@@..oooo....oo.XXXXXXXX@@@@@@@@@@@@@@@XXXXXX@@@@@@@@@@XXX@@@@@@@@@@@@@@@@@@@@@@@@@@@@@@@@@@@@@@@@",
"XXXXXX@@@@@@@@@@@@@@@@@@@@@@@@@@@..oo..@.oooo.XXXXXXX@@@@@@@@@@@@@@@@XXXXXXX@@@@@@@@@@@@@@@@@@@@@@@@@@@@@@@@@@@@@@@@@@@@@@@@@@@&",
"XXXXXX@@@@@@@@@@@@@@@@@@@@@@@@@@@@...@@@.oooo.XXXXXX&@@@@@@@@@@@@@@@@@XXXXXXX@@@@@@@@@@@@@@@@@@@@@@@@@@@@@@@@@@@@@@@@@@@@@@@@@++",
"XXXXX@@@@@@@@@@@@@@@@@@@@@@@@@@@@@@@@@XX..ooo.XXXXX@@@@@@@@@@@@@@@@@@@@XXXXXXXX@@@@@@@@@@@@@@@@@@@@@@@@@@@@@@@@@@@@@@@@@@@@@@+++",
"XXXXX@@@@@@@@@@@@@@@@@@@@@@@@@@@@@@@@XXXX.....XXX@@@@@@@@@@@@@@@@@@@@@@@XXXXXXXXX@@@@@@@@@@@@@@@@@@@@@@@@@@@@@@@@@@@@@@@@@++++++",
"XXXXX@@@@@@@@@@@@@@@@@@@@@@@@@@@@@@@XXXXXXXXXX@@@@@@@@@@@@@@@@@@@@@@@@@@@XXXXXXXXX@@@@@@@@@@@@@@@@@@@@@@@@@@@@@@@@@@@@@&&+++++++",
"XXXXX@@@@@@@@@@@@@@@@@@@@@@@@@@@@@@XXXXXXXXXX@@@@@@@@@@@@@@@@@@@@@@@@@@@@@XXXXXXXXX@@@@@@@@@@@@@@@@@@@@@@@@@@@@@@@&&&&&+++++++++",
"XXXXX@@@@@@@@@@@@@@@@@@@@@@@@@@@@@XXXXXXXX@@@@@@@@@@@@@@@@@@@@@@@@@@@@@@@@@XXXXXXXXXX@@@@@@@@@@@@@@@@@@@@@@@@@@@@&&&&+++++++++++",
"XXXXX@@@@@@@@@@@@@@@@@@@@@@@@@@@@XXXXXXXX@@@@@@@@@@@@@@@@@@@@@@@@@@@@@@@@@@@@XXXXXXXXX@@@@@@@@@@@@@+++++++&&&+++++++++++++++++++",
"XXXXX@@@@@@@@@@@@@@@@@@@@@@@@@@@XXXXXXX@@@@@@@@@@@@@@@@@@@@@@@@@@@@@@@@@@@@@@@@XXXXXXXX@@@@@@@@@@@++++++++OOOOOO++++++++++++++++",
"@XXX@@@@@@@@@@@@@@@@@@@@@@@@@@@@XXXXXXX@@@@@@@@@@@@@@@@@@@@@@@@@@@@@@@@@@@@@@@@@XXXXXXX@@@@@@@OOO++OOOOOOOOOOOOOO+++++++++++++++",
"@@@@@@@@@@@@@@@@@@@@@@@@@@@@@@@XXXXXXX@@@@@@@@@@@@@@@@@@@@@@@@@@@@@@@@@@&&&@@@@@@XXXXXX@+++OOOOOOOOOOOOOOOOOOOOOOO++++++++++++++",
"@@@@@@@@@@@@@@@@@@@@@@@@@@@@@@@XXXXXX@@@@@@@@@@@@@@@@@@@@@@@@@@@@@@@@@++++&&&&&&&&XXXXX++OOOOOOOOOOOOOOOOOOOOOOOOOO+++++++++++++",
"@@@@@@@@@@@@@@@@@@@@@@@@@@@@@@@XXXXX@@@@@@@@@@@@@@@@@@@@@@@@@@@@@@@@+++++++&&&&&&&+XXX+OOOOOOOOOOOOOOOOOOOOOOOOOOOO+++++++++++++",
"@@@@@@@@@@@@@@@@@@@@@@@+@@@@@@@XXXXX@@@@@@@@@@@@@@@@@@@@@@@@@@@@@@@+++++++++&&+++++++OOOOOOOOOOOOOOOOOOOOOOOOOOOOOO+++++++++++++",
"@@@@@@@@@@@@+@@@@@@@@@++@@@@@@@@XXX@@@@@&&&&&&&&&@@@@@@@@@++++++++++++++++++++++++OOOOOOOOOOOOOOOOOOOOOOOOOOOOOOOOO+++OOOOO+++++",
"$@@@@@@@@@@+++@@@@@@@+++&@@@@@@@@@@@@&OOOOOOO&&&&&&&&&&&++++++++++++++++++++++++OOOOOOOOOOOOOOOOOOOOOOOOOOOOOOOOOOOOOOOOOOOO++++",
"++@@@@@@@@+++++@@@@@++++&&@@@@@@@@@@OOOOOOOOOO&&&&&&&&++++++OOOOO++++++++++++OOOOOOOOOOOOOOOOOOOOOOOOOOOOOOOOOOOOOOOOOOOOOOOO+++",
"+++@@@@++++++++++++++++&&&&@@@@@@@@OOOOOOOOOOOO&&&+++++++++OOOOOOO++++++OOOOOOOOOOOOOOOOOOOOOOOOOOOOOOOOOOOOOOOOOOOOOOOOOOOOOO++",
"++++++++++++OOOO++++++&&OOOO@@@@@@OOOOOOOOOOOOOO++++++++++OOOOOOOOO++OOOOOOOOOOOOOOOOOOOOOOOOOOOO+OOOOOOOOOOOOOOOOOOOOOOOOOOOO++",
"+++++++++++OOOOOO++++&&OOOOOO@@@@OOOOOOOOOOOOOOO+++++++++OOOOOOOOOOOOOOOOOOOOOOOOOOOOOOOOOOOOOOO&&&OOOOOOOOOOOOOOOOOOOOOOOOOOO++",
"++++++++++OOOOOOOOOOOOOOOOOOOOOOOOOOOOOOOOOOOOOO+++++++++OOOOOOOOOOOOOOOOOOOOOOOOOOOOOOOOOOOOO++&&OOOOOOOOOOOOOOOOOOOOOOOOOOOO++",
"+++++++++OOOOOOOOOOOOOOOOOOOOOOOOOOOOOOOOOOOOOOO+++++++++OOOOOOOOOOOOOOOOOOOOOOOOOOOOOOOOOOO+++++OOOOOOOOOOOOOOOOOOOOOOOOOOOO+++",
"+++++++++OOOOOOOOOOOOOOOOOOOOOOOOOOOOOOOOOOOOOOO+++++++++OOOOOOOOOOOOOOOOOOOOOOOOOOOOOOOOO+++++++OOOOOOOOOOOOOOOOOOOOOOOOOOO++++",
"+++++++++OOOOOOOOOOOOOOOOOOOOOOOOOOOOOOOOOOOOOOOO+++++++++OOOOOOOOOOOOOOOOOOOOOOOOOOOOOO+++++++++OOOOOOOOOOOOOOOOOOOOOOOOOO+++++",
"+++++++++OOOOOOOOOOOOOOOOOOOOOOOOOOOOOOOOOOOOOOOOO+++++++++OOOOOOOOOOOOOOOOOOOOOOOOOO++++++++++++OOOOOOOOOOOOOOOOOOOOOOOO++++++&",
"+++++++++OOOOOOOOOOOOOOOOOOOOOOOOOOOOOOOOOOOOOOOOOO++++++++&OOOOOOOOOOOOOOOOOOOOOOO+++++++++++++++OOOOOOOOOOOOOO++++++++++++++++",
"++++++++++OOOOOOOOOOOOOOOOOOOOOOOOOOOOOOOOOOOOOOOOO+++++++++++++OOOOOOOOOOOOOOOO+++++++++++++++++++OOOOOOOOOOOO+++++++++++++++++",
"+++++++++++OOOOOOOOOOOOOOOOOOOOOOOOOOOOOOOOOOOOOOOO++&&+++++++++OOOOOOOOOOO+++++++++++++++++++++++++OOOOOOOOO+++++++++++++++++++",
"++++++++++++OOOOOOOOOOOOOOO+++OOOOOOOOOOOOOOOOOOOOO&&&++++++++++OOOOOOOOOO++++++++++++++++++++++++++++++++++++++++++++++++++++++",
"+++++++++++++OOOOOOOOOOOOO+++++OOOOOOOOOOOOOOOOOOO&&+++++++++++++OOOOOOOO+++++++++++OOOO++++++++++++++++++++++++++++++++++++++++",
"+++++++++++++++++++OOOO+++++++++OOOOOOOOOOOOOOOOO&++++++++++++++++OOOOOO+++++++OOOOOOOOOO+++++++++++++++++++++++++++++++++++++++",
"+++++++++++++++++OOOOOOO+++++++++++OOOOOOOOOOOOO+++++++++++++++++++OOOO+++++++OOOOOOOOOOOO++++++++++++++++++++++++++++++++++++++",
"++++++++++++++++OOOOOOOOO+++++++++OOOOOOOOOOOO+++++++++++++++++++++++++++++++OOOOOOOOOOOOOOO++++++++++++++++++OOOOOOO&++++++++++",
"+++++++++++++++OOOOOOOOOOO++++++OOOOOOOOOOOOOO++++++++++++++++++++++++++++++OOOOOOOOOOOOOOOOOOOOOOO+++++++OOOOOOOOOOOO++++++++++",
"++++++++++++OOOOOOOOOOOOOO++OOOOOOOOOOOOOOOOOO+++++++++++++++++++++++++++++OOOOOOOOOOOOOOOOOOOOOOOOO+&&++OOOOOOOOOOOOOO+++++++++",
"+++++++++++OOOOOOOOOOOOOOO+OOOOOOOOOOOOOOOOOOOOOOOOOOOOOOOOOOOOOOOOOOOOOOO+OOOOOOOOOOOOOOOOOOOOOOOOOO&&+OOOOOOOOOOOOOOOO++++++++",
"++++++++OOOOOOOOOOOOOOOOOOOOOOOOOOOOOOOOOOOOOOOOOOOOOOOOOOOOOOOOOOOOOOOOOOOOOOOOOOOOOOOOOOOOOOOOOOOOOO&OOOOOOOOOOOOOOOOO++++++++",
"+++++++OOOOOOOOOOOOOOOOOOOOOOOOOOOOOOOOOOOOOOOOOOOOOOOOOOOOOOOOOOOOOOOOOOOOOOOOOOOOOOOOOOOOOOOOOOOOOOO&OOOOOOOOOOOOOOOOO&++++++&"
};
