/* XPM */
static char *exit[] = {
/* columns rows colors chars-per-pixel */
"52 64 168 2 ",
"   c #000101",
".  c #030609",
"X  c #06090D",
"o  c #0A0C0B",
"O  c #0E120C",
"+  c #11150F",
"@  c #050C12",
"#  c #090E13",
"$  c #0B1115",
"%  c #0D141A",
"&  c #0D181F",
"*  c #131613",
"=  c #191715",
"-  c #161A15",
";  c #191B17",
":  c #12181F",
">  c #1B1D1B",
",  c #211E1C",
"<  c #1D211D",
"1  c #22231F",
"2  c #28221F",
"3  c #0D1720",
"4  c #0E1923",
"5  c #111C26",
"6  c #1E1F21",
"7  c #151F28",
"8  c #1E2124",
"9  c #15222D",
"0  c #1D252C",
"q  c #1F282F",
"w  c #152533",
"e  c #182531",
"r  c #162837",
"t  c #1F2A33",
"y  c #1B2C3B",
"u  c #172B3B",
"i  c #232521",
"p  c #2B2522",
"a  c #252B24",
"s  c #2C2A26",
"d  c #2A2E29",
"f  c #302A26",
"g  c #342E2A",
"h  c #283027",
"j  c #2C322B",
"k  c #2E382D",
"l  c #33332E",
"z  c #39312E",
"x  c #31392F",
"c  c #202B36",
"v  c #212E3A",
"b  c #22303C",
"n  c #333433",
"m  c #3B3431",
"M  c #343B33",
"N  c #3B3C3B",
"B  c #403734",
"V  c #413835",
"C  c #374035",
"Z  c #394237",
"A  c #3C443B",
"S  c #3D4A3B",
"D  c #40433F",
"F  c #414E3E",
"G  c #42513F",
"H  c #1A2F41",
"J  c #1E3244",
"K  c #1D364B",
"L  c #233545",
"P  c #21364A",
"I  c #25394C",
"U  c #293B4C",
"Y  c #263D52",
"T  c #283E52",
"R  c #294156",
"E  c #26445D",
"W  c #2B445B",
"Q  c #2F485C",
"!  c #2B4760",
"~  c #264965",
"^  c #2D4A64",
"/  c #2F4E69",
"(  c #244762",
")  c #304F6B",
"_  c #2E516D",
"`  c #30516D",
"'  c #2E5574",
"]  c #2B5779",
"[  c #2C587A",
"{  c #325573",
"}  c #335877",
"|  c #345B7B",
" . c #385F7D",
".. c #3A617F",
"X. c #434443",
"o. c #464B45",
"O. c #484C47",
"+. c #4C4D4C",
"@. c #445342",
"#. c #485745",
"$. c #4A5A47",
"%. c #4A5248",
"&. c #535353",
"*. c #565955",
"=. c #5C5C5B",
"-. c #5F615E",
";. c #646463",
":. c #676A66",
">. c #6B6B6B",
",. c #6E706D",
"<. c #747474",
"1. c #7B7C7B",
"2. c #2F5D80",
"3. c #345E81",
"4. c #366184",
"5. c #396383",
"6. c #36658A",
"7. c #38668B",
"8. c #36688F",
"9. c #3A698E",
"0. c #3A6C93",
"q. c #3B6F99",
"w. c #3C729C",
"e. c #3F7193",
"r. c #3C76A2",
"t. c #3D79A6",
"y. c #3E7AA8",
"u. c #416781",
"i. c #406C8E",
"p. c #416F93",
"a. c #417196",
"s. c #41749A",
"d. c #46799E",
"f. c #4177A0",
"g. c #447BA4",
"h. c #417DAB",
"j. c #487FA8",
"k. c #4481AE",
"l. c #4A83AD",
"z. c #4684B2",
"x. c #4986B3",
"c. c #4A88B5",
"v. c #4D8CBA",
"b. c #508EBA",
"n. c #528CB5",
"m. c #5191BF",
"M. c #5395C3",
"N. c #5698C5",
"B. c #5A9DCB",
"V. c #5EA0CC",
"C. c #62A4CF",
"Z. c #65A6D0",
"A. c #67A8D2",
"S. c #68A9D2",
"D. c #858585",
"F. c #8A8A8A",
"G. c #939393",
"H. c #9B9B9B",
"J. c #A2A2A2",
"K. c #ACACAC",
"L. c #B4B4B4",
"P. c #BBBBBB",
"I. c #C2C2C2",
"U. c #CCCCCC",
"Y. c #D3D3D3",
"T. c gray86",
"R. c gray90",
"E. c None",
/* pixels */
"E.E.E.E.E.E.E.E.E.E.E.E.E.E.E.E.E.E.E.E.E.E.E.  . .   . .       E.E.E.E.E.E.E.E.E.E.E.E.E.E.E.E.E.E.E.E.",
"E.E.E.E.E.E.E.E.E.E.E.E.E.E.E.E.E.E.E.    . @ $ ~ ~ ' | J 3 $ .     E.E.E.E.E.E.E.E.E.E.E.E.E.E.E.E.E.E.",
"E.E.E.E.E.E.E.E.E.E.E.E.E.E.E.E.E.  . @ 9 Y 3.q.y. .q.y.r.q./ I #       E.E.E.E.E.E.E.E.E.E.E.E.E.E.E.E.",
"E.E.E.E.E.E.E.E.E.E.E.E.E.E.E.E.  X P w.r.y.y.h.h.3.x.z.h.h.r.r.r.~ 4 o     E.E.E.E.E.E.E.E.E.E.E.E.E.E.",
"E.E.E.E.E.E.E.E.E.E.E.E.E.E.  . 4 T q.t.x.x.c.x.b.0.d.x.x.x.x.x.k.t.| U %     E.E.E.E.E.E.E.E.E.E.E.E.E.",
"E.E.E.E.E.E.E.E.E.E.E.E.    : Y 3.3.x.M.j.j.g.8.q. .) 7.9.s.j.j.x.b.g.{ | v     E.E.E.E.E.E.E.E.E.E.E.E.",
"E.E.E.E.E.E.E.E.E.E.E.  . u 4.w.s.i.g.s.8.7.5. .}  .) } } 3.7.9.0.p.l.7.x.q.P @   E.E.E.E.E.E.E.E.E.E.E.",
"E.E.E.E.E.E.E.E.E.E.  . K w.t.z.v.p.3.3.3.3.} } } { ^ { } } } 4.5.3.| c.c.h.r.3.4     E.E.E.E.E.E.E.E.E.",
"E.E.E.E.E.E.E.E.E.  @ ~ r.h.v.l.7.6.{ ) { { { { ) ) ! ) ) } } } { / 3.7.s.c.c.h.8.u .   E.E.E.E.E.E.E.E.",
"E.E.E.E.E.E.E.E.  # ' r.k.x.d.0. .} { ) / ) ! ! I 0 i c Q Q ^ ` / { {  .3.s.g.c.y.0.P .   E.E.E.E.E.E.E.",
"E.E.E.E.E.E.E.  # E t.h.c.0.6.| { ^ W T T v 6 6 > , , , 6 : 8 T T T T { } 3.7.g.x.y.0.r   E.E.E.E.E.E.E.",
"E.E.E.E.E.E.  . Y t.k.x.9.4.{ { Q c , = > , p 2 2 f g p , p 2 > > , > Y { } } 7.g.z.y.3.#   E.E.E.E.E.E.",
"E.E.E.E.E.E.  y s.j.x.0.3.| ) L a , g g z p g z B m B z m z p f z f p 6 v W { 3.6.g.c.f._ X   E.E.E.E.E.",
"E.E.E.E.E.  7 ! 5.x.5.4.} ) v 2 p f g g B f g , , , , , , g p z m g g f 2 i W } 3.3.s.0.` P . E.E.E.E.E.",
"E.E.E.E.  % 3.r.| } 7.| ) v p m p g g l , > > x k #.i l M a > < p z z p g g 8 T { 5.6.) 0.r.w . E.E.E.E.",
"E.E.E.    ( r.x.g.}  .{ v , s z , = > 2 D x k a h A 1 i a C Z C n i = , f g p 6 W  .} 5.x.h.3.@   E.E.E.",
"E.E.E.  5 0.w.m.9.} ) v i f z 2 * 1 z -.*.m , + + < + + + < a #.-.%.a * , g g 2 p T { 3.x.h.r.P   E.E.E.",
"E.      r w.l.g.7.{ Q 8 p z p ; j A :.1.F = ; , < < - < < ; + a :.1.O.N 1 = z g , L { 3.0.b.y.(       E.",
"    $ $ I 6.l.s.4.` c > g p > d +.l.<.&.; ; , , < 1 - < 1 < < O n >.1.,.x 1 , z 2 6 W | 3.b.h.2.0 8 $   ",
"  % d.6./ | g.d.{ ) c , p 2 s M *.<.+.z < 1 a a 1 a - < 1 a < < , N :.>.D j = s , 6 W } 3.b.r.} ' d.}   ",
"  X  .x.q./ g.s.4.` c g z < x M *.o.< + - < 1 1 < a - < < < 1 , * * a =.O.j ; i m 6 T 3.7.b.q.| x.d.Q   ",
"  . ' 0.l./ d.d.| ` t p z 1 x k ; + 1 x - < a h a h - h a 1 , ; i n % = j M d i z 6 W } 3.b.} i.f.7.U   ",
"  o / 3.| ' ..5.) ^ c s f i M < < * -.-.1 < 1 a < a - < 1 1 2 = D D.2 * d M n 2 z , T ` { p.) } | 3.I   ",
"    7 { | 7.7.7.6.| t s m i C i < a :.<.< + - a a h - a h < = = &.u.X.= i S n 2 m 6 W ` { 3.6.7.7._ X   ",
"E.  . { 5.6.| | | { c p s i #.a > j ;.s N +.O * ; a - < + O 2 :.2 &.+.= 1 G x 1 f 6 T { } } 3.7.6.J   E.",
"E.    e W / ^ ^ ! ! c , s i $.a > + n i D.1.d ; O O * O = 2 +.G.&.g , = < C x , p 6 W ! ^ ^ ) ! y X   E.",
"E.E..   T } { { ! ) c , s 1 S a i N * n 1.K.G.>.X.*.d j -.d.G.G.+., = D > #.x 1 p > W ` ) } } ) X   E.E.",
"E.E.E.. R 5.3.} ^ ) c 2 s i C i n F.N d ,.G.I.I.I.Y.+.F.I.I.J.<.D , D.<.- G x , p 6 W / ) 3.7.} # E.E.E.",
"E.E.E.. W 9.7.0.) ) t 2 i i C 8 a <.F.N >.G.H.U.Y.R.+.P.U.K.F.<.;.D.L.o.> G C > p 6 W ` | 7.s.p.# E.E.E.",
"E.E.E.  Y f.0.b.`  .t g m i $.d > n D.H.G.D.F.L.U.T.+.H.L.H.D.F.G.H.=.* > S x 2 V i W  .| 9.k.d.% E.E.E.",
"E.E.E.  I y.q.b.) { c p m i $.d < - +.F.D.D.F.F.J.I.X.F.F.D.F.F.F.<.< ; 2 x h i g > W { 3.0.h.a.# E.E.E.",
"E.E.E.  K t.r.b.) ) t p m i $.:.< - ; ;.F.H.F.D.F.K.X.D.F.F.G.G.F.X.* < O.O.h l m > W / 6.r.h.4.X E.E.E.",
"E.E.E.  H q.r.r./ ` t p l i $.,.d * , :.H.H.J.H.G.K.X.D.G.J.K.H.D.N + 2 *.G f 2 g 6 T ` 7.r.t.2.. E.E.E.",
"E.E.E.  J q.q.r./ ) t p p a $.=.=.O V -.D.H.L.L.I.P.X.G.P.U.P.G.>.*.= g ;.F s , f > W ` 7.0.t.3.X E.E.E.",
"E.E.E.. J q.q.r./ / t p l i $.x X.o +.=.*.&.&.=.K.P.X.J.H.-.&.&.=.:., 2 +.M s 2 z 6 T ` 3.0.y.3.@ E.E.E.",
"E.E.E.  J 0.y.q./ ` c p z i $.< D l :.D.V , O + l D.n =.; + * d :.d.+.2 n k x 1 z 6 ! ` 3.r.y.3.# E.E.E.",
"E.E.E.  L 0.c.s./ | t p s i @.< i j :.H.D.g O + X.d.V &.i o * ;.J.1.&.> < G M > f , ! | [ r.y.6.$ E.E.E.",
"E.E.E.  P q.v.f./ | t g m i M ; 1 l :.D.H.1.=.-.<.H.V <.>.-.1.P.L.<.*.- < G M p B 6 W | | t.y.3.$ E.E.E.",
"E.E.E.  P 0.v.s./ | t p z i @.< d i +.>.1.1.<.1.F.I.D G.<.<.D.D.1.;.a a < G M i m 6 ! 3.| r.y.3.# E.E.E.",
"E.E.E.  H q.r.8.^ ) c s j i #.< d > n +.>.>.;.<.H.D.g 1.F.;.>.:.=.O.* d < S M 1 z 6 T ` ' q.y.3.% E.E.E.",
"E.E.E.  L w.7. .^ ) c s z i #.< d i ; * X.o.-.<.,.V 2 l F.,.o.&.i * < h < h M p m , W ) { } r.3.% E.E.E.",
"E.E.E.. L q.4.| / { t s m 1 A < h i a < * < *.<.1.+.p &.F.,.i 1 * d 1 1 > j k i z 6 ! { { } q. .:   E.E.",
"E.E.  7 ! 3.{ { Q ^ c s f < n ; h a a a + * *.<.<.D.B >.<.>.s O < h h h < h M , g > W ! ) { | } L     E.",
"E.E.  e { } { { ` 3.L p p < x ; a h h d 1 O.;.<.:.D.B :.<.;.<.; h h h h ; M k , g 6  .3.' ' { { { 4   E.",
"E.E.  5 j.v.v.v.j.c.Q 2 d < S < < i a i < a a D.=.D.B ;.<.X.M - d i a i - G M , f 6 j.v.v.v.c.v.v.L   E.",
"E.E.  v q.f.j.f.s.s.I , p < S < i a a d a > O A 1.l.B ;.>.< O a h a a h < x x , p 6  .0.s.s.s.s.9.r   E.",
"E.  3  .' ` ' ' ` { y 2 2 < C - < < a a h a ; D.1.D.N >.F.A a h d a 1 < - h x > p > / { { { { { ` J   E.",
"  9 u.v.z.z.j.x.x.x.W s m i S < < < < i i i < 1.i >.k N +.O.< < i < < < < h x i z 6 g.z.z.z.x.z.x.n.9 X ",
"  [ w.d.g.k.x.x.z.x.W f z i $.< , ; ; < 1 < 1 Z - G a 1 a j < < < - < < ; Z n i m i w.j.c.z.c.j.k.a.[ . ",
"  7.4.| 9.r.t.q.0.0.L f z i $.< , k G a h a < ; < $.a k < < a a k G < - ; @.M i m 6 3.6.r.q.0.0.0.` [ @ ",
"  7.4.| 9.9.9.6.4.} b p l 1 @.< j Q h < < < < < < #.a h + < < < < k #.a > G M i z > {  .6.6.8.8.8._ 4.@ ",
"  9.6.` [ } } _ / / y , s < x x @.x i < < < C ; < #.1 k < h a < < a M #.M S k , p > ! / / { } } | / 8.@ ",
"  a.k.8.0.0.8.0.0.0.L , p > x S M a - a a a a S S #.a C S C < 1 a < k M M M a , p 6 3.0.0.0.8.8.8.q.s.X ",
"  5.M.M.M.m.M.M.M.m.Q 2 p < d M M ; ; < < < < M C G 1 C C a < < < ; < M n M h > p 6 j.M.M.M.M.M.m.m.g.  ",
"  y t.t.y.y.y.r.q.7.L , , < h h Z S S #.#.#.#.k k G a a k S G G A #.#.x l h d = , 6 3.q.w.r.r.r.q.9.|   ",
"  y 0.t.y.t.w.0.7.4.L = = ; < > ; 6 < < > < > < < h < < < < < < < < > < > 6 > = = 6 3.3.0.q.r.r.t.0.'   ",
"  w 8.8.7.0.7.7.| } I I T T T Y U Y Y T T T Y R T T T Y T T T R R Y U Y T T T T T v { } 4.7.7.8.0.9.'   ",
"  7 3.} { { { { { ` ^ `  .8.3.| | ` ` { | 4.| | | } } | | } } } | { ^ { | } } } { ^ ` ` ` { { { { 3._   ",
"  3 / ^ { { { { { { { 3.q.y.w.q.w.3.` 4.q.r.w.q.q.q.w.q.q.q.q.q.0.4.` 4.0.q.q.6.5.{ / _ { { { { { { E   ",
"  5  .6.w.w.w.r.w.r.w.r.y.y.y.h.y.8...w.h.m.m.m.m.z.y.v.m.m.m.v.t.0.| 9.w.h.y.w.w.0.6.6.9.0.7.7.7.6._   ",
"  9 7.x.M.N.N.N.h.x.N.N.N.N.N.M.y.0.0.t.z.B.B.B.B.N.N.B.B.B.B.B.N.k.3.w.x.N.N.M.N.M.m.g.h.g.t.g.t.q.'   ",
"  H w.M.B.B.B.C.Z.B.C.V.B.B.B.B.M.0.w.y.v.m.M.M.B.B.B.B.B.C.A.A.C.B.w.y.M.m.M.V.C.V.A.S.A.B.B.B.v.z.9.  ",
"  K 6.q.w.a.s.s.s.a.a.a.9.a.w.a.q.3.3.6.6.6.4.6.a.a.e.s.a.s.s.a.a.s.| 6.6.6.7.w.d.a.s.s.s.s.w.s.e.4.~   ",
"      . .                                                             .     .     .       . .           "
};
