/* XPM */
static char *floor[] = {
/* columns rows colors chars-per-pixel */
"64 64 4 1 ",
"  c #4B3C35",
". c #5F493F",
"X c #675D46",
"o c #7D7451",
/* pixels */
"            ........        ....XXXXXXXXXXXX                ....",
"            ........        ....XXXXXXXXXXXX                ....",
"            ........        ....XXXXXXXXXXXX                ....",
"            ........        ....XXXXXXXXXXXX                ....",
"....    XXXXXXXXXXXX....    XXXXXXXXXXXXXXXXXXXX    ............",
"....    XXXXXXXXXXXX....    XXXXXXXXXXXXXXXXXXXX    ............",
"....    XXXXXXXXXXXX....    XXXXXXXXXXXXXXXXXXXX    ............",
"....    XXXXXXXXXXXX....    XXXXXXXXXXXXXXXXXXXX    ............",
"........XXXXXXXXXXXX........ooooXXXXXXXXXXXXXXXX....XXXXXXXX....",
"........XXXXXXXXXXXX........ooooXXXXXXXXXXXXXXXX....XXXXXXXX....",
"........XXXXXXXXXXXX........ooooXXXXXXXXXXXXXXXX....XXXXXXXX....",
"........XXXXXXXXXXXX........ooooXXXXXXXXXXXXXXXX....XXXXXXXX....",
"XXXXXXXX....XXXXXXXXXXXX....ooooXXXXXXXXXXXXXXXX....XXXXXXXX....",
"XXXXXXXX....XXXXXXXXXXXX....ooooXXXXXXXXXXXXXXXX....XXXXXXXX....",
"XXXXXXXX....XXXXXXXXXXXX....ooooXXXXXXXXXXXXXXXX....XXXXXXXX....",
"XXXXXXXX....XXXXXXXXXXXX....ooooXXXXXXXXXXXXXXXX....XXXXXXXX....",
"XXXXXXXX....oooooooo....    ....oooooooooooo....    ....        ",
"XXXXXXXX....oooooooo....    ....oooooooooooo....    ....        ",
"XXXXXXXX....oooooooo....    ....oooooooooooo....    ....        ",
"XXXXXXXX....oooooooo....    ....oooooooooooo....    ....        ",
"........        ........            ........XXXXXXXXXXXXXXXX....",
"........        ........            ........XXXXXXXXXXXXXXXX....",
"........        ........            ........XXXXXXXXXXXXXXXX....",
"........        ........            ........XXXXXXXXXXXXXXXX....",
"....XXXXXXXX....XXXXXXXXXXXX....        XXXXXXXXXXXXXXXXXXXX....",
"....XXXXXXXX....XXXXXXXXXXXX....        XXXXXXXXXXXXXXXXXXXX....",
"....XXXXXXXX....XXXXXXXXXXXX....        XXXXXXXXXXXXXXXXXXXX....",
"....XXXXXXXX....XXXXXXXXXXXX....        XXXXXXXXXXXXXXXXXXXX....",
"    XXXXXXXX    XXXXXXXXXXXXXXXXXXXXXXXXXXXXXXXXXXXXXXXX....XXXX",
"    XXXXXXXX    XXXXXXXXXXXXXXXXXXXXXXXXXXXXXXXXXXXXXXXX....XXXX",
"    XXXXXXXX    XXXXXXXXXXXXXXXXXXXXXXXXXXXXXXXXXXXXXXXX....XXXX",
"    XXXXXXXX    XXXXXXXXXXXXXXXXXXXXXXXXXXXXXXXXXXXXXXXX....XXXX",
"                ooooooooXXXXXXXXXXXXXXXX    ooooooooooooXXXXXXXX",
"                ooooooooXXXXXXXXXXXXXXXX    ooooooooooooXXXXXXXX",
"                ooooooooXXXXXXXXXXXXXXXX    ooooooooooooXXXXXXXX",
"                ooooooooXXXXXXXXXXXXXXXX    ooooooooooooXXXXXXXX",
"............    ....        XXXXXXXXXXXX....            XXXXXXXX",
"............    ....        XXXXXXXXXXXX....            XXXXXXXX",
"............    ....        XXXXXXXXXXXX....            XXXXXXXX",
"............    ....        XXXXXXXXXXXX....            XXXXXXXX",
"XXXXXXXXXXXXXXXX........        ........XXXX....XXXX........XXXX",
"XXXXXXXXXXXXXXXX........        ........XXXX....XXXX........XXXX",
"XXXXXXXXXXXXXXXX........        ........XXXX....XXXX........XXXX",
"XXXXXXXXXXXXXXXX........        ........XXXX....XXXX........XXXX",
"ooooooooooooXXXXXXXX............XXXXXXXXXXXXXXXX....XXXX....    ",
"ooooooooooooXXXXXXXX............XXXXXXXXXXXXXXXX....XXXX....    ",
"ooooooooooooXXXXXXXX............XXXXXXXXXXXXXXXX....XXXX....    ",
"ooooooooooooXXXXXXXX............XXXXXXXXXXXXXXXX....XXXX....    ",
"........XXXXXXXXXXXXXXXX....    XXXXXXXXXXXXXXXXXXXX....        ",
"........XXXXXXXXXXXXXXXX....    XXXXXXXXXXXXXXXXXXXX....        ",
"........XXXXXXXXXXXXXXXX....    XXXXXXXXXXXXXXXXXXXX....        ",
"........XXXXXXXXXXXXXXXX....    XXXXXXXXXXXXXXXXXXXX....        ",
"    ....XXXXXXXXXXXXXXXX............oooooooooooo....XXXXXXXX....",
"    ....XXXXXXXXXXXXXXXX............oooooooooooo....XXXXXXXX....",
"    ....XXXXXXXXXXXXXXXX............oooooooooooo....XXXXXXXX....",
"    ....XXXXXXXXXXXXXXXX............oooooooooooo....XXXXXXXX....",
"XXXXXXXX....oooooooo........XXXXXXXX........        XXXXXXXX....",
"XXXXXXXX....oooooooo........XXXXXXXX........        XXXXXXXX....",
"XXXXXXXX....oooooooo........XXXXXXXX........        XXXXXXXX....",
"XXXXXXXX....oooooooo........XXXXXXXX........        XXXXXXXX....",
"XXXXXXXX....        ....XXXXXXXXXXXXXXXXXXXXXXXX........        ",
"XXXXXXXX....        ....XXXXXXXXXXXXXXXXXXXXXXXX........        ",
"XXXXXXXX....        ....XXXXXXXXXXXXXXXXXXXXXXXX........        ",
"XXXXXXXX....        ....XXXXXXXXXXXXXXXXXXXXXXXX........        "
};
