/* XPM */
static char *goldrock[] = {
/* columns rows colors chars-per-pixel */
"64 64 256 2 ",
"   c black",
".  c #1F170B",
"X  c #170F07",
"o  c #4B4B4B",
"O  c white",
"+  c #1B1B1B",
"@  c #131313",
"#  c #0B0B0B",
"$  c #070707",
"%  c #2F371F",
"&  c #232B0F",
"*  c #171F07",
"=  c #0F1700",
"-  c #4F3B2B",
";  c #473323",
":  c #3F2B1B",
">  c #FFB7B7",
",  c #F7ABAB",
"<  c #F3A3A3",
"1  c #EB9797",
"2  c #E78F8F",
"3  c #DF8787",
"4  c #DB7B7B",
"5  c #D37373",
"6  c #CB6B6B",
"7  c #C76363",
"8  c #BF5B5B",
"9  c #BB5757",
"0  c #B34F4F",
"q  c #AF4747",
"w  c #A73F3F",
"e  c #A33B3B",
"r  c #9B3333",
"t  c #972F2F",
"y  c #8F2B2B",
"u  c #8B2323",
"i  c #831F1F",
"p  c #7F1B1B",
"a  c #771717",
"s  c #731313",
"d  c #6B0F0F",
"f  c #670B0B",
"g  c #5F0707",
"h  c #5B0707",
"j  c #530707",
"k  c #4F0000",
"l  c #470000",
"z  c #430000",
"x  c #FFEBDF",
"c  c #FFE3D3",
"v  c #FFDBC7",
"b  c #FFD3BB",
"n  c #FFCFB3",
"m  c #FFC7A7",
"M  c #FFBF9B",
"N  c #FFBB93",
"B  c #FFB383",
"V  c #F7AB7B",
"C  c #EFA373",
"Z  c #E79B6B",
"A  c #DF9363",
"S  c #D78B5B",
"D  c #CF8353",
"F  c #CB7F4F",
"G  c #BF7B4B",
"H  c #B37347",
"J  c #AB6F43",
"K  c #A36B3F",
"L  c #9B633B",
"P  c #8F5F37",
"I  c #875733",
"U  c #7F532F",
"Y  c #774F2B",
"T  c #6B4727",
"R  c #5F4323",
"E  c #533F1F",
"W  c #4B371B",
"Q  c #3F2F17",
"!  c #332B13",
"~  c #2B230F",
"^  c #EFEFEF",
"/  c #E7E7E7",
"(  c #DFDFDF",
")  c gray86",
"_  c LightGray",
"`  c #CBCBCB",
"'  c gray78",
"]  c gray75",
"[  c #B7B7B7",
"{  c gray70",
"}  c gray67",
"|  c #A7A7A7",
" . c #9F9F9F",
".. c #979797",
"X. c #939393",
"o. c #8B8B8B",
"O. c #838383",
"+. c gray50",
"@. c #777777",
"#. c #6F6F6F",
"$. c gray42",
"%. c gray39",
"&. c #5B5B5B",
"*. c gray34",
"=. c gray31",
"-. c gray28",
";. c #434343",
":. c gray23",
">. c #373737",
",. c #2F2F2F",
"<. c #272727",
"1. c #232323",
"2. c #77FF6F",
"3. c #6FEF67",
"4. c #67DF5F",
"5. c #5FCF57",
"6. c #5BBF4F",
"7. c #53AF47",
"8. c #4B9F3F",
"9. c #439337",
"0. c #3F832F",
"q. c #37732B",
"w. c #2F6323",
"e. c #27531B",
"r. c #1F4317",
"t. c #17330F",
"y. c #13230B",
"u. c #0B1707",
"i. c #BFA78F",
"p. c #B79F87",
"a. c #AF977F",
"s. c #A78F77",
"d. c #9F876F",
"f. c #9B7F6B",
"g. c #937B63",
"h. c #8B735B",
"j. c #836B57",
"k. c #7B634F",
"l. c #775F4B",
"z. c #6F5743",
"x. c #67533F",
"c. c #5F4B37",
"v. c #574333",
"b. c #533F2F",
"n. c #9F8363",
"m. c #8F7753",
"M. c #836B4B",
"N. c #775F3F",
"B. c #675333",
"V. c #5B472B",
"C. c #4F3B23",
"Z. c #43331B",
"A. c #7B7F63",
"S. c #6F7357",
"D. c #676B4F",
"F. c #5B6347",
"G. c #53573B",
"H. c #474F33",
"J. c #3F472B",
"K. c #373F27",
"L. c #FFFF73",
"P. c #EBDB57",
"I. c #D7BB43",
"U. c #C39B2F",
"Y. c #AF7B1F",
"T. c #9B5B13",
"R. c #874307",
"E. c #732B00",
"W. c white",
"Q. c #FFDBDB",
"!. c #FFBBBB",
"~. c #FF9B9B",
"^. c #FF7B7B",
"/. c #FF5F5F",
"(. c #FF3F3F",
"). c #FF1F1F",
"_. c red",
"`. c #EF0000",
"'. c #E30000",
"]. c #D70000",
"[. c #CB0000",
"{. c #BF0000",
"}. c #B30000",
"|. c #A70000",
" X c #9B0000",
".X c #8B0000",
"XX c #7F0000",
"oX c #730000",
"OX c #670000",
"+X c #5B0000",
"@X c #4F0000",
"#X c #430000",
"$X c #E7E7FF",
"%X c #C7C7FF",
"&X c #ABABFF",
"*X c #8F8FFF",
"=X c #7373FF",
"-X c #5353FF",
";X c #3737FF",
":X c #1B1BFF",
">X c blue",
",X c #0000E3",
"<X c #0000CB",
"1X c #0000B3",
"2X c #00009B",
"3X c #000083",
"4X c #00006B",
"5X c #000053",
"6X c white",
"7X c #FFEBDB",
"8X c #FFD7BB",
"9X c #FFC79B",
"0X c #FFB37B",
"qX c #FFA35B",
"wX c #FF8F3B",
"eX c #FF7F1B",
"rX c #F37317",
"tX c #EB6F0F",
"yX c #DF670F",
"uX c #D75F0B",
"iX c #CB5707",
"pX c #C34F00",
"aX c #B74700",
"sX c #AF4300",
"dX c white",
"fX c #FFFFD7",
"gX c #FFFFB3",
"hX c #FFFF8F",
"jX c #FFFF6B",
"kX c #FFFF47",
"lX c #FFFF23",
"zX c yellow",
"xX c #A73F00",
"cX c #9F3700",
"vX c #932F00",
"bX c #872300",
"nX c #4F3B27",
"mX c #432F1B",
"MX c #372313",
"NX c #2F1B0B",
"BX c #000053",
"VX c #000047",
"CX c #00003B",
"ZX c #00002F",
"AX c #000023",
"SX c #000017",
"DX c #00000B",
"FX c black",
"GX c #FF9F43",
"HX c #FFE74B",
"JX c #FF7BFF",
"KX c magenta",
"LX c #CF00CF",
"PX c #9F009B",
"IX c #6F006B",
"UX c #A76B6B",
/* pixels */
";.T R K =.T *.E MXU.U.Y L $.L J m.T MXE N.&.-.Y R B.T W R G.G.Y R R Z.B.T R T C.R &.R B.I T U E T.P.L.I.U.U.U.U.I.P.U.c.T P B.R ",
"z.*.:.R E E T %.R U.I.U T R T $.U NXMXE &.T o =.o &.R R T Y *.B.R V.R G.&.N.M.R E *.T B.Y B.B.E MXU.U.L m.h.L I W Y.Y.W M.T R V.",
"T T =.- B.=.Y =.R Y.I.Y.R R K B.B.MXE MXY Y B.T Y Y R B.%.z.*.*.B.P %.*.M.Y &.U *.Y M.%.*.Y B.W NXR W M.P Y R n.K W T.E E T Y =.",
"=.;.T T =.E J.Y R R Y.I.T.R B.%.&.E T.T T =.R T R $.R =.=.B.N.T Y o P =.Y T R B.B.R =.T &.W ;.R MXMXE M.T E %.*.Y R Q E R %.=.T ",
"o P Y Y N.T R ;.Y R W Y.T.R *.P B.Z.P T.R E %.o V.T -.c.T &.N.R -.*.=.U U &.H.E *.R E V.Y R B.W NXMXE %.B.I *.T $.E NXT MXQ MXR ",
"W Y R %.-.Y M.R R -.E Q R E Y F.U D.mXT.MXR R B.&.z.R o V.R Y W Y ;.Y G.G.R H.=.=.E T F.U R P Q NXMXE *.Y Y I #.&.W MXU.Y.MXMXW ",
"MXW C.R =.R R E Z.B.R E MXY U =.E L Q T.Y R R R E $.T E R Y T R B.T T R R E Y T W Y D.F.-.R =.MXMXR R B.%.T E Y W NXY.P.I.Y.Y.U.",
"NXMXT E R R T =.I T ;.MXMXT *.E T Y R P Y.MXR E T N.T P U *.G.Y *.V.R E &.o R R T E U -.W R W MXY.U.E B.Y %.B.W MXMXI.P.U.T.I.P.",
"R R o T Z.Y &.M.m.=.E NXQ Y Y U I B.Y R Y R E T Y -.-.R R R T *.Y &.T E =.R Y *.P P Y R MXNXMXU.P.P.U.W B.I W NXMXY.I.U.R J T.I.",
"I.W E &.W R Y P R -.MXNXT.R F.L R L T Y mXY Q %.Y z.R R R Y E B.&.=.Y B.*.B.U Y Y -.E MXMXT.I.I.I.I.I.Y.MXR W Q Y.I.Y.z.S L T U.",
"L.U.MXR -.R *.T W Q MXU.I.Y.W R I D.U E b.Y.T.T G.J.;.&.N.T mXY *.E Y *.R R J.Y U W & MXY.I.I.U.S M.Y.I.Y.E.R Y.I.Y.R K %.I R U.",
"L.P.Y.MXT E NXMXMXY.I.I.I.U.T.mX; Z.;.Q R.I.U.R R &.B.T $.Y T o o R -.Y P Y R -.,.MXT.Y.Y.Y.N.H Y &.T Y.I.I.I.I.Y.R P U Y R W U.",
"L.I.U.T.MXNXNXMXU.P.L.I.U.Y.U.I.T.MXMXY.I.L.I.W Q Q MXMXE P E E Y R T B.#.$.U MXMXY.I.Y.W U n.n.U T D.T I.L.L.I.R M.R R *.=.E U.",
"U.Y I Y.T.E W T.I.L.I.L z.T I.I.U.T T.I.L.L.L.Y.MXMXNXNXMX& MXT I B.U P Y E MXMXY.I.U.Y P P K U B.B.Y E I.L.L.Y.E P T *.R o W U.",
"H R E R Y Y U mXU.L.I.P MXT.U.I.H D H I.P.I.U.Y.R MXMXW W MXMXMXR E T R Q W MXU.P.I.U J P B.Y *.Y P o E I.L.I.R L I -.V.R J.R U.",
"P R B.Y R T I %.Y I.I.Y.T.P I H H P Y L S.L L M.P U N.R U R R NXNXMX! MXNXMXU.L.L.U.z.P &.U B.T U R Z.T I.P.U.P P *.E Y N.z.E U.",
"K T Y R $.*.T R W Y.I.I.Y.L S.Y *.&.R U B.o T Y -.;.B.S.Y MXT.Y.T.MXNXNXT.I.P.L.I.M.n.U Y U P %.U v.Q U.I.U.L Y T o Y *.B.U b.U.",
"R Q MXMXQ P N.E T T.I.U.D H P R U =.T B.E -.m.Y R M.m.n.P R W I.I.T.W R T.U.I.I.U.T.T W R Q R =.E MXY.I.Y.h.K =.T T M.R %.M.W U.",
"Y.R MXW MXZ.E Y W Y.U.R G U T E R %.&.Y Y M.T R -.T #.m.U MXW U.Y.P m.K I S.R T T.U.U.U.Y.W W v.mXW I.U.R L T T &.E G.Y m.&.E U.",
"L.I.I.I.Y.NXNXMXR.I.U.R $.T W T N.M.&.*.E R T =.R E $.%.W NXY.U.Y m.Y B.R R I U T T.I.I.P.I.U.E.R U.I.U.J P R R E R B.U U T NXU.",
"L.L.I.U.Y.T.Y.U.I.P.I.E I o &.R %.R J.o o R %.Y *.B.&.P MXT.I.T.J P *.T R *.T N.P T R U.I.P.P.I.I.L.I.R P Y -.E E U M.%.o MXW I.",
"I.I.Y K S.R P Y.U.I.I.Y.R ;.*.M.V.T %.Y Y B.*.*.=.I P R mXU.I.U H P Y T F.R E W Y B.T T Y U.I.L.L.L.I.K %.B.&.B.Y &.N.Y ,.MXU.P.",
"U H S.S.Y T K P K I Y.T.T L Y %.P *.E $.*.J.R B.D.P P MXW I.I.E.U Y M.; F.E T I o U -.Y Y P Y I.L.L.I.h.P %.Y Y N.Y mXQ MXY.I.I.",
"n.I Y T B.T Y T P T mXR T Y M.U $.R K.-.E B.-.-.P B.E Q Y.L.L.U.MXS.T Y E T R T R Y J.E *.P I Y I.L.I.T S.L z.mXW Q W T.I.I.Y.P ",
"Y M.N.*.M.T E =.T Y E E MXY C.=.T R F.T -.R I =.Y -.W W I.L.L.P.U.MXc.R T R E E R R E E *.Y Y Y U I.L.U.R R MXW Y.U.I.I.U.Y.U L ",
"N.=.P %.-.R K Z.B.n.R W R MXE T *.Y R R Y P T Y T E MXY.I.I.I.I.I.Y.MXY :.U T *.T R -.=.M.T R Y v.I.L.L.I.U.U.I.L.P.I.Y.I L j.N.",
"-.Y M.R P R W ; &.n.I R R W Y -.R T H.B.W R P *.W mXY.I.Y.U z.Y Y.I.T.E U P W R R =.T R R R *.U W U.L.L.L.I.I.P.L.U.L H K N.N.N.",
"B.R B.R Y *.*.*.Y K K E MXE W Y B.%.C.T =.T *.Z.MXY.I.Y.R &.T T Y Y.Y.W =.R T E E B.E M.Y Y T T U E I.L.I.G I U.U.R m.P Y R R %.",
"T F.K.R T U *.B.K U R MXMXT R P Y T o %.m.&.;.mXU.P.I.T n.P T Y T R Y T.mXE Y =.T E R Y R o &.Y o NXU.I.U.S.Y mXR Y P Y M.%.$.P ",
"$.Y M.=.Y Y %.M.Y R MXMXY.U.E M.-.E R L R N.Q Y.P.P.U.U K %.o T =.*.R Y Y.T.v.U *.R R Y R B.N.E o E U.U.T G.*.E MXK N.M.=.N.K R ",
"M.N.U B.B.#.N.P E MXMXU.L.L.Y.R *.R $.$.Y W MXI.P.U.U m.P R T W W ;.Y mXY.I.Y.R R T R =.E T R F.F.; U.I.W I E NXMXP T R Y Y R *.",
"I I K R U T T E mXW U.P.L.L.I.N.R T Y P - W Y.P.I.U L &.Y R B.R T R R Y E Y.I.Y.W - Y Y -.*.Y T U mXU.I.Y o R NXR R Y R V.B.Y P ",
"E MXQ Q NXQ W Y.U.I.I.I.I.I.I.U.E R ;.E Z.mXI.P.U.K Y Y Y E R I T B.R B.L R Y.I.Y.MXR F.T T B.D.*.mXU.I.P P MXT.Y.R *.&.Y &.&.N.",
"T Y.U.I.I.U.I.P.L.P.U.I n.Y U.I.I.Y.E W W U.I.U.Y P Y =.R B.W R Y B.;.Y *.P R Y.I.Y.MXI P =.T Y R W I.I.Y W T I.I.W R =.Y M.M.W ",
"P.L.L.L.P.I.U.I.I.I.W K L I T U.P.P.I.I.I.I.U.U S.Y Y B.$.P B.R Y T Y =.Y R *.R Y.I.Y.MXz.Y Y E NXY.L.L.U.T.U.P.P.Y.mXZ.T W E ; ",
"L.L.L.P.I.Z K U T.Y R #.U K Y T Y.I.L.L.L.I.Y m.P B.=.R *.R T B.E R E Y T U R Y R Y.I.Y.W R R MXE.I.P.I.U.U.U.U.U.U.T.MXR W Y.U.",
"L.L.I.U n.S.Y E MXT U L P B.*.%.R R.I.L.I.Y P P T T U T R o V.E T C.W =.=.T W R Y R Y.I.U.E.W T.U.U.Y.J S.Y R P P R T.Y.U.I.L.L.",
"L.I.Y J P Y %.MXY.Y.Y *.B.o D.M.T mXI.P.U.K &.T R R T T R Y V.W E *.-.T R T T E U Y W Y.I.I.I.I.Y.W m.L I B.L Y &.R T Y.I.L.L.L.",
"L.U.J K I L W T.I.U.Y Y $.E U U E W I.I.Y P T Y Y =.Y *.T Y T T Y :.T Y Y Y =.B.R Y R W I.L.P.U.J m.P %.Y Y *.R E E %.P P I.L.L.",
"I.R P Y T P Q U.I.Y.P %.B.-.B.$.W T.I.U.M.M.T E Y ; E T R R E W E R V.T R E T o V.T R Q U.P.U.j.U Y R E R Y I R C.T =.E U P I.L.",
"U.R P S.V.W MXI.I.R J U -.B.E W MXI.I.R P Y T R B.R *.R T T Y U E E T C.R E Y R R U B.Q Y.Y.K L U o R E -.Y R E Y B.Y Y T Y R I.",
"I.R %.B.%.- T.I.Y.n.P T *.U %.MXT.I.U.K T Y R Y Y %.*.R Y T R -.-.B.U Y Y P R N.U U R NXR W P S.R T =.U I P T B.Y R R P U *.E U.",
"I.E U %.;.MXY.U.R K U *.U G %.MXU.I.Y $.E B.B.R Y =.N.R =.Y R B.T Y T B.B.Y U B.U B.MXNXR R K Y R Y Y T E Y T Y R V.R U U Y W U.",
"I.E G T Z.MXU.T.K P -.B.W E U Q U.U.K U R o Y R Y N.U B.B.E B.Y R T T Y T R B.B.T E MXY.T.R R R Y =.C.R U Y R E Y -.T *.N.U Q U.",
"U.Y B.W MXT.U.R J =.E V.T #.Y MXY.Y.P B.; o W R =.B.E Y R T Y W R T B.R R =.U Y U W T.I.T.B.*.T R B.E V.Y E U E -.Y T E U &.E U.",
"U.I B.Y W Y.U.Y &.T *.%.Y &.*.W Y T.R &.E R V.T E T R Y ;.B.%.R ; R Y Y R I &.P MXW I.I.R L E R R P B.Y *.R R R R E R E T I - U.",
"U.P *.R MXY.Y.Y P =.N.B.B.-.P W mXR R U U Y Y R R P U R *.R Y *.B.Y I P I U Y E W U.L.I.K %.T *.Y o Y B.R R T Y *.Y Y U Y %.W U.",
"U.K Y U MXY Y.R P B.R B.*.U &.&.W MXB.Y =.Y R T C.B.T *.V.R Y U T E U B.B.Y V.W U.L.L.I.J Y R T -.E Y R E T E E B.V.Y U *.E W U.",
"I.R o B.D.NXR U L o R V.E U T T MXMXY V.T E R B.T o R C.R U Y R R U Y &.Y W W Y.P.L.L.I.L R B.Y E E Y Y -.;.T C.Y R R T Y U E U.",
"I.E U *.-.NXZ.E M.=.Y E *.&.Y MXNXR R E R Y B.Y Y R R R =.R T *.U %.*.Y Z.MXY.I.I.I.L.I.N.x.E V.T V.R *.Y T Y T =.E R Y R R mXU.",
"I.R M.E W MXR Q Y V.E -.I P ;.NXT.U.W MXT T o E T T R T Y -.Y Y Y R B.E NXY.I.I.m.U.U.I.T.W T E R Y B.V.T Y Y *.T -.B.Y -.MXW I.",
"I.Y MXNXMXY.U.MXW W U &.%.W MXW I.L.U.Q Q =.R =.T Y =.Y R V.T T U T W MXU.I.I.s.J v.P I.U.W B.*.B.N.B.&.P R B.B.P B.R R MXMXU.P.",
"I.T.mXQ R U.I.Y.MXQ R $.E MXMXU.L.L.P.Y.MXR W U B.K R U U P *.=.R W MXU.P.I.U.#.o : T.I.I.R W U Y T U N.&.&.U U B.;.R MXMXY.I.I.",
"Y.T s.J S.Y Y.I.Y.E *.R ;.MXU.L.L.I.I.U.T.mXR R R U P *.=.%.E MXW MXY.P.L.I.T.Y mXY.I.L.L.U.W Q U U E R :.T R Q R W Y.U.U.Y.T.T.",
"P K I *.Y K mXY.I.T.W W MXU.L.L.U.L J U.U.Y.W MXNXNXW ! ~ MXMXNXMXY.I.I.I.Y.R mXR Y.I.L.L.L.I.Y.W Q ; mXMXNXMXT.U.I.L.I.Y.E n.%.",
"-.Y o E U #.R W I.I.T MXY.P.L.I.U n.Y W U.P.I.U.Y.T.NXNXNXNXT T.T.T.Y.R h.z.J P K U Y I.L.L.L.L.I.Y.R MXMXMXR U.P.L.L.U.R D n.P ",
"o z.z.N.E *.Y NXU.I.Y.Y Y.U.I.U.S.I E MXU.L.L.I.U.T.E MXMXE Y.Y.P z.N.P *.z.=.T U Y P Y I.L.L.L.I.Y.P N.L z.n.Y U.I.U.U m.M.U R ",
"T - P T E ;.U E U.I.P n.m.z.P P n.*.R Q Y.I.U.Z n.n.P M.N.B.P n.z.m.Y B.*.=.Y B.R U U P R I.L.I.Y N.K U %.P U R MXT.R m.K N.N.;.",
"=.#.R =.o U -.E U.U.h.K %.T I P *.B.E NXT U s.m.m.K &.U %.U $.Y Y N.Y P $.T R T V.P Y %.I Y.U.R P P Y T B.K $.U Q W R &.m.B.*.T ",
"=.E R R K U P R U.U.W m.P N.#.D.Y W MXMXE G K %.U I Y P %.Y U U *.Y Y U Y R :.W Y Y =.=.Y v.T Y I Y R Y B.&.&.Q NXW P B.T $.R ;.",
"B.=.%.-.T ;.Y R U.I.R R B.&.Y T Z.MXMXT.E K o Y Y Y B.=.T Y Y Y -.T T B.; B.z.Y -.T -.B.R NXR W R *.B.*.L #.Y MXE Y K I =.R R T ",
"=.T =.-.G.T -.E U.P.U.R mXmXMXMXW Y.I.Y.R m.$.B.-.-.Y Y %.*.R R =.c.*.Y G.G.B.B.T Y M.Y B.MXT.Y.c.MXE T L MX- MXT.R D.-.T =.V.E ",
"o T P =.T Y ;.Y Y.L.L.I.I.I.I.I.I.L.P.Y.m.M.R R R T =.P T U -.=.T &.T B.Y o N.o R R T T *.R T.I.U.W b.NXNXmXW U.U.Y U T =.T B.=.",
"T ;.Y Y N.*.$.U R I.L.L.L.L.L.L.L.L.I.U L &.Y R R &.z.K.R B.T R C.E E K.R o B.=.Y E E =.T Y R I.P.I.U.U.U.U.I.L.P.Y.Q o &.T ;.R "
};
