/* XPM */
static char *minidoor[] = {
/* columns rows colors chars-per-pixel */
"8 8 3 1 ",
"  c black",
". c #9BADB7",
"X c white",
/* pixels */
"........",
".XXXXXX.",
".XXXXXX.",
".XX  XX.",
".XX  XX.",
".XXXXXX.",
".XXXXXX.",
"........"
};
