/* XPM */
static char *north2[] = {
/* columns rows colors chars-per-pixel */
"128 128 19 1 ",
"  c black",
". c #663931",
"X c #AC3232",
"o c #DF7126",
"O c #6ABE30",
"+ c #37946E",
"@ c #FBF236",
"# c #99E550",
"$ c #847E87",
"% c #D77BBA",
"& c #5FCDE4",
"* c #9BADB7",
"= c #EEC39A",
"- c #D8D1D1",
"; c #E0C9C9",
": c #E0CCCC",
"> c #F0DFDF",
", c #F7DDDD",
"< c white",
/* pixels */
"<<<<<<<<<<<<<<<<<<<<<<<<+++++++<<<<<<<<<<<<<<<<<<<<<<<<<<<<<<<<<<<<<<<<<<<<<<<<<<<<<<<<<<<<<<<<<<<<<<<<<<<<<<<<<<<<<<<<<<<<<<<<<",
"<<<<<<<<<<<<<<<<<<<<<<<+++++++++<<<<<<<<<<<<<<<<<<<<<<<<<<<<<<<<<<<<<<<<<<<<<<<<<<<<<<<<<<<<<<<<<<<<<<<<<<<<<<<<<<<<<<<<<<<<<<<<",
"<<<<<<<<<<<<<<<<<<<<<<<++++++++++<<<<<<<<<<<<<<<<<<<<<<<<<<<<<<<<<<<<<<<<<<<<<<<<<<<<<<<<<<<<<<<<<<<<<<<<<<<<<<<<<<<<<<<<<<<<<<<",
"<<<<<<<<<<<<<<<<<<<<<<++++++++++++<<<<<<<<<<<<<<<<<<<<<<<<<<<<<<<<<<<<<<<<<<<<<<<<<<<<<<<<<<<<<<<<<<<<<<<<<<<<<<<<<<<<<<<<<<<<<<",
"<<<<<<<<<<<<<<<<<<<<<+++++++++++++<<<<<++++<<<<<<<<<<<<<<<<<<<<<<<<<<<<<<<<<<<<<<<<<<<<<<<<<<<<<<<<<<<<<<<<<<<<<<<<<<<<<<<<<<<<<",
"<<<<<<<<<<<<<<<<<<<<<++++++++++++++<<<++++++<<<<<<<<<<<<<<<<<<<<<<<<<<<<<<<<<<<<<<<<<<<<<<<<<<<<<<<<<<<<<<<<<<<<<<<<<<<<<<<<<<<<",
"<<<<<<<<<<<<<++<<<<<++++++++++++++++<++++++++<<<<<<<<<<<<<<<<<<<<<<<<<<<<<<<<<<<<<<<<<<<<<<<<<<<<<<<<<<<<<<<<<<<<<<<<<<<<<<<<<<<",
"<<<<<<<<<<<<++++<<<<++++++++++++++++<++++++++<<<<<<<<<<<<<<<<<<<<<<<<<<<<<<<<<<<<<<<<<<<<<<<<<<<<<<<<<<<<<<<<<<<<<<<<<<<<<<<<<<<",
"<<<<<<<<<<<+++++<<<+++++++.+++++++++++++++++++<<<<<<<<<<<<<<<<<<<<<<<<<<<<<<<<<<<<<<<<<<<<<<<<<<<<<<<<<<<<<<<<<<<<<<<<<<<<<<<<<<",
"<<<<<<<<<<++++++<<<++++++..+++++++++++++++++++<<<<<<<<<<<<<<<<<<<<<<<<<<<<<<<<<<<<<<<<<<<<<<<<<<<<<<<<<<<<<<<<<<<<<<<<<<<<<<<<<<",
"<<<<<<<<<+++++++<<+++++++..+..++++++++++++++++<<<<<<<<<<<<<<<<<<<<<<<<<<<<<<<<<<<<<<<<<<<<<<<<<<<<<<<<<<<<<<<<<<<<<<<<<<<<<<<<<<",
"<<<<<<<<++++++++<<+++++++......+++++++++++++++<<<<<<<<<<<<<<<<<<<<<<<<<<<<<<<<<<<<<<<<<<<<<<<<<<<<<<<<<<<<<<<<<<<<<<<<<<<<<<<<<<",
"<<<<<<<+++++++++<++++++++.....++++++++++++++++<<<<<<<<<<<<<<<<<<<<<<<<<<<<<<<<<<<<<<<<<<<<<<<<<<<<<<<<<<<<<<<<<<<<<<<<<<<<<<<<<<",
"<<<<<<++++++++++<++++++++....+++++++++++++++++<<<<<<<<<<<<<<<<<<<<<<<<<<<<<<<<<<<<<<<<<<<<<<<<<<--<<<<<<<<<<<<<<<<<<<<<<<<<<<<<<",
"<<<<<+++++++++++++++++..+..+++++++++++++++++++<<<<<<<<<<<<<<<<<<<<<<<<<<<<<<<<<<<<<<<<<<<<<<<<<<--<<<<<<<<<<<<<<<<<<<<<<<<<<<<<<",
"<<<<+++++++++++++++++......++++++++++.++++++++<<<<<<<<<<<<<<<<<<<<<<<<<<<<<<<<<<<<<<<<<<<<<<<<<XXX<<<<<<<<<<<<<<<<<<<<<<<<<<<<<<",
"<<<+++++++++++++++++++.....++++++++++.+++.+++++<<<<<<<<<<<<<<<<<<<<<<<<***<<<<<<<<<<<<<<<<<<<<XXXXX<<<<<<<<<<<<<<<<<<<<<<<<<<<<<",
"<<+++++++++++++++++++++......++++++++.++...++++<<<<<<<<<<<<<<<<<<<<<<<******<<<<<<<<<<<<<<<<<<XXXXX<<<<<<<<<<<<<<<<<<<<<<<<<<<<<",
"<<++++++++++++++++++++++......++++.++.+....++++<<<<<<<<<<<<<<<<<<<<<<********<<<<<<<<<<<<<<<<<XXXXX<<<<<<<<<<<<<<<<<<<<<<<<<<<<<",
"<+++++++++++++++++++++++......+++.........+++++<<<<<<<<<<<<<<<<<<<<<**********<<<<<<<<<<<<<<<<XXXXX<<<<<<<<<<<<<<<<<<<<<<<<<<<<<",
"++++++++++++++++++++++++.....++++........++++++<<<<<<<<<<<<<<<<<<<<***<********<<<<<<<<<<<<<::::::::<<<<<<<<<<<<<<*********<<<<<",
"++++++++++++++++++++++++....++<+++......+++++++<<<<<<<<<<<<<<<<<<<<************<<<<<<<<<<<<<::::::::<<<<<<<<<<<<<***********<<<<",
"+++++++++++++++++++++<<<.....<<+++.....++++++++<<<<<<<<<<<<<<<<<<<*************<<<<<<<<<<<<<<======<<<<<<<<<<<<***************<<",
"+++++++++++++++++++++<<<.....<+++++....++++++++<<<<<<<<<<<<<<<<<**************<<<<<<<<<<<<<<<======<<<<<<<<<******************<<",
"++++.+++++++.+++++++++<<.....++++++...++++++++++<<<<<<<<<<<<<<<***************<<<<<<<<<<<<<<<= == =<<<<<<<<<***************<**<<",
"+++...++++++.+++++++++<<.....+++++++..++++++++++<<<<<<<<<<<<<<<**<************<<<<<<<<<<<<<<<======<<<<<<<<<<*****************<<",
"+++....+++++.+++++++++<<.....<++++++...+++++++++<<<<<<<<<<<<<<<***************<<<<<<<<<<<<<<<<<<<<<<<<<<<<<<<<<******<<*******<<",
"++++...+++++.++++++++++<<...<<<++++....+++++++++oo<<<<<<<<<<<<<******<********<<<<<<<<<<<<<<;<<  <<;<<<<<<<<<<<<<<******<<*****<",
"++++...+++++..+++++++++<<<<<<<<<<<.....+++++++++oo<<<<<<<<<<<<<***************<<<<<<<<<<<<<<;;<<<<;;<<<<<<<<<<<<<<<<************",
"+++++....++...++.++++++<<<<<<<<<<<......++++++++oo<<<<<<<<<<<<<<<<***********<<<<<<<<<<<<<XX;;;<<;;;X<<<<<<<<<<<<<<<<<<*********",
"++++++.......++...++++++<<<<<<<<<......<<<<+++++oo<<<<<<<<<<<<<<<<************<<<<<<<<<<<<XXXXXXXXXXXX<<<<<<<<<<<<<<<<<<<<<<<<<<",
"+++++++.....+++...+++++++++<<<<<<......<<<<<<<<+oo<<<<<<<<<<<<<<<<************<<<<<<<<<<<XXXXXX;;XXXXXX<<<<<<<<<<<<<<<<<<<<<<<<<",
"+++++++++...++....++++++++++<<<<<......<<<<<<<<<oo<<<<<<<<<<<<<<<<<<<*********<<<<<<<<<<<XXXXXX;;XXXXXX<<<<<<<<<<<<<<<<<<<<<<<<<",
"++++.+++++.......+++++++++++<<<<<.....<<<<<<<<<ooo<<<<###<<<<<<<<<<<<<******<<<<<<<<<<<<XXX<XXXXXXXX<XX<<<<<<<<<<<<<<<<<<<<<<<<<",
"+++.....++......++++++++++++<<<<<.....<<<<<<<<<ooo<<<<<#<<<<<<<<<<<<<<**<<<<<<<<<<<<<<<<XXX<XXX;;XXX<XXX<<<<<<<<<<<<<<<<<<<<<<<<",
"+++........+..+++++++++++++++++<<<...<<<<<<<<<<ooo<<<%%O%%%<<<<<<<<<<<**<<<<<<<<<<<<<<<<XX<<XXX;;XXX<XXX<<<<<<<<<<<<<<<<<<<<<<<<",
"++++........++++++++++++++++++++<<<<<<<<<<<<<<<ooo<<<%%O%%%<@@@<<<<<<<<<<<<<<<<<<<<<<<<<,,<<XXXXXXXX<<X,,<<<<<<<<<<<<<<<<<<<<<<<",
"++++++......+++++++++++++++++++++<<<<<<<<<<<<<<oooo<<%%O%%%<<@<<<<<<<<<<<<<<<<<<<<<<<<<<,,<>>>>>>>>>><<,,<<<<<<<<<<<<<<<<<<<<<<<",
"+++++++++..++++++++++++++++++++++<<<<<<<<<<<<<<oooo<<%%O%%OOO@OOO<<<<<<<<<<<<<<<<<<<<<<   <>>>>>>>>>><<   <<<<<<<<<<<<<<<<<<<<<<",
"+++++++++..++++++++++++++++++++++<<<<<<<<<<<<<<ooooo<%%O%%OOO@OOO<<<<<<<<<<<<<<<<<<<<<<<  <<XXX<<XXX<<<  <<<<<<<<<<<<<<<<<<<<<<<",
"+++++++++...++++++++++++++++++++++<<<<<<<<<<<<<ooooooo%O%%OOO@OOO<<<<<<<<<<<<<<<<<<<<<<<  <<XXX<<XXX<<<  <<<<<<<<<<<<<<<<<<<<<<<",
"++++++++......<<++++++++++++++++++<<<<<<<<<<<<<<ooooooooo%OOO@OOO<<<<<<<<<<<<<<<<<<<<<<<<<<<XXX<<XXX<<<<<<<<<<<<<<<<<<<<<<<<<<<<",
"+++<<<<<.....<<+++++++++++++++++++<<<<<<<<<<<<<<ooooooooooOOO@OOO<<<<<<<<<<<<<<<<<<<<<<<<<<<XXX<<XXX<<<<<<<<<<<<<<<<<<<<<<<<<<<<",
"<<<<<<<<.....<<++++++++.++++++++++<<<<<<<<<<<<<<ooooooooooooo@OOO<<<<<<<<<<<<<<<<<<<<<<<<<<<XXX<<XXX<<<<<<<<<<<<<<<<<<<<<<<<<<<<",
"<<<<<+++.....<++++++++..++++++++++<<<<<<<<<<<<<<ooooooooooooooooo<<<<<<<<<<<<<<<<<<<<<<<<<<<XXX<<XXX<<<<<<<<<<<<<<<<<<<<<<<<<<<<",
"<<<<+++++....<++++++++..++++++++++<<<<<<<<<<<<<<ooooooooooooooooooooooooooo<<<<<<<<<<<<<<<<    <<    <<<<<<<<<<<<<<<<<<<<<<<<<<<",
"<<<++++++....++++++++...++++++++++<<<<<<<<<<<<<<<ooooooooooooooooooooooooooo<<<<<<<<<<<<<<<    <<    <<<<<<<<<<<<<<<<<<<<<<<<<<<",
"<<+++++++....++++++++...++++++++++<<<<<<<<<oooo<ooo<<<<<<<oooooooooooooooooo<<<<<<<<<<<<<<<<<<<<<<<<<<<<<<<<<<<<<<<<<<<<<<<<<<<<",
"<++++++++...+++++++++..+++++++++++<<<<<<<<<oooooooo<<<<<<<<<<<<<<<ooooooooo<<<<<<<<<<<<<<<<<<<<<<<<<<<<<<<<<<<<<<<<<<<<<<<<<<<<<",
"<++++++++...+++++++++.++++++++++++<<<<<<<<<+oooooooo<<<<<<<<<<<<<<<<<<oo<<<<<<<<<<<<<<<<<<<<<<<<<<<<<<<<<<<<<<<<<<<<<<<<<<<<<<<<",
"++++++++++<++++++++++.++++++++++++<<<<<<<<++++<ooooooooooooooo<<<<<<<<oo<<<<<<<<<<<<<<<<<<<<<<<<<<<<<<<<<<<<<<<<<<<<<<<<<<<<<<<<",
"++++++++++<+++++++++..++++++++++++<<<<<<<+++++<<<<<ooooooooooooooooooooooooooooooo<<<<<<<<<<<<<<<<<<<<<<<<<<<<<<<<<<<<<<<<<<<<<<",
"++++++++++++++++++++..++++++++++++<<<<<<<++++++<<<<<<<<<<<<<<ooooooooooooooooooooo<<<<<<<<<<<<<<<<<<<<<<<<<<<<<<<<<<<<<<<<<<<<<<",
"+++++++++++++++++++....++++++++++++<<<<<+++++++<<<<<<<<<<<<<<<*****<<<<***********<<<<<<<<<<<<<<<<<<<<<<<<<<<<<<<<<<<<<<<<<<<<<<",
"+++++++++++++++++++....++++++++++++<<<<++++++++<<<<<<<<<<<<<<<******<<<*************<<<<<<<<<<<<<<<<<<<<<<<<<<<<<<<****<<<<<<<<<",
"+++++++++++++++++++....+++++++++++++<<++++++++++<<<<<<<<<<<<<<<**********************<<<<<<<<<<<<<<<<<<<<<<<<<<<<***************",
"++++++++++++++++++++...+++++++++++++<+++++++++++<<<<<<<<<<<<<<**<*********************<<<<<<<<<<<<<<<<<<<<<<<<<*****************",
"++++++++++++++++++++...+++++++++++++++++++++++++<<<<<<<<<<<<<<*************************<<<<<<<<<<<<<<<<<<<<<********************",
"+++++++++.++++++++++....+++++++++++++++++++++++++<<<<<<<<<<<<<*************************<<<<<<<<<<<<<<<<<<***********************",
"++++++++...++++++++.....<<++++++<<++++++++++++++++<<<<<<<<<<<<<<<<<<<<<<<<<<<<<*****<<<<<<<<<<<<<<<<<<<<************************",
"+++++..+...+++++<<<.....<<<<<++<<++++++++.++++++++<<<<<<<<<<<<<<<<<<<<<<<<<<<<<<<*******<<<<<<<<<<<<<<<<*******************<<***",
"++.++......+++++<<<.....<<<<<<<++++++++++..+..++++<<<<<<<<<<<<<<<<<<<<<<<<<<<<<<<<<*****<<<<<<<<<<<<<<<*************************",
"+...+.....++++++<<<.....<<<<<+++++++++++.......++++<<<<<<<<<<<<<<<<<<<<<<<<<<<<<<<<<<***<<<<<<<<<<<<<<**************************",
"+...+.....+++++++<<.....<<<<++++++++++++.......++++<<<<<<<<<<<<<<<<<<<<<<<<<<<<<<<<<<<<<<<<<<<<<<<<<<********************<<<<<<<",
"+........+++.++++<<.....<<<++++++++++++++..+..++++++<<<<<<<<<<<<<<<<<<<<<<<<<<<<<<<<<<<<<<<<<<<<<<<<<*****************<<<<<<<<<<",
"++......+++...++++<.....<<<++++++++++.......+++++++++<<<<<<<<<<<<<<<<<<<<<<<<<<<<<<<<<<<<<<<<<<<<<<<<*******<*******<<<<<<<<<<<<",
"+++..+..+....+++++<<...<<<++++++++++........+++++.+++<<<<<<<<<<<<<<<<<<<<<<<<<<<<<<<<<<<<<<<<<<<<<<<<<<*****<<<<<<<<<<<<<<<<<<<<",
"++++++......+++++++<<<<<<<+++++++++++.......+++....++<<<<<<<<<<<<<<<<<<<<<<<<<<<<<<<<<<<<<<<<<<<<<<<<<<<<<<<<<<<<<<<<<<<<<<<<<<<",
"++++++..+..++++++++<<<<<<<++++++++++++++....++.....+++<<<<<<<<<<<<<<<<<<<<<<<<<<<<<<<<<<<<<<<<<<<<<<<<<<<<<<<<<<<<<<<<<<<<<<<<<<",
"++++++..++++++++++++<<<<<<+++++++++++++++..++.....+++++<<<<<<<<<<<<<<<<<<<<<<<<<<<<<<<<<<<<<<<<<<<<<<<<<<<<<<<<<<<<<<<<<<<<<<<<<",
"++++++...+++++++++++<<<<<+++++++++++.++++..+....+++++++<<<<<<<<<<<<<<<<<<<<<<<<<<<<<<<<<<<<<<<<<<<<<<<<<<<<<<<<<<<<<<<<<<<<<<<<<",
"+++++....+++++++++++<<<<+++++++++++...++.......++++++++<<<<<<<<<<<<<<<<<<<<<<<<<<<<<<<<<<<<<<<<<<<<<<<<<<<<<<<<<<<<<<<<<<<<<<<<<",
"+++++....++++++++++<<<<<+++++++++++...........+++++++++<<<<<<<<<<<<<<<<<<<<<<<<<<<<<<<<<<<<<<<<<<<<<<<<<<<<<<<<<<<<<<<<<<<<<<<<<",
"+++++....<++++++<<<<<<<+++++++++++++.......++++++++++++<<<<<<<<<<<<<<<<<<<<<<<<<<<<<<<<<<<<<<<<<<<<<<<<<<<<<<<<<<<<<<<<<<<<<<<<<",
"++++.....<<<<<<<<<<<<<+++++++++++++++......++++++++++++<<<<<<<<<<<<<<<<<<<<<<<<<<<<<<<<<<<<<<<<<<<<<<<<<<<<<<<<<<<<<<<<<<<<<<<<<",
"+++<.....<<<<<<<<<<<<<++++++++++++++++++...++++++++++++<<<<<<<<<<<<<<<<<<<<<<<<<<<<<<<<<<<<<<<<<<<<<<<<<<<<<<<<<<<<<<<<<<<<<<<$$",
"<<<<.....<<<<<<<<<<<<<<++++++++++++++++++.+++++++++++++<<<<<<<<<<<<<<<<<<<<<<<<<<<<<<<<<<<<<<<<<<<<<<<<<<<<<<<<<<<<<<<<<<<<<$$$$",
"<<<<.....<<<<<<<<<<<<<<<<++++++++++++++++.+++++++++++++<<<<<<<<<<<<<<<<<<<<<<<<<<<<<<<<<<<<<<<<<<<<<<<<<<....<<<<<<<<<<<$$$$$$$$",
"<<<<.....<<<<<<<<<<<<<<<<<++++++++++++++...+++++++++++<<<<<<<<<<<<<<<<<<<<<<<<<<<<<<<<<<<<<<<<<<<<<<<.........<<<<<<<<<$$$$$$$$$",
"<<<<<...<<<<<<<<<<<<<<<<<<<<<<<<<<<<<<<.....<<<<<<<<<<<<<<<<<<<<<<<<<<<<<<<<<<<<<$<<<<<<<<<<<<<<..............<<<<<$$$$$$$$$$<<$",
"<<<<<<<<<<<<<<<<<<<<<<<<<<<<<<<<<<<<<<<.....<<<<<<<<<<<<<<<<<<<<<<<<<<<<<<<<<<$$$$$<<<<<<<<<..................<<<<$$$$$$$$$$$$<<",
"<<<<<<<<<<<<$<<<<<<<<<<<<<<<<<<<<<<<<<<.....<<<<<<<<<<<<<<<<<<<<<<<<<<<<<<<<<$$$$$$<<<<<.......................<<<<$$$$$$$$$$&&&",
"<<<<<<$$$$$$$$<<<<<<<<<<<<<<<<<<<<<<<<<<...<<<<<<<<<<$$<<<<$$$$<<<$<<<<<$$$$<<$$$$<$<<<........................<<<$$$<<<<<<&&&&&",
"<<<<<$$$$$$$$$<<<<$<<<<<<<<<$$$$<<<<<<<<<<<<<<<<<<<<$$$$<<$$$$$$<$$$$$<$$$$$$<<<<<$$$<<........................<<<$$$<<<<&&&&&&&",
"<<<<$$$$$$$$$<<<<$$$<<<<<<<$$$$$$<<<<<<<<<<<<<$<<<<$$$$$$<<$$$$$$$$$$$$<$$$$<$$<<$<$<<<....................==...<<$$$<&&&&&&&&&&",
"<<<<<$$$$$$$$<<<<<$$$<<<<$$<$$$$<<$$$$$$$<<$$$$$$$$$$$$$$<<<$$$$<<$$$$$$<<<<$$$$$$$<<<<<................======..<<$$$&&&&&&&&&&&",
"<<<<<<$$$$$$$$<<$$$$$$<$$$$$<$$<<$$$$$$$$$$$$$$$$$$$$$$$$<<<$$$<<<<<$$$<<<<<<$$$$$$$<<<<<<......=============...<<<$&&&&&&&&&&&&",
"$$$$$$<$$$$$$$$$$$$$$<$$$$$$$$$$<<$$$$$$$$$$$$$$$$$$$$$$$$$$$$<<<$$$<$<<<<<<<<$<<$$<<&&&&&.=================....&&&&&&&&&&&&&&&&",
"$$$$$$$$$$$$$$$$$$$$<<$$$$$$$$$<<<$<<<<$$$$$$$$$$$<<$$$$$$$$$$<<$$$$$<<<<<&&&&&&&&&&&&&&&&==============........&&&&&&&&&&&&&&&&",
"$$$$$$$$$$$$$$$$$<$<<$$$$$$$$$<<<$$$$$$$$$<<$$$$$<<$$$$$$$$$$<<<<$$$&&&&&&&&&&&&&&&&&&&&&&.=====.................&&&&&&&&&&&&&&&",
"$$$<$$$$$$$$$$$$<<<<$$$$$&&&&&&&&&$$$$$$$$&&&$$&<<<<$$<<<<<<<<<<<&&&&&&&&&&&&&&&&&&&&&&&&&..................===..&&&&&&&&&&&&&&&",
"$$<<$$$$<<<<<<$<<&&&&$$$&&&&&&&&&&&$$$$$$&&&&&&&&&&&&&&&&&&&&&&&&&&&&&&&&&&&&&&&&&&&&&&&&&...............=======.&&&&&&&&&&&&&&&",
"&&&&&$$&&&&&&&&&&&&&&&&&&&&&&&&&&&&&&&&&&&&&&&&&&&&&&&&&&&&&&&&&&&&&&&&&&&&&&&&&&&&&&&&&&&............=========..&&&&&&&&&&&&&&&",
"&&&&&&&&&&&&&&&&&&&&&&&&&&&&&&&&&&&&&&&&&&&&&&&&&&&&&&&&&&&&&&&&&&&&&&&&&&&&&&&&&&&&&&&&&&....===============....&&&&&&&&&&&&&&&",
"&&&&&&&&&&&&&&&&&&&&&&&&&&&&&&&&&&&&&&&&&&&&&&&&&&&&&&&&&&&&&&&&&&&&&&&&&&&&&&&&&&&&&&&&&&...=============.......&&&&&&&&&&&&&&&",
"&&&&&&&&&<<<<<<<<<<<<&&<<<<<<<<&&&&&&&&&&&&&&&&&&&&&&&&&&&&&&&&&&&&&&&&&&&&&&&&&&&&&&&&&&&....========...........&&&&&&&&&&&&&&&",
"&&&&&&&<<<<<<<<<<<<<<<<<<<<<<<<<&&&&&&&&&&&&&&&&&&&&&&&&&&&&&&&&&&&&&&&&&&&&&&&&&&&&&&&&&&.......................&&&&&&&&&&&&&&&",
"&&&&&<<<<<<<<<<<<<<<<<<<<<<<<<<<&&&&&&&&&&&&&&&&&&&&&&&&&&&&&&&&&&&&&&&&&&&&&<<<<&&&&&&&&&.......................&&&&&&&&&&&&&&&",
"&&&<<<<<<<<<<<<<<<<<<<<<<<<<<<<<&&&&&&&&&&&&&&&&&&&&&&&&&&&&&&&&&&&&&&&<<<<<<<<<<<&&&&&&&&..................==...&&&&&&&&&&&&&&&",
"&&<<<<<<<<<<<<<<<<<<<<<<<<<<<<<&&&&&&&&&&&&&&&&&&&&&&&&&&&&&&&&&&&&<<<<<<<<<<<<<<<&&&&&&&&...............======..&&&&&&&&&&&&&&&",
"<<<<<<<<<<<<<<<<<<<<<<<<<<<<<<&&&&&&&&&&&&&&&&&&&&&&&&&&&&&&&&&&&&<<<<<<<<<<<<<<<<&&&&&&&&...........=========...&&&&&&&&&&&&&&&",
"<<<<<<<<<<<<<<<<<<<<<<<<&&&&&&&&&&&&&&&&&&&&&&&&&&&&&&&&&&&&&<<<<<<<<<<<<<<<<<<<<&&&&&&&&&.......============....&&&&&&&&&&&&&&&",
"<<<<<<<<<<<<<<<<<<&&&&&&&&&&&&&&&&&&&&&&&&&&&&&&&&&&&<<<<<<<<<<<<<<<<<<<<<<<<<<<&&&&&&&&&&&...============........&&&&&&&&&&&&&&",
"<<<<<<<<<<<<<<<<&&&&&&&&&&&&&&&&&&&&&&&&&&&&&&&&&&&&<<<<<<<<<<<<<<<<<<<<<<<<<&&&&&&&&&&&&&&..=========............&&&&&&&&&&&&&&",
"<<<<<<<<<<<<&&&&&&&&&&&&&&&&&&&&&&&&&&&&&&&&&&&&&&&<<<<<<<<<<<<<<<<<<<<<&&&&&&&&&&&&&&&&&&&...===.................&&&&&&&&&&&&&&",
"&<<<&&&&&&&&&&&&&&&&&&&&&&&&&&&&&&&&&&&&&&&&&&&&&&&<<<<<<<<<<<<<<<<<<<&&&&&&&&&&&&&&&&&&&&&.......................&&&&&&&&&&&&&&",
"&&&&&&&&&&&&&&&&&&&&&&&&&&&&&&&&&&&&&&&&&&&&&&&&&&&<<<<<<<<<<<<<<<<<<&&&&&&&&&&&&&&&&&&&&&&.......................&&&&&&&&&&&&&&",
"&&&&&&&&&&&&&&&&&&&&&&&&&&&&&&&&&&&&&&&&&&&&&&&&&&&&<<<<<<<<<<<<<<&&&&&&&&&&&&&&&&&&&&&&&&&...................===.&&&&&&&&&&&&&&",
"&&&&&&&&&&&&&&&&&&&&&&&&&&&&&&&&&&&&&&&&&&&&&&&&&&&&&&&&&&&&&&&&&&&&&&&&&&&&&&&&&&&&&&&&&&&................=======&&&&&&&&&&&&&&",
"&&&&&&&&&&&&&&&&&&&&&&&&&&&&&&&&&&&&&&&&&&&&&&&&&&&&&&&&&&&&&&&&&&&&&&&&&&&&&&&&&&&&&&&&&&&.............=========.&&&&&&&&&&<<$<",
"&&&&&&&&&&&&&&&&&&&&&&&&&&&&&&&&&&&&&&&&&&&&&&&&&&&&&&&&&&&&&&&&&&&&&&&&&&&&&&&&&&&&&&&&&&&.....===============....<<<$$$$$$$$$$",
"&&&&&&&&&&&&&&&&&&&&&&&&&&&&&&&&&&&&&&&&&&&&&&&&&&&&&&&&&&&&&&&&&&&&&&&&&&&&&&&&&&&&&&&&&&&&...=============.......<<$$$$$$$$$$$",
"&&&&&&&&&&&&&&&&&&&&&&&&&&&&&&&&&&&&&&&&&&&&&&&&&&&&&&&&&&&&&&&&&&&&&&&&&&&&&&&&&&&&&&&&&&&&....========...........<<<$$$$$$$$$<",
"&&&&&&&&&&&&&&&&&&&&&&&&&&&&&&&&&&&&&&&&&&&&&&&&&&&&&&&&&&&&&&&&&&&&&&&&&&&&&&&&&&&&&&&&&&&<......................<<<<<$<<<<<$<<",
"&&&&&&&&&&&&&&&&&&&&&&&&&&&&&&&&&&&&&&&&&&&&&&$&&&&&&&&&&&&&&&&&$$$$<<<<$$&&&&&&&&&&&&&&&&<<.....................<<<<<$$$$$$$$<<",
"&&&&&&&&&&&&&&&&&&&&&<<<<<&&&&&&&&&&&&&<<<<<$$$$<<<<<<<<<<<<<$$$$$$$$<<$$$$<<&&&&&&&&&&&&<<$$.........<<<<<<<<<<<<<<<<$$$$$$$$$<",
"&&&&&&&&&&&&&&&&&&<<<<<$$$$$<<<<<<<<<<<<<<<$$$$<<$$$$$<<<<<<$$$$$$$$$$$$$$<<<<<&&&&&&&&<<$$$$$<...<<<<<<<<<<<<<<<<<<<<<$$$$$$$<<",
"&&&&&&&&&&&&&&&<<$$$$$$$$$$$$<<<$$$$$$$$$$<<$$<<$$$$$$$<<<$$$$$$$$<$$$$$$<<<$$$$$$$$$$$$$$$$$<<<<<<<<<<<<<<<<<<<<<<<<<<<<<<<<<<<",
"&&&&&&&&&&<<<<<<$$$$$$$$$$$$<<<$$$$$$$$$$$$$$$$$$$$$$$<<<$$$$$$$$$$<$$$$<<<$$$$$$$$$$$$$$$$<<<<<<<<<<<<<<<<<<<<<<<<<<<<<<<<<<<<<",
"&&&&&<<<<<<<<$$$<$$$$$$$$<<<<<<<$$$$$$$$$$<<$$$$$$$$<<<<<<$$$$$$$$<<<<<<<<<<$$$$$$$$$$$$<<<<<<<<<<<<<<<<<<<<<<<<<<<<<<<<<<<<<<<<",
"&&<<<<<<<<<<$$$$$$$$$$<<<<<<<<<<<$$$$<<<<<<<<$$$$<<<<<<<<<<<<<<<<<<<<<<<<<<<<<<<<<<<<$$<<<<<<<<<<<<<<<<<<<<<<<<<<<<<<<<<<<<<<<<<",
"<<$<<<<<<$$$$$$$$$$$$<<<<<<<<<<<$$$$$$<<<<<<<<<<<<<<<<<<<<<<<<<<<<<<<<<<<<<<<<<<<<<<$$$$<<<<<<<<<<<<<<<<<<<<<<<<<<<<<<<<<<<<<<<<",
"<$$$$$$$$$$$$$$$$$$<<<<<<<<<<<<$$$$$$<<<<<<<<<<<<<<<<<<<<<<<<<<<<<<<<<<<<<<<<<$$$$$$$$$<<<<<<<<<<<<<<<<<<<<<<<<<<<<<<<<<<<<<<<<<",
"<$$$$$$$$$$$$$$<<<<<<<<<<<<<<<<$$$<<<<<<<<<<<<<<<<<<<<<<<<<<<<<<<<<<<<<<<<<<<$$$$$$$$$<<<<<<<<<<<<<<<<<<<<<<<<<<<<<<<<<<<<<<<<<<",
"<<$$$$$$$<<<<<<<<<<<<<<<<<<<<<<<$<<<<<<<<<<<<<<<<<<<<<<<<<<<<<<<<<<<<<<<<<<<<<$$$$$$<<<<<<<<<<<<<<<<<<<<<<<<<<<<<<<<<<<<<<<<<<<<",
"<<<<<<<<<<<<<<<<<<<<<<<<<<<<<<<<<<<<<<<<<<<<<<<<<<<<<<<<<<<<<<<<<<<<<<<<<<<<<<<<<<<<<<<<<<<<<<<<<<<<<<<<<<<<<<<<<<<<<<<<<<<<<<<<",
"<<<<<<<<<<<<<<<<<<<<<<<<<<<<<<<<<<<<<<<<<<<<<<<<<<<<<<<<<<<<<<<<<<<<<<<<<<<<<<<<<<<<<<<<<<<<<<<<<<<<<<<<<<<<<<<<<<<<<<<<<<<<<<<<",
"<<<<<<<<<<<<<<<<<<<<<<<<<<<<<<<<<<<<<<<<<<<<<<<<<<<<<<<<<<<<<<<<<<<<<<<<<<<<<<<<<<<<<<<<<<<<<<<<<<<<<<<<<<<<<<<<<<<<<<<<<<<<<<<<"
};
