/* XPM */
static char *north[] = {
/* columns rows colors chars-per-pixel */
"128 128 5 1 ",
"  c #5B6EE1",
". c #639BFF",
"X c #5FCDE4",
"o c #CBDBFC",
"O c white",
/* pixels */
"OOOOOOOOOOOOOOOOOOOOOOOOOOOOOOOOOOOOOOOOOOOOOOOOOOOOOOOOOOOooooooooooooooooooooooooooooooooooooooooooooooooooooooooooooooooooOOO",
"OOOOOOOOOOOOOOOOOOOOOOOOOOOOOOOOOOOOOOOOOOOOOOOOOOOOOOOOooooooooooooooooooooooooooooooooooooooooooooooooooooooooooooooooooooooOO",
"OOOOOOOOOOOOOOOOOOOOOOOOOOOOOOOOOOOOOOOOOOOOOOOOOOOOoooooooooooooooooooooooooooooooooooooooooooooooooooooooooooooooooooooooooooO",
"OOOOOOOOOOOOOOOOOOOOOOOOOOOOOOOOOOOOOOOOOOOOOOOOOOOooooooooooooooooooooooooooooooooooooooooooooooooooooooooooooooooooooooooooooO",
"OOOOOOOOOOOOOOOOOOOOOOOOOOOOOOOOOOOOOOOOOOOOOOOOOOoooooooooooooooooooooooooooooooooooooooooooooooooooooooooooooooooooooooooooooO",
"OOOOOOOOOOOOOOOOOOOOOOOOOOOOOOOOOOOOOOOOOOOOOOOOOoooooooooooooooooooooooooooooooooooooooooooooooooooooooooooooo  ooooooooooooooO",
"OOOOOOOOOOOOOOOOOOOOOOOOOOOOOOOOOOOOOOOOOOOOOOOOooooooooooooooooooooooooooooooooooooooooooooooooooooooooooooooo   oooooooooooooo",
"OOOOOOOOOOOOOOOOOOOOOOOOOOOOOOOOOOOOOOOOOOOOOOoooooooooooooooooooooooooooooooooooooooooooooooooooooooooooooooo      oooooooooooo",
"OOOOOOOOOOOOOOOOOOOOOOOOOOOOOOOOOOOOOOOOOOOOOoooooooooooooooooooooooooooooooooooooooooooooooooooooooooooooooo        ooooooooooo",
"OOOOOOOOOOOOOOOOOOOOOOOOOOOOOOOOOOOOOOOOOOOooooooooooooooooooooooooooooooooooooooooooooooooooooooooooooooooo          oooooooooo",
"OOOOOOOOOOOOOOOOOOOOOOOOOOOOOOOOOOOOOOOoooooooooooooooooooooooooooooooooooooooooooooooooooooooooooooooo               oooooooooo",
"OOOOOOOOOOOOOOOOOOOOOOOOOOOOOOOOOOOOOoooooooooooooooooooooooooooooooooooooooooooooooooooooooooooooooooo               oooooooooo",
"OOOOOOOOOOOOOOOOOOOOOOOOOOOOOOOOOOOOoooooooooooooooooooooooOoooooooooooooooooooooooooooooooooooooooooo                oooooooooo",
"OOOOOOOOOOOOOOOOOOOOOOOOOOOOOOooooooooooooooooooooooooooooOOoooooooooooooooooooooooooooooooooooooooooo                oooooooooo",
"OOOOOOOOOOOOOOOOOOOOOOOOOOOOOoooooooooooooooooooooooooooooO  oooooooooooooooooooooooooooooooooooooooo                 oooooooooo",
"OOOOOOOOOOOOOOOOOOOOOOOOOOOoooooooooooooooooooooooooooooo     oooooooooooooooooooooooooooooooooooooo                  oooooooooo",
"OOOOOOOOOOOOOOOOOOOOOOOOOOoooooooooooooooooooooooooooooo       oooooooooooooooooooooooooooooooooooo                   oooooooooo",
"OOOOOOOOOOOOOOOOOOOOOOOOOoooooooooooooooooooooooooooooo         oooooooooooooooooooooooooooooooooo                    oooooooooo",
"OOOOOOOOOOOOOOOOOOOOOOOOoooooooooooooooooooooooooooooo            oooooooooooooooooooooooooooo                        oooooooooo",
"OOOOOOOOOOOOOOOOOOOOOOOoooooooooooooooooooooooooooooo              oooooooooooooooooooooooooo                        ooooooooooo",
"OOOOOOOOOOOOOOOOOOOOOOoooooooooooooooooooooooooooooo                  ooooooooooooooooooooooo                        ooooooooooo",
"OOOOOOOOOOOOOOOOOOOOOooooooooooooooooooooooooooooooo                    Oooooooooooooooooooo                         ooooooooooo",
"OOOOOOOOOOOOOOOOOOOOooooooooooooooooooooooooooooooo                      oooooooooooooooooo                         oooooooooooO",
"OOOOOOOOOOOOOOOOOOOOoooooooooooooooooooooooooooooo                       oooooooooooooooooo          ooooo          oooooooooooO",
"OOOOOOOOOOOOOOOOOOOooooooooooooooooooooooooooooooo                        ooooooooooooooooo         ooooooo        ooooooooooooO",
"OOOOOOOOOOOOOOOOOOOoooooooooooooooooooooooooooooo                          oooooooooooooooo        ooooooooo      ooooooooooooOO",
"OOOOOOOOOOOOOOOOOOOooooooooooooooooooooooooooooo           O               Ooooooooooooooo        ooooooooooo     ooooooooooooOO",
"OOOOOOOOOOOOOOOOOOooooooooooooooooooooooooooooo                                  oooooooo         ooooooooooo     ooooooooooooOO",
"OOOOOOOOOOOOOOOOOOoooooooooooooooooooooooooooOO                                   oooooo         oooooooooooo    ooooooooooooOOO",
"OOOOOOOOOOOOOOOOOOoooooooooooooooooooooooooooO                                                  ooooooooooooo   ooooooooooooOOOO",
"OOOOOOOOOOOOOOOOOOooooooooooooooooooooooooooo                                                  ooooooooooooo    ooooooooooooOOOO",
"OOOOOOOOOOOOOOOOOOooooooooooooooooooooooooooo                              oooooooo           ooooooooooooo     oooooooooooOOOOO",
"OOOOOOOOOOOOOOOOOoooooooooooooooooooooooooooo                             oooooooooo         oooooooooooooo     ooooooooooOOOOOO",
"OOOOOOOOOOOOOOOOOoooooooooooooooooooooooooooo                            oooooooooooo       oooooooooooooo     oooooooooooOOOOOO",
"OOOOOOOOOOOOOOOOOoooooooooooooooooooooooooooo                           oooooooooooooo      ooooooooooooo      oooooooooooOOOOOO",
"OOOOOOOOOOOOOOOOOoooooooooooooooooooooooooooo                          ooooooooooooooo     ooooooooooooo       oooooooooooOOOOOO",
"OOOOOOOOOOOOOOOOooooooooooooooooooooooooooooo                          ooooooooooooooo     oooooooooooo        ooooooooooOOOOOOO",
"OOOOOOOOOOOOOOOoooooooooooooooooooooooooooooo                          ooooooooooooooo     ooooooooooo         ooooooooooOOOOOOO",
"OOOOOOOOOOOOOOooooooooooooooooooooooooooooooo                          oooooooooooooo      ooooooooooo         ooooooooooOOOOOOO",
"OOOOOOOOOOOOOOooooooooooooooooooooooooooooooo                           oooooooooooo       ooooooooooo         ooooooooooOOOOOOO",
"OOOOOOOOOOOOOOooooooooooooooooooooooooooooooo                            oooooooooo         ooooooooo          ooooooooooOOOOOOO",
"OOOOOOOOOOOOOOooooooooooooooooooooooooooooooo                             ooooo              ooooooo           ooooooooooOOOOOOO",
"OOOOOOOOOOOOOOooooooooooooooooooooooooooooooo                                                 ooooo            ooooooooooOOOOOOO",
"OOOOOOOOOOOOOOooooooooooooooooooooooooooooooo                                                                  ooooooooooOOOOOOO",
"OOOOOOOOOOOOOoooooooooooooooooooooooooooooooo                                                                  ooooooooooOOOOOOO",
"OOOOOOOOOOOOOoooooooooooOooooooooooooooooooo                                                                   ooooooooooOOOOOOO",
"OOOOOOOOOOOOOoooooooooooOooooooooooooooooooo                 X                                                 oooooooooooOOOOOO",
"OOOOOOOOOOOOOooooooooooOooooooooooooooooooo                 X                                                  oooooooooooOOOOOO",
"OOOOOOOOOOOOoooooooooooOooooooooooooooooooo                XX                                                  ooooooooooooOOOOO",
"OOOOOOOOOOOOoooooooooooooooooooooooooooooo                 XX                                                   oooooooooooOOOOO",
"OOOOOOOOOOOoooooooooooooooooooooooooooooo                 XXX                                                   ooooooooooooOOOO",
"OOOOOOOOOOOoooooooooooooooooooooooooooooo                XXXX                                                    oooooooooooOOOO",
"OOOOOOOOOOOoooooooooooooooooooooooooooooo               XXXX                                                     ooooooooooooOOO",
"OOOOOOOOOOOoooooooooooooooooooooooooooooo              XXXXX                                                      oooooooooooOOO",
"OOOOOOOOOOOoooooooooooooooooooooooooooooo              XXXXX                                                      ooooooooooooOO",
"OOOOOOOOOOooooooooooooooooooooooooooooooo             XXXXXX                        X                              ooooooooooooO",
"OOOOOOOOOoooooooooooooooooooooooooooooooo            XXXXXXX              X        XXX                             ooooooooooooO",
"OOOOOOOOOooooooooooooooooooooooooooooooo            XXXXXXXX              XX      XXXX                             ooooooooooooo",
"OOOOOOOOooooooooooooooooooooooooooooooo             XXXXXXXX             XXXX    XXXXXX                             oooooooooooo",
"OOOOOOOOooooooooooooooooooooooooooooooo            XXXXXXXXX            XXXXXXXXooooXXX                              ooooooooooo",
"OOOOOooooooooooooooooooooooooooooooooo            XXXXXXXXXX            XXXXXXXoooooooXX                              oooooooooo",
"OOOOooooooooooooooooooooooooooooooooo            XXXXXXXXXXX            XXXXXXoooooooooX                              oooooooooo",
"OOoooooooooooooooooooooooooooooooooo            XXXXXXXXXXXX            XXXXooooooooooooX                             oooooooooo",
"Oooooooooooooooooooooooooooooooooo             XXXXXXXXXXXXX            oooooooooooooooooX                            oooooooooo",
"ooooooooooooooooooooooooooooooooo             XXXXXXXXXXXXXX           ooooooooooooooooooXX                            ooooooooo",
"ooooooooooooooooooooooooooooooo              OXXXXXXXXXXXXXX          oooooooooooooooooooXXXXXX                         oooooooo",
"ooooooooooooooooooooooooooooo                XXXXXXXXXXXXXXXX        ooooooooooooooooooooXXXXX                          oooooooo",
"oooooooooooooooooooooooooooo                XXXXXXXXXXXXXXXXXX       ooooooooooooooooooooXXXX                           oooooooo",
"ooooooooooooooooooooooOOO                   XXXXXXXXXXXXXXXXXXX     XoooooooooooooooooooXXXX                            oooooooo",
"ooooooooooooooooooooOOOO                    XXXXXXXXXXXXXXXXXXXXXXXXXooooooooooooooooooXXXXX                            oooooooo",
"oooooooooooooooooOOOOO                     OXXXXXXXXXXXXXXXXXXXXXXXXXXooooooooooooooooXXXXXX                            oooooooo",
"ooooooo ooooo                              OXXXXXXXXXXXXXXXXXXXXXXXXXXXooooooooooooXXXXXXXXX                             ooooooo",
"ooooo                                     OXXXXXXXXXXXXXXXXXXXXXXXXXXXXXooooooooXXXXXXXXXXXX                              oooooo",
"oooo                                      OXXXXXXXXXXXXXXXXXXXXXXXXXXXXXXXXXXXXXXXXXXXXXXXXXX                              ooooo",
"ooo                                      OXXXXXXXXXXXXXXXXXXXXXXXXXXXXXXXXXXXXXXXXXXXXXXXXXXX                                  O",
"O                                        XXXXXXXXXXXXXXXXXXXXXXXXXXXXXXXXXXXXXXXXXXXXXXXXXXXX                                   ",
"O                                       XXXXXXXXXXXXXXXXXXXXXXXXXXXXXXXXXXXXXXXXXXXXXXXXXXXXX                                   ",
"                                        XXXXXXXXXXXXXXXXXXXXXXXXXXXXXXXXXXXXXXXXXXXXXXXXXXXXXX                                  ",
"                                        XXXXXXXXXXXXXXXXXXXXXXXXXXXXXXXXXXXXXXXXXXXXXXXXXXXXXXX                                 ",
"                                       XXXXXXXXXXXXXXXXXXXXXXXXXXXXXXXXXXXXXXXXXXXXXXXXXXXXXXXXX                                ",
"                                       XXXXXXXXXXXXXXXXXXXXXXXXXXXXXXXXXXXXXXXXXXXXXXXXXXXXXXXXXX                               ",
"         O                            XXXXXXXXXXXXXXXXXXXXXXXXXXXXXXXXXXXXXXXXXXXXXXXXXXXXXXXXXXX                               ",
"                                     XXXXXXXXXXXXXXXXXXXXXXXXXXXXXXXXXXXXXXXXXXXXXXXXXXXXXXXXXXXX                               ",
"                                    XXXXXXXXXXXXXXXXXXXXXXXXXXXXXXXXXXXXXXXXXXXXXXXXXXXXXXXXXXXXXX                              ",
"                               XXXXXXXXXXXXXXXXXXXXXXXXXXXXXXXXXXXXXXXXXXXXXXXXXXXXXXXXXXXXXXXXXXXX                             ",
"                              XXXXXXXXXXXXXXXXXXXXXXXXXXXXXXXXXXXXXXXXXXXXXXXXXXXXXXXXXXXXXXXXXXXXXX                            ",
"                             XXXXXXXXXXXXXXXXXXXXXXXXXXXXXXXXXXXXXXXXXXXXXXXXXXXXXXXXXXXXXXXXXXXXXXXX                           ",
"                            XXXXXXXXXXXXXXXXXXXXXXXXXXXXXXXXXXXXXXXXXXXXXXXXXXXXXXXXXXXXXXXXXXXXXXXXXX                          ",
"                           XXXXXXXXXXXXXXXXXXXXXXXXXXXXXXXXXXXXXXXXXXXXXXXXXXXXXXXXXXXXXXXXXXXXXXXXXXX                          ",
"                         XXXXXXXXXooooXXXXXXXXXXXXXXXXXXXXXXXXXXXXX...XXXXXXXXXXXXXXXXXXXXXXXXXXXXXXXXO                         ",
"                        XXXXXXXXXooooooXXXXXXXXXXXXXXXXXXXXXXXXXXX.....XXXXXXXXXXXXXXXXXXXXXXXXXXXXXXXX                         ",
"                      XXXXXXXXXXooooooooXXXXXXXXXXXXXXXXXXXXXXXXX.......XXXXXXXXXXXXXXXXXXXXXXXXXXXXXXXO                        ",
"                     XXXXXXXXXXooooooooooXXXXXXXXXXXXXXXXXXXXXXX..........XXXXXXXXXXXXXXXXXXXXXXXXXXXXXXO                       ",
"                   XXXXXXXXXXXXooooooooooXXXXXXXXXXXXXXXXXXX...............XXXXXXXXXXXXXXXXXXXXXXXXXXXXXX                       ",
"                 XXXXXXXXXXooooooooooooooXXXXXXXXXXXXXXXXXX.................XXXXXXXXXXXXXXXXXXXXXXXXXXXXXX                      ",
"               XXXXXXXXXXXoooooooooooooooXXXXXXXXXXXXXXXXX...................XXXXXXXXXXXXXXXXXXXXXXXXXXXXXO                     ",
"              XXXXXXXXXXXooooooooooooooooXXXXXXXXXXXXXXXX....................XXXXXXXXXXXXXXXXXXXXXXXXXXXXXOO                    ",
"            XXXXXXXXXXXXoooooooooooooooooXXXXXXXXXXXXXXXX.....................XXXXXXXXXXXXXXXXXXXXXXXXXXXXXO                    ",
"           XXXXXXXXXXXXXooooooooooooooooXXXXXXXXXXXXXXXX......................XXXXXXXXXXXXXXXXXXXXXXXXXXXXXO                    ",
"         XXXXXXXXXXXXXXXooooooooooooooooXXXXXXXXXXXXXXX........................XXXXXXXXXXXXXXXXXXXXXXXXXXXXX                    ",
"      XXXXXXXXXXXXXXXXXXoooooooooooooooXXXXXXXXXXXXXXXX........................XXXXXXXXXXXXXXXXXXXXXXXXXXXXX                    ",
"     XXXXXXXXXXXXXXXXXXXXoooooooooooooXXXXXXXXXXXXXXXX..........................XXXXXXXXXXXXXXXXXXXXXXXXXXXX                    ",
"    XXXXXXXXXXXXXXXXXXXXXXoooooooooooXXXXXXXXXXXXXXXX............................XXXXXXXXXXXXXXXXXXXXXXXXXXX                    ",
"   XXXXXXXXXXXXXXXXXXXXXXXXooooooooXXXXXXXXXXXXXXXXX..............................XXXXXXXXXXXXXXXXXXXXXXXXXXX                   ",
"  XXXXXXXXXXXXXXXXXXXXXXXXXXXXXXXXXXXXXXXXXXXXXXXXX...............................XXXXXXXXXXXXXXXXXXXXXXXXXXX                   ",
" XXXXXXXXXXXXXXXXXXXXXXXXXXXXXXXXXXXXXXXXXXX.XXXXX................................XXXXXXXXXXXXXXXXXXXXXXXXXXXX                  ",
" XXXXXXXXXXXXXXXXXXXXXXXXXXXXXXXXXXXXXXXX.........................................XXXXXXXXXXXXXXXXXXXXXXXXXXXXX                 ",
"XXXXXXXXXXXXXXXXXXXXXXXXXXXXXXXXXXXXXXX...........................................XXXXXXXXXXXXXXXXXXXXXXXXXXXXXX                ",
"XXXXXXXXXXXXXXXXXXXXXXXXXXXXXXXXXXXXXX.............................................XXXXXXXXXXXXXXXXXXXXXXXXXXXXXX               ",
"XXXXXXXXXXXXXXXXXXXXXXXXXXXXXXXXXXXXX...............................................XXXXXXXXXXXXXXXXXXXXXXXXXXXXX               ",
"XXXXXXXXXXXXXXXXXXXXXXXXXXXXXXXXXXX..................................................XXXXXXXXXXXXXXXXXXXXXXXXXXXX               ",
"XXXXXXXXXXXXXXXXXXXXXXXXXXXXXXXXX.....................................................XXXXXXXXXXXXXXXXXXXXXXXXXXX               ",
"XXXXXXXXXXXXXXXXXXXXXXXXXXXXXXXX.......................................................XXXXXXXXXXXXXXXXXXXXXXXXXX               ",
"XXXXXXXXXXXXXXXXXXXXXXXXXXXXXXX.........................................................XXXXXXXXXXXXXXXXXXXXXXXXX               ",
"XXXXXXXXXXXXXXXXXXXXXXXXXXXXX............................................................XXXXXXXXXXXXXXXXXXXXXXXX               ",
"XXXXXXXXXXXXXXXXXXXXXXXXXXXX.............................................................XXXXXXXXXXXXXXXXXXXXXXXX               ",
"XXXXXXXXXXXXXXXXXXXXXXXXXX................................................................XXXXXXXXXXXXXXXXXXXXXXX               ",
"XXXXXXXXXXXXXXXXXXXXXXXXX..................................................................XXXXXXXXXXXXXXXXXXXXX                ",
"XXXXXXXXXXXXXXXXXXXXXXXX....................................................................XXXXXXXXXXXXXXXXXXXX                ",
" XXXXXXXXXXXXXXXXXXXXXX.....................................................................XXXXXXXXXXXXXXXXXXXX                ",
" XXXXXXXXXXXXXXXXXXXXX.......................................................................XXXXXXXXXXXXXXXXXXX                ",
" XXXXXXXXXXXXXXXXXXXXX........................................................................XXXXXXXXXXXXXXXXXX                ",
" XXXXXXXXXXXXXXXXXXXXX.........................................................................XXXXXXXXXXXXXXXXX                ",
" XXXXXXXXXXXXXXXXXXXX..........................................................................XXXXXXXXXXXXXXXXX                ",
" XXXXXXXXXXXXXXXXXXX..........................................................................XXXXXXXXXXXXXXXXXX                ",
"  XXXXXXXXXXXXXXXXXX..........................................................................XXXXXXXXXXXXXXXXXXX               ",
"O  XXXXXXXXXXXXXXXXX..........................................................................XXXXXXXXXXXXXXXXXXXO              ",
"OO  XXXXXXXXXXXXXXXX....................................................OO....................XXXXXXXXXXXXXXXXXXXOO            O"
};
