/* XPM */
static char *north3[] = {
/* columns rows colors chars-per-pixel */
"128 128 6 1 ",
"  c #3F3F74",
". c #306082",
"X c #5B6EE1",
"o c #639BFF",
"O c #5FCDE4",
"+ c white",
/* pixels */
"+++             ooooooooo             ooooooooooooooooooo.............               OOOOOOOOOOOO.............OOOOOOOOOOOOOOOOOO",
"oo              oooooooooo             oooooooooooooooooo.............                OOOOOOOOOOO............OOOOOOOOOOOOOOOOOOO",
"o               oooooooooo             oooooooooooooooooo..............X           OOOOOOOOOOOOO.............OOOOOOOOOOOOOOOOOOO",
"                oooooooooo             ooooooooooooooooooo.............XX        OOOOOOOOOOOOOOO.............OOOOOOOOOOOOOOOOOOO",
"                ooooooooooo             oooooooooooooooooo.............XX      OOOOOOOOOOOOOOOOO............OOOOOOOOOOOOOOOOOOOO",
"                ooooooooooo             ooooooooooooooooooo.............XX   OOOOOOOOOOOOOOOOOO...........OOOOOOOOOOOOOOOOOOOOOO",
"                ooooooooooo             oooooooooooooooooOO.............XX OOOOOOOOOOOOOOOOOOOO.........OOOOOOOOOOOOOOOOOOOOOOOO",
"                oooooooooooo             oooooooooooooOOOOO..............OOOOOOOOOOOOOOOOOOOOOO........OOOOOOOOOOOOOOOOOOOOOOOOO",
"                oooooooooooo             ooo++++++++OOOOOOOO.............OOOOOOOOOOOOOOOOOOOOOO......OOOOOOOOOOOOOOOOOOOOOOO++++",
"                oooooooooooo              ++++++++OOOOOOOOOO.............OOOOOOOOOOOOOOOOOOOOO......OOOOOOOOOOOOOOOOOOOOOOO+++++",
"                oooooooo+++++             ++++++OOOOOOOOOOOOO............OOOOOOOOOOOOOOOOOOOOO....OOOOOOOOOOOOOOOOOOOOOOO+++++++",
"                +++++++++++++              +++OOOOOOOOOOOOOOO.............OOOOOOOOOOOOOOOOOOOO..OOOOOOOOOOOOOOOOOOOOOOOO++++++++",
"                ++++++++++++++             +OOOOOOOOOOOOOOOOO.............OOOOOOOOOOOOOOOOO OO.OOOOOOOOOOOOOOOOOOOOOOO++++++++++",
"                +++ooooooooooooo            OOOOOOOOOOOOOOOOO.............OOOOOOOOOOOOOOO    OOOOOOOOOOOOOOOOOOOOOOO++++++++++++",
"               ooooooooooooooooooo          OOOOOOOOOOOOOOOOOO............OOOOOOOOOOOO      OOOOOOOOOOOOOOOOOOOOOOO+++++++++++++",
"            ooooooooooooooooooooooo          OOOOOOOOOOOOOOOOO.............OOOOOOOOO      OOOOOOOOOOOOOOOOOOOOOOO++++++++++++++o",
"   o      ooooooooooooooooooooooooo          OOOOOOOOOOOOOOOOO.............OOOOOOO      OOOOOOOOOOOOOOOOOOOOOOO.....++++++++++oo",
" ooo    oooooooooooooooooooooooooooo          OOOOOOOOOOOOOOOO.............OOOOOO      OOOOOOOOOOOOOOOOOOOOOOO........+++++++ooo",
"      oooooooooooooooooooooooooooooo          OOOOOOOOOOOOOOOOO............OOOOOOO   OOOOOOOOOOOOOOOOOOOOOOO............+++ooooo",
"    ooooooooooooooooooooooooooooooooo          OOOOOOOOOOOOOOOO.............OOOOOO OOOOOOOOOOOOOOOOOOOOOOOO..............+oooooo",
"  oooooooooooooooooooooooooooooooooooo         OOOOOOOOOOOOOOOO.............OOOOOOOOOOOOOOOOOOOOOOOOOOOOO..................ooooO",
"ooooooooooooooooooooooooooooooooooooooo      OOOOOOOOOOOOOOOOOO.............OOOOOOOOOOOOOOOOOOOOOOOOOOO......................OOO",
"oooooooooooooooooooooooooooooooooooooooo    OOOOOOOOOOOOOOOOOOOO............OOOOOOOOOOOOOOOOOOOOOOOOOO..........................",
"oooooooooooooooooooooooooooooooooooooooo  OOOOOOOOOOOOOOOOOOOOOO.............OOOOOOOOOOOOOOOOOOOOOOO............................",
"ooooooooooooooooooooooooooooooooooooooooOOOOOOOOOOOOOOOOOOOOOOOO...........OOOOOOOOOOOOOOOOOOOOOOOO.............................",
"oooooooooooooooooooooo    ooooooooooooOOOOOOOOOOOOOOOOOOOOOOOOOO..........OOOOOOOOOOOOOOOOOOOOOOO...............................",
"oooooooooooooooooo         oooooooooOOOOOOOOOOOOOOOOOOOOOOOOOOXXX.......OOOOOOOOOOOOOOOOOOOOOOO.................................",
"OOooooooooooooo            oooooooOOOOOOOOOOOOOOOOOOOOOOOOOOXXXXX.....OOOOOOOOOOOOOOOOOOOOOOOO..................................",
"OOOOOOooooooo               ooooOOOOOOOOOOOOOOOOOOOOOOOOOOXXXXXXX....OOOOOOOOOOOOOOOOOOOOOOO....................................",
"OOOOOOOOooo                  oOOOOOOOOOOOOOOOOOOOOOOOOOOXXXXXXXXX..OOOOOOOOOOOOOOOOOOOOOOO......................................",
"OOOOOOOOOO                  OOOOOOOOOOOOOOOOOOOOOOOOOOXXXXXXXXXXXOOOOOOOOOOOOOOOOOOOOOOOO.......................................",
"OOOOOOOOOOOO              OOOOOOOOOOOOOOOOOOOOOOOOOOXXXXXXXXXXXXOOOOOOOOOOOOOOOOOOOOOOO.........................................",
"OOOOOOOOOOOOO     ++++++OOOOOOOOOOOOOOOOOOOOOOOOOOOXXXXXXXXXXXXOOOOOOOOOOOOOOOOOOOOOO...........................................",
"OOOOOOOOOOOOO   ++++++OOOOOOOOOOOOOOOOOOOOOOOOOOO++++++++++++OOOOOOOOOOOOOOOOOOOOOOO............................................",
"OOOOOOOOOOOOOO++++++OOOOOOOOOOOOOOOOOOOOOOOOOOO++++++++++++.OOOOOOOOOOOOOOOOOOOOOO..............................................",
"OOOOOOOOOOOOOOO+++OOOOOOOOOOOOOOOOOOOOOOOOOOO+++++++++.....OOOOOOOOOOOOOOOOOOOOOO.....................................++++++++++",
"OOOOOOOOOOOOOOOO+OOOOOOOOOOOOOOOOOOOOOOOOOO+++++++........OOOOOOOOOOOOOOOOOOOOO...................................++++++++++++++",
"OOOOOOOOOOOOOOOOOOOOOOOOOOOOOOOOOOOOOOOOO+++++..........OOOOOOOOOOOOOOOOOOOOO.....................................++++++++++++++",
"OOOOOOOOOOOOOOOOOOOOOOOOOOOOOOOOOOOOOOO+++.............OOOOOOOOOOOOOOOOOOOOO........................+.............++++++++++++++",
"OOOOOOOOOOOOOOOOOOOOOOOOOOOOOOOOOOOOO+................OOOOOOOOOOOOOOOOOOOO..........................+............+++++++++++++++",
"..OOOOOOOOOOOOOOOOOOOOOOOOOOOOOOOO...................OOOOOOOOOOOOOOOOOOO............................+............+++++++++++++++",
"....OOOOOOOOOOOOOOOOOOOOOOOOOO......................OOOOOOOOOOOOOOOOOOO.............+++............++............+++++++++++++++",
".....OOOOOOOOOOOOOOOOOOOOOO.......................OOOOOOOOOOOOOOOOOOOO.........++++++++............++............+++++++++++++++",
"......OOOOOOOOOOOOOOOOO..........................OOOOOOOOOOOOOOOOOOO..........++++++++.............++............+++++++++++++++",
".......OOOOOOOOOOOOO............................OOOOOOOOOOOOOOOOOOO...........++++++++.............++............++++++++       ",
"........OOOOOOOOOOOO...........................OOOOOOOOOOOOOOOOOOO............oooooooo.............  ............               ",
"........OOOOOOOOOOOO.........................OOOOOOOOOOOOOOOOOOOO ............oooooooO............   ............      XXXXXXXXX",
"........OOOOOOOOOOOO........................OOOOOOOOOOOOOOOOOOO   ............ooooooOO............   ............XXXXXXXXXXXXXXX",
"........OOOOOOOOOOOO.......................OOOOOOOOOOOOOOOOOOO    ............ooooOOOO............   ............XXXXXXXXXXXXXXX",
"........OOOOOOOOOOOO.....................OOOOOOOOOOOOOOOOOOOO     ............ooOOOOOO.oooooooooooXXX............XXXXXXXXXXXXXXX",
"........OOOOOOOOOOOO....................OOOOOOOOOOOOOOOOOOOO      ............+oooooooooooooooooooooooo..........XXXXXXXXXXXXXXX",
"........OOOOOOOOOOOO..................OOOOOOOOOOOOOOOOOOOOO       .........ooooooooooooooooooooooooooooooooo.....XXXXXXXXXXXXXXX",
"........OOOOOOOOOOOO.................OOOOOOOOOOOOOOOOOOOOO        .....ooooooooooooooooooooooooooooooooooooooooo.XXXXXXXXXXXXXXX",
"........OOOOOOOOOOOO.............++OOOOOOOOOOOOOOOOOOOOOOOO    XXX..ooooooooooooooooooooooooooooooooooooooooooooooooXXXXXXXXXXXX",
"........OOOOOOOOOOOO..........++++OOOOOOOOOOOOOOOOOOOOOOOOXXXXXXXXoooooooooooooooooooooooooooooooooooooooooooooooooooooXXXXXXXXX",
"........OOOOOOOOOOOO......++++++OOOOOOOOOOOOOOOOOOOOOOXXXXXXXXXXooooooooooooooooooooooooooooooooooooooooooooooooooooooooooXXXXXX",
"........OOOOOOOOOOOO..+++++++++OOOOOOOOOOOOOOOOOOOOOXXXXXXXXXXooooooooooooooooooooooooooooooooooooooooooooooooooooooooooooooXXXX",
"........OOOOOOOOOOOOO+++++++++OOOOOOOOOOOOOOOOOOOOOXXXXXXXXXooooooooooooooooooooooooooooooooooooooooooooooooooooooooooooooooooXX",
"........OOOOOOOOOOOOOO++++++OOOOOOOOOOOOOOOOOOOOOOXXXXXXXXXooooooooooooooooooooooooooooooooooooooooooooooooooooooooooooooooooooo",
"........OOOOOOOOOOOOOOO++++OOOOOOOOOOOOOOOOOOOOOXXXXXXXXXXoooooooooooooooooooooooooooooooooooooooooooooooooooooooooooooooooooooo",
"........OOOOOOOOOOOO++++++OOOOOOOOOOOOOOOOOOOOOXXXXXXXXXXXoooooooooooooooooooooooooooooooooooooooooooooooooooooooooooooooooooooo",
"........OOOOOOOOOO++++++++OOOOOOOOOOOOOOOOOOO+++XXXXXXXXXooooooooooooooooooooooooooooooooo.....ooooooooooooooooooooooooooooooooo",
"........OOOOOOOOO++++++++++OOOOOOOOOOOOOOOOO++++++XXXXXXXoooooooooooooooooooooooooXX.............  +oooooooooooooooooooooooooooo",
"........OOOOOOOOO+++++++++++OOOOOOOOOOOOOO+++++++++XXXXXXoooooooooooooooooooooXX    ............ ++++....ooooooooooooooooooooooo",
"........OOOOOOOO+++++++++++++OOOOOOOOOOOO+++++++++++XXXXXooooooooooooooooo....      ............+++++........ooooooooooooooooooo",
"........OOOOOOOO+++++++++++++OOOOOOOOOO+++++++++++++++XXXoooooooooooooo.......     .............+++++............ooooooooooooooo",
"........OOOOOOOO++++++++++++++OOOOOOOO+++++++++++++++++XXoooooooooooo.........     .............++ooo............. ooooooooooooo",
"........OOOOOOOO+++++++++++++++OOOOOO+++++++++++++++++++Xoooooooooooo.........     .............oooooo............ ooooooooooooo",
"........OOOOOOOOO+++++++++++++++OOOX+++++++++++++++++++++oooooooooooo.........     ............ooooooo............ ooooooooooooo",
"........OOOOOOOOO+++++++++++++++++XXXX++++++++++++++++++++oooooooooo..........     ............ooooooo............ ooooooooooooo",
"........OOOOOOOOOO++++++++++++++++++XXXX++++++++++++++++++oooooooooo..........     ............ooooooo............ ooooooooooooo",
"........XOOOOOOOOOO+++++++++++++++++++OOO++++++++++++++++++oooooooo...........     ............ooooooo.............oooOOoooooooo",
"........XOOOOOOOOOO+++++++++++++++++++++OOO++++++++++++++++++oooo ............     ............ooooooo.............OOOOooooooooo",
"........OOOOOOOOOOOO++++++++++++++++++++++OO++++++++++++++++++++  ............     ............ooooooo.............OOooooooooooo",
".......OOOOOOOOOOOOOO+++++++++++++++++++++++O+++++++++++++++++++++............     ............oooOOOOO............ooooooooooooo",
".....OOOOOOOOOOOOOOOO++++++++++++++++++++++++OO+++++++++++++++++++............     ............OOOOOOOO............ooooooooooooo",
"....OOOOOOOOOOOOOOOOOO++++++++++++++++++++++++  ++++++++++++++++++............o    ............OOOOOOOO............ooooooooooooo",
"...OOOOOOOOOOOOOOOOOOOOO++++++++++++++++++++++++ +++++++++++++++++............o    ............OOOOOOOO............ooooooooooooo",
".OOOOOOOOOOOOOOOOOOOOOOOO++++++++++++++++++++++++  +++++++++++++++............OO  .............OOOOOOOO............ooooooooooooo",
"OOOOOOOOOOOOOOOOOOOOOOOOOO+++++++++++++++++++++++++ ++++++++++++++............OOO ............. OOOOOOO............ooooooooooooo",
"OOOOOOOOOOOOOOOOOOOOOOOOOOOO+++++++++++++++++++++++++++++++++++++.............OOOO.............  OOOOOO............ooooooooooooo",
"OOOOOOOOOOOOOOOOOOOOOOOOOOOOOOO++++++++++++++++++++++++++++++++++.............OOOO............   OOOOoo.............oooooooooooO",
"OOOOOOOOOOOOOOOOOOOOOOOOOOOOOOOOO++++++++++++++++++++++++++++++++.............OOOO............    ooooo.............ooooooooooOO",
"OOOOOOOOOOOOOOOOOOOOOOOOOOOOOOOOOOO++++++++++++++++++++++++++++++............++OOO............ooooooooo.............ooooooooOOOO",
"OOOOOOOOOOOOOOXXOOOOOOOOOOOOOOOOOOOOO+++++++++++++++++++++++++++.............++++O............oooooooooo............ooooooOOOOOO",
"OOOOOOOOOOOOXXXXOOOOOOOOOOOOOOOOOOOOOO++++++++++++++++++++++++++.............+++++............oooooooooo............ooooOOOOOOOO",
"OOOOOOOOOOOXXXXXXOOOOOOOOOOOOOOOOOOOOOO+++++++++++++++++++++++++++++.........+++++............oooooooooo............ooOOOOOOOOOO",
"OOOOOOOOOOXXXXXXXXOOOOOOOOOOOOOOOOOOOOOOO+++++++++++++++++++++++++++++++....+++++OOOOOOOO.....oooooooooo............OOOOOOOOOO++",
"OOOOOOOO..XXXXXXXXXXOOOOOOOOOOOOOOOOOOOOOO+++++++++++++++++++++++++++++++++.+OOOOOOOOOOOOOO...oooooooooo.............OO+++++++++",
"OOOOOOO.....XXXXXXXoooooOOOOOOOOOOOOOOOOOOOO++++++++++++++++++++++++++++++++++OOOOOOOOOOOOOOOOoooooooooo....++++++++++++++++++++",
"OOOOOO.........XXXooooooooooOOOOOOOOOOOOOOOOOO+++++++++++++++++++++++++++++++++++++OOOOOOOOOOOO+++++++++++++++++++++++++++++++++",
"OOOO..............ooooooooooo OOOOOOOOOOOOOOOOOO++++++++++++++++++++++++++++++++++++++++++++++++++++++++++++++++++++++++++++++++",
"OOO..................oooooooo   OOOOOOOOOOOOOOOOOO++++++++++++++++++++++++++++++++++++++++++++++++++++++++++++++++++++++++++++++",
"O........................ooo      OOOOOOOOOOOOOOOOOO++++++++++++++++++++++++++++++++++++++++++++++++++++++++++++++++++++++++++++",
"...............................      OOOOOOOOOOOOOOOOO++++++++++++++++++++++++++++++++++++++++++++++++++++++++++++++++++++++++++",
".....................................   OOOOOOOOOOOOOOOO++++++++++++++++++++++++++++++++++++++++++++++++++++++++++++++++++++++++",
"+......................................... OOOOOOOOOOOOOOOO+++++++++++++++++++++++++++++++++++++++++++++++++++++++++++++++++++++",
"++++++++++....................................OOOOOOOOOOOOOOO+++++++++++++++++++++++++++++++++++++++++++++++++++++++++++++++++++",
"+++++++++++++....................................OOOOOOOOOOOOOOOO+++++++++++++++++++++++++++++++++++++++++++++++++++++++++++++++",
"+++++++++++++++++....................................OOOOOOOOOOOOOOOO+++++++++++++++++++++++++++++++++++++++++++++++++++++++++++",
"++++++++++++++++++++++..................................OOOOOOOOOOOOOOOO++++++++++++++++++++++++++++++++++++++++++++++++++ +++++",
"++++++++++++++++++++++++++..............................OOOOOOOOOOOOOOOOOOO++++++++++++++++++++++++++++++++++++........    +++++",
"++++++++++++++++++++++++++++...........................OOOOOOOOOOOOOOOOOOOOOOOOO++++++++++++++++++OOOOOOOO.............    +++++",
"++++++++++++++++++++++++++++++.........................OOOOOOOOOOOOOOOOOOOOOOOOOOOOOOOOOOOOOOOOOOOOOOOOOOOO............    +++++",
"++++++++++++++++++++++++++++++++.......................OOOOOOOOOOOOOOOOOOOOOOOOOOOOOOOOOOOOOOOOOOOOOOOOOOOOOO..........   ++++++",
"++++++++++++++++++++++++++++++++++.....................OOOOOOOOOOOOO...OOOOOOOOOOOOOOOOOOOOOOOOOOOOOOOOOOOOOOO..........  ++++++",
"++++++++++++++++++++++++++++++++++++....................OOOOOOOOOOO.......OOOOOOOOOOOOOOOOOOOOOOOOOOOOOOOOOOOOO......... ++++++o",
"+++++++++++++++++++++++++++++++++++++++.................OOOOOOOOOO...........OOOOOOOOOOOOOOOOOOOOOOOOOOOOOOOOOOOO.......+++++ooo",
"++++++++++++++++++++++++++++++++++++++++++...............OOOOOOOO..............OOOOOOOOOOOOOOOOOOOOOOOOOOOOOOOOOOOO......++ooooO",
"XXXXXX +++++++++++++++++++++++++++++++++++++...............OOOO..................OOOOOOOOOOOOOOOOOOOOOOOOOOOOOOOOOOOOO...++OOOOO",
"XXXXX  ++++++++++++++++++++++++++++++++++++++++o...................................OOOOOOOOOOOOOOOOOOOOOOOOOOOOOOOOOOOOO.+++OOOO",
"XXXXX++OOOOOOO+++++++++++++++++++++++++++++++++++o   ................................OOOOOOOOOOOOOOOOOOOOOOOOOOOOOOOOOOOOO+++OOO",
"XXXX+OOOOOOOOOOOOoo++++++++++++++++++++++++++++++++       .............................OOOOOOOOOOOOOOOOOOOOOOOOOOOOOOOOOOOOOO++O",
"XXXXOOOOOOOOOOOOOO oooo+++++++++++++++++++++++++++++        OOO.........................OOOOOOOOOOOOOOOOOOOOOOOOOOOOOOOOOOOOOOOO",
"XXXOOOOOOOOOOOOOOO       ++++++++++++++++++++++++++++        OO...........................OOOOOOOOOOOOOOOOOOOOOOOOOOOOOOOOOOOOOO",
"XXXOOOOOOOOOOOOOOOO        ++++++++++++++++++++++++++++      OO.............................OOOOOOOOOOOOOOOOOOOOOOOOOOOOOOOOOOOO",
"XXOOOOOOOOOOOOOOOOO          +++++++++++++++++++++++++++       ............ ..................OOOOOOOOOOOOOOOOOOOOOOOOOOOOOOOOOO",
"XXOOOOOOOOOOOOOOOOO            ++++++++++++++++++++++++++      ............     ................OOOOOOOOOOOOOOOOOOOOOOOOOOOOOOOO",
"XXOOOOOOOOOOOOOOOOOO             +++++++++++++++++++++++++     ............       ................OOOOOOOOOOOOOOOOOOOOOOOOOOOOOO",
"XXOOOOOOOOOOOOOOOOO+             OOO+++++++++++++++++++++++    ............       .................OOOOOOOOOOOOOOOOOOOOOOOOOOOOO",
"XOOOOOOOOOOOOOOOO++++             OOO+++++++++++++++++++++++   ............       ...................OOOOOOOOOOOOOOOOOOOOOOOOOOO",
"XOOOOOOOOOOOOOO++++++             OO+++++++++++++++++++++++++  ............      O............O........OOOOOOOOOOOOOOOOOOOOOOOOO",
"XOOOOOOOOOOOO++++++++             OO+++++   ++++++++++++++++++ ............    OOO............OOO     ...OOOOOOOOOOOOOOOOOOOOOOO",
"XXXXXXXXXXXXXXXXXXXXXXXXXXXXXXXXXXXXXXXXXXXXX++++++++++++++++++............  OOOOO............OOO          OOOOOOOOOOOOOOOOOOOOO",
"XXXXXXXXXXXXXXXXXXXXXXXXXXXXXXXXXXXXXXXXXXXXXX++++++++++++++++++...........XXXXXXX............XXXXXXXXXXXXXXOOOOOOOOOOOOOOOOOOOO",
"XXXXXXXXXXXXXXXXXXXXXXXXXXXXXXXXXXXXXXXXXXXXXXXX+++++++++++++++++..........XXXXXXX............XXXXXXXXXXXXXXXXOOOOOOOOOOOOOOOOOO",
"XXXXXXXXXXXXXXXXXXXXXXXXXXXXXXXXXXXXXXXXXXXXXXXXX+++++++++++++++++.........XXXXXXX............XXXXXXXXXXXXXXXXXOOOOOOOOOOOOOOOOO",
"XXXXXXXXXXXXXXXXXXXXXXXXXXXXXXXXXXXXXXXXXXXXXXXXXX+++++++++++++++++........XXXXXXX............XXXXXXXXXXXXXXXXXXOOOOOOOOOOOOOOOO"
};
