/* XPM */
static char *p[] = {
/* columns rows colors chars-per-pixel */
"64 64 196 2 ",
"   c #080808",
".  c #140A07",
"X  c #1A0B07",
"o  c #120C09",
"O  c #1D1107",
"+  c #1B120C",
"@  c #0E0D11",
"#  c #100F14",
"$  c #121017",
"%  c #1B1812",
"&  c #15131B",
"*  c #18151F",
"=  c #220D06",
"-  c #2A0A06",
";  c #340A06",
":  c #3B0B05",
">  c #330E0D",
",  c #2A1607",
"<  c #3A1604",
"1  c #3C1E05",
"2  c #371507",
"3  c #251710",
"4  c #291A10",
"5  c #231818",
"6  c #2D251A",
"7  c #392415",
"8  c #1A1722",
"9  c #1C1926",
"0  c #1E1B2A",
"q  c #211C2D",
"w  c #3E1F2A",
"e  c #241F31",
"r  c #20202F",
"t  c #34212A",
"y  c #3B2F23",
"u  c #252134",
"i  c #282237",
"p  c #27283B",
"a  c #28263B",
"s  c #4A0C04",
"d  c #400B05",
"f  c #540C04",
"g  c #451903",
"h  c #4B1903",
"j  c #461305",
"k  c #551803",
"l  c #600D03",
"z  c #680D03",
"x  c #760E02",
"c  c #780E02",
"v  c #631202",
"b  c #6C1409",
"n  c #7A1900",
"m  c #761505",
"M  c #452406",
"N  c #592905",
"B  c #492819",
"V  c #523016",
"C  c #632100",
"Z  c #742202",
"A  c #792204",
"S  c #603F04",
"D  c #4A1F25",
"F  c #493B28",
"G  c #5F2C32",
"H  c #452B2C",
"J  c #6C3A22",
"K  c #613422",
"L  c #713F26",
"P  c #773132",
"I  c #78262B",
"U  c #67421E",
"Y  c #4E422F",
"T  c #51412B",
"R  c #774A27",
"E  c #7D5023",
"W  c #7D4D31",
"Q  c #7F5033",
"!  c #615239",
"~  c #2C2C43",
"^  c #322F4A",
"/  c #32324C",
"(  c #373452",
")  c #3B3B5C",
"_  c #393756",
"`  c #3F3F61",
"'  c #5D5D5D",
"]  c #7C6646",
"[  c #44456B",
"{  c #414367",
"}  c #494B73",
"|  c #8B1200",
" . c #831901",
".. c #931000",
"X. c #9A1400",
"o. c #951903",
"O. c #A01700",
"+. c #A91B00",
"@. c #8F2901",
"#. c #972903",
"$. c #9E2803",
"%. c #A62802",
"&. c #B72502",
"*. c #BC3806",
"=. c #B43D1D",
"-. c #8D3D32",
";. c #C52B00",
":. c #CB2F00",
">. c #CB3200",
",. c #C13300",
"<. c #D13200",
"1. c #DA3700",
"2. c #DE3900",
"3. c #8C4200",
"4. c #954B08",
"5. c #984A07",
"6. c #915E0E",
"7. c #985515",
"8. c #AA4200",
"9. c #A24319",
"0. c #B74A1B",
"q. c #A65B13",
"w. c #A56B10",
"e. c #8A5626",
"r. c #995E2A",
"t. c #9E4132",
"y. c #8B5C3B",
"u. c #875433",
"i. c #8F623D",
"p. c #9A6934",
"a. c #A3642D",
"s. c #BC6D21",
"d. c #B2712F",
"f. c #A9763D",
"g. c #BA7531",
"h. c #B67A38",
"j. c #DA510A",
"k. c #C26000",
"l. c #D86E09",
"z. c #CE7D2E",
"x. c #C37934",
"c. c #C06729",
"v. c #826D4B",
"b. c #8D6742",
"n. c #916443",
"m. c #966A48",
"M. c #9F734E",
"N. c #987D54",
"B. c #89734F",
"V. c #A17652",
"C. c #A47954",
"Z. c #A87D57",
"A. c #CB920F",
"S. c #CE8136",
"D. c #DE8C39",
"F. c #D68835",
"G. c #AC825A",
"H. c #AC8257",
"J. c #B48B5E",
"K. c #B78755",
"L. c #B68043",
"P. c #B58C63",
"I. c #B88F65",
"U. c #BC9866",
"Y. c #C78A47",
"T. c #DC9345",
"R. c #C4975C",
"E. c #D59B56",
"W. c #E39A4B",
"Q. c #DDA25C",
"!. c #E7A85E",
"~. c #C49D6C",
"^. c #C6A06D",
"/. c #C8A16C",
"(. c #D6A969",
"). c #D7AD75",
"_. c #D7B278",
"`. c #DAB67C",
"'. c #DCB87A",
"]. c #C4A470",
"[. c #ECB268",
"{. c #ECB067",
"}. c #E8BA76",
"|. c #EEB56D",
" X c #F2C27D",
".X c #E1BC80",
"XX c #EDCA86",
"oX c #E8C583",
"OX c #F7CE8C",
"+X c #F3C885",
"@X c #F7D68C",
"#X c #F1CBA2",
"$X c #CCC9C5",
"%X c #EADCC7",
"&X c #FBE6C4",
"*X c None",
/* pixels */
"*X*X*X*X*X*X*X*X*X*X*X*X*X*X*X*X*X*X*X*X*X*X*X*X*X*X*X*X*X*X*XJ *XJ J *XJ *X*X*X*X*X*X*X*X*X*X*X*X*X*X*X*X*X*X*X*X*X*X*X*X*X*X*X",
"*X*X*X*X*X*X*X*X*X*X*X*X*X*X*X*X*X*X*X*X*X*X*X*X*X*X*X*XJ *X*XJ J m.y.W C.J *X*XJ *X*X*X*X*X*X*X*X*X*X*X*X*X*X*X*X*X*X*X*X*X*X*X",
"*X*X*X*X*X*X*X*X*X*X*X*X*X*X*X*X*X*X*X*X*X*X*X*X*X*X*X*XJ J W n.n.~.J.n.n.n.W J J *X*X*X*X*X*X*X*X*X*X*X*X*X*X*X*X*X*X*X*X*X*X*X",
"*X*X*X*X*X*X*X*X*X*X*X*X*X*X*X*X*X*X*X*X*X*X*X*X*X*X*X*XW W n.~.~.oX'.J.W ~.n.R J *X*X*X*X*X*X*X*X*X*X*X*X*X*X*X*X*X*X*X*X*X*X*X",
"*X*X*X*X*X*X*X*X*X*X*X*X*X*X*X*X*X*X*X*X*X*X*X*X*X*XJ J C.P.~.@X@X@X@XoXP.OX~.n.J J J J J *X*X*X*X*X*X*X*X*X*X*X*X*X*X*X*X*X*X*X",
"*X*X*X*X*X*X*X*X*X*X*X*X*X*X*X*X*X*X*X*X*X*X*X*X*X*X*XJ J n.P.P.@X@X@X@X@X@X@X_.M.J J *X*X*X*X*X*X*X*X*X*X*X*X*X*X*X*X*X*X*X*X*X",
"*X*X*X*X*X*X*X*X*X*X*X*X*X*X*X*X*X*X*X*X*X*X*X*X*XJ J V.V.G.P.I.@X_.'.XX^.@X@XXX}.).C.W J J *X*X*X*X*X*X*X*X*X*X*X*X*X*X*X*X*X*X",
"*X*X*X*X*X*X*X*X*X*X*X*X*X*X*X*X*X*X*X*X*X*X*X*X*XJ J n.G.I.P.P.@XH.J.^.n._.OX_.U._.m.R J *X*X*X*X*X*X*X*X*X*X*X*X*X*X*X*X*X*X*X",
"*X*X*X*X*X*X*X*X*X*X*X*X*X*X*X*X*X*X*X*X*X*X*X*X*X*XJ W G.G.G.U.oXi.y.M.y.K.(.Z.u.Z.W L J *X*X*X*X*X*X*X*X*X*X*X*X*X*X*X*X*X*X*X",
"*X*X*X*X*X*X*X*X*X*X*X*X*X*X*X*X*X*X*X*X*X*X*X*X*X*XJ I.P.b.i.@XP.Q J y.@XD.e.a.z.J P.u.J J *X*X*X*X*X*X*X*X*X*X*X*X*X*X*X*X*X*X",
"*X*X*X*X*X*X*X*X*X*X*X*X*X*X*X*X*X*X*X*X*X*X*X*XJ J J J U n.P.U.J g.a.y.@X+XW.!.).J J J J *X*X*X*X*X*X*X*X*X*X*X*X*X*X*X*X*X*X*X",
"*X*X*X*X*X*X*X*X*X*X*X*X*X*X*X*X*X*X*X*X*X*X*X*X*X*X*X3 5 6 y y J g.e.6 T OX X X).J 3 B *X*X*X*X*X*X*X*X*X*X*X*X*X*X*X*X*X*X*X*X",
"*X*X*X*X*X*X*X*X*X*X*X*X*X*X*X*X*X*X*X*X*X*X*X*X*X*X*X          a.z.G.'   B._./.] 7   B *X*X*X*X*X*X*X*X*X*X*X*X*X*X*X*X*X*X*X*X",
"*X*X*X*X*X*X*X*X*X*X*X*X*X*X*X*X*X*X*X*X*X*X*XX .       @ % 6   z.T.#X$X, 6 /.N.3     B *X*X*X*X*X*X*X*X*X*X*X*X*X*X*X*X*X*X*X*X",
"*X*X*X*X*X*X*X*X*X*X*X*X*X*X*X*X*X*X*X*X*X*X  x s         ] U.  @.(.&X%Xw.D.}.{.d.  *X*X*X*X*X*X*X*X*X*X*X*X*X*X*X*X*X*X*X*X*X*X",
"*X*X*X*X*X*X*X*X*X*X*X*X*X*X*X*X*X*X*X*X*X    c s         ]  XF.D.q.Y.@XXXOXOXOX~.  *X*X*X*X*X*X*X*X*X*X*X*X*X*X*X*X*X*X*X*X*X*X",
"*X*X*X*X*X*X*X*X*X*X*X*X*X*X*X*X*X*X        z d f z z z X 6 T V D.E.}.OXOXOXOX[.L.  *X*X*X*X*X*X*X*X*X*X*X*X*X*X*X*X*X*X*X*X*X*X",
"*X*X*X*X*X*X*X*X*X*X*X*X*X*X*X*X*X*X        ..j v o...&.n k g M s.}.OXOXOX[.E.f.R   *X*X*X*X*X*X*X*X*X*X*X*X*X*X*X*X*X*X*X*X*X*X",
"*X*X*X*X*X*X*X*X*X*X*X*X*X*X*X*X*X*X      o ..n n | | >.1.&.%.$.5.I..X@XOXW.7.M   *X*X*X*X*X*X*X*X*X*X*X*X*X*X*X*X*X*X*X*X*X*X*X",
"*X*X*X*X*X*X*X*X*X*X*X*X*X*X*X*X*X    8 q   ....n C C C *.2.2.2.D.B ] OXOXOXY     *X*X*X*X*X*X*X*X*X*X*X*X*X*X*X*X*X*X*X*X*X*X*X",
"*X*X*X*X*X*X*X*X*X*X*X*X*X*X*X*X      ~ ) e . c | ..| ..:.2.:.X.o.c.R % % % $.Z   *X*X*X*X*X*X*X*X*X*X*X*X*X*X*X*X*X*X*X*X*X*X*X",
"*X*X*X*X*X*X*X*X*X*X*X*X*X*X*X        ~ ` i   -  .;.;.;.1.;.+.X.;.j.*.#.#.#.@.M   *X*X*X*X*X*X*X*X*X*X*X*X*X*X*X*X*X*X*X*X*X*X*X",
"*X*X*X*X*X*X*X*X*X*X*X*X*X*X    & &   0 ^ (     s %.2.2.2.;.+...2.2.j.l.;.%.Z <   *X*X*X*X*X*X*X*X*X*X*X*X*X*X*X*X*X*X*X*X*X*X*X",
"*X*X*X*X*X*X*X*X*X*X*X*X*X  @ 8 i q @   8 `     # < *.<.2.2.:...2.j.l.A.X.v N 2   *X*X*X*X*X*X*X*X*X*X*X*X*X*X*X*X*X*X*X*X*X*X*X",
"*X*X*X*X*X*X*X*X*X*X*X*X*X  ~ ` u             0 a q   ..:.2.:...2.2.2.2.2.C =   *X*X*X*X*X*X*X*X*X*X*X*X*X*X*X*X*X*X*X*X*X*X*X*X",
"*X*X*X*X*X*X*X*X*X*X*X*X    @ r {             _ ( u e . c X.X...2.k.8.X.X.. *X*X*X*X*X*X*X*X*X*X*X*X*X*X*X*X*X*X*X*X*X*X*X*X*X*X",
"*X*X*X*X*X*X*X*X*X*X*X*X  8 # @ 0   *X*X*X*X  p _ ( e q > : : : k M g : : *X*X*X*X*X*X*X*X*X*X*X*X*X*X*X*X*X*X*X*X*X*X*X*X*X*X*X",
"*X*X*X*X*X*X*X*X*X*X*X*X& 8 #       *X*X*X*X  8 ~ _ ( / p u q * &   # $   *X*X*X*X*X*X*X*X*X*X*X*X*X*X*X*X*X*X*X*X*X*X*X*X*X*X*X",
"*X*X*X*X*X*X*X*X*X*X*X  e & + - X   *X*X*X*X    * ~ [ [ [ [ ) e a 5 5 9 @ *X*X*X*X*X*X*X*X*X*X*X*X*X*X*X*X*X*X*X*X*X*X*X*X*X*X*X",
"*X*X*X*X*X*X*X*X*X*X*X    ` t.;.|     *X*X        # i e i i a a i 6.S # u                 *X*X*X*X*X*X*X*X*X*X*X*X*X*X*X*X*X*X*X",
"*X*X*X*X*X*X*X*X*X*X*X@ { =.&.c .                       #   @     +   # e e b 9.Y._.`.`.v.  *X*X*X*X*X*X*X*X*X*X*X*X*X*X*X*X*X*X",
"*X*X*X*X*X*X*X*X*X*X*Xo I %.b B e.  ] p.U       # q q ^ ^ 0           @ & ~ m 0.W.OXh.[.~.E   *X*X*X*X*X*X*X*X*X*X*X*X*X*X*X*X*X",
"*X*X*X*X*X*X*X*X*X*X*X. f k K i.Q.! B.Y.r.      $ 9 8 / / r & $ &         8 b 0.W.OX4.(.{.d.  *X*X*X*X*X*X*X*X*X*X*X*X*X*X*X*X*X",
"*X*X*X*X*X*X*X*X*X*X*X*X  % H.OX+X XF E e.    @           & e u e #         z 9.Y.}.4.Q.Q.a.  *X*X*X*X*X*X*X*X*X*X*X*X*X*X*X*X*X",
"*X*X*X*X*X*X*X*X*X*X*X*X  g.[.@X X3.S.U       0 8                 *X*X*X        , 3.D.D.e.  *X*X*X*X*X*X*X*X*X*X*X*X*X*X*X*X*X*X",
"*X*X*X*X*X*X*X*X*X*X*X*X  g.[.(.7.F.q.M # r   @ 8 8                 *X*X*X*X*X    O 4.4.N   *X*X*X*X*X*X*X*X*X*X*X*X*X*X*X*X*X*X",
"*X*X*X*X*X*X*X*X*X*X*X*X*XV C.D.s.q.N = @ & 8   @ & 9 / ~ u 9 9 8 #   *X*X*X*X*X    1 1 , *X*X*X*X*X*X*X*X*X*X*X*X*X*X*X*X*X*X*X",
"*X*X*X*X*X*X*X*X*X*X*X*X*X  U r.e.S +       9 @   @ 9 / / u 9 9 9 #     *X*X*X*X*X      *X*X*X*X*X*X*X*X*X*X*X*X*X*X*X*X*X*X*X*X",
"*X*X*X*X*X*X*X*X*X*X*X*X*X*X                # #                             *X*X*X*X*X*X*X*X*X*X*X*X*X*X*X*X*X*X*X*X*X*X*X*X*X*X",
"*X*X*X*X*X*X*X*X*X*X*X*X*X*X*X*X*X*X        } } p                 q a a a i #   *X*X*X*X*X*X*X*X*X*X*X*X*X*X*X*X*X*X*X*X*X*X*X*X",
"*X*X*X*X*X*X*X*X*X*X*X*X*X*X*X*X*X      @ e } ^ a 8                 #       0 &     *X*X*X*X*X*X*X*X*X*X*X*X*X*X*X*X*X*X*X*X*X*X",
"*X*X*X*X*X*X*X*X*X*X*X*X*X*X*X*X*X    & u ) ( a 0 #                         # 8 8 9   *X*X*X*X*X*X*X*X*X*X*X*X*X*X*X*X*X*X*X*X*X",
"*X*X*X*X*X*X*X*X*X*X*X*X*X*X*X*X*X    8 ^ } i q @                             @ 9 0 & @ *X*X*X*X*X*X*X*X*X*X*X*X*X*X*X*X*X*X*X*X",
"*X*X*X*X*X*X*X*X*X*X*X*X*X*X*X*X      0 ^ [ e @                                     e $   *X*X*X*X*X*X*X*X*X*X*X*X*X*X*X*X*X*X*X",
"*X*X*X*X*X*X*X*X*X*X*X*X*X*X*X*X  i u ) ` u               *X*X                        9 8   *X*X*X*X*X*X*X*X*X*X*X*X*X*X*X*X*X*X",
"*X*X*X*X*X*X*X*X*X*X*X*X*X*X*X    a ) _ u @           *X*X*X*X*X                      0 8   *X*X*X*X*X*X*X*X*X*X*X*X*X*X*X*X*X*X",
"*X*X*X*X*X*X*X*X*X*X*X*X*X*X      & u 9 #           *X*X*X*X*X*X*X*X                  0 8   *X*X*X*X*X*X*X*X*X*X*X*X*X*X*X*X*X*X",
"*X*X*X*X*X*X*X*X*X*X*X*X*X  @ & 0 & $             *X*X*X*X*X*X*X*X*X*X                & &   *X*X*X*X*X*X*X*X*X*X*X*X*X*X*X*X*X*X",
"*X*X*X*X*X*X*X*X*X*X*X*X*X  0 / [ u u &         *X*X*X*X*X*X*X*X*X*X*X*X*X                  *X*X*X*X*X*X*X*X*X*X*X*X*X*X*X*X*X*X",
"*X*X*X*X*X*X*X*X*X*X*X*X  q ) ` u             *X*X*X*X*X*X*X*X*X*X*X*X*X*X                  *X*X*X*X*X*X*X*X*X*X*X*X*X*X*X*X*X*X",
"*X*X*X*X*X*X*X*X*X*X*X    q 9 &             *X*X*X*X*X*X*X*X*X*X*X*X*X*X*X            8 &   *X*X*X*X*X*X*X*X*X*X*X*X*X*X*X*X*X*X",
"*X*X*X*X*X*X*X*X*X*X*X  8 & @             *X*X*X*X*X*X*X*X*X*X*X*X*X*X*X*X*X          $ $ *X*X*X*X*X*X*X*X*X*X*X*X*X*X*X*X*X*X*X",
"*X*X*X*X*X*X*X*X*X*X*X  a & # #         *X*X*X*X*X*X*X*X*X*X*X*X*X*X*X*X*X*X    @ #     *X*X*X*X*X*X*X*X*X*X*X*X*X*X*X*X*X*X*X*X",
"*X*X*X*X*X*X*X*X*X*X*X  e i e 9       *X*X*X*X*X*X*X*X*X*X*X*X*X*X*X*X*X*X*X  & u u   *X*X*X*X*X*X*X*X*X*X*X*X*X*X*X*X*X*X*X*X*X",
"*X*X*X*X*X*X*X*X*X*X*X            *X*X*X*X*X*X*X*X*X*X*X*X*X*X*X*X*X*X*X*X*X          *X*X*X*X*X*X*X*X*X*X*X*X*X*X*X*X*X*X*X*X*X",
"*X*X*X*X*X*X*X*X*X*X            *X*X*X*X*X*X*X*X*X*X*X*X*X*X*X*X*X*X*X*X*X*X  : c c         *X*X*X*X*X*X*X*X*X*X*X*X*X*X*X*X*X*X",
"*X*X*X*X*X*X*X*X*X  , A A f -   *X*X*X*X*X*X*X*X*X*X*X*X*X*X*X*X*X*X*X*X*X*X  - s s < j ;     *X*X*X*X*X*X*X*X*X*X*X*X*X*X*X*X*X",
"*X*X*X*X*X*X*X*X  X h %.%.m ;   *X*X*X*X*X*X*X*X*X*X*X*X*X*X*X*X*X*X*X*X*X*X  o = = h v d     *X*X*X*X*X*X*X*X*X*X*X*X*X*X*X*X*X",
"*X*X*X*X*X*X*X*X  < g           *X*X*X*X*X*X*X*X*X*X*X*X*X*X*X*X*X*X*X*X*X*X  2 C C                 *X*X*X*X*X*X*X*X*X*X*X*X*X*X",
"*X*X*X*X*X*X*X*X    : X.2.+.n g   *X*X*X*X*X*X*X*X*X*X*X*X*X*X*X*X*X*X*X*X*X  s | C   g C k   N  .f   *X*X*X*X*X*X*X*X*X*X*X*X*X",
"*X*X*X*X*X*X*X  g v o.>.2.<.%.l   *X*X*X*X*X*X*X*X*X*X*X*X*X*X*X*X*X*X*X*X*X  5 w t q t t t 0 t D 5   *X*X*X*X*X*X*X*X*X*X*X*X*X",
"*X*X*X*X*X*X*X  H G P -.-.-.P D   *X*X*X*X*X*X*X*X*X*X*X*X*X*X*X*X*X*X*X*X*X  @ 8 & * * * * * 8 8 #   *X*X*X*X*X*X*X*X*X*X*X*X*X",
"*X*X*X*X*X*X*X  ~ / / / / / / a   *X*X*X*X*X*X*X*X*X*X*X*X*X*X*X*X*X*X*X*X*X                          *X*X*X*X*X*X*X*X*X*X*X*X*X",
"*X*X*X*X*X*X*X*X                *X*X*X*X*X*X*X*X*X*X*X*X*X*X*X*X*X*X*X*X*X*X*X*X*X*X*X*X*X*X*X*X*X*X*X*X*X*X*X*X*X*X*X*X*X*X*X*X"
};
