/* XPM */
static char *redrock[] = {
/* columns rows colors chars-per-pixel */
"64 64 256 2 ",
"   c black",
".  c #1F170B",
"X  c #170F07",
"o  c #4B4B4B",
"O  c white",
"+  c #1B1B1B",
"@  c #131313",
"#  c #0B0B0B",
"$  c #070707",
"%  c #2F371F",
"&  c #232B0F",
"*  c #171F07",
"=  c #0F1700",
"-  c #4F3B2B",
";  c #473323",
":  c #3F2B1B",
">  c #FFB7B7",
",  c #F7ABAB",
"<  c #F3A3A3",
"1  c #EB9797",
"2  c #E78F8F",
"3  c #DF8787",
"4  c #DB7B7B",
"5  c #D37373",
"6  c #CB6B6B",
"7  c #C76363",
"8  c #BF5B5B",
"9  c #BB5757",
"0  c #B34F4F",
"q  c #AF4747",
"w  c #A73F3F",
"e  c #A33B3B",
"r  c #9B3333",
"t  c #972F2F",
"y  c #8F2B2B",
"u  c #8B2323",
"i  c #831F1F",
"p  c #7F1B1B",
"a  c #771717",
"s  c #731313",
"d  c #6B0F0F",
"f  c #670B0B",
"g  c #5F0707",
"h  c #5B0707",
"j  c #530707",
"k  c #4F0000",
"l  c #470000",
"z  c #430000",
"x  c #FFEBDF",
"c  c #FFE3D3",
"v  c #FFDBC7",
"b  c #FFD3BB",
"n  c #FFCFB3",
"m  c #FFC7A7",
"M  c #FFBF9B",
"N  c #FFBB93",
"B  c #FFB383",
"V  c #F7AB7B",
"C  c #EFA373",
"Z  c #E79B6B",
"A  c #DF9363",
"S  c #D78B5B",
"D  c #CF8353",
"F  c #CB7F4F",
"G  c #BF7B4B",
"H  c #B37347",
"J  c #AB6F43",
"K  c #A36B3F",
"L  c #9B633B",
"P  c #8F5F37",
"I  c #875733",
"U  c #7F532F",
"Y  c #774F2B",
"T  c #6B4727",
"R  c #5F4323",
"E  c #533F1F",
"W  c #4B371B",
"Q  c #3F2F17",
"!  c #332B13",
"~  c #2B230F",
"^  c #EFEFEF",
"/  c #E7E7E7",
"(  c #DFDFDF",
")  c gray86",
"_  c LightGray",
"`  c #CBCBCB",
"'  c gray78",
"]  c gray75",
"[  c #B7B7B7",
"{  c gray70",
"}  c gray67",
"|  c #A7A7A7",
" . c #9F9F9F",
".. c #979797",
"X. c #939393",
"o. c #8B8B8B",
"O. c #838383",
"+. c gray50",
"@. c #777777",
"#. c #6F6F6F",
"$. c gray42",
"%. c gray39",
"&. c #5B5B5B",
"*. c gray34",
"=. c gray31",
"-. c gray28",
";. c #434343",
":. c gray23",
">. c #373737",
",. c #2F2F2F",
"<. c #272727",
"1. c #232323",
"2. c #77FF6F",
"3. c #6FEF67",
"4. c #67DF5F",
"5. c #5FCF57",
"6. c #5BBF4F",
"7. c #53AF47",
"8. c #4B9F3F",
"9. c #439337",
"0. c #3F832F",
"q. c #37732B",
"w. c #2F6323",
"e. c #27531B",
"r. c #1F4317",
"t. c #17330F",
"y. c #13230B",
"u. c #0B1707",
"i. c #BFA78F",
"p. c #B79F87",
"a. c #AF977F",
"s. c #A78F77",
"d. c #9F876F",
"f. c #9B7F6B",
"g. c #937B63",
"h. c #8B735B",
"j. c #836B57",
"k. c #7B634F",
"l. c #775F4B",
"z. c #6F5743",
"x. c #67533F",
"c. c #5F4B37",
"v. c #574333",
"b. c #533F2F",
"n. c #9F8363",
"m. c #8F7753",
"M. c #836B4B",
"N. c #775F3F",
"B. c #675333",
"V. c #5B472B",
"C. c #4F3B23",
"Z. c #43331B",
"A. c #7B7F63",
"S. c #6F7357",
"D. c #676B4F",
"F. c #5B6347",
"G. c #53573B",
"H. c #474F33",
"J. c #3F472B",
"K. c #373F27",
"L. c #FFFF73",
"P. c #EBDB57",
"I. c #D7BB43",
"U. c #C39B2F",
"Y. c #AF7B1F",
"T. c #9B5B13",
"R. c #874307",
"E. c #732B00",
"W. c white",
"Q. c #FFDBDB",
"!. c #FFBBBB",
"~. c #FF9B9B",
"^. c #FF7B7B",
"/. c #FF5F5F",
"(. c #FF3F3F",
"). c #FF1F1F",
"_. c red",
"`. c #EF0000",
"'. c #E30000",
"]. c #D70000",
"[. c #CB0000",
"{. c #BF0000",
"}. c #B30000",
"|. c #A70000",
" X c #9B0000",
".X c #8B0000",
"XX c #7F0000",
"oX c #730000",
"OX c #670000",
"+X c #5B0000",
"@X c #4F0000",
"#X c #430000",
"$X c #E7E7FF",
"%X c #C7C7FF",
"&X c #ABABFF",
"*X c #8F8FFF",
"=X c #7373FF",
"-X c #5353FF",
";X c #3737FF",
":X c #1B1BFF",
">X c blue",
",X c #0000E3",
"<X c #0000CB",
"1X c #0000B3",
"2X c #00009B",
"3X c #000083",
"4X c #00006B",
"5X c #000053",
"6X c white",
"7X c #FFEBDB",
"8X c #FFD7BB",
"9X c #FFC79B",
"0X c #FFB37B",
"qX c #FFA35B",
"wX c #FF8F3B",
"eX c #FF7F1B",
"rX c #F37317",
"tX c #EB6F0F",
"yX c #DF670F",
"uX c #D75F0B",
"iX c #CB5707",
"pX c #C34F00",
"aX c #B74700",
"sX c #AF4300",
"dX c white",
"fX c #FFFFD7",
"gX c #FFFFB3",
"hX c #FFFF8F",
"jX c #FFFF6B",
"kX c #FFFF47",
"lX c #FFFF23",
"zX c yellow",
"xX c #A73F00",
"cX c #9F3700",
"vX c #932F00",
"bX c #872300",
"nX c #4F3B27",
"mX c #432F1B",
"MX c #372313",
"NX c #2F1B0B",
"BX c #000053",
"VX c #000047",
"CX c #00003B",
"ZX c #00002F",
"AX c #000023",
"SX c #000017",
"DX c #00000B",
"FX c black",
"GX c #FF9F43",
"HX c #FFE74B",
"JX c #FF7BFF",
"KX c magenta",
"LX c #CF00CF",
"PX c #9F009B",
"IX c #6F006B",
"UX c #A76B6B",
/* pixels */
"z k k oXk oXOX+X+X.X XOXoX+X.X{.XX Xl k OXk l k OXOXOXz k l l k k l z OXoXOXOX+Xk +XOXOXoXoXoXOXOX[.].}. X.X.X X}.[.|.k +XoXk l ",
"OXl z +X+X+XoXOXOX X|.oXOX+XoXoX Xl l k +XOXl k k +X+Xk +XOXk k +Xk OXk OXoXoXk k k OX+XOXoXOX+Xz  X.X.X.XOXoXoXl XX.Xk oX+Xl z ",
"+XOXk l OXk OXl OXXX}.XX+X+XXXOX.XOXl z OX+Xl +XOXOXl +Xk OXz z OXoX+Xk oX+Xk OXk +XoXl l oXOXk z l z .XoX+Xk .X|.+Xk l k OX+Xz ",
"k l OXOXk +Xz +Xk +XXX|.+Xk k OXoXXX+Xk +Xz k OXOXk k l z k +Xk +Xk oXk oX+Xl OXOXOXk +X+Xl +XOXl l k oX+Xk OXoX.XoXOXl OXOXk OX",
"k XXOXoXoX+Xl z k k k oXOXk +XoXoXk XXOXk k +Xk OXOXl OXk z OXl k k k OX+Xk l k k +XOX+XoXoXoX+Xl l k OX+XoX+XoX.XOXk l l l z OX",
"l oX+XOXk OXoXk z z k k l k +Xk oXoXoX+Xz k k OX+XoXOXk z l +Xz +Xz +Xl l +Xk k z +XOXOX.XXX Xz l l k l OXOX.XXXoXoX+X XXXl k l ",
"z l +XOXk k k z l OXOXOXl k k +X+X XOXOXk k +XOXk OX+Xk +XOXk l +X+Xk l k k OX+Xl oXoXoXOXOXoXk l l k +XoXoXXX.X+Xk oX[.{..XXX X",
"z z oXk +Xk z z XXXXl oXl +Xl l OXoXOXoXoXz k k l +Xk OXoXk k +Xk +Xk k +Xl +X+XoXoX XOXoXoXOXk XX Xk OXoXoXXXk l l |.[. XOX}.[.",
"l OXk OXz OXk oX.Xk +Xl l OX+XoXXXoX.XoXk l k k k z z +X+Xk OXk +Xk +Xk k +XoXOX.X.XoXOXz l l .X[.[..Xk oXoXk z l XX}..XoX[. X}.",
"|.l k +Xk +XOXoXOXk k l +XOX+X.XoX XoX.X+Xk z l k l +X+Xk OXz OX+Xl k OX+XoX XOXOX+XOXl l OX|.{.{.{.{.XXl oX+Xk XX|.XXoX[..X.X X",
"]. Xz +Xl OX+XoXOXl l .X}.oXk +X.XoX|.oXXXXX+XOXk l z +XOXk l k z z +X+XoXOXoXXXoXoXz l oX|.|..X|.oX.X}..Xk l .X}.XXOX XoXoXoX.X",
"].].XXz oXOXz k k oX}.{.}. XOXl +Xk +XOXoX|. XOXoXoXOX+XOX+X+Xz l k k .X X.XXXk +Xl +X.X.X.XoX.XoXOXoX.X{.{.{.{..XOX.XOXOX+XOX.X",
"].{..X+Xl l k +X.X].].|. XXX|.|.OXk +XoX{.].{.l l OXz z +XoXOXl OX+XOXXX X X Xl k XX|.oXl oX.XXXoXoXoX.X{.].].}.k .XOXk k k k .X",
" XOXoXXX+Xl l OX{.].{.oXXX+X|.{..Xk OX}.].].].XXz k l l l z z OXoX.X X|..XoX+Xl .X}. X+XoXoX.XoXXXoX.XXX|.].].XX+XoX+Xk +Xk OX.X",
" X+Xl k oXoX.X+X.X].}.oXl OX.X X.X}. X X{.{. XoXl l l l l k z l OXOXoXOX+X.Xk .X[.|.oXXXOXk OX+XXX.XOXoX|.].{.k .XoXl k k z oX.X",
".XOXOXoXOXXX XXXXX|.{.oXOXoXoX.XOXoXOXXXOX.XoXoXXXXXXX+XOXl l l z l z l z +X X].]. Xk oX+XOX+XoX|..X+XoX}.[. X.XXXk k +X.X+XoX.X",
"|.oXoX+XoXoX.XOXk XX{.|.XXXXOXOXz OXl OXOXk OX+Xk k oXXXoXz +X.XOXl z l +X|.].].{.oX|..XoXoXXXXX XoX+X|.{. XXXXXoXk z k OX XoX.X",
"OXk k z l  X.XoX.XOX|. X XXXoXk +Xl k k k k oX+X+XoXXX XoXk l |.|.+Xl l oX.X|.}.|.oX XOXXXl oXOX+Xk .X}.XXoX.Xk OX+XOX+XXX}..X.X",
".XOX+Xl l l +X.X+XoX X+X XoX+Xl k +Xk OX+XoXOXk l l OX XoXl k  XXXoXXXoXXXoXOX+XOX.X X XoX+X+Xk OXOX|.|.OX.XoXOXk k +X X|.oXXX.X",
"].{.}.|.oXl l l OX|.|.k oXOXl l OXoXk l +XoXOXk l +XoXOXOXk oX.XOX.XOXoX+XoXoXoX+X+X|.[.[.}. X+XOX X{. X.XXXoX+XOXk XX.XXX.Xl  X",
"].].}. XXX+XoX.X}.].}.l oXk l k k k z k k k +XoX+XOXOX XOXOX|.OX|.oXk oX+Xk OXoXOX+X+X.X}.[.].{.{.].}.OX.XoX+Xz +X.X XOX+Xl l }.",
"}.|.OX XOXk OX.X X}.{..XOXk k OXk OX+XOXOXl l +X+XoX XoXOX X|.OX.XoXOXOX+X+Xl k OXOX+X+X+X X}.].].].}. XoXoXoXOXoXOX.XoXl z .X].",
"oX|.oXOX+Xk oXXX.X.XoXOXOXoXOXl +Xk +X+Xl z k oXOX XXXk +X}.{.l XXoXXX+X+X+X+XoXl OXk k +XoXoX}.].].|.XX.XoX XoX.XoXOXl l XX{.{.",
"XXoXoXOXl z +XOXoXoXOXl OXOXoXk +X+Xz l z OXk +X.XoXk +XXX].]. Xz OXOXOX+XOXk +Xz k z k k oX.XXX}.].{.+X.X XoXoXOXk l oX|.}.XXOX",
"OXXXoXk XX+X+Xl OX.XXXl z OXz k OXk l k k oX.XOXXXk OXk }.].].]..Xl +X+XOXl k k z z k l l OXoX|.|.{.]. XOXXXOX+XoX X|.}.|.XXOXoX",
"oXk XXOXk k oXl oX|.OXl l z k +Xl k z l OXXXoXXXoXoXl .X{.{.}.}.{.XXz +Xz oXOXz l k z z OXk OX XXX|.].].{.|.|.{.].[.|..XoXoXOXoX",
"k OXXX+XXX+Xl +XOX|..XOXl l k z l z z +X+XOXXXoXoX+XXX}..X+XoXOXXX|.+Xk OXoXk z k z k l l +X+X.X+X X].].].}.}.].]. XoX XoX+XOXoX",
"+X+XOX+XoX+XOXOX X}.|.+Xl l l +Xk l l OXk XXOXoXk XX}.XXk +XOXoXoXoXXXl k oXOXl z k l OXk +X+XoX.XOX{.].|..X+X X X+X.XoXk z k +X",
"OX+Xz OXOXOXOXoX|.}.OXk l l OXoXk OXk XX}.XXoX+X.X[.|.OXoXOXOXoXOXk k k OXOXoXz l z k +Xl l +X.XOXk |.|..X+X.X+Xl OXoXk OXk k oX",
"XXXX XOXoXoXoX XoXOXk k XX Xk .Xk +XOX|.XX.Xk oX[.[..XOXOXk k OXl +Xk k XX+X+Xk z k k OXz +XoXXXOXoX X XOXOX+XOXl XXk oXz oXXXOX",
"}.}. XoXOXoXXX.Xk z l .X].].oXOXOXoXOXXXXXoXk }.]..XoXoXoX+X+Xk k z +Xl oX|.XXk +XOXk z l OXOXoXoXoX X|.k  XXXl l OXoX+XOXoXOXoX",
"}.|.{.oXoX+X XoXk l .X].].].}.oXOXoXoXXXk oXoX[.}.oX.X+X+Xl +Xl +X+Xl k OXXX|.XXl z OXOXk +X.XoX|.OX X}.OXOX Xk l +XoXOXXXOXoX|.",
"}.OXOXk z k +XoX|.}.{.{.}.{.{..XoXXXOXoXOXl |.{..X XoXk k z k OXk +Xz +XoXOXXX|.XXl k k +XoXoXOXXXOX|.|.XX|.OX+XoXOXoXoX.XXX.X[.",
".XoX|.|.|. X|.[.].]..X+X.X+X X{.|.oXOXXX+X.X}. XOXoXoXk k k l k +Xk k k k .XOXXX|.XXl OXXXoXXX X.Xl }.}.+XoXOX|.|.k oX.X}.{.{.{.",
"{.].].].].}.|.|.}.|.l oXoXOXOX X{.].{.}.}.{. XOX+XOXOXOXk OXk z OXk +Xk OXOX+Xk XX|.XXz oX XXXOXz XX].]..XoX.X[.[.XXOX+X X X XOX",
"].].].[.}.[. X.XoXk z +XOXoX+XOXoX{.].].].|.OXoXoXk l +Xl +Xk +Xk OXl +XOXoXk +X+XXX|.XXk +XXXk l |.[.{. X.X X|.|..X+XOX XOXoX|.",
"].].}.oX[.oXoXOXl l OXoXoXOXOXoXOX+X{.].{.+XoXoX+X+XoXOXOXl +Xl +X+Xl k k OXl k oXOXXX}..Xk k OX.X X.X.XOX+XOX.X.XoX+X.X X{.].].",
"].{.oX}.}.oXoXk oXoXOXk OX+XoX|.oX+X|.]. XXXk OXl l +XOXOX+Xk k z l k +X+XOX+Xl oXXXk .X{.{.{.}.oXl .X.XoXoXXXoXOXoXk oX|.].].].",
"]. X|.}..XoXk OX{..X+XoX+Xk  X.XXXl |.|.+XoX+X+XOXl OXk OXk +Xk k z +XOXOXoXl OXOXoXk k {.].]..X.X.XoXOXOXOXk +X+Xl l OXoX|.].].",
"}.k  X XOXoXl  X[.oXXXk oX+XoXXXOXoX}..X.XOXk k k k +XOX+Xl k l k +X+XOX+X+Xk k +XoXoXk |.[..XoXoXoXoX+Xk OXoXOX+Xk z z oX X}.].",
"|.OX|..X+X+Xl |.|.k oXoXl oXOXOXk |.{.+XoXk +Xk k k k k OX+XOXOXk k +Xk OXl OX+XOXXXoXk oXoX.XoXOXk OX+Xk OX+X+X+Xk k +XOX|.oX}.",
"|.oX.XoX+Xk OX}.oXXXOX+X+X.XOXk OX}..XXXk +Xk +X+Xk l +XOXOXOXl k OXoXk OXoXOXoX X.XoXz l z oXOX+X+Xk oXoXoXOXOXk z z oX XoX.X X",
"{.l  X+Xl z .X Xk oX+Xz +X.XOXz .X|.OX+Xl k +X+X+Xl OXl z OXk k OXOXk z OXOXXXOX X.Xl z l k oXOX+X+XOXOX+XOXOXOXz z z  X.X X.X.X",
"|.k |.OX+Xl .XOXoX+Xz l z l oXk .X XXX+Xz k OX+XOXOXOX+XOX+Xk +Xk +Xz OXOXoXoXoX X.Xk oXOXk OX+XOXl k +XoXOX+Xk k z +X+X X XOX.X",
" XoX+Xk l +X.X+XoXk z +X+XOXoXk .X.XoX+Xk k +XOXl +Xl OX+XOX+Xk OX+X+X+XoXoX X X XXXOX|.+Xk k k l +X+X+XOX+XOXk z +X+XOX XoXXX.X",
".XXX+XoXoXXX.XOX+X+Xk k OXk +Xz k OXOXOX+X+Xk +Xk k +XOXz OX+XOXk l oXoX.X.Xk }.OX+X|.|.+XoXk k l oXOXoXk OX+X+XOXk k OXoX XoX.X",
".XoXk OXk XX.XOX.Xk OXk k l oX+Xk l k OXoX+XOX+X+XoXOX+Xk +XoXk OXoX.X X.XXXXX|.oX X].|..Xk +Xz oXk oX+Xk +X+XOXk OXoXXX XoX.X.X",
" X.XoXoXz k OX+XoX+XOXk k XXoXOXoXl +XOX+Xk k OXl k OXl +X+XOXoX+XOX.XoXOXoX.XoX.X].].|..XOXk OXk +XOXz z OX+X+XOXOXOXXXoX.X X.X",
"|.+Xk OXOXl l OXoXl k k +X X X.XOXl oXOX+Xz k +X+Xl k l +XoXOXOXOXXX XOXOXoXXX.X].].].|.oX+XOXOX+X+XOXk l z OX+XoX+XOXoX X|.XX.X",
"{.l .XoX+Xz l k oXk OXk +XoX Xk k l k l +Xk +XOXOXl k k k oXoXOXXXoXXXOX+Xk XX{.{.{.].}.OX+X+XOXoX+Xk l OXoXoXoXOXOXoXoXoXoXOX X",
"}.+X}.+XoXk l l OXOXz +X.X.XOXl OX.Xl z OXk +X+XOX+Xk OXoXOXXX XoX.XXX.Xl XX}.}. X{. X{.OX+XoX+XOXoXOX+XoXoXoXOX Xk XXoXk k k }.",
"}.OX+Xz k oX.Xl k +XoXoXOX+Xk +X}.]..Xl z +XoX+XOXOX+XoXOXoX.X X XoX.Xk .X{.}. X].oX|.}. Xk oXOXOXoXl +XoXOXoX XXXXXoXOXz z .X].",
"{.OXl l l .X}.XXl l OXOXOXk k  X].].[.XXl oXoXoXoX.XOX.X X.X+Xk +X+Xl .X].{..XXX.XoXoX{.}.k oX.XoXOXOXOXoXoX.XXXoXoX.Xz l oX}.{.",
"XXoX}. XXXoXXX}.XXk k +XoXk .X].].{.|. XOXk OXOXoXXXXXoX+X+Xl z k l .X].].}.OX.XOX.X|.].]. X+Xk .X+XOXoXk .X.Xk  XOXoX X X.XoX+X",
"XX.XoXk oX|.k XX}.OXk OXk .X].]. XXX{.]. XXX+Xl l z OXz z OXl z l oX}.}.|.XXl l l oX}.].].].{.XXl k k OXl l +X+X X{.].{.XXl .X+X",
"k OXk +XoXoXOXk |.|.+Xl oX[.].}.OX}..X.X|.].{. X.Xk l z z z k OX+XoXXXk oXOX XoX.XXXoX}.].].].].|.oXl l l l l .X[.].]..Xk .XoXoX",
"k oXoXoX+XOX Xk |.{.oXk oX X}..XoXXXoX+X|.].].}..XOXl l l l XX.XXXOXoXoXk oXk oXoXoX.XoX}.].].].|.XX.XXX.XoX}.oX.X{..XoXoXOXOX+X",
"OXl oXOX+XOX|..X X|.+X|.XXOX.XXX XOXoXk XX|. X}..X XXXoXoXOXXXXX+XoXoX+Xk l oXOX+XOXoX.XoX}.].}.+XOXoXOXOX|..XoXk OX+X.XoXoXOXz ",
"k OXk z +XoXoX.X.X XoXoXk oXoX.XoXOXk z l +X.XoXoXoXk OXk +X+X+X+X+X+XoXk OX+X+Xk +XOXk XX.X Xk oX+X+X+XOX|.oXoXk l OX+XoX+Xl OX",
"k k l k oXoX X|..X Xk .XoXOXoXoXXX+Xk l l XXoX+XoX+XoXOXk +XOXOXl OXOXOXoXk z l +Xk z l .XoXl oXoXOX+XoXXXoXoXOXz l oX+X+Xk +Xz ",
"OXz k z +Xk .X X X|.+XOXOXXXoXXXoXk l +Xl oXl oXOXOXOXk k OXOX+Xl +X+X+Xk OXoXOXz k z l OXl l +XOXOXXXoX}. X X+Xl +X.XOXl k k OX",
"k k z z z +X+X.X X]. X+Xk OXk k OXoX|..Xl XXk +Xl k OXOXk +X+Xk z k l OXk k oX+Xk l k +XoXk OXoXOXl OX X}.+X.X+X+X+X+Xk OXk OX+X",
"z k OXz +XoXk .XoX].].{.}.|.|.}.{.].].oXXXoX+Xk k OXk oX+XOXl l +Xk +XOXoXk oXl k z l +Xk OXOX}..Xk oXk k oXOX.X X+X+XOXk +XOXl ",
"+Xz k +XoXOX.X.XoX{.].].].].].].].].{.k .X+XOX+XOX+XoXz k +X+X+Xl k k z OXk OXk +Xk k l OXoX+X{.].}. X.X.X X}.].]..Xz k k +Xz k "
};
