/* XPM */
static char *south3[] = {
/* columns rows colors chars-per-pixel */
"128 128 6 1 ",
"  c #4F1764",
". c #AC3232",
"X c #DF7126",
"o c #D95763",
"O c #FBF236",
"+ c #76428A",
/* pixels */
"...                        .............XXXXXXXXXXXXXXXXXXXXXXX+++++++++++++++++++++++O.............OOOOOOOOOOOOOOOOOOOOOOOOOOOO",
"....                         .............XXXXXXXXXXXXXXXXXXXXX++++++++++++++++++++++O.............OOOOOOOOOOOOOOOOOOOOOOOOOOOOO",
".....                          .............XXXXXXXXXXXXXXXXXXX++++++++++++++++++++++O.............OOOOOOOOOOOOOOOOOOOOOOOOOOOOO",
"X.....                          .............XXXXXXXXXXXXXXXXXX+++++++++++++++++++++O..............OOOOOOOOOOOOOOOOOOOOOOOOOOOOO",
"XXX....                           .............XXXXXXXXXXXXXOOO+++++++++++++++++++++O.............OOOOOOOOOOOOOOOOOOOOOOOOOOOOOO",
"XX......                           .............XXXXXXXXOOOOOOO++++++++++++++++++++O..............OOOOOOOOOOOOOOOOOOOOOOOOOOOOOO",
"..........                           .............XXXOOOOOOOOOO++++++++++++++++++++O.............OOOOOOOOOOOOOOOOOOOOOOOOOOOOOO+",
"...........                           .............OOOOOOOOOOO++++++++++++++++++++O..............OOOOOOOOOOOOOOOOOOOOOOOOOOOO+++",
"..........XXX                           .........OOOOOOOOOOOO+++++++++++++++++++++O.............OOOOOOOOOOOOOOOOOOOOOOOOOOOXXXXX",
"...........XXXX                          ......OOOOOOOOOOOOO+++++++++++++++++++++O..............OOOOOOOOOOOOOOOOOOOOOOOOXXXXXXXX",
"...........XXXXXXX             oooooooo    .OOOOOOOOOOOOOOO+++++++++++++++++++++O..............OOOOOOOOOOOOOOOOOOOOOOOXXXXXXXXXX",
"...........XXXXXXXXX      oooooooooooooooooOOOOOOOOOOOOOOO++++++++++++++++++++++...............OOOOOOOOOOOOOOOOOOOOOOXXXXXXXXXXX",
"...........XXXXXXXXXXX  oooooooooooooooooooooOOOOOOOOOOOO+++++++++++++++++++++++..............OOOOOOOOOOOOOOOOOOOOOOXXXXXXXXXXXX",
"............XXXXXXXXXXXXXoooooooooooooooooooooOOOOOOOOOO+++++++++++++++++++++++...............OOOOOOOOOOOOOOOOOOOOOXXXXXXXXXXXXX",
"............XXXXXXXXXXXXXXXooooooooooooooooooooOOOOOOOO+++++++++++++++++++++++...............OOOOOOOOOOOOOOOOOOOOOXXXXXXXXXXXXXX",
".............XXXXXXXXXXXXXXXXoooooooooooooooooooOOOOOO++++++++++++++++++++++++...............OOOOOOOOOOOOOOOOOOOOXXXXXXXXXXXXXXX",
"..............XXXXXXXXXXXXXXXXXoooooooooooooooooooOOO++++++++++++++++++++++++...............OOOOOOOOOOOOOOOOOOOOOXXXXXXXXXXXXXXX",
"..............XXXXXXXXXXXXXXXXXXXooooooooooooooooooO+++++++++++++++++++++++++..............OOOOOOOOOOOOOOOOOOOOOXXXXXXXXXXXXXXXX",
"X..............XXXXXXXXXXXXXXXXXXXXooooooooooooooo++++++++++++++++++++++++++..............OOOOOOOOOOOOOOOOOOOOOXXXXXXXXXXXXXXXXX",
"X..............XXXXXXXXXXXXXXXXXXXXXXoooooooooooo++++++++++++++++++++++++++...............XOOOOOOOOOOOOOOOOOOOXXXXXXXXXXXXXXXXXX",
"XX..............XXXXXXXXXXXXXXXXXXXXXXXooooooooo++++++++++++++++++++++++++...............XXOOOOOOOOOOOOOOOOOOXXXXXXXXXXXXXXXXXXX",
"O...............XXXXXXXXXXXXXXXXXXXXXXXXXoooooo++++++++++++++++++++++++++...............XXXXOOOOOOOOOOOOOOOOXXXXXXXXXXXXXXXXXXXX",
"OOO..............XXXXXXXXXXXXXXXXXXXXXXXXXXooo+++++++++++++++++++++++++++...............XXXXOOOOOOOOOOOOOOOOXXXXXXXXXXXXXXXXXXXX",
"OOOO..............XXXXXXXXXXXXXXXXXXXXXXXXXXX+++++++++++++++++++++++++++...............XXXXXOOOOOOOOOOOOOOOXXXXXXXXXXXXXXXXXXXXX",
"OOOO...............XXXXXXXXXXXXXXXXXXXXXXXXX+++++++++++++++++++++++.+++................XXXXXXOOOOOOOOOOOOOXXXXXXXXXXXXXXXXXXXXX.",
"OOOOO...............XXXXXXXXXXXXXXXXXXXXXX++++++++++++++++++++++++..++................XXXXXXXOOOOOOOOOOOOXXXXXXXXXXXXXXXXXXXX...",
"OOOOO...............XXXXXXXXXXXXXXXXXXXXX++++++++++++++++++++++++  .+................+XXXXXXXOOOOOOOOOOOOXXXXXXXXXXXXXXXXXXX....",
"OOOOOO...............XXXXXXXXXXXXXXXXXXX++++++++++++++++++++++++o   ................++XXXXXXOOOOOOOOOOOOXXXXXXXXXXXXXXXXXX......",
"OOOOOO...............XXXXXXXXXXXXXXXXXX+++++++++++++++++++++++oooo  ...............++++XXXXOOOOOOOOOOOOXXXXXXXXXXXXXXXXXX.......",
"OOOOOOO...............XXXXXXXXXXXXXXXX+++++++++++++++++++++++oooooo................+++++XXXOOOOOOOOOOOXXXXXXXXXXXXXXXXXX........",
"OOOOOOOO..............ooXXXXXXXXXXXX++++++++++++++++++++++++oooooo................+++++++XOOOOOOOOOOOXXXXXXXXXXXXXXXXX..........",
"OOOOOOOOO..............oooXXXXXXXXX++++++++++++++++++++++++Xooooo................++++++++OOOOOOOOOOOOXXXXXXXXXXXXXXXX...........",
"OOOOOOOOOO..............ooooXXXXXX+++++++++++++++++++++++XXXXoooo...............++++++++++OOOOOOOOOOXXXXXXXXXXXXXXXX............",
"OOOOOOOOOO...............oooooXX++++++++++++++++++++++++XXXXXXXo...............++++++++++++OOOOOOOOXXXXXXXXXXXXXXX..............",
"OOOOOOOOOOO...............ooooo++++++++++++++++++++++++XXXXXXXX...............++++++++++++++OOOOOOXXXXXXXXXXXXXXX...............",
"OOOOOOOOOOO...............oooo++++++++++++++++++++++++XXXXXXXX................++++++++++++++OOOOOXXXXXXXXXXXXXXX................",
"OOOOOOOOOOOO...............oo++++++++++++++++++++++++XXXXXXXXX...............++++++++++++++++OOOXXXXXXXXXXXXXXX.................",
"OOOOOOOOOOOO...............+++++++++++++++++++++++++XXXXXXXXX...............++++++++++++++++++OOXXXXXXXXXXXXXX..................",
"OOOOOOOOOOOOO...............+++++++++++++++++++++++XXXXXXXXX...............+++++++++++++++++++OXXXXXXXXXXXXXX...................",
"OOOOOOOOOOOOOO..............+++++++++++++++++++++XXXXXXXXXX................o+++++++++++++++++++XXXXXXXXXXXXX...................X",
"OOOOOOOOOOOOOOo..............+++++++++++++++++++XXXXXXXXXX................ooo+++++++++++++++++++XXXXXXXXXXX..................OOO",
"OOOOOOOOOOOOOOoo.............++++++++++++++++++XXXXXXXXXX................Xoooo+++++++++++++++++++XXXXXXXXX..................OOOO",
"OOOOOOOOOOOOOOoo..............++++++++++++++++..XXXXXXXX................XXXooo+++++++++++++++++++XXXXXXXXX.................OOOOO",
"OOOOOOOOOOOOOOooo.............+++++++++++++++.....XXXXX.................XXXXXoo+++++++++++++++++++XXXXXXX................OOOOOOO",
"OOOOOOOOOOOOOoooo.............+++++++++++++OOO.....XX..................XXXXXXXoo+++++++++++++++++++XXXXX................XOOOOOOO",
"OOOOOOOOOOOOOooooo............++++++++++++OOOOOO......................XXXXXXXXXX++++++++++++++++++++XXX................XOOOOOOOO",
"OOOOOOOOOOOOOooooo.............++++++++++OOOOOOOO....................XXXXXXXXXXXX+++++++++++++++++++XX................XOOOOOOOOO",
"OOOOOOOOOOOOOooooo.............++++++++OOOOOOOOOOO..................XXXXXXXXXXXXXX+++++++++++++++++++................XXOOOOOOOOO",
"OOOOOOOOOOOOooooo+.............+++++++OOOOOOOOOOO..................XXXXXXXXXXXXXXXX+++++++++++++++++................XXOOOOOOOOOO",
"OOOOOOOOOOOOoooo+++............++++++OOOOOOOOOOO..................XXXXXXXXXXXXXXXXX++++++++++++++++.................XXOOOOOOOOOO",
"OOOOOOOOOOOOooo++++............+++++OOOOOOOOOOO..................XXXXXXXXXXXXXXXXXXX++++++++++++++.................XXOOOOOOOOOOO",
"OOOOOOOOOOOooo+++++.............++OOOOOOOOOOOO..................XXXXXXXXXXXXXXXXXXXXX++++++++++++.................XXOOOOOOOOOOOO",
"+OOOOOOOOOOooo+++++.............+OOOOOOOOOOO...................XXXXXXXXXXXXXXXXXXXXXXX++++++++++.................XXXOOOOOOOOOOOO",
"++OOOOOOOOOoo++++++.............OOOOOOOOOO....................OOXXXXXXXXXXXXXXXXXXXXXX++++++++++................XXXOOOOOOOOOOOOO",
"++OOOOOOOOoo++++++++............OOOOOOOO....................OOOOOOXXXXXXXXXXXXXXXXXXXXX++++++++................XXXXOOOOOOOOOOOOO",
"+++OOOOOOOoo++++++++............+OOOOO.....................OOOOOOOOXXXXXXXXXXXXXXXXXXXXX++++++................XXXXOOOOOOOOOOOOOO",
"++++OOOOOoo+++++++++............++OO......................OOOOOOOOOOXXXXXXXXXXXXXXXXXXXXX++++................XXXXOOOOOOOOOO.....",
"++++OOOOOoo+++++++++............OO.......................OOOOOOOOOOOOOXXXXXXXXXXXXXXXXXXX+++................+XXXXOOOOOOOOOOOoo..",
"+++++OOOOo++++++++++....................................OOOOOOOOOOOOOOOXXXXXXXXXXXXXXXXXXX+................+++XXOOOOOOOOOOOOoooo",
"++++++OOoo++++++++++...................................OOOOOOOOOOOOOOOOOOXXXXXXXXXXXXXXXXX................+++++OOOOOOOOOOOOOOooo",
"oooooooooo++++++++++..................................OOOOOOOOOOOOOOOOOOOOXXXXXXXXXXXXXXX.................++++++OOOOOOOOOOOOOooo",
"oooooooooo+++++++++++................................OOOOOOOOOOOOOOOOOOOOOOOXXXXXXXXXXXX.................++++++++OOOOOOOOOOOOOoo",
"oooooooooo+++++++++++..............................OOOOOOOOOOOOOOOOOOOOOOOOOXXXXXXXXXXX.................+++++++++OOOOOOOOOOOOO o",
"oooooooooo+++++++++++............................OOOOOOOOOOOOOOOOOOOOOOOOOOXXXXXXXXXXX.................+++++++++++OOOOOOOOOOOO  ",
"oooooooooo+++++++++............................ooooooOOOOOOOOOOOOOOOOOOOOOXXXXXXXXXXX.................+++++++++++++OOOOOOOOOOOO ",
"oooooooooo+++++..............................oooooooooooooooooooooooOOOOOOXXXXXXXXXXX................+++++++++++++++OOOOOOOOOOO ",
"oooooooooo+................................ooooooooooooooooooooooooooooooXXXXXXXXXXX................+++++++++++++++++OOOOOOOOOOO",
"ooooooo..................................ooooooooooooooooooooooooooooooooXXXXXXXXXX................+++++++++++++++++++OOOOOOOOOO",
"ooo....................................oooooooooooooooooooooooooooooooooXXXXXXXXXX................X++++++++++++++++++++OOOOOOOOX",
".....................................ooooooooooooooooooooooooooooooooooXXXXXXXXXX................XX+++++++++++++++++++++oooooooX",
"...................................ooooooooooooooooooooooooooooooooooooXXXXXXXXX................XXXX+++++++++++++++++++++oooooXX",
".................................++oooooooooooooooooooooooooooooooooooXXXXXXXXX................XXXXXX++++++++++++++++++++++oooXX",
".................................++++ooooooooooooooooooooooooooooooooXXXXXXXXX.................XXXXXXX++++++++++++++++++++++oXXX",
".................................++++++ooooooooooooooooooooooooooooooXXXXXXXX.................XXXXXXXXX++++++++++++++++++++++XXX",
".................................+++++++ooooooooooooooooooooooooooooXXXXXXXX.................XXXXXXXXXXX+++++++++++++++++++++++X",
".................................+++++++++ooooooooooooooooooooooooooXXXXXXX.................XXXXXXXXXXXX++++++++++++++++++++++++",
".................................++++++++++ooooooooooooooooooooooooXXXXXXX.................XXXXoXXXXXXXXX++++++++++++++++++++++.",
"..................+++............++++++++++++oooooooooooooooooooooXXXXXXXX................XXXXoooXXXXXXXXX++++++++++++++++++....",
"..............oooo+++............+++++++++++++oooooooooooooooooooXXXXXXXX................XXXXoooooXXXXXXXXX+++++++++++++++......",
"..........ooooooooO++............+++++++++++++++ooooooooooooooooXXXXXXXX................XXXXoooooooXXXXXXXXX++++++++++++........",
"......ooooooooooooOO+............+++++++++++++++++oooooooooooooXXXXXXXX................XXXXoooooooooXXXXXXXXX+++++++++..........",
"oooooooooooooooooOOOO............++++++++++++++++++OOOOOOOOOOOXXXXXXXX................XXXXoooooooooooXXXXXXXXX++++++............",
"oooooooooooooooooOOOO............++++++++++++++++++++OOOOOOOOXXXXXXXX................XXXXoooooooooooooXXXXXXXXXX++..............",
"oooooooooooooooooOOOO............+++++++++++++++++++++OOOOOOXXXXXXXX................XXXXOOOOOOOooooooooXXXXXXXXX................",
"ooooooooooooooooOOOOO............+++++++++++++++++++++++OOXXXXXXXXX.................XXOOOOOOOOOOOOOOOOOOXXXXX...................",
"ooooooooooooooooOOOOO.............++++++++++++++++++++++++XXXXXXX..................XXOOOOOOOOOOOOOOOOOOOO.......................",
"oooooooooooooooOOOOOO.............+++++++++++++++++++++++++XXXXX..................XOOOOOOOOOOOOOOOOOO...........................",
"oooooooooooooooOOOOOO.............+++++++++++++++++++++++++++XX..................XOOOOOOOOOOOOOOO...............................",
"ooooooooooooooOOOOOOOO............++++++++++++++++++++++++++++..................OOOOOOOOOOOOOO..................................",
"oooooooooooooOOOOOOOOO............O++++++++++++++++++++++++++..................OOOOOOOOOOO.....................................+",
"oooooooooooooOOOOOOOOO............OO++++++++++++++++++++++++..................OOOOOOOO.......................................+++",
"ooooooooooooOOOOOOOOOO.............OOO+++++++++++++++++++++..................OOOOO.........................................X++++",
"oooooooooooOOOOOOOOOOO.............OOOO++++++++++++++++++...................OO...........................................XXXX+++",
"oooooooooooOOOOOOOOOOO.............OOOOOO+++++++++++++++...............................................................XXXXXXXX+",
"ooooooooooOOOOOOOOOOOOO.............OOOOXXX++++++++++++..............................................................XXXXXXXXXXX",
"ooooooooooooooooooooooo.............OOXXXXXX++++++++++.............................................................XXXXXXXXXXXXX",
"ooooooooooooooooooooooo.............XXXXXXXXXX+++++++...........................................................XXXXXXXXXXXXXXXo",
"ooooooooXXXXXXXXXXXXXXXX.............XXXXXXXXXX++...........................................................XXXXXXXXXXXXXXXXXXXo",
"ooooooooXXXXXXXXXXXXXXX.................................................................................OOOXXXXXXXXXXXXXXXXXXXOO",
"oooooooXXXXXXXXXXXXXX...............................................................................  OOOOOXXXXXXXXXXXXXXXXXXXXO",
"ooooooXXXXXXXXXXXXXX.............................................................................     OOOOXXXXXXXXXXXXXXXXXXXXXO",
"ooooooXXXXXXXXXXXXX..........................................................................       OOOOOOXXXXXXXXXXXXXXXXXXXXXO",
"oooooXXXXXXXXXXXXXX......................................................................          OOOOOOXXXXXXXXXXXXXXXXXXXXXXO",
"oooooXXXXXXXXXXXXX...................................................................+++          OOOOOOOXXXXXXXXXXXXXXXXXXXXXXO",
"ooooXXXXXXXXXXXXXX...............................................................++++++++        OOOOOOOXXXXXXXXXXXXXXXXXXXXXXXO",
"ooo...XXXXXXXXXXX............................................................++++++++++++++     OOOOOOOOXXXXXXXXXXXXXXXXXXXXXXXO",
"ooo....XXXXXXXXXX........................................................+++++++++++++++++++   OOOOOOOOXXXXXXXXXXXXXXXXXXXXXXXXO",
".o..XXXXXXXXXXXXX..................................................+++++++++++++++++++++++++++OOOOOOOOOXXXXXXXXXXXXXXXXXXXXXXXXO",
"....XXXXXXXXXXXXX..........................................       +++++++++++++++++++++++++++++OOOOOOOOXXXXXXXXXXXXXXXXXXXXXXXXO",
"........................................................            ++++++++++++++++++++++++++++OOOOOOXXXXXXXXXXXXXXXXXXXXXXXXXO",
".......................................................              +++++++++++++++++++++++++++++OOOOXXXXXXXXXXXXXXXXXXXXXXXXXO",
"........................................................               ++++++++++++++++++++++++++++OOOXXXXXXXXXXXXXXXXXXXXXXXXXO",
"..........................................................               ++++++++++++++++++++++++++++XXXXXXXXXXXXXXXXXXXXXXXXXXO",
"............................................................               +++++++++++++++++++++++++++XXXXXXXXXXXXXXXXXXXXXXXXXO",
"..............................................................               +++++++++++++++++++++++++++XXXXXXXXXXXXXXXXXXXXXXOO",
"................................................................              ++++++++++++++++++++++++++++XXXXXXXXXXXXXXXXXXXXOO",
"..................................................................             X+++++++++++++++++++++++++++XXXXXXXXXXXXXXXXXXXOO",
"....................................................................     XXXXXXXX++++++++++++++++++++++++++++XXXXXXXXXXXXXXXXXOO",
"........................................XXXX..........................XXXXXXXXXXXO++++++++++++++++++++++++++++XXXXXXXXXXXXXXXXOO",
"....................................XXXXXXXXO...........................XXXXXXXXOOOO++++++++++++++++++++++++++++XXXXXXXXXXXXXXOO",
"X................................XXXXXXXXXOOOOO...........................XXXXXOOOOOO++++++++++++++++++++++++++++XXXXXXXXXXXXXOO",
"XXXXXXXXXXXXX XXXXX.............XXXXXXXXXOOOOOOOO...........................XOOOOOOOOOO+++++++++++++++++++++++++++XXXXXXXXXXXXOO",
"XXXXXXXXXX  XXXXXXX.............XXXXXXXXOOOOOOOOOOO...........................OOOOOOOOOO+++++++++++++++++++++++++++XXXXXXXXXXOOO",
"XXXXXXX    XXXXXXXX..............XXXXX  OOOOOOOOOOOOO...........................OOOOOOOOO++++++++++++++++++++++++++++XXXXXXXXOOO",
"XXXXX    XXXXXXXXXXX.............XXXX   OOOOOOOOOOOOOOO...........................OOOOOOOOO+++++++++++++++++++++++++++XXXXXXXOOO",
"XX     XXXXXXXXXXXXX..............XX    OOOOOOOOOOOOOOOOO...........................OOOOOOOO+++++++++++++++++++++++++++XXXXXXOOO",
"     XXXXXXXXXXXXXXXX.............O      OOOOOOOOOOOOOOOOOX...........................OOOOOOOO++++++++++++++++++++++++++XXXXXOOO",
"    XXXXXXXXXXXXXXXXX..............     .OOOOOOOOOOOOOOOOO+++...........................OOOOOOO++++++++++++++++++++++++++XXXOOOO"
};
