/* XPM */
static char *south[] = {
/* columns rows colors chars-per-pixel */
"128 128 13 1 ",
"  c black",
". c #663931",
"X c #DF7126",
"o c #6ABE30",
"O c #37946E",
"+ c #FBF236",
"@ c #D9A066",
"# c #99E550",
"$ c #5B6EE1",
"% c #5FCDE4",
"& c #EEC39A",
"* c white",
"= c None",
/* pixels */
"$$$$$$$$$$$$$$$$$$$$$$$$$$$$$$$$$$$$$$$$$$$$$$$$$$$$$$$$$$$$$$$$$$$$$$$$$$$$$$++++++++++++++++++++++++++++++++++++++++++++++++++",
"$$$$$$$$$$$$$$$$$$$$$$$$$$$$$$$$$$$$$$$$$$$$$$$$$$$$$$$$$$$$$$$$$$$$$$$$$$$$$$++++++++++++++++++++++++++++++++++++++++++++++++++",
"$$$$$$$$$$$$$$$$$$$$$$$$$$$$$$$$$$$$$$$$$$$$$$$$$$$$$$$$$$$$$$$$$$$$$$$$$$$$$$++++++++++++++++++++++++++++++++++++++++++++++++++",
"$$$$$$$$$$$$$$$$$$$$$$$$$$$$$$$$$$$$$$$$$$$$$$$$$$$$$$$$$$$$$$$$$$$$$$$$$$$$$$++++++++++++++++++++++++++++++++++++++++++++++++++",
"$$$$$$$$$$$$$$$$$$$$$$$$$$$$$$$$$$$$$$$$$$$$$$$$$$$$$$$$$$$$$$$$$$$$$$$$$$$$$$$+++++++++++++++++++++++++++++++++++++++++++++++++",
"$$$$$$$$$$$$$$$$$$$$$$$$$$$$$$$$$$$$$$$$$$$$$$$$$$$$$$$$$$$$$$$$$$$$$$$$$$$$$$$$++++++++++++++++++++++++++++++++++++++++++++++++",
"$$$$$$$$$$$$$$$$$$$$$$$$$$$$$$$$$$$$$$$$$$$$$$$$$$$$$$$$$$$$$$$$$$$$$$$$$$$$$$$$$+++++++++++++++++++++++++++++++++++++++++++++++",
"$$$$$$$$$$$$$$$$$$$$$$$$$$$$$$$$$$$$$$$$$$$$$$$$$$$$$$$$$$$$$$$$$$$$$$$$$$$$$$$$$$$$++++++++++++++++++++++++++++++++++++++++++++",
"$$$$$$$$$$$$$$$$$$$$$$$$$$$$$$$$$$$$$$$$$$$$$$$$$$$$$$$$$$$$$$$$$$$$$$$$$$$$$$$$$$$$$$$+++++++++++++++++++++++++++++++++++++++++",
"$$$$$$$$$$$$$$$$$$$$$$$$$$$$$$$$$$$$$$$$$$$$$$$$$$$$$$$$$$$$$$$$$$$$$$$$$$$$$$$$$$$$$$$$$$$$$$$$$$++++++++++++++++++++++++++++++",
"$$$$$$$$$$$$$$$$$$$$$$$$$$$$$$$$$$$$$$$$$$$$$$$$$$$$$$$$$$$$$$$$$$$$$$$$$$$$$$$$$$$$$$$$$$$$$$$$$$$$$$$+++++++++++++++++++++++++",
"$$$$$$$$$$$$$$$$$$$$$$$$$$$$$$$$$$$$$$$$$$$$$$$$$$$$$$$$$$$$$$$$$$$$$$$$$$$$$$$$$$$$$$$$$$$$$$$$$$$$$$++++++++++++++++++++++++++",
"$$$$$$$$$$$$$$$$$$$$$$$$$$$$$$$$$$$$$$$$$$$$$$$$$$$$$$$$$$$$$$$$$$$$$$$$$$$$$$$$$$$$$$$$$$$$$$$$$$$+++++++++++++++++++++++++++++",
"$$$$$$$$$$$$$$$$$$$$$$$$$$$$$$$$$$$$$$$$$$$$$$$$$$$$$$$$$$$$$$$$$$$$$$$$$$$$$$$$$$$$$$$$$$$$$$$$$+++++++++++++++++++++++++++++++",
"$$$$$$$$$$$$$$$$$$$$$$$$$$$$$$$$$$$$$$$$$$$$$$$$$$$$$$$$$$$$$$$$$$$$$$$$$$$$$$$$$$$$$$$$$$$$$$$+++++++++++++++++++++++++++++++++",
"$$$$$$$$$$$$$$$$$$$$$$$$$$$$$$$$$$$$$$$$$$$$$$$$$$$$$$$$$$$$$$$$$$$$$$$$$$$$$$$$$$$$$$$$$$$$$+++++++++++++++++++++++++++++++++++",
"$$$$$$$$$$$$$$$$$$$$$$$$$$$$$$$$$$$$$$$$$$$$$$$$$$$$$$$$$$$$$$$$$$$$$$$$$$$$$$$$$$$$$$$$$$$$++++++++++++++++++++++++++++++++++++",
"$$$$$$$$$$$$$$$$$$$$$$$$$$$$$$$$$$$$$$$$$$$$$$$$$$$$$$$$$$$$$$$$$$$$$$$$$$$$$$$$$$$$$$$$$$$+++++++++++++++++++++++++++++++++++++",
"$$$$$$$$$$$$$$$$$$$$$$$$$$$$$$$$$$$$$$$$$$$$$$$$$$$$$$$$$$$$$$$$$$$$$$$$$$$$$$$$$$$$$$$$$+++++++++++++++++++++++++++++++++++++++",
"$$$$$$$$$$$$$$$$$$$$$$$$$$$$$$$$$$$$$$$$$$$$$$$$$$$$$$$$$$$$$$$$$$$$$$$$$$$$$$$$$$$$$$$+++++++++++++++++++++++++++++++++++++++++",
"$$$$$$$$$$$$$$$$$$$$$$$$$$$$$$$$$$$$$$$$$$$$$$$$$$$$$$$$$$$$$$$$$$$$$$$$$$$$$$$$$$$$$$++++++++++++++++++++++++++++++++++++++++++",
"$$$$$$$$$$$$$$$$$$$$$$$$$$$$$$$$$$$$$$$$$$$$$$$$$$$$$$$$$$$$$$$$$$$$$$$$$$$$$$$$$$$$$+++++++++++++++++++++$$++++++++++++++++++++",
"$$$$$$$$$$$$$$$$$$$$$$$$$$$$$$$$oooooooooooo$$$$$$$$$$$$$$$$$$$$$$$$$$$$$$$$$$$$$$$+++++++++++++++++++$$$$$+++++++++++++++++++++",
"$$$$$$$oooo$$$$$$$$$$$$$$$$$$$$oooooooooooooo$$$$$$$$$$$$$$$$$$$$$$$$$$$$$$$$$$$$$++++++++++++++++++$$$$$$$+++++++++++++++++++++",
"$$$$$$ooooooo$$$$$$$$$$$$$$$$$oooooooooooooooo$$$$$$$$$$$$$$$$$$$$$$$$$$$$$$$$$$$++++++++++++++++++$$$$$$$$+++++++++++$$$$$+++++",
"$$$$$ooooooooo$$$$$$$$$$$$$$$oooooooooooooooooo$$$$$$$$$$$$$$$$$$$$$$$$$$$$$$$$$+++++++++++++++++$$$$$$$$$$+++++++++++$$$$++++++",
"$$$$ooooooooooo$$$$$$$$$$$$$ooooooooooooooooooo$$$$$$$$$$$$$$$$$$$$$$$$$$$$$$$$$++++++++++++++++$$$$$$$$$$+++++++++++$$$$$++++++",
"$$$$oooooooooooo$$$$$$$$$$$$ooooooooooooooooooo$$$$$$$$$$$$$$$$$$$$$$$$$$$$$$$$$+++++++++++++++$$$$$$$$$$$+++++++++++$$$$$++++++",
"$$$$ooooooooooooo$$$$$$$$$$oooooooooooooooooooo$$$$$$$$$$$$$$$$$$$$$$$$$$$$$$$$$++++++++++++$$$$$$$$$$$$$++++++++++++$$$$$++++++",
"$$$$oooooooooooooo$$$$$$$$oooooooooooooooooooo$$$$$$$$$$$$$$$$$$$$$$$$$$$$$$$$$$$+++++++++$$$$$$$$$$$$$$$+++++++++++$$$$$$++++++",
"$$$$oooooooooooooo$$$$$$$oooooo######oooooooo$$$$$$$$$$$$$$$$$$$$$$$$$$$$$$$$$$$$$+++++++$$$$$$$$$$$$$$$$+++++++++++$$$$$$++++++",
"$$$$ooooooooooooooo$$$$$ooooo#########oooooo$$$$$$$$$$$$$$$$$$$$$$$$$$$$$$$$$$$$$$$+++++$$$$$$$$$$$$$$$$+++++++++++$$$$$$+++++++",
"$$$$$ooooooooooooooo$$$$oooo###########oooo$$$$$$$$$$$$$$$$$$$$$$$$$$$$$$$$$$$$$$$$$$$$$$$$$$$$$$$$$$$$$+++++++++++$$$$$$+++++++",
"$$$$$oooooooooooooooo$$oooo#############ooo$$$$$$$$$$$$$$$$$$$$$$$$$$$$$$$$$$$$$$$$$$$$$$$$$$$$$$$$$$$$++++++++++++$$$$$$+++++++",
"$$$$$$ooooooooooooooo$oooo##############ooooooooo$$$$$$$$$$$$$$$$$$$$$$$$$$$$$$$$$$$$$$$$$$$$$$$$$$$$$$+++++++++++$$$$$$$+++++++",
"$$$$$$$oooooooooooooooooo###############oooooooooo$$$$$$$$$$$$$$$$$$$$$$$$$$$$$$$$$$$$$$$$$$$$$$$$$$$$+$++++++++++$$$$$$$+++++++",
"$$$$$$$ooooooooooooooooo################ooooooooooooo$$$$$$$$$$$$$$$$$$$$$$$$$$$$$$$$$$$$$$$$$$$$$$$$$$+++++++++++$$$$$$++++++++",
"$$$$$$$oooooooooooooooo################ooooooooooooooo$$$$$$$$$$$$$$$$$$$$$$$$$$$$$$$$$$$$$$$$$$$$$$$$$+++++++++++$$$$$$++++++++",
"$$$$$$$$oooooooooooo##################ooooooooooooooooo$$$$$$$$$$$$$$$$$$$$$$$$$$$$$$$$$$$$$$$$$$$$$$$$+++++++++++$$$$$$++++++++",
"$$$$$$$Oooooooooooo##############################oooooooo$$$$$$$$$$$$$$$$$$$$$$$$$$$$$$$$$$$$$$$$$$$$$$+++++++++++$$$$$$++++++++",
"$$$$$$OOOooooooooo#####################################ooo$$$$$$$$$$$$$$$$$$$$$$$$$$$$$$$$$$$$$$$$$$$$$++++++++++$$$$$$$++++++++",
"$$$$ooooooooooooo#######################################ooo$$$$$$$$$$$$$$$$$$$$$$$$$$$$$$$$$$$$$$$$$$$$$++++++++$$$$$$$$++++++++",
"$$$oooooooooooo##########################################ooo$$$$$$$$$$$$$$$$$$$$$$$$$$$$$$$$$$$$$$$$$$$$$++++++$$$$$$$$$$+++++++",
"$$oooooooooooo#############################################oo$$$$$$$$$$$$$$$$$$$$$$$$$$$$$$$$$$$$$$$$$$$$$++++$$$$$$$$$$$$++++++",
"$oooooooooooo###############################################ooo$$$$$$$$$$$$$$$$$$$$$$$$$$$$$$$$$$$$$$$$$$$$$$$$$$$$$$$$$$$$++++$",
"$ooooooooooo#################################################oooo$$$$$$$$$$$$$$$$$$$$$$$$$$$$$$$$$$$$$$$$$$$$$$$$$$$$$$$$$$$$$$$",
"$ooooooooooo##################################################oooo$$$$$$$$$$$$$$$$$$$$$$$$$$$$$$$$$$$$$$$$$$$$$$$$$$$$$$$$$$$$$$",
"$ooooooooooo##################################################ooooo$$$$$$$$$$$$$$$$$$$$$$$$$$$$$$$$$$$$$$$$$$$$$$$$$$$$$$$$$$$$$",
"$Ooooooooooo##################################################oooooo$$$$$$$$$$$$$$$$$$$$$$$$$$$$$$$$$$$$$$$$$$$$$$$$$$$$$$$$$$$$",
"$oooooooooooo######################o...#####oo################oooooo$$$$$$$$$$$$$$$$$$$$$$$$$$$$$$$$$$$$$$$$$$$$$$$$$$$$$$$$$$$$",
"oooooooooooooo######################..#######oooooo##########ooooooo$$$$$$$$$$$$$$$$$$$$$$$$$$$$$$$$$$$$$$$$$$$$$$$$$$$$$$$$$$$$",
"ooooooooooooooo###############################oooooo########oooooooo$$$$$$$$$$$$$$$$$$$$$$$$$$$$$$$$$$$$$$$$$$$$$$$$$$$$$$$$$$$$",
"oooooooooooooooooooooo#########################oooooo######oooooooo$$$$$$$$$$$$$$$$$$$$$$$$$$$$$$$$$$$$$$$$$$$$$$$$$$$$$$$$$$$$$",
"ooooooooooooooooooooooo..######################oooooooo$$$oooooooo$$$$$$$$$$$$$$$$$$$$$$$$$$$$$$$$$$$$$$$$$$$$$$$$$$$$$$$$$$$$$$",
"$oooooooooooooooooooo......#####################oooooooo$$$$ooooo$$$$$$$$$$$$$$$$$$$$$$$$$$$$$$$$$$$$$$$$$$$$$$$$$$$$$$$$$$$$$$$",
"$$oooooooooooooooo..........####################ooooooooo$$$$$$$$$$$$$$$$$$$$$$$$$$$$$$$$$&&&$$$$$$$$$$$$$$$$$$$$$$$$$$$$$$$$$$$",
"$$ooooooooooooooo............###################oooooooooo$$$$$$$$$$$$$$$$$$$$$&&&&&&&&&&&&&&&&&&&&&&$$$$$$$$$$$$$$$$$$$$$$$$$$$",
"$$oooooooooooooo..............######..##########oooooooooo$$$$$$$$$$$$$$$$&&&&&&&&&&&&&&&&&&&&&&&&&&&$$$$$$$$$$$$$$$$$$$$$$$$$$$",
"$$ooooooooooooo................####....########ooooooooooo$$$$$$$$$$$$$&&&&&&&&&&&&&&&&&&&&&&&&&&&&&&&$$$$$$$$$$$$$$$$$$$$$$$$$$",
"&ooooooooooooo..........................######ooooooooooooo$$$$$$$$&&&&&&&&&&&&&&&&&&&&&&&&&&&&&&&&&&&$$$$$$$$$$$$$$$$$$$$$$$$$$",
"ooooooooooooo&...........................####oooooooooooooo$$&&&&&&&&&&&&&&&&&&&&&&&&&&&&&&&&&&&&&&&&&&$$$$$$$$$$$$$$$$$$$$$$$$$",
"ooooooooooooo&............................$$ooooooooooooooo&&&&&&&&&&&&&&&&&&&&&&&&&&&&&&&&&&&&&&&&&&&&&$$$$$$$$$$$$$$$$$$$$$$$$",
"oooooooooooo&&&...........................&&&oooooooooooooo&&&&&&&&&&&&&&&&&&&&&&&&&&&&&&&&&&&&&&&&&&&&&&$$$$$$$$$$$$$$$$$$$$$$$",
"ooooooooooo&&&&..........................&&&&&&ooooooooooo&&&&&&&&&&&&&&&&&&&&&&&&&&&&&&&&&&&&&&&&&&&&&&&&$$$$$$$$$$$$$$$$$$$$$$",
"ooooooooooo&&&&&........................&&&&&&&&ooooooooo&&&&&&&&&&&&&&&&&&&&&&&&&&&&&&&&&&&&&&&&&&&&&&&&&&&&$$$$$$$$$$$&&&&&&&&",
"oooooooooo&&&&&........................&&&&&&&&&&&oooooo&&&&&&&&&&&&&&&&&&&&&&&&&&&&&&&&&&&&&&&&&&&&&&&&&&&&&&&&&&&&&&&&&&&&&&&&",
"ooooooooo&&&&&&...................... &&&&&&&&&&&&&&&&&&&&&&&&&&&&&&&&&&&&&&&&&&&&&&&&&&&&&&&&&&&&&&&&&&&&&&&&&&&&&&&&&&&&&&&&&&",
"oooooooo&&&&&&&......................&&&&&&&&&&&&&&&&&&&&&&&&&&&&&&&&&&&&&&&&&&&&&&&&&&&&&&&&&&&&&&&&&&&&&&&&&&&&&&&&&&&&&&&&&&&",
"oooooooo&&&&&&&......................&&&&&&&&&&&&&&&&&&&&&&&&&&&&&&&&&&&&&&&&&&&&&&&&&&&&&&&&&&&&&&&&&&&&&&&&&&&&&&&&&&&&&&&&&&&",
"oooooooo&&&&&&&......................&&&&&&&&&&&&&&&&&&&&&&&&&&&&&&&&&&&&&&&&&&&&&&&&&&&&&&&&&&&&&&&&&&&&&&&&&&&&&&&&&&&&&&&&&&&",
"ooooooo&&&&&&&&......................&&&&&&&&&&&&&&&&&&&&&&&&&&&&&&&&&&&&&&&&&&&&&&&&&&&&&&&&&&&&&&&&&&&&&&&&&&&&&&&&&&&&&&&&&&&",
"oooooo&&&&&&&&&......................&&&&&&&&&&&&&&&&&&&&&&&&&&&&&&&&&&&&&&&&&&&&&&&&&&&&&&&&&&&&&&&&&&&&&&&&&&&&&&&&&&&&&&&&&&&",
"ooooo&&&&&&&&&&......................&&&&&&&&&&&&&&&&&&&&&&&&&&&&&&&&&&&&&&&&&&&&&&&&&&&&&&&&&&&&&&&&&&&&&&&&&&&&&&&&&&&&&&&&&&&",
"&&&&&&&&&&&&&&&......................&&&&&&&&&&&&&&&&&&&&&&&&&&&&&&&&&&&&&&&&&&&&&&&&&&&&&&&&&&&&&&&&==&&&&&&&&&&&&&&&&&&&&&&&&&",
"&&&&&&&&&&&&&&.......................&&&&&&&&&&&&&&&&&&&&&&&&&&&&&&&&&&&&&&&&&&&&&&&&&&&&@@@@@@@@@@@@@@&&&&&&&&&&&&&&&&&&&&&&&&&",
"&&&&&&&&&&&&&&.......................&&&&&&&&&&&&&&&&&&&&&&&&&&&&&&&&&&&&&&&&&@@@@@@@@@@@@@@@@@@@@@@@@@&&&&&&&&&&&&&&&&&&&&&&&&&",
"&&&&&&&&&&&&&&.......................&&&&&&&&&&&&&&&&&&&&&&&&&&&&&&&&&&&@@@@@@@@@@@@@@@@@@@@@@@@@@@@@@@&&&&&&&&&&&&&&&&&&&&&&&&&",
"&&&&&&&&&&&&&&.......................&&&&&&&&&&&&&&&&&&&&&&&&&&&&&@@@@@@@@@@@@@@@@@@@@@@@@@@@@@@@@@@@@@@&&&&&&&&&&&&&&&&&&&&&&&&",
"&&&&&&&&&&&&&&.......................&&&&&&&&&&&&&&&&&&&&&&&&&&&&&@@@@@@@@@@@@@@@@@@@@@@@@@@@@@@@@@@@@@@@&&&&&&&&&&&&&&&&&&&&&&&",
"&&&&&&&&&&&&&&.......................&&&&&&&&&&&&&&&&&&&&&&&&&&&&&@@@@@@@@@@@@@@@@@@@@@@@@@@@@@@@@@@@@@@@@&&&&&&&&&&&&&&@@&&&&&&",
"&&&&&&&&&&&&&&.......................&&&&&&&&&&&&&&&&&&&&&&&&&&&&&@@@@@@@@@@@@@@@@@@@@@@@@@@@@@@@@@@@@@@@@@@@@@@@@@@@@@@@@@&&&&&",
"&&&&&&&&&&&&&&.......................&&&&&&&&&&&&&&&&&&&&&&&&&&&&@@@@@@@@@@@@@@@@@@@@@@@@@@@@@@@@@@@@@@@@@@@@@@@@@@@@@@@@@@@&&&&",
"&&&&&&&&&&&&&&.......................&&&&&&&&&&&&&&&&&&&&&&&&&&&@@@@@@@@@@@@@@@@@@@@@@@@@@@@@@@@@@@@@@@@@@@@@@@@@@@@@@@@@@@@@@@@",
"&&&&&&&&&&&&&&.......................&&&&&&&&&&&&&&&&&&&&&&&&&&@@@@@@@@@@@@@@@@@@@@@@@@@@@@@@@@@@@@@@@@@@@@@@@@@@@@@@@@@@@@@@@@@",
"&&&&&&&&&&&&&&.......................&&&&&&&&&&&&&@@@@@@@@@@@@@@@@@@@@@@@@@@@@@@@@@@@@@@@@@@@@@@@@@@@@@@@@@@@@@@@@@@@@@@@@@@@@@@",
"&&&&&&&&&&&&&&.......................@@@@@@@@@@@@@@@@@@@@@@@@@@@@@@@@@@@@@@@@@@@@@@@@@@@@@@@@@@@@@@@@@@@@@@@@@@@@@@@@@@@@@@@@@@@",
"&&&&&&&&&&&&&&.......................@@@@@@@@@@@@@@@@@@@@@@@@@@@@@@@@@@@@@@@@@@@@@@@@@@@@@@@@@@@@@@@@@@@@@@@@@@@@@@@@@@@@@@@@@@@",
"&&&&&&&&&&&&&&.......................@@@@@@@@@@@@@@@@@@@@@@@@@@@@@@@@@@@@@@@@@@@@@@@@@@@@@@@@@@@@@@@@@@@@@@@@@@@@@@@@@@@@@@@@@@@",
"&&&&&&&&&&&&&&......................@@@@@@@@@@@@@@@@@@@@@@@@@@@@@@@@@@@@@@@@@@@@@@@@@@@@@@@@@@@@@@@@@@@@@@@@@@@@@@@@@@@@@@@@@@@@",
"&&&&&&&&&&&&&&......................@@@@@@@@@@@@@@@@@@@@@@@@@@@@@@@@@@@@@@@@@@@@@@@@@@@@@@@@@@@@@@@@@@@@@@@@@@@@@@@@@@@@@@@@@@@@",
"&&&&&&&&&&&&&&......................@@@@@@@@@@@@@@@@@@@@@@@@@@@@@@@@@@@@@********@@@@@@@@@@@@@@@@@@@@@@@@@@@@@@@@@@@@@@@@@@@@@@@",
"&&&&&&&&&&&&&&.....................@@@@@@@@@@@@@@@@@@@@@@@@@@@@@@@@@@@@@*****************@@@@@@@@@@@@@@@@@@@@@@@@@@@@@@@@@@@@@@@",
"&&&&&&&&&&&&&&.....................@@@@@@@@@@@@@@@@@@@@@@@@@@@@@@@@@@@**********************@@@@@@@@@@@@@@@@@@@@@@@@@@@@@@@@@@@@",
"&&&&&&@@@@@@@@.....................@@@@@@@@@@@@@@@@@@@@@@@@@@@@@******************************@@@@@@@@@@@@@@@@@@@@@@@@@@@@@@@@@@",
"&&&@@@@@@@@@@@.....................@@@@@@@@@@@@@@@@@@@@@@@@@@@@********************************@@@@@@@@@@@@@@@@@@@@@@@@@@@@@@@@@",
"@@@@@@@@@@@@@......................@@@@@@@@@@@@@@@@@@@@@@@@@@@**********************************@@@@@@@@@@@@@@@@@@@@@@@@@@@@@@@@",
"@@@@@@@@@@@@@.....................@@@@@@@@@@@@@@@@@@@@@@@@@@@****************************************@@@@@@@@@@@@@@@@@@@@@@@@@@@",
"@@@@@@@@@@@@@.....................@@@@@@@@@@@@@@@@@@@@@@@@@@******************************************XXXXXXXXXXXXXXXXXXXXXXXXXX",
"@@@@@@@@@@@@@.....................@@@@@@@@@@@@@@@@@@@@@@@@***********************************************XXXXXXXXXXXXXXXXXXXXXXX",
"@@@@@@@@@@@@.....................@@@@@@@@@@@@@@@@@@@@@@@@****************************************************XXXXXXXXXXXXXXXXXXX",
"@@@@@@@@@@XX.....................@@@@@@@@@@@@@@@@@@@@@@@*********************%********************************XXXXXXXXXXXXXXXXXX",
"XXXXXXXXXXXX.....................@@@@@@@@@@@@@@@@@@@@@@*********************%%%%%%%%%%**************************XXXXXXXXXXXXXXXX",
"XXXXXXXXXXXX.....................@@@@@@@@@@@@@@@@@@@@@********************%%%%%%%%%%%%%%*************************XXXXXXXXXXXXXXX",
"XXXXXXXXXXXX....................@@@@@@@@@@@@@@@@@@@@@***************%%%%%%%%%%%%%%%%%%%%%%************************XXXXXXXXXXXXXX",
"XXXXXXXXXXXX....................@@@@@@@@@@@@@@@@@@XX*************%%%%%%%%%%%%%%%%%%%%%%%%%%************************XXXXXXXXXXXXX",
"XXXXXXXXXXX.....................@@@@@@@@@@@@@@@@XXXX************%%%%%%%%%%%%%%%%%%%%%%%%%%%%%***********************XXXXXXXXXXXX",
"XXXXXXXXXX......................@@@@@@@@@@@@@XXXXXX************%%%%%%%%%%%%%%%%%%%%%%%%%%%%%%%%%%%*******************XXXXXXXXXXX",
"XXXXXXXXX.......................@@@@@@@@@XXXXXXXXXX***********%%%%%%%%%%%%%%%%%%%%%%%%%%%%%%%%%%%%%*******************XXXXXXXXXX",
"XXXXXXXX........................@@@@XXXXXXXXXXXXXXX***********%%%%%%%%%%%%%%%%%%%%%%%%%%%%%%%%%%%%%%%%*****************XXXXXXXXX",
"XXXXXXXX........................XXXXXXXXXXXXXXXXXX***********%%%%%%%%%%%%%%%%%%%%%%%%%%%%%%%%%%%%%%%%%%%%***************XXXXXXXX",
"XXXXXXXX........................XXXXXXXXXXXXXXXXXX************%%%%%%%%%%%%%%%%%%%%%%%%%%%%%%%%%%%%%%%%%%%%***************XXXXXXX",
"XXXXXXXX........................XXXXXXXXXXXXXXXXXX*************%%%%%%%%%%%%%%%%%%%%%%%%%%%%%%%%%%%%%%%%%%%%%**************XXXXXX",
"XXXXXXXX.......................XXXXXXXXXXXXXXXXXXX**************%%%%%%%%%%%%%%%%%%%%%%%%%%%%%%%%%%%%%%%%%%%%%*************XXXXXX",
"XXXXXXXX......................XXXXXXXXXXXXXXXXXXXX***************%%%%%%%%%%%%%%%%%%%%%%%%%%%%%%%%%%%%%%%%%%%%%*************XXXXX",
"XXXXXXXX.....................XXXXXXXXXXXXXXXXXXXXX***************%%%%%%%%%%%%%%%%%%%%%%%%%%%%%%%%%%%%%%%%%%%%%%*************XXXX",
"XXXXXXXXX.................XXXXXXXXXXXXXXXXXXXXXXXX***************%%%%%%%%%%%%%%%%%%%%%%%%%%%%%%%%%%%%%%%%%%%%%%%************XXXX",
"XXXXXXXXXX...............XXXXXXXXXXXXXXXXXXXXXXXXXX**************%%%%%%%%%%%%%%%%%%%%%%%%%%%%%%%%%%%%%%%%%%%%%%%%************XXX",
"XXXXXXXXXXX..........XXXXXXXXXXXXXXXXXXXXXXXXXXXXXXX*************%%%%%%%%%%%%%%%%%%%%%%%%%%%%%%%%%%%%%%%%%%%%%%%%%************XX",
"XXXXXXXXXXXXX.......XXXXXXXXXXXXXXXXXXXXXXXXXXXXXXX*************%%%%%%%%%%%%%%%%%%%%%%%%%%%%%%%%%%%%%%%%%%%%%%%%%%************XX",
"XXXXXXXXXXXXXX.....XXXXXXXXXXXXXXXXXXXXXXXXXXXXXXX*************%%%%%%%%%%%%%%%%%%%%%%%%%%%%%%%%%%%%%%%%%%%%%%%%%%%%***********XX",
"XXXXXXXXXXXXXXXXXXXXXXXXXXXXXXXXXXXXXXXXXXXXXXXXX*************%%%%%%%%%%%%%%%%%%%%%%%%%%%%%%%%%%%%%%%%%%%%%%%%%%%%%%**********XX",
"XXXXXXXXXXXXXXXXXXXXXXXXXXXXXXXXXXXXXXXXXXXXXXXXX*************%%%%%%%%%%%%%%%%%%%%%%%%%%%%%%%%%%%%%%%%%%%%%%%%%%%%%%%**********X",
"XXXXXXXXXXXXXXXXXXXXXXXXXXXXXXXXXXXXXXXXXXXXXXXXX**************%%%%%%%%%%%%%%%%%%%%%%%%%%%%%%%%%%%%%%%%%%%%%%%%%%%%%%%**********",
"XXXXXXXXXXXXXXXXXXXXXXXXXXXXXXXXXXXXXXXXXXXXXXXXX***************%%%%%%%%%%%%%%%%%%%%%%%%%%%%%%%%%%%%%%%%%%%%%%%%%%%%%%%*********",
"XXXXXXXXXXXXXXXXXXXXXXXXXXXXXXXXXXXXXXXXXXXXXXXXX****************%%%%%%%%%%%%%%%%%%%%%%%%%%%%%%%%%%%%%%%%%%%%%%%%%%%%%%*********",
"XXXXXXXXXXXXXXXXXXXXXXXXXXXXXXXXXXXXXXXXXXXXXXXXX*****************%%%%%%%%%%%%%%%%%%%%%%%%%%%%%%%%%%%%%%%%%%%%%%%%%%%%%*********",
"XXXXXXXXXXXXXXXXXXXXXXXXXXXXXXXXXXXXXXXXXXXXXXXXXX****************%%%%%%%%%%%%%%%%%%%%%%%%%%%%%%%%%%%%%%%%%%%%%%%%%%%%%*********",
"XXXXXXXXXXXXXXXXXXXXXXXXXXXXXXXXXXXXXXXXXXXXXXXXXXX***************%%%%%%%%%%%%%%%%%%%%%%%%%%%%%%%%%%%%%%%XX%%%%%%%%%%%%%********"
};
