/* XPM */
static char *south2[] = {
/* columns rows colors chars-per-pixel */
"128 128 15 1 ",
"  c black",
". c #323C39",
"X c #595652",
"o c #696A6A",
"O c #AC3232",
"+ c #DF7126",
"@ c #37946E",
"# c #FBF236",
"$ c #76428A",
"% c #5B6EE1",
"& c #847E87",
"* c #D77BBA",
"= c #5FCDE4",
"- c #9BADB7",
"; c white",
/* pixels */
"OOOOOOOOOOOOOOOOOOOOOOOOOOOOOOOOOOOOOOOOOOOOOOOOOOOOOOOOOOOOOOOOOOOOOOOOOOOOOOOOOOOOOOOOOOOOOOOOOOOOOOOOOOOOOOOOOOOOOOOOOOOOOOOO",
"OOOOOOOOOOOOOOOOOOOOOOOOOOOOOOOOOOOOOOOOOOOOOOOOOOOOOOOOOOOOOOOOOOOOOOOOOOOOOOOOOOOOOOOOOOOOOOOOOOOOOOOOOOOOOOOOOOOOOOOOOOOOOOOO",
"OOOOOOOOOOOOOOOOOOOOOOOOOOOOOOOOOOOOOOOOOOOOOOOOOOOOOOOOOOOOOOOOOOOOOOOOOOOOOOOOOOOOOOOOOOOOOOOOOOOOOOOOOOOOOOOOOOOOOOOOOOOOOOOO",
"OOOOOOOOOOOOOOOOOOOOOOOOOOOOOOOOOOOOOOOOOOOOOOOOOOOOOOOOOOOOOOOOOOOOOOOOOOOOOOOOOOOOOOOOOOOOOOOOOOOOOOOOOOOOOOOOOOOOOOOOOOOOOOOO",
"OOOOOOOOOOOOOOOOOOOOOOOOOOOOOOOOOOOOOOOOOOOOOOOOOOOOOOOOOOOOOOOOOOOOOOOOOOOOOOOOOOOOOOOOOOOOOOOOOOOOOOOOOOOOOOOOOOOOOOOOOOOOOOOO",
"OOOOOOOOOOOOOOOOOOOOOOOOOOOOOOOOOOOOOOOOOOOOOOOOOOOOOOOOOOOOOOOOOOOOOOOOOOOOOOOOOOOOOOOOOOOOOOOOOOOOOOOOOOOOOOOOOOOOOOOOOOOOOOOO",
"OOOOOOOOOOOOOOOOOOOOOOOOOOOOOOOOOOOOOOOOOOOOOOOOOOOOOOOOOOOOOOOOOOOOOOOOOOOOOOOOOOOOOOOOOOOOOOOOOOOOOOOOOOOOOOOOOOOOOOOOOOOOOOOO",
"OOOOOOOOOOOOOOOOOOOOOOOOOOOOOOOOOOOOOOOOOOOOOOOOOOOOOOOOOOOOOOOOOOOOOOOOOOOOOOOOOOOOOOOOOOOOOOOOOOOOOOOOOOOOOOOOOOOOOOOOOOOOOOOO",
"OOOOOOOOOOOOOOOOOOOOOOOOOOOOOOOOOOOOOOOOOOOOOOOOOOOOOOOOOOOOOOOOOOOOOOOOOOOOOOOOOOOOOOOOOOOOOOOOOOOOOOOOOOOOOOOOOOOOOOOOOOOOOOOO",
"OOOOOOOOOOOOOOOOOOOOOOOOOOOOOOOOOOOOOOOOOOOOOOOOOOOOOOOOOOOOOOOOOOOOOOOOOOOOOOOOOOOOOOOOOOOOOOOOOOOOOOOOOOOOOOOOOOOOOOOOOOOOOOOO",
"OOOOOOOOOOOOOOOOOOOOOOOOOOOOOOOOOOOOOOOOOOOOOOOOOOOOOOOOOOOOOOOOOOOOOOOOOOOOOOOOOOOOOOOOOOOOOOOOOOOOOOOOOOOOOOOOOOOOOOOOOOOOOOOO",
"OOOOOOOOOOOOOOOOOOOOOOOOOOOOOOOOOOOOOOOOOOOOOOOOOOOOOOOOOOOOOOOOOOOOOOOOOOOOOOOOOOOOOOOOOOOOOOOOOOOOOOOOOOOOOOOOOOOOOOOOOOOOOOOO",
"OOOOOOOOOOOOOOOOOOOOOOOOOOOOOOOOOOOOOOOOOOOOOOOOOOOOOOOOOOOOOOOOOOOOOOOOOOOOOOOOOOOOOOOOOOOOOOOOOOOOOOOOOOOOOOOOOOOOOOOOOOOOOOOO",
"OOOOOOOOOOOOOOOOOOOOOOOOOOOOOOOOOOOOOOOOOOOOOOOOOOOOOOOOOOOOOO&&&&&&OOOOOOOOOOOOOOOOOOOOOOOOOOOOOOOOOOOOOOOOOOOOOOOOOOOOOOOOOOOO",
"OOOOOOOOOOOOOOOOOOOOOOOOOOOOOOOOOOOOOOOOOOOOOOOOOOOOOOOOOOOO&&ooo&&&&OOOOOOOOOOOOOOOOOOOOOOOOOOOOOOOOOOOOOOOOOOOOOOOOOOOOOOOOOOO",
"OOOOOOOOOOOOOOOOOOOOOOOOOOOOOOOOOOOOOOOOOOOOOOOOOOOOOOOOOOO&&ooooo&&&&OOOOOOOOOOOOOOOOOOOOOOOOOOOOOOOOOOOOOOOOOOOOOOOOOOOOOOOOOO",
"OOOOOOOOOOOOOOO.....OOOOOOOOOOOOOOOOOOOOOOOOOOOOOOOOOOOOOO&&&oooooo&&&&OOOOOOOOOOOOOOOOOOOOOOOOOOOOOOOOOOOOOOOOOOOOOOOOOOOOOOOOO",
"OOOOOOOOOOOOO........OOOOOOOOOOOOOOOOOOOOOOOOOOOOOOOOOOOO&ooooooooo&&&&OOOOOOOOOOOOOOOOOOOOOOOOOOOOOOOOOOOOOOOOOOOOOOOOOOOOOOOOO",
"OOOOOOOOOOOO..........OOOOOOOOOOOOOOOOOOOOOOOOOOOOOOOOOO&ooooooooooo&&&OOOOOOOOOOOOOOOOOOOOOOOOOOOOOOO&&&&&&&&&&&OOOOOOOOOOOOOOO",
"OOOOOOOOOOOO..........OOOOOOOOOOOOOOOOOOOOOOOOOOOOOOOOO&&oooooooooooo&&&OOOOOOOOOOOOOOOOOOOOOOOOOOOOO&&&&&&&&&&&&&&&&&&&&&&OOOOO",
"OOOOOOOOOOOO..........OOOOOOOOOO...OOOOOOOOOOOOOOOOOOOO&&&oo---ooooooo&&OOOOOOOOOOOOOOOOOOOOOOOOOOOO&&&&&&&&&-------&&&&&&&&OOOO",
"OOOOOOOOOOOO...........OOOOOOOO.....OOOOOOOOOOOOOOOOOOO&&-o-----ooooooo&&OOOOOOOOOOOOOOOOOOOOOOOOOO&&&&&&&&&---------&&&&&&&&OOO",
"OOOOOOOOOOOO............OOOOOOO.....OOOOOOOOOOOOOOOOOOO&&-o------ooooooo&OOOOOOOOOOOOOOOOOOOOOOOOOO&&&&&&&&-----------&&&&&&&&OO",
"OOOOOOOOOOOO............OOOOOO......OOOOOOOOOOOOOOOOOOO&&oo------ooooooo&&OOOOOOOOOOOOOOOOOOOOOOOO&&---------------------&&&&&&O",
"OOOOOOOOOOOO............OOOOOO......OOOOOOOOOOOOOOOOOOO&oo==----==ooooooo&&OOOOOOOOOOOOOOOOOOOOOO&&-------##---------###-##&&&&&",
"OOO...OOOOOO............OOOOO.......OOOOOOOOOOOOOOOOOO&&oo===--===-ooooooo&&OOOOOOOOOOOOOOOOOOOO&&-------###-&&&&&---######&&&&&",
"OO.....OOOOO............OOOOO.......OOOOOOOOOOOOOOOOOO&&oo====-==---oo==oo&&&OOOOOOOOOOOOOOOOOO&&-------###&&&&&&&&&--#####-&&&&",
"OO.....OOOOO...  .......OOOOO....  .OOOOOOOOOOOOOOOOOO&oXXX======---oo==oo&&&OOOOOOOOOOOOOOOOO&&&-------#######&##&&&--##---&&&&",
"OO  ...OOOOO...  .......OOOO.....  .OOOOOOOOOOOOOOOOO&&XXXXX============oo&&&&OOOOOOOOOOOOOOOO&&&-------##########X&&&-##---&&&&",
"OO  ....OOOO.............OOO........OOOOOOOOOOOOOOOOO&oXXXXXXX=========oooo&&&&OOOOOOOOOOOOOO&&&&------###XXX####XXX&&&###--&&&&",
"OO......OOOO.......  ....OOO........OOOOOOOOOOOOOOOOO&ooXXXXXX==X------oooo&&&&&OOOOOOOOOOOO&&&&&-----###XXXXXXXX--XX&&####-&&&&",
"O.......OOOO.......  ....OOO....  ..OOOOOOOOOOOOOOOOOoooooXXX===XX-----ooooo&&&&&OOOOOOOOOO&&&&&&&-######XXXXXXX----X&&&###--&&&",
"O.......OOOO.............OOO....  ..OOOOOOOOOOOOOOOO&ooooo==X===XXX----ooooo&&&&&&&OOOOOOO&&&&&&&&-#####XXXXXX-----XXX&&&----&&&",
"O.......OOOO.............OO.........OOOOOOOOOOOOOOOO&ooooo=====XXXX----ooooo&&&&&&&&&OOOOO&&&&&&&------XXXXXX-----XXXX&&&&----&&",
"O.......OOOO..............+.........++++++++++++++++&&oooo====-XXXXX--==oooo&&&&&&&&&&OOO&&&&&&&&------XXXXXX---XXXXXX&&&&&---&&",
"O.......OOOO........................++++++++++++++++&&ooooo===--XXXX--==-oooo&&&&&&&&&&O&&&&&&&&------&XXXXXX---XXX##X&&&&&&---&",
"O.  ....OOOO...................  ...+++++++++++++++&&-ooooo=========--==--ooo&&&&&&&&&&&&&&&&&&&---&&&&XX###X---XXX###&&&&&&---&",
"O.  ....OOOO.....  ............  ...+++++++++++++++&--ooooooo===========--ooo&&&&&&&&&&&&&&&&&&--&&&&&&XX###X---XXXX##X&&&&&&---",
"O........OOO.....  .................+++++++++++++++&----oooooo---X======-oooo&&&&&&&&&&&&&&&&&--&&&&&&&XX###X---XXXX##XX&&&&&---",
"O........OOO................  ......+++++++++++++++&---ooooooo---XXXXX===oooo-&&&&&&&&&&&&&&&---&&&&&&&XX##XX---XXXX##XX&&&&&&--",
"O........OOO................  .....++++++++++++++++----oooooo-----==XX===oooo--&&&&&&&&&&&&----&&&&&&&&XX###XX-XXXXX##XXX&&&&&--",
"O.........OO........  ............+++++++++++++++++----ooooo------==XXX===ooo---&&&&&&&&&&-----&&###&&&&X###XXXXXXXX##XXX--&&&&-",
"+.........++...  ...  ...........++++++++++++++++++---ooooo-------==XXX====oo----&&&&&&&&------#####&&&&&&##XXX###XX##XXX---&&&&",
"+..............  ..............++++++++++++++++++++---ooooo------===XX--====o----&&&&&&&------#####&&&&---##XXX###XX####X---&&&&",
"+.............................+++++++++++++++++++++--ooooooo-=======-----===o----&&&&&&------####&&&&&----###X###XXX######--&&&&",
"+......  ..................++++++++++++++++++++++++--ooooooo=======-------==-o---&&&&&-------###&&&&&-----#######XXXXX####--&&&&",
"++.....  ..................+++++++++++++++++++++++++-ooooo=====oo------------o---&&&&&-----####&&&&&&------#####XXXXXXXX##--&&&&",
"+++........................+++++++++++++++++++++++++&ooooo===ooooo----------oo--&&&&&&-----###----&&&---XX--####XXXXXXXX##-&&&&&",
"++++.................  ....++++++++++++++++++++++++++&-oo===ooooooooo-----oooo-&&&&&&&----###-------&XXXXXX###XXXXXXXXXX----&&&&",
"+++++................  ....+++++++++++++++++++++++++++&oo==oooooooooooooooooooo&&&&&&&----###-------XXXXXX####-XXXXXX-------&&&&",
"++++++...........  ........++++++++++++++++++++++++++++&&oooo&ooooooooooooooooo&&&&&&&----&&&&------XXXXXX##&-XXXXXX-------&&&&&",
"+++++++..........  ........+++++++++++++++++++++++++++++&&&&&&&oooooooooooooooo&&&&&&&&---&&&&&&&---XXXXXX##X-XXXXX-----XXX--&&&",
"+++++++++.........  .......+++++++++++++++++++++++++++++++&&&&&ooooooooooooooooo&&&&&&&&--&&&&&&&---XXXXX###X-XXXXX---XXXXX---&&",
"+++++++++++.......  .......+++++++++++++++++++++++++++++++++&&&&ooooooooooooo&oooo&&&&&&--&&&&&&&---XXXXX###X--XXXXX-XXXXXX-----",
"++++++++++++......  .......+++++++++++++++++++++++++++++++++++++&&&&ooooooo&&&&ooo&&&&&&--&&&&&----XXXXX###XX---XXXXXXXXXXXX----",
"++++++++++++......  .......+++++++++++++++++++++++++++++OOOOOOOOOOOOO&ooo&&&&&O&oo&&&&&&---&&&-----XXXXX###-----XXXX####XXXX----",
"++++++++++++...............+++++++++++++++++++++++++++OOOOOOOOOOOOOOOOooo&&&&OO&&&&&&&&&---&&&-----XXXXXXX-----XXX######XXXXX---",
"++++++++++++.............  +++++++++++++++++++++++++OOOOOOOOOOOOOOOOOOOOOOOOOOOO&&&&&&&&----&&&-----XXXXX-----XXX#####XXXXXX----",
"++++++++++++.............  +++++++++++++++++++++++OOOOOOOOOOOOOOOOOOOOOOOOOOOOOOO&&&&&&&&--&&&&&&##&XXXX----X-XXX###XXXXXXX-----",
"++++++++++++...............+++++++++++++++++++++OOOOOOOOOOOOOOOOOOOOOOOOOOOOOOOOO&&&&&&&&-&&&&&####&XXXX---XX--X###XXXXXXX----X-",
"++++++++++++...............+++++++++++++++++++OOOOOOOOOOOOOOOOOOOOOOOOOOOOOOOOOOOO&&&&&&&-&&&&#####&&XXX---XX---###XXXXXX----XX-",
"++++++++++++...............+++++++++++++++++OOOOOOOOOOOOOOOOOOOOOOOOOOOOOOOOOOOOOOO&&&&&&&&&&####&&&&&XX---XX---##XXXXXX----XXXX",
"++++++++++++...............++++++++++++++++OOOOOOOOOOOOOOOOOOOOOOOOOOOOOOOOOOOOOOOOO&&&&&&&&###&&-----XX---XX---##XXXXX----XXXXX",
"++++++++++++...............+++++++++++OOOOOOOOOOOOOOOOOOOOOOOOOOOOOOOOOOOOOOOOOOOOOOO&&&&&&###&--------X----X---##-XX-----XXXXXX",
"++++++++++++..............++++OOOOOOOOOOOOOOOOOOOOOOOOOOOOOOOOOOOOOOOOOOOOOOOOOOOOOOOO&&&&###&----------X--XX---##&&------XXXXXX",
"++++++++++++.....  .......OOOOOOOOOOOOOOOOOOOOOOOOOOOOOOOOOOOOOOOOOOOOOOOOOOOOOOOOOOOOO&&&###&----------XXXXX---##&&&----XXXXXXX",
"OOOOOOOOOOOO.....  .......OOOOOOOOOOOOOOOOOOOOOOOOOOOOOOOOOOOOOOOOOOOOOOOOOOOOOOOOOOOOOO&&&&&&&----&&&--XXXXXX--##&&&&&&&XXXXXXX",
"OOOOOOOOOOOOO............OOOOOOOOOOOOOOOOOOOOOOOOOOOOOOOOOOOOOOOOOOOOOOOOOOOOOOOOOOOOOOOO&&&&&&&&&&&&&&&&XXXXX--##&&&&&&&&XXXXXX",
"OOOOOOOOOOOOO............OOOOOOOOOOOOOOOOOOOOOOOOOOOOOOOOOOOOOOOOOOOOOOOOOOOOOOOOOOOOOOOOO&&&&&&&&&&&&&&&&XXX---##&&&&&&&&-XXXXX",
"OOOOOOOOOOOOO...........OOOOOOOOOOOOOOOOOOOOOOOOOOOOOOOOOOOOOOOOOOOOOOOOOOOOOOOOOOOOOOOOOOOO&&--&&&&&&&&&&&&&---##&&&&&&&---XXXX",
"OOOOOOOOOOOOO..........OOOOOOOOOOOOOOOOOOOOOOOOOOOOOOOOOOOOOOOOOOOOOOOOOOOOOOOOOOOOOOOOOOOOOO&&&-----&&&&&&&&&&&&&&&&&&-----&XXX",
"OOOOOOOOOOOO.........OOOOOOOOOOOOOOOOOOOOOOOOOOOOOOOOOOOOOOOOOOOOOOOOOOOOOOOOOOOOOOOOOOOOOOOOOO&&------&&&&&&&&&&&&&&&&----&&&&&",
"OOOOOOOOOOOO........OOOOOOOOOOOOOOOOOOOOOOOOOOOOOOOOOOOOOOOOOOOOOOOOOOOOOOOOOOOOOOOOOOOOOOOOOOOOO&------&&&&&&&&&&&&&&&&&&&&&&&&",
"OOOOOOOOOOOO.......OOOOOOOOOOOOOOOOOOOOOOOOOOOOOOOOOOOOOOOOOOOOOOOOOOOOOOOO++++OOOOOOOOOOOOOOOOOOOOO&&&--&&&&&&&&&&&&&&&&&&&&&&+",
"OOOOOOOOOOOOO....OOOOOOOOOOOOOOOOOOOOOOOOOOOOOOOOOOOOOOOOOOOOOOOOOOOOOO++++++++++++++++++++++++++++++++&---&&&&&&&&&&&&&&&&&&&++",
"OOOOOOOOOOOOOOOOOOOOOOOOOOOOOOOOOOOOOOOOOOOOOOOOOOOOOOOOOOOOOOOOOOOOO++++++++++++++++++++++++++++++++++++---&&&&&&&&&&&&&&&&&+++",
"OOOOOOOOOOOOOOOOOOOOOOOOOOOOOOOOOOOOOOOOOOOOOOOOOOOOOOOOOOOOOOOOOOOO+++++++++++++++++++++++++++++++++++++++++&&&&&&&&+++++++++++",
"OOOOOOOOOOOOOOOOOOOOOOOOOOOOOOOOOOOOOOOOOOOOOOOOOOOOOOOOOOOOOOOOOO+++++++++++++++++++++++++++++++++++++++++++++&&&&+++++++++++++",
"OOOOOOOOOOOOOOOOOOOOOOOOOOOOOOOOOOOOOOOOOOOOOOOOOOOOOOOOOOOOOOOO++++++++++++@++@++++++++++++++++++++++++++++++++++++++++++++++++",
"OOOOOOOOOOOOOOOOOOOOOOOOOOOOOOOOOOOOOOOOOOOOOOO;;;;;;;OO++++++++++++++++++++@++@++++++++++++++++++++++++++++++++++++++++++++++++",
"OOOOOOOOOOOOOOOOOOOOOOOOOO*********OOOOOOOOOOO;;;;;;;;++++++++++++++++++++++@@@@++++++++++++++++++++++++++++++++++++++++++++++++",
"OOOOOOOOOOOOOOOOOOOOOOOOO*******;;;OOOOOOOOO**;;;;;;;++++++++++++++++++++++++@@+++++++++++++++++++++++++++++++++++++++++++++++++",
"OOOOOOOOOOOOOOOOOOOOOOOO****OOOO;;;OOOOOO*****;;;++++++++++++++++++++++++++++@@+++++++++++++++++++++++++++++++++++++++++++++++++",
"OOOOOOOOOOOOOOOOOOOOOOOO***OOOOO;;;OOOO+*****+;;;;;++++++++++++++++++++++++++@@+++++++++++++++++++++++++++++++++++++++++++++++++",
"OOOOOOOOOOOOOOOOOOOOOOOO**OOOOOO;;;O+++****++++;;;;+++++++++++++++++++++++++%@@%++++++++++++++++++++++++++++++++++++++++++++++++",
"OOOOOOOOOOOOOOOOOOOOOOOO**OOOOOO+;;+++****+++++++++++++++++++++++++++++++++%%%%%%+++++++++++++++++++++++++++++++++++++++++++++++",
"OOOOOOOOOOOOOOOOOOOOOOOO**O+++++++++++**++++++++++++++++++++++++++++++++++%%%%%%%%++++++++++++++++++++++++++++++++++++++++++++++",
"OOOOOOOOOOOOOOOOOOOOOO++**+++++++++*** ***++++++++++++++++++++++++++++++++%%%%%%%%++++++++++++++++++++++++++++++++++++++++++++++",
"OOOOOOOOOOOOOO++++++++++****+++++*** *  **** *+++++++++++++++++++++++++++%%%%%%%%%++++++++++++++++++++++++++++++++++++++++OOOOO+",
"OOOOOOOO++++++++++++++++***** * *  * ** *******++++++++++++++++++++++++++%% %%% %%++++++++++++++++++++++++++++++++++++++OOOOOOOO",
"OOOOO+++++++++++++++++++++*** * * ** ** **** **++++++++++++++++++++++++++%%%%%%%%%++++++++++++++++++++++++++++++++++++OOOOOOOOOO",
"OOO+++++++++++++++++++++++**  * * ** ** ******+++++++++++++++++++++++++++%%%%%%%%%++++++++++++++++++++++++++++++++++OOOOOOOOOOOO",
"++++++++++++++++++++++++++*  *  * ** ** ***++++++++++++++++++++++++++++++%%%%%%%%%+++++++++++++++++++OOOOOOOOOOOOOOOOOOOOOOOOOOO",
"++++++++++++++++++++++++++              *+++++++;;;;;++++++++++++++++++++%%%%%%%%%+++++++++++++++OOOOOOOOOOOOOOOOOOOOOOOOOOOOOOO",
"++++++++++++++++++++++++++***+**++**+++***++++*;;;;;;++++++++++++++++++++%%%$$$$$$++++++++++OOOOOOOOOOOOOOOOOOOOOOOOOOOOOOOOOOOO",
"++++++++++++++++++++++++++**+***++**+++*******;;;;+++++++++++++++++++++++++%$$$$$$++++++OOOOOOOOOOOOOOOOOOOOOOOOOOOOOOOOOOOOOOOO",
"+++++OOOOOOOOOOOOOOOOOOOO***O***OO**OOOO******;;;;;;;;+++++++++++OOOOOOOOOOO%%%%%%%OOOOOOOOOOOOOOOOOOOOOOOOOOOOOOOOOOOOOOOOOOOOO",
"++OOOOOOOOOOOOOOOOOOOOOOO***O***OO***OOOOO****;;;;;;;;OOOOOOOOOOOOOOOOOOOOOO%%%%%%%OOOOOOOOOOOOOOOOOOOOOOOOOOOOOOOOOOOOOOOOOOOOO",
"OOOOOOOOOOOOOOOOOOOOOOOO***OO***OOO**OOOOOOOOOOOOO;;;OOOOOOOOOOOOOOOOOOOOOOO%%%%%$$$%OOOOOOOOOOOOOOOOOOOOOOOOOOOOOOOOOOOOOOOOOOO",
"OOOOOOOOOOOOOOOOOOOOOOOO***OOOOOOOOOOOOOOOOOOOOOOOOOOOOOOOOOOOOOOOOOOOOOOOOO%$$$$$$$$$%OOOOOOOOOOOOOOOOOOOOOOOOOOOOOOOOOOOOOOOOO",
"OOOOOOOOOOOOOOOOOOOOOOOOOOOOOOOOOOOOOOOOOOOOOOOOOOOOOOOOOOOOOOOOOOOOOOOOOOOO$$$$$$$$$$%%%%OOOOOOOOOOOOOOOOOOOOOOOOOOOOOOOOOOOOOO",
"OOOOOOOOOOOOOOOOOOOOOOOOOOOOOOOOOOOOOOOOOOOOOOOOOOOOOOOOOOOOOOOOOOOOOOOOOOOO$$$%%%%%%%%%%%OOOOOOOOOOOOOOOOOOOOOOOOOOOOOOOOOOOOOO",
"OOOOOOOOOOOOOOOOOOOOOOOOOOOOOOOOOOOOOOOOOOOOOOOOOOOOOOOOOOOOOOOOOOOOOOOOOOOOOO%%%%%%%%%%%%%OOOOOOOOOOOOOOOOOOOOOOOOOOOOOOOOOOOOO",
"OOOOOOOOOOOOOOOOOOOOOOOOOOOOOOOOOOOOOOOOOOOOOOOOOOOOOOOOOOOOOOOOOOOOOOOOOOOOOOOOOO%%%%%%%$$$OOOOOOOOOOOOOOOOOOOOOOOOOOOOOOOOOOOO",
"OOOOOOOOOOOOOOOOOOOOOOOOOOOOOOOOOOOOOOOOOOOOOOOOOOOOOOOOOOOOOOOOOOOOOOOOOOOOOOOOOOOO%%$$$$$$%OOOOOOOOOOOOOOOOOOOOOOOOOOOOOOOOOOO",
"OOOOOOOOOOOOOOOOOOOOOOOOOOOOOOOOOOOOOOOOOOOOOOOOOOOOOOOOOOOOOOOOOOOOOOOOOOOOOOOOOOOO$$$$$$$%%%OOOOOOOOOOOOOOOOOOOOOOOOOOOOOOOOOO",
"OOOOOOOOOOOOOOOOOOOOOOOOOOOOOOOOOOOOOOOOOOOOOOOOOOOOOOOOOOOOOOOOOOOOOOOOOOOOOOOOOOOO$$$$%%%%%%%%OOOOOOOOOOOOOOOOOOOOOOOOOOOOOOOO",
"OOOOOOOOOOOOOOOOOOOOOOOOOOOOOOOOOOOOOOOOOOOOOOOOOOOOOOOOOOOOOOOOOOOOOOOOOOOOOOOOOOOOOO%%%%%%%%%%%%OOOOOOOOOOOOOOOOOOOOOOOOOOOOOO",
"OOOOOOOOOOOOOOOOOOOOOOOOOOOOOOOOOOOOOOOOOOOOOOOOOOOOOOOOOOOOOOOOOOOOOOOOOOOOOOOOOOOOOOO%%%%%%%%%%$$OOOOOOOOOOOOOOOOOOOOOOOOOOOOO",
"OOOOOOOOOOOOOOOOOOOOOOOOOOOOOOOOOOOOOOOOOOOOOOOOOOOOOOOOOOOOOOOOOOOOOOOOOOOOOOOOOOOOOOOO%%%%%%$$$$$%%OOOOOOOOOOOOOOOOOOOOOOOOO++",
"OOOOOOOOOOOOOOOOOOOOOOOOOOOOOOOOOOOOOOOOOOOOOOOOOOOOOOOOOOOOOOOOOOOOOOOOOOOOOOOOOOOOOOOOOO%%$$$$$$$%%%OOOOOOOOOOOOOOOOO+++++++++",
"OOOOOOOOOOOOOOOOOOOOOOOOOOOOOOOOOOOOOOOOOOOOOOOOOOOOOOOOOOOOOOOOOOOOOOOOOOOOOOOOOOOOOOOOOO$$$$$$%%%%%%$$$OOOOOOOO+++++++++++++++",
"OOOOOOOOOOOOOOOOOOOOOOOOOOOOOOOOOOOOOOOOOOOOOOOOOOOOOOOOOOOOOOOOOOOOOOOOOOOOOOOOOOOOOOOOO$$$$$%%%%%%$$$$$+++++++++++++++++++++++",
"OOOOOOOOOOOOOOOOOOOOOOOOOOOOOOOOOOOOOOOOOOOOOOOOOOOOOOOOOOOOOOOOOOOOOOOOOOOOOOOOOOOOOOOOO$$$++%%%%%$$$$%%%%%++++++++++++++++++++",
"OOOOOOOOOOOOOOOOOOOOOOOOOOOOOOOOOOOOOOOOOOOOOOOOOOOOOOOOOOOOOOOOOOOOOOOOOOOOOOOOOOOOOOOO+++++++++%$$$$$%%%$$$%++++++++++++++++++",
"OOOOOOOOOOOOOOOOOOOOOOOOOOOOOOOOOOOOOOOOOOOOOOOO++++++++++++++++++++++++++++++++++++++++++++++++++$$$%%%%$$$$%%+++++++++++++++++",
"OOOOOOOOOOOOOOOOOOOOOOOOOOOOOOOOOOOOOOOOOOO++++++++++++++++++++++++++++++++++++++++++++++++++++++++++%%$$$$$%%%%%+++++++++++++++",
"OOOO++++++++++++++++++++++++++++++++++++++++++++++++++++++++++++++++++++++++++++++++++++++++++++++++++%$$$$%%%%%%+++++++++++++++",
"+++++++++++++++++++++++++++++++++++++++++++++++++++++++++++++++++++++++++++++++++++++++++++++++++++++++%%%%%%%%%%+++++++++++++++",
"+++++++++++++++++++++++++++++++++++++++++++++++++++++++++++++++++++++++++++++++++++++++++++++++++++++++++%%%%%%%%+++++++++++++++",
"++++++++++++++++++++++++++++++++++++++++++++++++++++++++++++++++++++++++++++++++++++++++++++++++++++++++++++%%%%%+++++++++++++++",
"++++++++++++++++++++++++++++++++++++++++++++++++++++++++++++++++++++++++++++++++++++++++++++++++++++++++++++++%%++++++++++++++++",
"++++++++++++++++++++++++++++++++++++++++++++++++++++++++++++++++++++++++++++++++++++++++++++++++++++++++++++++++++++++++++++++++",
"++++++++++++++++++++++++++++++++++++++++++++++++++++++++++++++++++++++++++++++++++++++++++++++++++++++++++++++++++++++++++++++++",
"++++++++++++++++++++++++++++++++++++++++++++++++++++++++++++++++++++++++++++++++++++++++++++++++++++++++++++++++++++++++++++++++",
"++++++++++++++++++++++++++++++++++++++++++++++++++++++++++++++++++++++++++++++++++++++++++++++++++++++++++++++++++++++++++++++++",
"++++++++++++++++++++++++++++++++++++++++++++++++++++++++++++++++++++++++++++++++++++++++++++++++++++++++++++++++++++++++++++++++",
"++++++++++++++++++++++++++++++++++++++++++++++++++++++++++++++++++++++++++++++++++++++++++++++++++++++++++++++++++++++++++++++++"
};
