/* XPM */
static char *arrow_up[] = {
/* columns rows colors chars-per-pixel */
"64 64 2 1 ",
"  c #6ABE30",
". c None",
/* pixels */
"........................               .........................",
".......................                 ........................",
".......................                  .......................",
"......................                    ......................",
".....................                      .....................",
"....................                       .....................",
"...................                         ....................",
".................                            ...................",
"................                              ..................",
"...............                                .................",
".............                                   ................",
"............                                     ...............",
"...........                                        .............",
"..........                                          ............",
".........                          .                  ..........",
".......                            ..                   ........",
".....                              ....                  .......",
"....                               .....                  ......",
"...                                ......                  .....",
".                      .           .......                  ....",
"                      ..            .......                 ....",
"                     ...            .......                  ...",
"                    ....            ........                  ..",
"                   ......           .........                  .",
"                  ........          ..........                 .",
"                 ........           ..........                  ",
"              ...........           ...........                 ",
"             ............           ............                ",
"           ..............           .............               ",
"          ...............          ...............              ",
"         ................          ................             ",
"       ..................          .................            ",
".     ..................           ..................           ",
"........................           ...................          ",
"........................           ....................         ",
"........................           ......................       ",
"........................          .........................     ",
"........................          ..............................",
"........................          ..............................",
"........................          ..............................",
"........................          ..............................",
"........................          ..............................",
"........................          ..............................",
"........................           .............................",
"........................           .............................",
"........................           .............................",
"........................           .............................",
".........................          .............................",
".........................          .............................",
".........................          .............................",
".........................          .............................",
".........................          .............................",
".........................          .............................",
".........................          .............................",
".........................          .............................",
".........................          .............................",
".........................          .............................",
".........................           ............................",
".........................           ............................",
".........................           ............................",
".........................           ............................",
"..........................         .............................",
"...........................       ..............................",
"............................     ..............................."
};
