/* XPM */
static char *wall[] = {
/* columns rows colors chars-per-pixel */
"64 64 6 1 ",
"  c #4B3C35",
". c #5F493F",
"X c #675D46",
"o c #7D7451",
"O c #968975",
"+ c #A8AD94",
/* pixels */
"++++OOOOOOOOOOOOOOOOOOOOOOOO....ooooOOOOOOOOOOOOoooooooooooo    ",
"++++OOOOOOOOOOOOOOOOOOOOOOOO....ooooOOOOOOOOOOOOoooooooooooo    ",
"++++OOOOOOOOOOOOOOOOOOOOOOOO....ooooOOOOOOOOOOOOoooooooooooo    ",
"++++OOOOOOOOOOOOOOOOOOOOOOOO....ooooOOOOOOOOOOOOoooooooooooo    ",
"OOOOOOOOooooooooooooooooOOOO....OOOOOOOOOOOOOOOOoooooooooooo    ",
"OOOOOOOOooooooooooooooooOOOO....OOOOOOOOOOOOOOOOoooooooooooo    ",
"OOOOOOOOooooooooooooooooOOOO....OOOOOOOOOOOOOOOOoooooooooooo    ",
"OOOOOOOOooooooooooooooooOOOO....OOOOOOOOOOOOOOOOoooooooooooo    ",
"OOOOooooooooooooooooooooOOOOXXXX++++OOOOOOOOOOOOOOOOOOOOOOOO....",
"OOOOooooooooooooooooooooOOOOXXXX++++OOOOOOOOOOOOOOOOOOOOOOOO....",
"OOOOooooooooooooooooooooOOOOXXXX++++OOOOOOOOOOOOOOOOOOOOOOOO....",
"OOOOooooooooooooooooooooOOOOXXXX++++OOOOOOOOOOOOOOOOOOOOOOOO....",
"ooooooooooooooooooooooooOOOOXXXXOOOOOOOOOOOOOOOOOOOOOOOOOOOOXXXX",
"ooooooooooooooooooooooooOOOOXXXXOOOOOOOOOOOOOOOOOOOOOOOOOOOOXXXX",
"ooooooooooooooooooooooooOOOOXXXXOOOOOOOOOOOOOOOOOOOOOOOOOOOOXXXX",
"ooooooooooooooooooooooooOOOOXXXXOOOOOOOOOOOOOOOOOOOOOOOOOOOOXXXX",
"OOOOooooooooooooooooooooOOOOXXXX++++OOOOOOOOOOOOOOOOOOOOOOOOXXXX",
"OOOOooooooooooooooooooooOOOOXXXX++++OOOOOOOOOOOOOOOOOOOOOOOOXXXX",
"OOOOooooooooooooooooooooOOOOXXXX++++OOOOOOOOOOOOOOOOOOOOOOOOXXXX",
"OOOOooooooooooooooooooooOOOOXXXX++++OOOOOOOOOOOOOOOOOOOOOOOOXXXX",
"OOOOOOOOooooooooooooooooOOOO....++++OOOOOOOOOOOOOOOOOOOOOOOOXXXX",
"OOOOOOOOooooooooooooooooOOOO....++++OOOOOOOOOOOOOOOOOOOOOOOOXXXX",
"OOOOOOOOooooooooooooooooOOOO....++++OOOOOOOOOOOOOOOOOOOOOOOOXXXX",
"OOOOOOOOooooooooooooooooOOOO....++++OOOOOOOOOOOOOOOOOOOOOOOOXXXX",
"++++++++OOOOOOOOOOOOOOOO++++    oooo++++++++OOOOOOOOOOOOoooo....",
"++++++++OOOOOOOOOOOOOOOO++++    oooo++++++++OOOOOOOOOOOOoooo....",
"++++++++OOOOOOOOOOOOOOOO++++    oooo++++++++OOOOOOOOOOOOoooo....",
"++++++++OOOOOOOOOOOOOOOO++++    oooo++++++++OOOOOOOOOOOOoooo....",
"........XXXXXXXXXXXX....            ....XXXXXXXXXXXX............",
"........XXXXXXXXXXXX....            ....XXXXXXXXXXXX............",
"........XXXXXXXXXXXX....            ....XXXXXXXXXXXX............",
"........XXXXXXXXXXXX....            ....XXXXXXXXXXXX............",
"ooooOOOOOOOOOOOOoooooooooooo    OOOOooooooooXXXXOOOOoooooooo....",
"ooooOOOOOOOOOOOOoooooooooooo    OOOOooooooooXXXXOOOOoooooooo....",
"ooooOOOOOOOOOOOOoooooooooooo    OOOOooooooooXXXXOOOOoooooooo....",
"ooooOOOOOOOOOOOOoooooooooooo    OOOOooooooooXXXXOOOOoooooooo....",
"OOOOOOOOOOOOOOOOoooooooooooo....OOOOooooooooXXXXOOOOoooooooo....",
"OOOOOOOOOOOOOOOOoooooooooooo....OOOOooooooooXXXXOOOOoooooooo....",
"OOOOOOOOOOOOOOOOoooooooooooo....OOOOooooooooXXXXOOOOoooooooo....",
"OOOOOOOOOOOOOOOOoooooooooooo....OOOOooooooooXXXXOOOOoooooooo....",
"OOOOOOOOOOOOOOOOOOOOoooooooo....OOOOooooooooooooOOOOOOOOOOOO    ",
"OOOOOOOOOOOOOOOOOOOOoooooooo....OOOOooooooooooooOOOOOOOOOOOO    ",
"OOOOOOOOOOOOOOOOOOOOoooooooo....OOOOooooooooooooOOOOOOOOOOOO    ",
"OOOOOOOOOOOOOOOOOOOOoooooooo....OOOOooooooooooooOOOOOOOOOOOO    ",
"ooooooooOOOOOOOOOOOOOOOOOOOO........ooooOOOOOOOOoooooooo....    ",
"ooooooooOOOOOOOOOOOOOOOOOOOO........ooooOOOOOOOOoooooooo....    ",
"ooooooooOOOOOOOOOOOOOOOOOOOO........ooooOOOOOOOOoooooooo....    ",
"ooooooooOOOOOOOOOOOOOOOOOOOO........ooooOOOOOOOOoooooooo....    ",
"ooooOOOOOOOOOOOOOOOOOOOOOOOO....OOOOOOOOOOOOOOOOOOOOOOOOOOOO    ",
"ooooOOOOOOOOOOOOOOOOOOOOOOOO....OOOOOOOOOOOOOOOOOOOOOOOOOOOO    ",
"ooooOOOOOOOOOOOOOOOOOOOOOOOO....OOOOOOOOOOOOOOOOOOOOOOOOOOOO    ",
"ooooOOOOOOOOOOOOOOOOOOOOOOOO....OOOOOOOOOOOOOOOOOOOOOOOOOOOO    ",
"OOOOOOOOOOOOOOOOOOOOOOOOOOOO    OOOOOOOOOOOOOOOOOOOOOOOOOOOO....",
"OOOOOOOOOOOOOOOOOOOOOOOOOOOO    OOOOOOOOOOOOOOOOOOOOOOOOOOOO....",
"OOOOOOOOOOOOOOOOOOOOOOOOOOOO    OOOOOOOOOOOOOOOOOOOOOOOOOOOO....",
"OOOOOOOOOOOOOOOOOOOOOOOOOOOO    OOOOOOOOOOOOOOOOOOOOOOOOOOOO....",
"oooo++++++++++++OOOOooooOOOO    ++++++++++++++++oooo++++++++....",
"oooo++++++++++++OOOOooooOOOO    ++++++++++++++++oooo++++++++....",
"oooo++++++++++++OOOOooooOOOO    ++++++++++++++++oooo++++++++....",
"oooo++++++++++++OOOOooooOOOO    ++++++++++++++++oooo++++++++....",
"........XXXXXXXXXXXX....            ........XXXXXXXX........XXXX",
"........XXXXXXXXXXXX....            ........XXXXXXXX........XXXX",
"........XXXXXXXXXXXX....            ........XXXXXXXX........XXXX",
"........XXXXXXXXXXXX....            ........XXXXXXXX........XXXX"
};
