/* XPM */
static char *west3[] = {
/* columns rows colors chars-per-pixel */
"128 128 6 1 ",
"  c #4B692F",
". c #6ABE30",
"X c #37946E",
"o c #FBF236",
"O c #8F974A",
"+ c #99E550",
/* pixels */
"oooooooooXXXXXXXX..................+++++++++XXXXXXXXXXXXOOOOXXXXXXXXXOOOOOOOOOOOOXXXXXXXXXXXXXXXXXXX   .......++++++++++++..OOOO",
"oooooooooXXXXXXXXXX.................+++++++++XXXXXXXXXXXOOOOXXXXXXXXXOOOOOOOOOOOOXXXXXXXXXXXXXXXXXXXXX .......++++++++++oooooooO",
"oooooooooXXXXXXXXXXX.................++++++++XXXXXXXXXXXOOOOXXXXXXXXXOOOOOOOOOOOOXXXXXXXXXXXXXXXXXXXXXX.......++oooooooooooooooO",
"oooooooooXXXXXXXXXXXX.................++++++++XXXXXXXXXXOOOOXXXXXXXXXOOOOOOOOOOOOXXXXXXXXXXXXXXXXXXXXXXXOooooooooooooooooooooooO",
"+ooooooooXXXXXXXXXXXX+................++++++++XXXXXXXXXXOOOOXXXXXXXXXOOOOOOOOOOOOXXX XXXXXXXXXXXXXXXXXXXXooooooooooooooooooooooO",
"++oooooooXXXXXXXXXXX+++................+++++++XXXXXXXXXXOOO+XXXXXXXXXOOOOOOOOOOOOOOOOOOXXXXXXXXXXXXXXXXXXXoooooooooooooooooooooO",
"+++ooooooXXXXXXXXXXX++++................+++++++XXXXXXXXXOO+XXXXXXXXXXOOOOOOOOOOOOOooooooXXXXXXXXXXXXXXXXXXXooooooooooooooooooooO",
"++++oooooXXXXXXXXXX++++++................++++++XXXXXXXXXO++XXXXXXXXXXOOOOOOOOOOOOooooooooXXXXXXXXXXXXXXXXXXXoooooooooooooooooooO",
"+++++ooooXXXXXXXXXX+++++++...............+++++++XXXXXXXX+++XXXXXXXXXXOOOOOOOOOOOOooooooooooXXXXXXXXXXXXXXXXXXooooooooooooooooooO",
"+++++ooooXXXXXXXXX+++++++++...............++++++XXXXXXXXOOXXXXXXXXXXXOOOOOOOOOOOOoooooooooooXXXXXXXXXXXXXXXXXXoooooooooooooooooO",
"++++++oooXXXXXXXXX++++++XXXX...............+++++XXXXXXXXOOXXXXXXXXXXXOOOOOOOOOOOOooooooooooooXXXXXXXXXXXXXXXXXXooooooooooooooooO",
"+++++++ooXXXXXXXX+++++XXXXXX...............++++++XXXXXXXooXXXXXXXXXXXOOOOOOOOOOOOooooooooooooooXXXXXXXXXXXXXXXXXoooooooooooooooO",
"++++++++oXXXXXXXX++++XXXXXXXX...............+++++XXXXXXXoXXXXXXXXXXXXOOOOOOOOOOOOoooooooooooooooXXXXXXXXXXXXXXXXXooooooooooooooO",
"+++++++++XXXXXXXX+++XXXXXXXXXX...............++++XXXXXXXoXXXXXXXXXXXXOOOOOOOOOOOOooooooooooooooooXXXXXXXXXXXXXXXXXoooooooooOOOOO",
"+++++++++XXXXXXX++++XXXXXXXXXXX..............+++++XXXXXXXXXXXXXXXXXXOOOOOOOOOOOOOoooooooooooooooooXXXXXXXXXXXXXXXXXOOOOOOOOOOOOO",
"+++++++++XXXXXXX+++XXXXXXXXXXXX...............++++XXXXXXXXXXXXXXXXXXOOOOOOOOOOOOOooooooooooooooooooXXXXXXXXXXXXXXXXXOOOOOOOOOOOO",
"oXX++++++XXXXXX++++XXXXXXXXXXXXX...............+++XXXXXXXXXXXXXXXXXXOOOOOOOOOOOOOoooooooooooooooooooXXXXXXXXXXXXXXXXXXOOOOOOoooO",
"ooXXXXX++XXXXXX++++XXXXXXXXXXXXXX..............++++XXXXXXXXXXXXXXXXXOOOOOOOOOOOOooooooooooooOOOOOOOOOXXXXXXXXXXXXXXXXXXooooooooO",
"ooooXXX..XXXXXX++++XXXXXXXXXXXXXX...............+++XXXXXXXXXXXXXXXXXOOOOOOOOOOOOoooooOOOOOOOooooooooooXXXXXXXXXXXXXXXXXXoooooooO",
"oooooXX..XXXXX++++XXXXXXXXXXXXXXXX..............XXXXXXXXXXXXXXXXXXXXOOOOOOOOOOOOOooooooooooooooooooooooXXXXXXXXXXXXXXXXXXXoooooO",
"ooooooXXXXXXXX++++XXXXXXXXXXXXXXXXX..............XXXXXXXXXXXXXXXXXXoOOOOOOOOOOOOooooooooooooooooooooooooXXXXXXXXXXXXXXXXXXXooooO",
"oooooooXXXXXXX++++XXXXXXXXXXXXXXXXX...............XXXXXXXXXXXXXXXXXOOOOOOOOOOOOOoooooooooooooooooooooooooXXXXXXXXXXXXXXXXXXXoooO",
"oooooooooXXXXX++++XXXXXXXXXXXXXXXXXX..............XXXXXXXXXXXXXXXXOoOOOOOOOOOOOOooooooooooooooooooooooooooXXXXXXXXXXXXXXXXXXXooO",
"oooooooooXXXX+++++XXXXXXXXXXXXooXXXXX..............XXXXXXXXXXXXXXXooOOOOOOOOOOOOoooooooooooooooooooooooooooXXXXXXXXXXXXXXXXXXXoO",
"oooooooooXXXX+++++XXXXXXXXXXXXooooXXX..............XXXXXXXXXXXXXXXXXOOOOOOOOOOOOooooooooooooooooooooooooooooXXXXXXXXXXXXXXXXXXoO",
"oooooooooXXXX+++++XXXXXXXXXXXXooooooXX..............XXXXXXXXXXXXXXXXXXXOOOOOOOOOoooooooooooooooooooooooooooooXXXXXXXXXXXXXXXXXXO",
"oooooooooXXXX+++++XXXXXXXXXXXXoooooooX..............XXXXXXXXXXXXXXXXXXXXXXOOOOOOoooooooooooooooooooooooooooooooXXXXXXXXXXXXXXXXO",
"oooooooooXXX++++++XXXXXXXXXXXXooooooooO..............XXXXXXXXXXXXXXXXXXXXXXXXOOOooooooooooooooooooooooooooooooooXXXXXXXXXXXXXXXO",
"oooooooooXXX++++++XXXXXXXXXXXXooooOOOOOO.............XXXXXXXXXXXXXXXXXXXXXXXXXXOoooooooooooooooooooooooooooooooooXXXXXXXXXXXXXXO",
"..oooooooXXX++++++XXXXXXXXXXXXooooOOoooo.............XXXXXXXXXXXXXXXXXXXXXXXXXXXXXooooooooooooooooooooooooooooo++++XXXXXXXXXXXXO",
".......ooXXX++++++XXXXXXXXXXXXooooooooooo............XXXXXXXXXXXXXXXXXXXXXXXXXXXXXXXooooooooooo++++++++++XXXX+++++++XXXXXXXXXXXO",
".............+++++XXXXXXXXXXXXooooooooooo.............XXXXXXXXXXXXXXXXXXXXXXXXXXXXXXXXX++++++++++++++++++XXXX+++++++XXXXXXXXXXXO",
"..................XXXXXXXXXXXXooooooooooo.............XXXXXXXXXXXXXXXXXXXXXXXXXXXXXXXXXXX+++++++++++++++++XXX++++++++XXXXXXXXXXO",
".......................XXXXXXXooooooooooo.............+XXXXXXXXXXXXXXXXXXXXXXXXXXXXXXXXXXXXX++++++++++++++XXX+++++++++XXXXXXXXXO",
".............................XXXXXXXXXXXXX.............+XXXXXXXXXXXXXXXXXXXXXXXXXXXXXXXXXXXXXX++++++++++++XXX+++++++++OXXXXXXXXO",
"..................................XXXXXXXX.............++XXXXXXXXXXXXXXXXXXXXXXXXXXXXXXXXXXXXXXXX+++++++++XXX+++++++++OXXXXXXXXO",
"......................................XXXX.............++XXXXXXXXXXXXXXXXXXXXXXXXXXXXXXXXXXXXXXXXXX+++++++XXX++++++++++OXXXXXXXO",
"..........................................X.............+XXXXXXXXXOOXXXXXXXXXXXXXXXXXXXXXXXXXXXXXXXXXX++++XXX++++++++++OOXXXXXXO",
"........................................................+XXXXXXXXXOOOOOXXXXXXXXXXXXXXXXXXXXXXXXXXXXXXXXX++XXX++++++++++OOOXXXXXO",
"........................................................++XXXXXXXXOOOOOOOOXXXXXXXXXXXXXXXXXXXXXXXXXXXXXXXXXXX++++++++++OOOOXXXXO",
".........................................................+XXXXXXXXOOOOOOOOOOXXXXXXXXXXXXXXXXXXXXXXXXXXXXXXXX+++++++++++OOOOXXXXO",
".........................................................+XXXXXXXXOOOOOOOOOOOOXXXXXXXXXXXXXXXXXXXXXXXXXXXXXXXX+++++++++OOOOOXXXO",
"XXXX........................................................XXXXXOOOOOOOOOOOOOXXXXXXXXXXXXXXXXXXXXXXXXXXXXXXXXXX+++++++OOOOOOXXO",
"XXXXXXXXXX.....................................................XXOOOOOOOOOOOOOXXXXXXXXXXXXXXXXXXXXXXXXXXXXXXXXXXXX+++++OOOOOOOXO",
"XXXXXXXXXXX++++....................................................OOOOOOOOOOOXXXXXXXXXXXXXXXXXXXXXXXXXXXXXXXXXXXXXX+++OOOOOOOXO",
"XXXXXXXXXXX+++++++XX..................................................OOOOOOOXXXXXXXXXXXXXXXXXXXXXXXXXXXXXXXXXXXXXXXXXXXOOOOOOOO",
"XXXXXXoooXX+++++++XXXXXXXX................................................OOOXXXXXXXXXXXXXXXXXXXXXXXXXXXXXXXXXXXXXXXXXXXXXXXXOOO",
"XXXooooooXX+++++++XXXXXXXXXXXXX..............................................XXXXXXXXXXXXXXXXXXXXXXXXXXXXXXXXXXXXXXXXXXXXXXXXXXO",
"XooooooooXX+++++++XXXXXXXXXXXXXXXXX..............................................XXXXXXXXXXXXXXXXXXXXXXXXXXXXXXXXXXXXXXXXXXXXXXO",
"oooooooooXX+++++++XXXXXXXXXXXXXXXXXXXXX..............................................XXXXXXXXXXXXXXXXXXXXXXXXXXXXXXXXXXXXXXXXXXO",
"ooooooooOXX+++++++XXXXXXXXXXXXXXXXXXXXXXXX...............................................XXXXXXXXXXXXXXXXXXXXXXXXXXXXXXXXXXXXXXO",
"ooooooOOOXX+++++++XXXXXXXXXXXXXXXXXXXXXXXXXXXX..............................................XXXXXXXXXXXXXXXXXXXXXXXXXXXXXXXXXXXX",
"ooooOOOOOXX+++++++XXXXXXXXXXXXXXXXXXXXXXXXXoXXX.................................................XXXXXXXXXXXXXXXXXXXXXXXXXXXXXXXX",
"ooOOOOOOOXX+++++++XXXXXXXXXXXXXXXXXXXXXXXXooXXX.....................................................XXXXXXXXXXXXXXXXXXXXXXXXXXXX",
"OOOOOOOOOXX+++++++XXXXXXXXXXXXXXXXXXXXXXoooooXX.........................................................XXXXXXXXXXXXXXXXXXXXXXXX",
"OOOOOOOOOXX+++++++XXXXXXXXXXXXXXXXXXXXXooooooXXO...........................................................XXXXXXXXXXXXXXXXXXXXX",
"OOOOOOOXXXX+++++++XXXXXXXXXXXXXXXXXXXoooooooooOO............++OO.............................................OOXXXXXXXXXXXXXXXXX",
"OOOOOXXXXXX+++++++XXXXXXXXXXXXXXXXXoooooooooooOO............++OOOOO.............................................OOOXXXXXXXXXXXXX",
"OOOXXXXXXXX+++++++XXXXXXXXXXXXXXXoooooooooooooOO.............+OOOOOOOOO............................................OOXXXXXXXXXXX",
"OXXXXXXXXXX++++++++XXXXXXXXXXXXooooooooooooooooO.............+OOOOOOOOOOOO...........................................OOXXXXXXXXX",
"XXXXXXXXXXX++++++++XXXXXXXXXXXXooooooooooooooooO..............OOOOOOOOOOOOOOOO..........................................XXXXXXXX",
"XXXXXXXXXXX++++++++XXXXXXXXXXXXooooooooooooooooOO.............OOOOOOOOOOOOOOOOOOOO.........................................XXXXX",
"XXXXXXXXXXX++++++++XXXXXXXXXXXXoooooooooooooooooO.............OOOOOOOOOOOOOOOOOOOOOOOO........................................XX",
"XXXXXXXXXXX++++++++XXXXXXXXXXXXoooooooooooooooooOO............OOOOOOOOOOOOOOOOOOOOOOOOOOO.......................................",
"XXXXXXXXXXX++++++++XXXXXXXXXXXXooooooooooooooooooO............OOOOOOOOOOOO+++++++OOOOOOOooooo...................................",
"XXXXXXXXXXXXXX+++++XXXXXXXXXXXXooooooooooooooooooO............+OOOOOOOOOOO++++++++++++ooooooooooo...............................",
"XXXXXXXXXXXXXXXX+++XXXXXXXXXXXXooooooooooooooooooO............+OOOOOOOOOOO+++++++++oooooooooooooooooo...........................",
"XXXXXXXXXXXXXXXXXXXXXXXXXXXXXXXXoooooooooooooooooo............+OOOOOOOOOO++++++++ooooooooooooooooooOOOOO........................",
"XXXXXXXXXXXXXXXXXXXXXXXXXXXXXXXXOooooooooooooooooo............+OOOOOOOOOO+++++ooooooooooooooooooooOOOOOOOO......................",
"XXXXXXXXXXXXXXXXXXXXXXXXXXXXXXXXOOoooooooooooooooo............+OOOOOOOOOO+ooooooooooooooooooooooOOOOOOOOOOOOO...................",
"XXXXXXXXXXXXXXXXXXXXXXXXXXXXXXXXOOOooooooooooooooo............+OOOOOOOOOOooooooooooooooooooooooOOOOOOOOOOOOOOOOO................",
"XXXXXXXXXXXXXXXXXXXXXXXXXXXXXXXXXXXOoooooooooooooo............+OOOOOOOOOOooooooooooooooooooooOOOOOOOOOOOOOOOOOOOOO..............",
"XXXXXXXXXXXXXXXXXXXXXXXXXXXXXXXXXXXXXXXooooooooooo............+OOOOOOOOOooooooooooooooooooooOOOOOOOOOOOOOOOOOOOOOO+++...........",
"XXXXXXXXXXXXXXXXXXXXXXXXXXXXXXXXXXXXXXXXXXoooooooo............+OOOOOOOOOooooooooooooooooooOOOOOOOOOOOOOOOOOOOOOOo+++++++........",
"O++XXXXXXXXXXXXXXXXXXXXXXXXXXXXXXXXXXXXXXXXXXooooo............+OOOOOOOOOoooooooooooooooooOOOOOOOOOOOOOOOOOOOOOOoo+++++++++O.....",
"OO+++XXXXXXXXXXXXXXXXXXXXXXXXXXXXXXXXXXXXXXXXXXXXo............+OOOOOOOOOooooooooooooooooOOOOOOOOOOOOOOOOOOOOOooooo++++++++OOOO..",
"OOO+++OOXXXXXXXXXXXXXXXXXXXXXXXXXXXXXXXXXXXXXXXXXX............+OOOOOOOOoooooooooooooooOOOOOOOOOOOOOOOOOOOOOOoooooo++++++++OOOOOO",
"OOOOOOOOOXXXXXXXXXXXXXXXXXXXXXXXXXXXXXXXXXXXXXXXXX............+OOOOOOOOooooooooooooooOOOOOOOOOOOOOOOOOOOOOoooooooo++++++++OOOOOO",
"OOOOOOOOOXX++XXXXXXXXXXXXXXXXXXXXXXXXXXXXXXXXXXXXX............+OOOOOOOOooooooooooooOOOOOOOOOOOOOOOOOOOOOOooooooooo++++++++OOOOOX",
"OOOOOOOOOXX+++++XXXXXXXXXXXXXXXXXXXXXXXXXXXXXXXXXX............+OOOOOOOOoooooooooooOOOOOO....OOOOOOOOOOOooooooooooo++++++++OXXXXX",
"OOOOOOOOOXXX++++++++XXXXXXXXXXXXXXXXXXXXXXXXXXXXXX............XXXOOOOOooooooooooOOOOOO........OOOOOOOOooooooooooooo++++XXXXXXXXX",
"OOOOOOOOOXXX+++++++++XXXXXXXXXXXXXXXXXXXXXXXXXXXXX............XXXXXXXOooooooo..OOOOO...........OOOOOXXoooooooooooooXXXXXXXXXXXXX",
"OOOOOOOOOXXXX++++++++XXXXXXXXXXXXXXXXXXXXXXXXXXXXX............XXXXXXXXXXo+...OOOOOO............OOOOXXXoooooooooXXXXXXXXXXXXXXXXX",
"OOOOOOOOOOOOO++++++++XXXXXXXXXXXXXXXXXXXXXXXXXXXXX............XXXXXXXXXXXXX.OOOOOO..............OXXXXXXooooXXXXXXXXXXXXXXXXXXXXX",
"OOOOOOOOOOOOO++++++++XXXXXXXXXXXXXooXXXXXXXXXXXXXX............XXXXXXXXXXXXXXXXXOO...............XXXXXXXXXXXXXXXXXXXXXXXXXXXXXXXX",
"OOOOOOOOOOOOO++++++++XXXXXXXXXXXXXoooooXXXXXXXXXXX............XXXXXXXXXXXXXXXXX.................XXXXXXXXXXXXXXXXXXXXXXXXXXXXXXXX",
"OOOOOOOOOOOOOO+++++++XXXXXXXXXXXXXooooooooXXXXXXXX............XXXXXXXXXXXXXXX....................XXXXXXXXXXXXXXXXXXXXXXXXXXXXXXX",
"OOOOOOOOOOOOOO++++++++XXXXXXXXXXXXooooooooooooXXXX............XXXXXXXXXXXXXX.....................XXXXXXXXXXXXXXXXXXXXXXXX+++++++",
"OOOOOOOOOOOOOO++++++++XXXXXXXXXXXXoooooooooooooooX............XXXXXXXXXXXX........................XXXXXXXXXXXX++++++++++++++++++",
"OOOOOOOOOOOOOOO+++++++XXXXXXXXXXXXOOOOOooooooooooo............XXXXXXXXXX..........................XXXXXXXX++++++++++++++++++++++",
"OOOOOOOOOOOOOOO+++++++XXXXXXXXXXXXOOOOOOOOOOoooooo............XXXXXXXX.............................XXXX+++++++++++++++++++++++++",
"OOOOOOOOOOOOOOOO++++++XXXXXXXXXXXXOOOOOOOOOOOOOOOo............XXXXXX................................X+++++++++++++++++++++++++++",
"OOOOOOOOOOOOOOOO++++++XXXXXXXXXXXXXOOOOOOOOOOOOOOO............XXX...................................XXXXX+++++++++++++++++++++++",
"XXOOOOOOOOOOOOOOO+++++XXXXXXXXXXXXXOOOOOOOOOOOOOOO............+......................................XXXXXXX++++++++++++++++++++",
"XXXXXXOOOOOOOOOOO+++++XXXXXXXXXXXXXOOOOOOOOOOOOOOO....................................................XXXXXXXXX+++++++++++++++++",
"XXXXXXXXXXOOOOOOO++++++XXXXXXXXXXXXOOOOOOOOOOOOOOO....................................XX...............XXXXXXXXXXX++++++++++++++",
"XXXXXXXXXXXXXXOOOO+++++XXXXXXXXXXXXOOOOOOOOOOOOOOO..................................XXXX................XXXXXXXXXXXXXX++++++++++",
"XXXXXXXXXXXXXXXXXX+++++XXXXXXXXXXXXOOOOOOOOOOOOOOO.................................XXXXXX...............XXXXXXXXXXXXXXXXXX++++++",
"XXXXXXXXXXXXXXXXXXX++++XXXXXXXXXXXXOOOOOOOOOOOOOOO...............................XXXXXXXXX...............XXXXXXXXXXXXXXXXXXXXX++",
"XXXXXXXXXXXXXXXXXXX++++XXXXXXXXXXXXOOOOOOOOOOOO................................OXXXXXXXXXX................XXXXXXXXXXXXXXXXXXXXXX",
"XXXXXXXXXXXXXXXXXXXX+++XXXXXXXXXXXXOOOOOOOOOO................................OOOOOOXXXoooXX................XXXXXXXXXXXXXXXXXXXXX",
"OXXXXXXXXXXXXXXXXXXXXX+XXXXXXXXXXXXXOOOOOO.................................OOOOOOOOOOOoooo++................XXXXXXXXXXXXXXXXXXXX",
"OOOXXXXXXXXXXXXXXXXXXXXXXXXXXXXXXXXXXX...................................OOOOOOOOOOOOOOOOo+++................XXXXXXXXXXXXXXXXXXX",
"OOOOOXXXXXXXXXXXXXXXXXXXXXXXXXXXXX.....................................OOOOOOOOOOOOOOOOOO+++++................XXXXXXXXXXXXXXXXXX",
"OOOOOOOXXXXXXXXXXXXXXXXXXXXXX.......................................OOOOOOOOOOOOOOOOOOO+++++++.................XXXXXXXXXXXXXXXXX",
"OOOOOOOOOOOXXXXXXXXXXXXX..........................................OOOOOOOOOOOOOOOOOOOO+++++++++.................XXXXXXXXXXXXXXXX",
"OOOOOOOOOOOOOOOOXXXX............................................OOOOOOOOOOOOOOOOOOOOO+++++++++++.................XXXXXXXXXXXXXXX",
"OOOOOOOOOOOOOOO..............................................++OOOOOOOOOOOOOOOOOOOOO+++++++++++++.................XXXXXXXXXXXXXX",
"OOOOOOOOOOO.................................................+++XXXOOOOOOOOOOOOOOOOOO++++++++++++++.................XXXXXXXXXXXXX",
"OOOOOOO.....................................................+++XXXXXXXOOOOOOOOOOOOO++++++++++++++++....................XXXXXXXXX",
"OO..........................................................+++XXXXXXXXXXXOOOOOOOOO++++++++++++++++O..................XXXXXXXXXX",
"............................................................+++XXXXXXXXXXXXXXOOOOO++++++++++++++++OOO...................XXXXXXXX",
"............................................................+++XXXXXXXXXXXXXXXXOO++++++++++++++XXXXXXX....................XXXXXX",
".............................................OO.............+++XXXXXXXXXXXXXXXXX+++++++++XXXXXXXXXXXXXX....................XXXXX",
".........................................OOOOOO.............+++OOOOOOOOOOOOOOOO++++XXXXXXXXXXXXXXXXXXXXX....................XXXX",
".....................................OOOOOOOOOO.............+++OOOOOOOOOOXXXXXXXXXXXXXXXXXXXXXXXXXXXXXXXX.....................XX",
"................................XXXXXOOOOOOOOOO............XXXXXXXXXXXXXXXXXXXXXXXXXXXXXXXXXXXXXXXXXXXXXXX.....................X",
"...........................XXXXXXXXXXOOOOOOOOOO............XXXXXXXXXXXXXXXXXXXXXXXXXXXXXXXXXXXXXXXXXXXXXXXX.....................",
".......................OOXXXXXXXXXXXXOOOOOOOOO.............XXXXXXXXXXXXXXXXXXXXXXXXXXXXXXXXXXXXXXXXXXXXXXXXX....................",
"..................OOOOOOOXXXXXXXXXXXXOOOOOXXXX.............XXXXXXXXXXXXXXXXXXXXXXXXXXXXXXXXXXXXXXXXXXXXXXXXXX...................",
"..............OOOOOOOOOOOXXXXXXXXXXXXOXXXXXXXX.............XXXXXXXXXXXXXXXXXXXXXXXXXXXXXXXXXXXXXXXXXXXXXXXXXXXX.................",
"..........XXOOOOOOOOOOOOOXXXXXXXXXXXXXXXXXXXXX............XXXXXXXXXXXXXXXXXXXXXXXXXXXXXXXXXXXXXXXXXXXXXXXXXXXXXXX...............",
".....++++XXXXOOOOOOOOOOOOXXXXXXXXXXXXXXXXXXXX.............XXXXXXXXXXXXXXXXXXXXXXXXXXXXXXXXXXXXXXXXXXXXXXXXXXXXXXXXX.............",
".oo++++++XXXXXXOOOOOOOOOOXXXXXXXXXXXXXXXXXXXX.............XXXXXXXXXXXXXXXXXXXXXXXXXXXXXXXXXXXXXXXXXXXXXXOOOOOOOOOOOO............",
"oo+++++++XXXXXXXXOOOOOOOOXXXXXXXXXXXXXXXXXXXX.............XXXXXXXXXXXXXXXXXXXXXXXXXXXXXXXXXXXXXXXXOOOOOOOOOOOOOOOOOOO...........",
"o++++OOOOXXXXXXXXXXOOOOOOXXXXXXXXXXXXXXXXXXX.............XXXXXXXXXXXXXXXXXXXXXXXXXXXXXXXXXXXOOOOOOOOOOOOOOOOOOOOOOoooo+.........",
"oOOOOOOOOXXXXXXXXXXXOOOOOXXXXXXXXXXXXXXXXXXX.............XXXXXXXXXXXXXXXXXXXXXXXXXXXXXOOOOOOOOOOOOOOO++ooooooooooooooo++........",
"OOOOOOOOOXXXXXXXXXXXXOOOOXXXXXXXXXXXXXXXXXX..............XXXXXXXXXXXXXXXXXXX+++++++XXXXOOOOOOOO+++++++ooooooooooooooo++++......."
};
