/* XPM */
static char *west[] = {
/* columns rows colors chars-per-pixel */
"128 128 14 1 ",
"  c black",
". c #323C39",
"X c #663931",
"o c #4B692F",
"O c #AC3232",
"+ c #DF7126",
"@ c #6ABE30",
"# c #37946E",
"$ c #FBF236",
"% c #D9A066",
"& c #76428A",
"* c #5B6EE1",
"= c #639BFF",
"- c white",
/* pixels */
"   ##########                                     ......                      #####                                             ",
"  ############                                    .......                     #####             ###########                     ",
" ##############       ####                       .........                    ######         ###############                    ",
"################     ######                     ..........                    #######       #################                   ",
"################# ###########                  ...........                   #########     ##################                   ",
"##############################     ###         ...........                   #########  #####################                   ",
"###############################   #####       .............                  ################################                   ",
"###############################  ########### ..............                  #################################                  ",
"#############+++############################................                 ##################################                 ",
"############+++++###########################................                 ##################################                 ",
"#######+++##+++++##########################.................                 ################OOO###############                 ",
"######+++++#+++++#########################...................                ###############OOOOO################               ",
"######+++++##+++##########################...................                ###############OOOOO#################              ",
"######+++++##############################....................                ###############OOOOO####OOO###########             ",
"#######+++###############################....................          #### #################OOO####OOOOO###########            ",
"########################################......................        ##############################OOOOO############           ",
"#############################+++#######........................       ##############################OOOOO#############          ",
"############################+++++#####.........................      ################################OOO###############         ",
"############################+++++#####.........................     ####################################################        ",
"############################+++++####..........................    ######################################################       ",
"#############################+++#####...........................   #######################################################      ",
"#################+++################............................   #######################################################      ",
"################+++++##############..............................  ###########OOO#################OOO######################     ",
"################+++++##############..............................  ##########OOOOO###############OOOOO######################    ",
"#########+++####+++++#############...............................X###########OOOOO###############OOOOO######################    ",
"########+++++####+++##############................................###########OOOOO###############OOOOO#######OOO############    ",
"########+++++####################.................................############OOO#################OOO#######OOOOO###########    ",
"########+++++####################..................................#########################################OOOOO###########    ",
"#########+++#####################...................................########################################OOOOO##########     ",
"################################.................................... ########################################OOO###########     ",
"################################....................................  ###################OOO################################    ",
"################################....................................  ##################OOOOO###############################    ",
"################################..................................... #########OOO######OOOOO###############################    ",
"###############################.......................................########OOOOO#####OOOOO###############################    ",
"###############################.......................................########OOOOO######OOO################################    ",
"########################+++####.......................................########OOOOO##################################OOO####    ",
"#####+++#########X#####+++++###.......................................#########OOO################## ###############OOOOO###    ",
"####+++++########XX####+++++###..........................===...........###########################XX################OOOOO###    ",
"####+++++########XXX###+++++###.........................=====..........##########################XXX################OOOOO###    ",
"####+++++########XXX####+++####........................======$$........########################XXXXX#################OOO####    ",
"#####+++#########XXX###########........................==   =$$$....... ######################XXXXXX########################    ",
"###########X#####XXXX##########........................===  =$$$$.......######################XXXXX#########################    ",
"###########XX###XXXXXXXX#######.......................=======$$$$........#####################XXXXX#########################    ",
"###########XXXXXXXXXXXXX#######.......................=======............ ####################XXXXX#########################    ",
"##########XXXXXXXXXXXXXX######.......................===*====............ ###################XXXXXX#########################    ",
"##########XXXXXXXXXXXXXX######......................===**=*=..............##################XXXXXX#########################     ",
"##########XXXXXXXXXXXXXX######.....................===**==*=..............###########OOO####XXXXXX#########################     ",
"##########XXXXXXXXXXXXXX######....................===**==*=...............##########OOOOO###XXXXX#########################      ",
"##########XXXXXXXXXXXXXX######....................====***==...............##########OOOOO####XXXX###########OOO###########      ",
"##########XXXXXXXXXXXXXX######.....................=====$=.................#########OOOOO####XXXX##########OOOOO#########       ",
"##########XXXXXXXXXXXXXX######.......................$..$..................##########OOO#####XXX###########OOOOO#########       ",
"#########XXXXXXXXXXXXXXXX#####.......................$..$$..................##################XX###########OOOOO########        ",
"########XXXXXXXXXXXXXXXXX#####.................X.....$...$..................##################XX############OOO######           ",
" ########XXXXXXXXXXXXXXXX ####................XXX...X$$XX$$XXXXXXX..........##################XX###################             ",
"  #######XXXXXXXXXXXXXXXX  ###...............XXXXXXXX$$$X$$XXXXXXXXXXXXXX...  ################XX#################               ",
"   ######XXXXXXXXXXXXXXXX    ................XXXXXXXXXXXXXXXXXXXXXXXXXXXX....   #############XXX################                ",
"     ###XXXXXXXXXXXXXXXXX    ...............XXXXXXXXXXXXXXXXXXXXXXXXXXXXX....    ###########XXXX##########                      ",
"        XXXXXXXXXXXXXXXXX    ..............XXXXXXXXXXXXXXXXXXXXXXXXXXXXXXX...      #########XXXX#########                       ",
"        XXXXXXXXXXXXXXXXX    .............XXXXXXXXXXXXXXXXXXXXXXXXXXXXXXXX...        ######XXXXX########                        ",
"        XXXXXXXXXXXXXXXXX   ..............XXXXXXXXXXX ................XXXX...             XXXXXX#######                         ",
"        XXXXXXXXXXXXXXXXX   ..............XXXXXXXXXXX .................XX.....            XXXXXX######                          ",
"        XXXXXXXXXXXXXXXXX   ..............XXXXXXXXXXXX..................X.....            XXXXXXX####                           ",
"       XXXXXXXXXXXXXXXXXX   .............XXXXXXXXXXXXX........................            XXXXXXXXXX                            ",
"       XXXXXXXXXXXXXXXXXX   .............XXXXXXXXXXXXX........................            XXXXXXXXXX                            ",
"       XXXXXXXXXXXXXXXXXX   ............XXXXXXXXXXXXXX.......................             XXXXXXXXXX                            ",
"       XXXXXXXXXXXXXXXXXX   ........... XXXXXXXXXXXXXX......................             XXXXXXXXXXX                            ",
"       XXXXXXXXXXXXXXXXXX   ........... XXXXXXXXXXXXXX ................                  XXXXXXXXXXX                            ",
"       XXXXXXXXXXXXXXXXX     .......... XXXXXXXXXXXXXX  ... ......                       XXXXXXXXXXX                            ",
"       XXXXXXXXXXXXXXXXX         .....  XXXXXXXXXXXXXX                                   XXXXXXXXXXX                            ",
"       XXXXXXXXXXXXXXXXX                XXXXXXXXXXXXXX                                  XXXXXXXXXXXX                            ",
"      XXXXXXXXXXXXXXXXXX                XXXXXXXXXXXXXX                                  XXXXXXXXXXXX                            ",
"      XXXXXXXXXXXXXXXXXX                XXXXXXXXXXXXXX                                  XXXXXXXXXXXX                            ",
"      XXXXXXXXXXXXXXXXX                XXXXXXXXXXXXXXX                                  XXXXXXXXXXXX                          oo",
"      XXXXXXXXXXXXXXXXX                XXXXXXXXXXXXXXX                                  XXXXXXXXXXXX                     ooooooo",
"      XXXXXXXXXXXXXXXXX                XXXXXXXXXXXXXXXX                                 XXXXXXXXXXXX                 ooooooooooo",
"      XXXXXXXXXXXXXXXXX                XXXXXXXXXXXXXXXX                                 XXXXXXXXXXXX        oooooooooooooooooooo",
"      XXXXXXXXXXXXXXXX                XXXXXXXXXXXXXXXXX                                 XXXXXXXXXXXXoooooooooooooooooooooooooooo",
"     XXXXXXXXXXXXXXXXX                XXXXXXXXXXXXXXXXX                               ooXXXXXXXXXXXXoooooooooooooooooooooooooooo",
"     XXXXXXXXXXXXXXXX                 XXXXXXXXXXXXXXXXX                         oooooooooXXXXXXXXXXXoooooooooooooooooooooooooooo",
"     XXXXXXXXXXXXXXXX                 XXXXXXXXXXXXXXXXX                 oooooooooooooooooXXXXXXXXXXXoooooooooooooooooooooooooooo",
"     XXXXXXXXXXXXXXXX                 XXXXXXXXXXXXXXXXX         oooooooooooooooooooooooooXXXXXXXXXXXoooooooooooooooooooooooooooo",
"     XXXXXXXXXXXXXXX                  XXXXXXXXXXXXXXXXXooooooooooooooooooooooooooooooooooXXXXXXXXXXXXooooooooooooooooooooooooooo",
"     XXXXXXXXXXXXXXX                 XXXXXXXXXXXXXXXXXXooooooooooooooooooooooooooooooooooXXXXXXXXXXXXooooooooooooooooooooooooooo",
"     XXXXXXXXXXXXXXX                 XXXXXXXXXXXXXXXXXXoooooooooooooooooooooooooooooooooooXXXXXXXXXXXooooooooooooooooooooooooooo",
"     XXXXXXXXXXXXXXX                 XXXXXXXXXXXXXXXXXXoooooooooooooooooooooooooooooooooooXXXXXXXXXXXooooooooooooooooooooooooooo",
"     XXXXXXXXXXXXXXX                XXXXXXXXXXXXXXXXXXXoooooooooooooooooooooooooooooooooooXXXXXXXXXXXooooooooooooooooooooooooooo",
"     XXXXXXXXXXXXXXXooooooooooooooooXXXXXXXXXXXXXXXXXXXoooooooooooooooooooooooooooooooooooXXXXXXXXXXXooooooooooooooooooooooooooo",
" ooooXXXXXXXXXXXXXXXooooooooooooooooXXXXXXXXXXXXXXXXXXXoooooooooooooooooooooooooooooooooooXXXXXXXXXXoooooooooooooooooooooooooooo",
"oooooXXXXXXXXXXXXXXXooooooooooooooooXXXXXXXXXXXXXXXXXXXooooooooooooooooooooooooooooooooooooXXXXXXXXooooooooooooooooooooooooooooo",
"oooooXXXXXXXXXXXXXXXooooooooooooooooXXXXXXXXXXXXXXXXXXXoooooooooooooooooooooooooooooooooooooXXXXXXoooooooooooooooooooooooooooooo",
"oooooXXXXXXXXXXXXXXXooooooooooooooooXXXXXXXXXXXXXXXXXXXooooooooooooooooooooooooooooooooooooooXXXXooooooooooooooooooooooooooooooo",
"oooooXXXXXXXXXXXXXXXXooooooooooooooXXXXXXXXXXXXXXXXXXXXooooooooooooooooooooooooooooooooooooooooooooooooooooooooooooooooooooooooo",
"oooooXXXXXXXXXXXXXXXXooooooooooooooXXXXXXXXXXXXXXXXXXXooooooooooooooooooooooooooooooooooooooooooooooooo@@@@@@@oooooooooooooooooo",
"oooooXXXXXXXXXXXXXXXXooooooooooooooXXXXXXXXXXXXXXXXXXXoooooooooooooooooooooooooooooooooooooooooooooooo@@@@@@@@@oooooooo@@@@ooooo",
"oooooXXXXXXXXXXXXXXXXooooooooooooooXXXXXXXXXXXXXXXXXXoooooooooooooooooooooooooooooooooooooooooooooooo@@@@@@@@@@@oooooo@@@@@@oooo",
"oooooXXXXXXXXXXXXXXXXooooooooooooooXXXXXXXXXXXXXXXXXoooooooooooooooooooooooooooooooooooooooooooooooo@@@@@@@@@@@@@oooo@@@@@@@@ooo",
"oooooXXXXXXXXXXXXXXXXooooooooooooooXXXXXXXXXXXXXXXXooooooooooooooooooooooooooooooooooooooooooooooooo@@@@@@@@@@@@@@oo@@@@@@@@@@oo",
"oooooXXXXXXXXXXXXXXXXooooooooooooooXXXXXXXXXXXXXoooooooooooooooooooooooooooooooooooooooooooooooooo@@@@@@@@@@@@@@@@@o@@@@@@@@@@@o",
"oooooXXXXXXXXXXXXXXXXooooooooooooooXXXXXXXXXXXXXooooooooooooooooooooooooooooooooooooooooooooooooo@@@@@@@@@@@@@@@@@@o@@@@@@@@@@@o",
"oooooXXXXXXXXXXXXXXXXooooooooooooooX+++XXXXXXXXXoooooooooooooooooooooooooooooooooooooooooooooooo@@@@@@@@@@@@@@@@@@@@@@@@@@@@@@@o",
"oooooXXXXXXXXXXXXXXXXooooooooooooooo+%%+XXXXXXXoooooooooooooooooooooooooooooooooooooooooooooooo@@@@@@@@@@@@@@@@@@@@@@&&@@@@@@@@o",
"oooooXXXXXXXXXXXXXXXoooooooooooooooo+%%%++XXXXoooooooooooooooooooooooooooooooooooooooooooooooo@@@@@@@@&&@@@@@@@@@@@@@&&@@@@@@@@@",
"ooooooXXXXXXXXXXXXXooooooooooooooooo+%%%++++Xoooooooooooooooooooooooooooooooooooooo@@@@@oooooo@@@@@@@@&&@@@@@@@@@@@@@@@@@@@@@@@@",
"oooooooXXXXXXXXXXXoooooooooooooooooo+%%%%++++++ooooooooooooooooooooooooooooooooooo@@@@@@@oo@@@@@@@@@@@@@@@@@@@@@@@@@@@@@@@@@@@@@",
"ooooooooXXXXXXoooooooooooooooooooooo+%%%%++++++++oooooooooooooooooooooooooooooooo@@@@@@@@@@@@@@@@@@@@@@@@@@@@@@@@@@@@@@@@@@@@@@@",
"oooooooooXXXXooooooooooooooooooooooo+%%%%+  +++++++ooooooooooooooooooooooooooooo@@@@@@@@@@@@@@@@@@@@@@@@@@@@@@@@@@@@@@@@@@@@@@@@",
"oooooooooooooooooooooooooooooooooooo++++++  +++++++  oooooooooooooooooooooooooo@@@@@@@@@@@@@@@@@@@@@@@@@@@@@@&&@@@@@@@@@@@@@@@@@",
"oooooooooooooooooooooooooooooooooooo+++++++++++++++    ooooooooooooooooooooooo@@@@@@@@@@@@@@@@@@@@@@@@@@@@@@@&&@@@@@@@@@@@@@@@@@",
"oooooooooooooooooooooooooooooooooooo+++++++++++++++    oooooooooooooooooooooo@@@@@@@@@@@@@@@@@@@@@@@@@@@@@@@@@@@@@@@@@@@@@@@@@@@",
"oooooooooooooooooooooooooooooooooooo+++++++++++++++  oooooooooooooooooooooooo@@@@@@@@&&@@@@@@@@@@@@@@@@@@@@@@@@@@@@@@@@@@@@@@@@@",
"oooooooooooooooooooooooooo++++++++++++++++++++++++ooooooooooooooooooooooooooo@@@@@@@@&&@@@@@@@@@@@@@@@@@&&@@@@@@@@@@@@&&@@@@@@@@",
"oooooooooooooooooooooooo++++++++++++++++++++++ooooooooooooooooooooooooooooooo@@@@@@@@@@@@@@@@@@@@@@@@@@@&&@@@@@@@@@@@@&&@@@@@@@@",
"oooooooooooooooooooooooo++++++++++++++++++++++ooooooooooooooooooooooooooooooo@@@@@@@@@@@@@@@@@@@@@@@@@@@@@@@@@@@@@@@@@@@@@@@@@@@",
"ooooooooooooooooooooooo+++++++++++++++++++++++oooooooooooooooooooooooooooooooo@@@@@@@@@@@@@@@@@@@@@@@@@@@@@@@@@@@@@@@@@@@@@@@@@@",
"ooooooooooooooooooooooo++++++++++++++--+------oooooooooooooooooooooooooooooooo@@@@@@@@@@@@@@@@@@@@@@@@@@@@@@@@@@@@@@@@@@@@@@@@@@",
"oooooooooooooooooooooo++++++++++++----++------oooooooooooooooooooooooooooooooo@@@@@@@@@@@@@@@@@@&&@@@@@@@@@@@@@@@@@@@@@@@@@@@@@@",
"ooooooooooooooooooooo+++++++++++-----++++-----oooooooooooooooooooooooooooooooo@@@@@@@@@@@@@@@@@@&&@@@@@@@@@@@@@@@@@@@@@@@@@@@@@@",
"ooooooooooooooooooooo+++++++++++-----+++-----ooooooooooooooooooooooooooooooooo@@@@@@@@@&&@@@@@@@@@@@@@@@@@@@@@@@@@@@@@@@@@@@@@@@",
"oooooooooooooooooooo+++++++ooo++-oo+++++o++oooooooooooooooooooooooooooooooooooo@@@@@@@@&&@@@@@@@@@@@@@@@@@@@@@@@@@@&&@@@@@@@@@@@",
"oooooooooooooooooooo+++++++ooo++ooo+++++o+++oooooooooooooooooooooooooooooooooooo@@@@@@@@@@@@@@@@@@@@@@@@@@@@@@@@@@@&&@@@@@@@@@@@",
"ooooooooooooooooooo++++++++ooo++ooo++o+++o++++ooooooooooooooooooooooooooooooooooo@@@@@@@@@@@@@@@@@@@@@@@@@@@@@&&@@@@@@@@@@@@@@@@",
"ooooooooooooooooo++++++++++ooo+++oo++++++o++++ooooooooooooooooooooooooooooooooooo@@@@@@@@@@@@@@@@@@@@@@@@@@@@@&&@@@@@@@@@@@@@@@@",
"oooooooooooooooo++++++++++oooo+++oo++++ooooooooooooooooooooooooooooooooooooooooooo@@@@@@@@@@@@@@@@@@@@@@@@@@@@@@@@@@@@@@@@@@@@@@",
"ooooooooooooo+++++++++++++oooooooooo+++ooooooooooooooooooooooooooooooooooooooooooooo@@@@@@@@@@&&@@@@@@@@@@@@@@@@@@@@@@@@@@@@@@@@",
"oooooooooooo++++++++++++ooooooooooooooooooooooooooooooooooooooooooooooooooooooooooooooo@@@@@@@&&@@@@@@@@@@@@@@@@@@@@@@@@@@&&@@@@",
"oooooooooooo++++++++++oooooooooooooooooooooooooooooooooooooooooooooooooooooooooooooooooo@@@@@@@@@@@@@@@@@@@@@@@@@@@@@@@@@@&&@@@@",
"ooooooooooooooooooooooooooooooooooooooooooooooooooooooooooooooooooooooooooooooooooooooooo@@@@@@@@@@@@@@@@@@@@@@@@@@@@@@@@@@@@@@@",
"oooooooooooooooooooooooooooooooooooooooooooooooooooooooooooooooooooooooooooooooooooooooooooo@@@@@@@@oooooo@@@@@@@@@@@@@@@@@@@@@@"
};
