/* XPM */
static char *west2[] = {
/* columns rows colors chars-per-pixel */
"128 128 13 1 ",
"  c black",
". c #3F3F74",
"X c #AC3232",
"o c #DF7126",
"O c #6ABE30",
"+ c #37946E",
"@ c #FBF236",
"# c #306082",
"$ c #5B6EE1",
"% c #D77BBA",
"& c #EEC39A",
"* c #CBDBFC",
"= c white",
/* pixels */
"#############OOO##$$$$$$%%%$$$$$$$$$$$$$$$$$$$$$$$$$$$$$$$$$$$$$$$$$$$$$$$$$$$$$$$$$$$$$$$$$$$$$$$$$$$$$$$$$$$$$$$$$$$$$$$$$$$$$",
"#############OOO#######%%%%$$$$$$$##########################OO$$$$$$$$$$$$$$$$$$$$$$$$$$$$$$$$$$$$$$$$$$$$$$$$$$$$$$$$$$$$$$$$$$",
"########OO###OOO#######%%%%#$$$$###########################OOO######$$$$$$$$$$$$$$$$$$$$$$$$$$$$$$$$$$$$$$$$$$$$$$$$$$$$$$$$$$$$",
"#######OOO##OOOO######%%%%%###############################OOOO#######%%##$$$$$$$$$$$$$$$$$$$$$$$$$$$$$$$$$$$$$$$$$$$$$$$$$$$$$$$",
"#######OOO##OOOO######%%%%%OO########%%###################OOOO#######%%OO####$$$$$$$$$$$$$$$$$$$$$$$$$$$$$$$$$$$$$$$$$$$$$$$$$$$",
"#######OOO##OOOO######%%%%%OO########%%######OO############OOO######%%%OO#########$$$$$$$$$$$$$$$$$$$$$$$$$$$$$$$$$$$$$$$$$$$$$$",
"#######OO###OOOO#####%%%%%#OO########%%######OO###########OOO######%%%%OO###############$$$$$$$$$$$$$$$$$$$$$$$$$$$$$$$$$$$$$$$$",
"######OOO##OOOOO#####%%%%%#OO########%%#####OOO%%########OOOO######%%%%OO#########%%%######OO$$$$$$$$$$$$$$$$$$$$$$$$$$$$$$$$$$$",
"######OOO##OOOO######%%%%%OOO########%%####OOO#%%######OOOOO######%%%%%OO#########%%%######OO#$$$$$$$$$$$$$$$$$$$$$$$$$$$$$$$$$$",
"######OOO##OOOO######%%%%OOOO########%%###OOOO#%%####OOOOO#######%%%%%#OO#########%%%######OO%%#$$$$$$$$$$$$$$$$$$$$$$$$$$$$$$$$",
"######OOO##OOOO######%%%OOOOO########%%##OOOOO%%%###OOOOO######%%%%%###OO#######OO%%%######OO%%####$$$$$$$$$$$$$$$$$$$$$$$$$$$$$",
"######OOOO#OOOO##OO##%%OOOOOO#######%%%##OOOO#%%%##OOOO#####%%%%%%%####OOO######OO%%%#####OOO%%#######$$$$$$$$$$$$$$$$$$$$$$$$$$",
"#######OOO#OOOO##OOO#%OOO#OO#######%%%%##OOOO#%%%##OOO#####%%%%%OOO#####OOO#####OO%OO####OOOO%##########$$$$$$$%%$$$$$$$$$$$$$$$",
"#######OOO#OOO###OOO#%OOOOOO######%%%%%##OOO##%%%##OOO####%%%%OOOOO#####OOOO####OO%OO#OOOOO%%%############$$$$%%%$$.......$$$$$$",
"#######OOOOOOO####OO#%OOOOO#######%%%%%##OOO##%%%#OOOO###%%%%OOOO########OOOO##OOOOOOOOOOO%%%%###############$%%%...........$$$$",
"#######OOOOOOO####OO#OOOOO########%%#%%##OO###%%%#OOOO###%%%OOOO##########OOOO#OOOOOOOO###%%%################%%%%............$$$",
"########OOOOOOO###OO#OOOO#########%%#%%##OO##%%%#OOOOO###%%OOO##############OOOOOO#OO#####%%%###############%%%%##............$$",
"##########OOOOO###OOOOOO%#########%%#%%##OO%%%%%#OO#OO###%OOO################OOOO##OO#####%%%###############%%%#####...........$",
"###########OOOOO##OOOOO%%#########%%%%%##OO%%%%%#OO#OO###%OOO##############OOOOOO##OO#####%%%############%%%%%%######...........",
"###########OOOOOOOOOOO#%%#########%%%%%%%OO%%%%#OOOOOO###%OO%############%OOOOOOO##OO#####%%%###########%%%%%%########..OO......",
"#############OOOOOOOO##%%%####%%%%%%%%%%%OO%%%%#OO#OO####OOO%#######%%%%%%OOOOO####OO#####%%%%######%%%%%%%%#OO########.OO......",
"###############OOOOOO###%%%%%%%%%%%%%%%%%OOO####OO#OO###OOO%%#######%%%%%%##OO#####OO#####%%%%%####%%%%%%%%%#OO#####%%##OO......",
"...#############OOOOO###%%%%%%%##########OOO####OO#OO##OOO###########%%%####OO#####OO#####%%%%%##%%%%%OO%%%##OO#####%%#OOO......",
"..$$$$$$$$$$######OOO####################OOOO###OO#OO##OO#############%%##OOOO#####OO#####%%%%%%%%%%##OO%%###OO####%%%#OOO......",
".$$$$$$$$$$$$$$$$$#OOO###################OOOO###OO#OO##OO#############%%%#OOO######OO######%%#%%%%####OO%###OOO###%%%%OOO##.....",
"$$$$$$$$$$$$$$$$$$$OOO###################OOOO###OOOOO#OOO#############%%%OOO#######OOO#####%%#%%%%####OOO##OOO%%##%%%OOO####....",
"$$$$$$$$$$$$$$$$$$$$OOO$$..##OOO#########OOOOO##OOOOO#OOO##############%%OO########OOOO%%%%%%%%%%#####OOO#OOO#%%%%%%OOOO#####...",
"$$$$$$$$$$$$$$$$$$$$OOOOOOOOOOOO..#######OOOOOO#OOOOO#OO################OOO#########OOOO%%%%%%%%%%####%OOOOOO#%%%%%OOO#########.",
"$$$$$$$$$$$$$$$$$$$$OOOOOOOOOOO.......###OO#OOOOOO#OO#OO###############OOO###########OOOO%%%%%%%%%####%OOOO###%%%%OOO###########",
"$$$$$$$$$$$$$$$$$$$$$$OO$.............#######OOOOO#OOOOO###############OO#############%OOO%%%%%%######%OOO###%%%%OOO############",
"$$$$$$$$$$$$$$$$$$$$$$$$$$$$..........#########OOO##OOOO###############OO###############OOOO##########OOO%###%%%%OO#############",
"$$$$$$$$$$$$$$$$$$$$$$$$$$$$$$........#########OOO#######################################OOOOO########OOO%%#%%%OOOO#############",
"$$$$$$$$$$$$$$$$$$$$$$$$$$$$$$$$.......#########OO##################.....................##OOOOO#####OOOO%%%%%OOOO##############",
"$$$$$$$$$$$$$$$$$$$$$$$$$$$$$$$$$$$....############################$$$......................#OOO#####OOOO%%%%OOO%%##############",
"$$$$$$$$$$$$$$$$$$$$$$$$$$$$$$$$$$$$$$.$###########################$$$$$$$$$$$$................#####OOOOO#%%%OO#%%##############",
"$$$$$$$$$$$$$$$$$$$$$$$$$$$$$$$$$$$$$$$$$#########################$$$$$$$$$$$$$$$$....XX..........##OOOOO#%%%OO#%%##############",
"$$$$$$$$$$$$$$$$$$$$$$$$$$$$$$$$$$$$$$$$$$#######################$$$$$$$$$$$$$$$$$$$.XXXXX.........OOO#OOO##%%%#%%##############",
"#####$$$$$$$$$$$$$$$$$$$$$$$$$$$$$$$$$$$$$$#####################$$$$$$$$$$$$$$$$$$$$$XXXXXXXXXX....OOO##OO%%%%%%%%##############",
"#######$$$$$$$$$$%%$$$$$$$$$$$$$$$$$$$$$$$$$###################$$$$$$$$$$$$$$$$$$$$$$XXXXXXXXXXX.......#OO%%%%%%%%##############",
"########$$$$$$$$%%%$$$$$$$$$$#######$$$$$$$$$$################$$$$$$$$$$$$$$$$$$$$====XXXXXXXXXXXXXX....OOO%%%%%%%%#############",
"#########$$$$$$$%%%$$$$$$$$%%#########$$$$$$$$$$$$$##############$$$$$$$$$$$$$$========XXXXXXXXXXXXXXX...OOO%%##%%%#############",
"##########$$$$$$%%%$$$$$$$#%%############$$$$$$$$$$$$$$$###########$$$$$$$$$$$$==============XXXXXXXXXXXX.OOO###################",
"###########$$$$$%%%$$$$$$##%%#####%%#####%%#$$$$$$$$$$$#############$$$$$$$$$$$======XX======@==XXXXXXXXXXXOOO##################",
"############$$$$%%%$$$$$##%%%#####%%#####%%###$OO$$$$$###############$$$$$$$$$$$=====XX====@@@====XXXXXXXXXOOOO#################",
"############$$$$%%%$$$$###%%%####%%%#####%%%###OO$$$$#################$$$$$$$$$$===========@=======XXXXXXXX$OOOO################",
"#############$$%%%$$$$##OO%%%####%%%##OO#%%%###OOO$$###################$$$$$$$$$===================@==XXXXX$$$OOO###############",
"#############.$%%%$$$$#OOO%%%####%%%##OO#%%%###OOO$#####################$$$$$$$$X==XX==X=X====@===@@=======$$$OOO###############",
"##############.%%%$$$##OOO%%%####%%%##OO%%%%####OO#######################$$$$$$XX==X===X=XX==@@===@========$$$$$$..#############",
"###############%%%$$$##OOO%%%####%%%##OO%%%%####OO######%%###%%%##########$$$$$==X=X=XXX=XX==@===XXX=$########$$$$$.############",
"################%%%$$###OO%%#####%%%##OO%%%%####OO######%%###%%%###########$$$$======X==XX======XXXX############$$$$.###########",
"################%%%#####OO%######%%%##OO%%%%####OO######%%###%%####OO#######$$$$$$==XX==X=======XXX##############$$$$..#########",
"################%%%%###%OOO#####%%%%##OO%%%%####OOO####%%%##%%%####OO########$$$$$$==X$$$$$$$$$XXXX###############$$$$.......###",
"#################%%%%##%%OO#####%%%%#OOO%%%%####OOO####%%###%%%####OO%########$$$$$$$$$$$$$$$$$XXX#################$$$$$....####",
"#################%%%%%%%%OOO####%%%##OOO%%%######OOO##%%%##%%%%%###OO%#########$$$$$$$$$$$$$$$$XXX##################$$$$$..#####",
"##################%%%%%%%OOOO#%%%%%##OOO%%%#######OO##%%##%%%%%%###OO%############$$$$$$$$$$$$$XX####################$$$$$######",
"###################%%%%%%%OOO%%%%%##%OOO%########%OOOO%%#%%%%#%%###OO%#####################$$$$######################$$$$$$#####",
"######################%%%%%OOO%%%%%%%OOOO########%%OOO%##%%%##%%##OOO%#OO#############################################$$$$$$####",
"#####################%%%%%%%OO%%%%%%%%OOO########%%#OOO#%%%###%%##OO%%#OOO#######%%%#####################OO############$$$$$$###",
"#####################%%%%%%%%%%%%%%%%%OOO########%%%#OOO%%%###%%##OO%%#OOO#######%%%#####%%%#############OO##############$$$$$##",
"####################%%%%%%%%%%%%%%%%%%OOOO#######%%%#%OOO%####%%%OOO%%##OO########%%#####%%%##%%#########OO###############$$$$$#",
"###################%%%%%%####%%%%%%%%%OOOO#######%%%%%%OOO####%%%OO%%###OO########%%#####%%%##%%#########OO################$$$$#",
"###################%%%%%###.########%%%%OOOO#####%%%%%%%OOOO###%%OO%%###OO########%%#####%%%##%%#########OO#################$$$$",
"##################%%%%%####...######%%%#OOOO######%%%%%##OOOOO%%%OO#####OOO#######%%####%%%%##%%%####%%%#OO####OO############$$$",
"##################%%%######.....####%%%###OOOOO###%%%%%#%%%OOOOO%OOO#####OO###OO##%%%###%%%%##%%%####%%%#OO####OO#########OO##$$",
"#################%%%%#####.........##%%####OOOOO##%%%%%%%%%%OOOO#OOO#####OO###OO##%%%###%%%%###%%####%%%#OO#OO#OO#########OO##$$",
"#################%%%######.........##%%#######OOOO#%%%%%%%%%%#OO##OO#####OO###OO##%%%##OO%%%###%%###%%%%#OO#OO#OO#########OO###$",
"#################%%%#####...........#%%%#######OOOOO%%%%%%%%######OO#####OOO##OO##%%%%#OOO%%###%%%##%%%%#OO#OO#OO#########OO###$",
"..##############%%%#####............#%%%#########OOOOOOOO%%%######OO####OOOO##OO##%%%%#OOOO%###%%%##%%%%#OO#OO#OO#########OO###$",
"...#############%%%####..............#%%%##########OOOOOO%%%############OOOOO#OO###%%%%%OOO####%%%##%%%%#OO#OO#OO#########OO####",
"$...##################................%%%###############%%%%%###########OOOOOOOOO###%%%%%OOO###%%%##%%%%#OO#OOOOO########OOO####",
"$$$$$################.................##################%%%%%##########OOO#OOOOOOO##%%%%%%OOO##%%%##%%%##OO##OOOO########OO#####",
"$$$$$$.############....................##################%%%%##########OOO##OOOOOOO##%%%%%%OOO#%%%#%%%%##OO##OOO#######OOOO#####",
"$$$$$$$.................................#################%%%%%#########OOO###OOOOOOO#%%%%%%#OOO%%%%%%%###OO##OOO######OOOO######",
"$$$$$$$$$.........................##.....################%%%%%##########OO####OOOOOOOO%%%%%##OO%%%%%%%###OO##OOO######OO########",
"$$$$$$$$$$$$.......................##.....###############%%%%%##########OOO####OOO#OOOO%%%%%%OOO%%%%%####OO##OOO###OOOOO########",
"$$$$$$$$$$$$$...................$$.........###############%%%%#######..#OOO#####OOOO#OO%%%%%%%OOOO%%%###OOO###OOOOOOOOO#########",
"$$$$$$$$$$$$$$.................$$$$$$.......###############%%%######...##OOOO####OOO#OOOO%%%%%%OOOO%%##OOO###OOOOOOOO###########",
"$$$$$$$$$$$$$$$...............$$$$$$$$$$$$$$$$#####################....###OOOO########OOOOO%%%%%OOO###OOOO###OOOOOOOO###########",
"$$$$$$$$$$$$$$$$.............$$$$$$$$$$$$$$$$$$$$################.....#####OOO#########%OOO%%%#######OOOOOOOOOOOOOOOO###########",
"$$$$$$$$$$$$$$$$$$.........$$$$$$$XXXX$$$$$$$$$$$$$$$$$...............######OOO#######%%%OOOO#######OOO##OOOOO##OOOO############",
"$$$$$$$$$$$$$$$$$$$$$$$$$$$$$$$$$XXXXXXXX$$$$$$$$$$$$$$$..............#######OO#######%%%%OOOO#####OOO##OOOO###OOOOO############",
"$$$$$$$$$$$$$$$$$$$$$$$=*$$$$$$$$XXXXXXXXXXX$$$$$$$$$$$$..............#######OOOO####%%%%%%%OOOO#OOOO###OOO####OOOOO############",
"$$$$$$$$$$$$$$$$$$$$$$$==$$$$$$$XXXXXXXXXXXXXXXX$$$$$$$$#.............########OOOOO#%%%%%%###OOOOOOO###OOOO####OOOOO############",
"$$$$$$$$$$$$$$$$$$$$$$$$$$$$$$$$XXXXXXXXXXXXXXXXXXXXXXXXXXX...........##########OOOOO%%%%%#####OOO####OOOOOO####OO##############",
"$$$$$$$$$$$$$$$$$$$$$$$$$$$$$$$$$XXXXXXXXXXXXXXXXXXXXXXXXXX...........###########OOOOO%%%%####OOOO###OOO#OOO####################",
"$$$oooo$$$$$$@+$$$$$$$$$$$$$$$$$$$$$=====XXXXXXXXXXXXXXXXX.............############OOOOO%%%###OOO####OOO#OOO####################",
"$$$$$ooo$$+@o@+@o$$$$$==$$$$$$$$$$$$==========XXXXXXXXXX=====..........#############OOOO%%%##OOO#####OOOOOO#####################",
"$$$$$$oo$$+@o@+@oo$$$$=*$$$$$$$$$$$$$$=======================...........############%%%#%%%##OO######OOOOO.#####################",
"$$$$$$ooo$++o@+@o o$$$$$$$      $$$$$$==========@=========@==............###########%%%##%%##OO######OOO.....###################",
"$$$$$$oooo@+o@+@ooo$$$$$$        $$$$$$=========@========@@===............##################OOO#########..........#############.",
"$$$$$$oooo@+o@+@oooo$$$$$   $$   $$$$$$$=======@@====@===@====............##################OO##########........................",
"$$$$$$ooo$@+o@+@ooo$$$$$$  $$$$   $$$$$$=======@====@@==========...........#################OO##########........................",
"$$$$$$oo$$$$$@+@o$$$$$$$$  $$$$   $$$$$$$$==========@==============.....###.################OO##########..#.....................",
"$$$$oooo$$$$$$$$$$$$$$$$$   $$$$  $$$$$$$$$$$$=================XXX=$$$$$$$$$############################........................",
"$$$oooo$$$$$$$$$$$$$$$$$$   $     $$$$$$$$$$$$$$==============XXXX=$$$$$$$$$$###########################........................",
"$$$$$$$$$$$$$$$$$$$$$$$$$$        $$$$$$$$$$$$$$$$$==========XXXX$$$$$$$$$$$$$##########################........................",
"$$$$$$$$$$$$$$$$$$$$$$$$$$      $$$$$$$$$$$$$$$$$$$$$$$$$$$$$XXXX$$$$$$$$$$$$$$########################.........................",
"$$$$$$$$$$$$$$$$$   $$$$$$$$   $$$$$$$$$$$$$$$$$$$$$$$$$$$$$$XXX$$$$$$$$$$$$$$$$#######################.........................",
"$$$$$$$$$$$$$$$$     $$$$$$$   $$$$$$    $$$$$$$$$$$$$$$$$$$$XXX$$$$$$$$$$$$$$$$$#####################..........................",
"$$$$$$$$$$$$$$$$     $$$$$$$   $$$$$     $$$$$$$$$$$$$$$$$$$$XXX$$$$$$$$$$$$$$$$$$###################...........................",
"$$$$$$$$$$$$$$$       $$$$$$   $$$$$      $$$$$$$$$$$$$$$$$$$XXX$$$$$$$$$$$$$$$$$$$$################............................",
"$$$$$$$$$$$$$$$       $$$$$$   $$$$$      $$$$$$$$$$$$$$$$$$$$$$$$$$$$$$$$$$$$$$$$$$$##############.............................",
"$$$$$$$$$$$$$$$       $$$$$$   $$$$$      $$$$$$$$$$$$$$$$$$$$$$$$$$$$$$$$$$$$$$$$$$$$$###########..............................",
"$$$$$$$$$$$$$$$$$$   $$$$$$$   $$$$$$$   $$$$$$$$$$$$$$$$$$$$$$$$$$$$$$$$$$$$$$$$$$$$$$$$#######................................",
"$$$$$$$$$$$$$$$$$$   $$$$$$$   $$$$$$$   $$$$$$$$$$$$$$$$$$$$$$$$$$$$$$$$$$$$$$$$$$$$$$$$$$$$...................................",
"$$$$$$$$$$$$$$$$$$    $$$$$$   $$$$$$$   $$$$$$$$$$$$$$$$$$$$$$$$$$$$$$$$$$$$$$$$$$$$$$$$$$$$$$.................................",
"$$$$$$$$$$$$$$$$$$    $$$$$$   $$$$$$    $$$$$$$$$$$$$$$$$$$$$$$$$$$$$$$$$$$$$$$$$$$$$$$$$$$$$$$$$.................$$$$.........",
"$$$$$$$$$$$$$$$$$$$    $$$$$   $$$$$$    $$$$$$$$$$$$$$$$$$$$$$$$$$$$$$$$$$$$$$$$$$$$$$$$$$$$$$$$$$$$...........$$$$$$$$$.......",
"$$$$$$$$$$$$$$$$$$$    $$$$$   $$$$$$    $$$$$$$$$$$$$$$$$$$$$$$$$$$$$$$$$$$$$$$$$$$$$$$$$$$$$$$$$$$$$$$$$$$$$$$$$$$$$$$$$$.....",
"$$$$$$$$$$$$$$$$$$$$$  $$$$$   $$$$$$    $$$$$$$$$$$$$$$$$$$$$$$$$$$$$$$$$$$$$$$$$$$$$$$$$$$$$$$$$$$$$$$$$$$$$$$$$$$$$$$$$$$$...",
"$$$$&&&&&&&&&&&&&&&&&    &&&   &&&&&    &&&&&&&&&&&&&&&&&&&&&&&&&&&&$$$$$$$$$$$$$$$$$$$$$$$$$$$$$$$$$$$$$$$$$$$$$$$$$$$$$$$$$$$.",
"&&&&&&&&&&&&&&&&&&&&&     &&   &&&&    &&&&&&&&&&&&&&&&&&&&&&&&&&&&&&&&&&&&&&&&&&&&&&&&&&&&&&$$$$$$$$$$$$$$$$$$$$$$$$$$$$$$&&&&&",
"&&&&&&&&&&&&&&&&&&&&&                 &&&&&&&&&&&&&&&&&&&&&&&&&&&&&&&&&&&&&&&&&&&&&&&&&&&&&&&&&&&&&&&&&&&&&&&&&&&&&&&&&&&&&&&&&&",
"&&&&&&&&&&&&&&&&&&&&&&&               &&&&&&&&&&&&&&&&&&&&&&&&&&&&&&&&&&&&&&&&&&&&&&&&&&&&&&&&&&&&&&&&&&&&&&&&&&&&&&&&&&&&&&&&&&",
"ooo&&&&&&&&&&&&&&&&&&&&&         &&&&&&&&&&&&&&&&&&&&&&&&&&&&&&&&&&&&&&&&&&&&&&&&&&&&&&&&&&&&&&&&&&&&&&&&&&&&X&&&&&&&&&&&&&&&&&&",
"oooooooooooooooo&&&&&&&&&&&&&&&&&&&&&&&&&&&&&oooooooo&&&&&&&&&&&&&&&&&&&&&&&&&&&&&&ooo&&&&&&&&&&&&&&&&&&&&&&XXX&&&&&&&&&&&&&&&&&",
"&&oooooooooooooo&&&&&&&&&&&&&&&&&&&&oooooooooooooooooooooo&&&&&&&&&&&&&&&&&&&&&&&ooooo&&&&&&&&&&&&&&&&&&&&&XXXXX&&&&&&&&&&&&&&&&",
"&&&&&&&&&&&&&&oooooooooooooooooooooooooooooooo&&ooo&oooooooooooo&&&&&&&&&&&&&&&&&oooo&&&&&&&&&&&&&&&&&&XXXXX X XXXXX&&&&&&&&&&&&",
"&&&&&&&&&&&&&&&oooooooooooooooooooooo&&&&&&&&&&&&&&&&&&&&oooooooooooooooooooooooooo&&&&&&&&&&&&&&&&&&&XX&&XXXXXXX&&&X&&&&&&&&&&&",
"&&&&&&&&&&&&&&&&oo&&&&&&&&&&&&&&&&&&&&&&&&&&&&&&&&&&&&&&&&&&&&&oooooooooooooooooooo&&&&&&&&&&&&&&&&&&&&&&XXXXXXXXXX&&&&&&&&&&&&&",
"&&&&&&&&&&&&&&&&&&&&&&&&&&&&&&&&&&&&&&&&&&&&&&&&&&&&&&&&&&&&&&&&&&&&&&&&&&&&&&&&&&&&&&&&&&&&&&&&&&&&&&&&X&&XX&XX&&XX&&&&&&&&&&&&",
"&&&&&&&&&&&&&&&&&&&&&&&&&&&&&&&&&&&&&&&&&&&&&&&&&&&&&&&&&&&&&&&&&&&&&&&&&&&&&&&&&&&&&&&&&&&&&&&&&&&&&&&&X&XX&&&X&&X&&&&&&&&&&&&&",
"&&&&&&&&&&&&&&&&&&&&&&&&&&&&&&&&&&&&&&&&&&&&&&&&&&&&&&&&&&&&&&&&&&&&&&&&&&&&&&&&&&&&&&&&&&&&&&&&&&&&&&&&&&XX&&XX&&X&&&&&&&&&&&&&",
"&ooooooooooo&&&&&&&&&&&&&&&&&&&&&&&&&&&&&&&&&&&&&&&&&&&&&&&&&&&&&&&&&&&&&&&&&oooooooooo&&&&&&&&&&&&&&&&&&&&X&&X&&&&&&&&&&&&&&&&&",
"&oooooooooooooooooooooooooo&&&&&&&&&ooooooo&&&&&&&&&&&&&&&&&&&&&&oooooooooooooooooooooooo&&&&&&&&&&&&&&&&&&&&&&&&&&&&&&&&&&&&&&&",
"&&&&&&&&&&&oooooooooooooooooooooooooooooooo&&&&&&&&&&&&&&&&&&&&&&ooooooooooooo&&&&&&&&ooooooooo&&&&&&&&&&&&&&&&&&&&&&&&&&&&&&&&&",
"&&&&&&&&&&&&&&&&&&&&&&&&&&oooooooooooooo&&&&&&&&&&&&&&&&&&&&&&&&&&oo&&&&&&&&&&&&&&&&&&&oooooooo&&&&&&&&&&&&&&&&&&&&&&&&&&&&&&&&&",
"&&&&&&&&&&&&&&&&&&&&&&&&&&&&&&&&&&&&&&&&&&&&&&&&&&&&&&&&&&&&&&&&&&&&&&&&&&&&&&&&&&&&&&&&&&&&&&&&&&&&&&&&&&&&&&&&&&&&&&&&&&&&&&&&"
};
